<?xml version="1.0" standalone="no"?>
<!DOCTYPE svg PUBLIC "-//W3C//DTD SVG 20010904//EN"
 "http://www.w3.org/TR/2001/REC-SVG-20010904/DTD/svg10.dtd">
<svg version="1.0" xmlns="http://www.w3.org/2000/svg"
 width="375.000000pt" height="375.000000pt" viewBox="0 0 375.000000 375.000000"
 preserveAspectRatio="xMidYMid meet">
<metadata>
Created by potrace 1.16, written by Peter Selinger 2001-2019
</metadata>
<g transform="translate(0.000000,375.000000) scale(0.100000,-0.100000)"
fill="#000000" stroke="none">
<path d="M1800 3632 c0 -16 -13 -21 -87 -31 -176 -24 -254 -42 -249 -60 2 -9
10 -38 16 -66 7 -27 16 -53 19 -57 3 -4 29 -3 56 2 118 22 113 22 119 2 7 -20
33 -21 154 -6 39 5 42 7 42 35 l0 30 63 -3 62 -3 3 -34 3 -34 54 6 c30 3 55 2
57 -1 2 -4 44 -15 93 -25 98 -20 265 -72 291 -91 15 -12 15 -15 0 -44 -23 -44
-21 -48 29 -65 l45 -16 21 41 c18 36 19 43 7 52 -8 6 -13 17 -10 24 8 25 -207
106 -378 141 -47 10 -84 22 -84 27 17 108 17 114 -9 114 -13 0 -39 3 -56 6
-27 6 -31 10 -31 40 l0 34 -115 0 c-105 0 -115 -2 -115 -18z m663 -298 c38
-15 66 -28 64 -30 -2 -2 -37 9 -78 25 -41 16 -89 32 -106 35 -18 4 -35 11 -38
16 -6 10 66 -11 158 -46z"/>
<path d="M1184 3475 c-147 -64 -347 -181 -341 -200 2 -5 -6 -17 -17 -26 -17
-14 -18 -19 -7 -32 12 -15 16 -14 42 5 16 12 29 30 29 39 0 29 166 126 335
195 72 30 98 52 70 60 -5 2 -55 -17 -111 -41z"/>
<path d="M2865 3374 c-19 -29 -20 -26 37 -61 19 -12 26 -23 23 -34 -4 -11 4
-24 21 -37 l28 -19 -38 -46 c-32 -39 -41 -45 -56 -37 -11 6 -22 15 -25 20 -4
6 -10 8 -15 5 -5 -3 -33 10 -62 30 -29 19 -58 35 -65 35 -6 0 -25 -22 -41 -48
l-30 -49 80 -52 c75 -50 80 -52 93 -35 40 59 53 69 67 56 13 -10 23 -3 59 43
24 30 47 55 52 55 4 0 53 -44 108 -97 l100 -97 35 35 35 36 -93 89 c-84 80
-196 170 -269 218 -26 16 -27 16 -44 -10z"/>
<path d="M1653 3268 c-72 -11 -84 -28 -19 -28 41 0 44 -2 51 -32 5 -18 8 -39
8 -46 -1 -9 14 -12 56 -10 49 3 56 6 59 25 3 20 10 22 80 26 l77 3 -92 2 -93
2 0 35 c0 33 -2 35 -32 34 -18 -1 -61 -6 -95 -11z"/>
<path d="M779 3213 c-13 -16 -12 -17 4 -4 9 7 17 15 17 17 0 8 -8 3 -21 -13z"/>
<path d="M1417 3214 c-3 -3 -23 -7 -44 -9 -49 -4 -113 -27 -113 -40 1 -5 7
-21 15 -35 20 -35 19 -37 -15 -55 -43 -22 -28 -38 16 -18 30 15 34 21 32 47
-3 30 -1 32 78 61 50 19 79 35 76 43 -4 12 -34 17 -45 6z"/>
<path d="M735 3180 c-4 -6 -15 -8 -24 -5 -24 7 -49 -21 -32 -38 9 -9 19 -4 43
21 18 18 30 32 26 32 -4 0 -10 -5 -13 -10z"/>
<path d="M1126 3167 c3 -10 9 -15 12 -12 3 3 0 11 -7 18 -10 9 -11 8 -5 -6z"/>
<path d="M997 3104 c-68 -47 -78 -63 -53 -83 10 -8 16 -8 25 3 6 7 38 31 71
51 64 40 67 44 48 63 -17 17 -17 17 -91 -34z"/>
<path d="M1980 3136 c0 -9 40 -13 46 -5 3 5 -6 9 -20 9 -14 0 -26 -2 -26 -4z"/>
<path d="M2140 3110 c0 -6 6 -10 13 -10 19 1 217 -63 212 -68 -2 -2 31 -21 73
-42 42 -21 101 -53 130 -72 48 -31 51 -35 39 -53 -14 -18 -15 -18 -43 2 -55
38 -161 93 -167 86 -14 -13 -5 -21 71 -65 42 -25 99 -62 126 -82 26 -21 54
-35 61 -32 16 6 39 -19 31 -33 -4 -5 -2 -12 3 -16 6 -3 8 -11 5 -18 -2 -7 4
-21 15 -31 19 -17 21 -17 49 2 56 40 57 46 12 85 -25 21 -38 40 -35 49 14 36
-199 179 -347 234 -141 52 -248 79 -248 64z"/>
<path d="M1062 3060 c-40 -28 -72 -54 -72 -59 0 -5 9 -20 20 -34 20 -26 26
-47 13 -47 -5 0 -46 -35 -93 -79 -75 -69 -83 -80 -71 -95 23 -27 44 -19 101
40 30 30 79 74 108 96 37 29 50 44 42 52 -17 17 -12 22 40 56 l50 32 -25 41
c-13 23 -28 43 -33 45 -4 1 -41 -20 -80 -48z"/>
<path d="M1763 3084 c-7 -3 -13 -15 -13 -25 0 -18 5 -19 60 -13 l60 7 0 -72 0
-71 -65 -1 c-36 -1 -71 -2 -77 -3 -7 -1 -15 10 -16 24 -2 14 -10 29 -18 33 -8
4 -14 17 -14 28 0 25 -19 22 -169 -27 -137 -45 -223 -91 -216 -114 4 -12 -3
-24 -21 -37 l-27 -20 28 -41 27 -41 36 23 c47 29 110 61 140 70 16 5 22 3 22
-7 0 -8 8 -25 18 -38 18 -21 22 -22 63 -10 24 6 62 13 84 14 38 2 40 1 45 -33
l5 -35 83 -2 c45 -1 97 -6 114 -12 17 -6 47 -8 68 -5 44 7 134 -15 231 -55
l68 -29 25 44 c24 43 24 44 5 54 -18 10 -18 13 -4 40 8 16 15 31 15 33 0 7
-91 44 -150 61 -75 21 -102 25 -197 33 -46 3 -83 10 -83 14 0 5 11 9 25 9 14
0 28 7 31 15 4 8 17 15 30 15 15 0 24 6 24 15 0 19 13 19 106 0 41 -9 79 -13
83 -10 5 3 12 19 16 36 8 36 22 43 56 30 20 -7 28 -5 36 8 9 15 4 20 -36 39
-85 39 -169 53 -331 58 -85 2 -161 1 -167 -2z"/>
<path d="M818 2952 c-134 -130 -306 -374 -276 -393 27 -17 38 -7 78 69 22 42
55 95 73 116 32 38 34 38 58 23 24 -16 25 -15 133 89 l109 106 -41 40 -40 41
-94 -91z"/>
<path d="M3123 2999 c-9 -9 2 -27 40 -73 29 -33 61 -74 72 -89 18 -24 23 -26
38 -15 17 13 16 17 -19 63 -41 55 -105 125 -114 125 -3 0 -11 -5 -17 -11z"/>
<path d="M3316 2917 l-29 -24 34 -49 c18 -27 35 -51 36 -52 3 -6 37 8 57 23
19 14 18 16 -18 70 -20 30 -40 55 -44 55 -4 0 -20 -11 -36 -23z"/>
<path d="M1083 2821 c-127 -107 -242 -247 -308 -376 -39 -73 -39 -77 -21 -90
10 -8 24 -16 29 -18 7 -2 2 -30 -12 -75 -13 -40 -22 -74 -20 -76 2 -2 13 -6
25 -10 18 -5 23 1 38 49 9 30 18 55 20 55 2 0 18 -5 36 -11 26 -9 34 -9 41 2
13 21 11 27 -11 34 -19 6 -19 8 -4 38 38 76 89 157 99 157 14 0 160 162 158
175 -1 5 18 26 42 45 25 19 45 38 45 41 0 11 -81 109 -90 109 -5 0 -35 -22
-67 -49z"/>
<path d="M3064 2862 c5 -7 32 -46 62 -85 50 -67 65 -97 46 -97 -4 0 -14 12
-23 26 -12 20 -17 23 -22 11 -3 -8 5 -31 19 -50 13 -20 24 -38 24 -41 0 -3
-18 -17 -40 -31 l-40 -25 30 -60 c17 -33 31 -63 32 -67 1 -5 9 -26 19 -47 10
-22 28 -73 41 -113 20 -63 26 -73 46 -73 15 0 26 7 29 19 2 10 19 23 36 28 25
7 31 14 29 30 -5 34 15 36 26 3 10 -27 13 -28 44 -20 18 6 34 10 35 10 2 0 30
-133 36 -173 3 -16 -1 -31 -7 -33 -13 -5 -18 -396 -4 -405 14 -9 -29 -190 -48
-204 -11 -8 -15 -19 -10 -30 9 -24 -16 -98 -72 -215 -25 -52 -47 -98 -49 -101
-3 -5 139 -79 152 -79 3 0 25 39 49 88 73 146 132 331 156 492 7 41 19 86 27
99 22 34 14 408 -9 425 -18 14 -42 138 -28 146 11 7 -15 110 -27 110 -4 0 -37
-10 -75 -22 -42 -14 -71 -18 -76 -12 -5 5 -19 38 -31 74 -30 86 -121 271 -137
277 -7 2 -30 -5 -52 -16 l-41 -21 -54 78 c-46 65 -116 144 -93 104z m280 -452
c5 -17 4 -20 -2 -10 -5 8 -13 26 -16 40 -5 17 -4 20 2 10 5 -8 13 -26 16 -40z
m210 -169 c7 -22 26 -142 26 -163 0 -12 -8 -18 -23 -18 -22 0 -25 7 -36 78 -7
42 -14 89 -17 103 -5 24 -3 26 20 22 14 -3 28 -13 30 -22z"/>
<path d="M595 2805 c-15 -21 -33 -34 -40 -31 -13 5 -75 -79 -75 -100 0 -10 59
-49 64 -42 67 90 117 175 109 187 -16 26 -29 23 -58 -14z"/>
<path d="M3040 2821 c0 -5 12 -24 27 -43 15 -18 28 -35 29 -37 2 -1 8 0 14 4
7 4 -1 21 -21 46 -29 37 -49 49 -49 30z"/>
<path d="M3027 2725 c-23 -16 -34 -30 -31 -40 8 -21 15 -19 54 14 25 21 32 33
25 40 -8 8 -22 3 -48 -14z"/>
<path d="M1177 2659 c-31 -27 -56 -54 -54 -59 3 -11 -106 -150 -118 -150 -14
0 -37 -39 -29 -51 3 -5 -2 -21 -11 -35 -19 -29 -15 -39 24 -52 29 -10 31 -9
60 43 17 30 28 60 25 68 -5 15 23 54 94 128 38 40 42 49 33 67 -10 18 -6 24
24 48 31 23 38 44 16 44 -4 0 -33 -23 -64 -51z"/>
<path d="M2916 2702 c-7 -11 70 -99 79 -90 8 7 -54 97 -67 98 -4 0 -9 -4 -12
-8z"/>
<path d="M2340 2666 c0 -2 16 -13 36 -25 19 -12 32 -16 29 -11 -7 11 -65 43
-65 36z"/>
<path d="M1365 2633 c-22 -14 -58 -41 -79 -60 -30 -25 -42 -30 -53 -22 -19 17
-48 -8 -32 -28 13 -14 12 -15 -64 -101 -36 -40 -128 -217 -140 -269 -4 -19 3
-24 56 -42 79 -27 86 -27 94 9 3 17 11 30 18 30 8 0 11 8 8 20 -4 13 0 20 9
20 26 0 26 -10 1 -88 -27 -86 -39 -182 -29 -236 11 -56 26 -43 26 23 0 32 3
73 6 90 6 31 9 32 47 29 32 -2 42 1 48 17 12 31 10 45 -6 45 -18 0 -19 9 -5
45 8 21 13 24 28 16 16 -8 22 -3 41 36 12 25 31 47 41 50 27 7 25 19 -5 39
-14 9 -25 20 -25 25 0 5 19 30 42 55 l41 45 -28 29 c-33 35 -29 42 45 90 l49
32 -42 64 c-23 35 -44 64 -47 64 -3 0 -23 -12 -45 -27z m-26 -281 c-17 -20
-47 -60 -66 -90 -24 -37 -38 -51 -45 -44 -12 12 38 105 85 159 23 26 32 31 43
22 12 -9 8 -18 -17 -47z"/>
<path d="M1720 2641 c0 -5 -11 -13 -25 -18 -43 -14 -16 -34 38 -27 41 6 47 10
47 30 0 20 -5 24 -30 24 -16 0 -30 -4 -30 -9z"/>
<path d="M1900 2605 c0 -32 2 -35 30 -35 28 0 30 3 30 35 0 32 -2 35 -30 35
-28 0 -30 -3 -30 -35z"/>
<path d="M479 2599 c-9 -17 -8 -23 2 -30 13 -7 38 21 39 44 0 16 -30 6 -41
-14z"/>
<path d="M2402 2584 l-23 -35 23 -19 c28 -24 32 -24 48 -5 8 9 21 13 36 9 16
-4 24 -2 24 6 0 12 -7 19 -60 59 l-26 19 -22 -34z"/>
<path d="M2070 2563 c0 -4 24 -17 53 -27 28 -10 58 -21 65 -23 6 -3 12 -1 12
4 0 5 -24 17 -52 28 -29 10 -59 20 -65 23 -7 2 -13 0 -13 -5z"/>
<path d="M179 2493 c-23 -60 -69 -227 -69 -249 0 -27 15 -32 28 -9 10 19 42
10 42 -11 0 -8 5 -14 10 -14 6 0 10 9 10 20 0 12 -7 20 -17 20 -45 1 -46 13
-13 121 17 57 34 114 37 127 8 32 -15 28 -28 -5z"/>
<path d="M668 2488 c0 -7 -2 -24 -3 -38 -1 -14 -5 -37 -10 -52 -14 -52 34 -23
58 35 l16 37 -30 15 c-22 12 -29 13 -31 3z"/>
<path d="M2334 2465 c-4 -9 20 -39 67 -84 57 -54 76 -67 87 -59 7 6 11 17 8
24 -3 7 1 18 9 24 11 9 22 -1 54 -49 39 -57 51 -91 32 -91 -5 0 2 -26 15 -58
29 -72 54 -167 54 -204 0 -24 -4 -28 -30 -28 -30 0 -30 -1 -30 -54 0 -29 -3
-68 -6 -85 -6 -29 -5 -31 25 -31 17 0 31 5 31 11 0 9 23 10 80 5 68 -5 80 -4
80 9 0 10 10 15 33 15 53 0 75 -10 70 -29 -3 -12 2 -20 16 -24 14 -3 21 -13
21 -29 1 -22 1 -22 13 -3 19 33 13 273 -10 385 -22 103 -63 216 -79 213 -5 -1
-17 -4 -26 -8 -12 -5 -21 2 -33 27 -25 49 -79 127 -88 128 -5 0 -24 -12 -43
-27 l-35 -26 -23 28 c-22 27 -23 28 -49 10 -31 -20 -33 -28 -11 -45 8 -8 20
-23 26 -34 11 -20 10 -20 -9 -3 -11 9 -25 17 -31 17 -6 0 -15 7 -20 16 -8 14
-10 14 -21 0 -18 -22 -34 -20 -49 4 -7 12 -17 18 -23 15 -5 -4 -25 7 -45 24
-39 34 -52 38 -60 16z m513 -272 c24 -74 38 -147 48 -235 l6 -58 -28 0 c-15 0
-45 -3 -65 -6 l-38 -7 0 40 c0 54 -17 145 -43 225 -11 37 -18 70 -15 73 4 5
72 26 109 34 3 0 15 -29 26 -66z"/>
<path d="M2824 2464 c-18 -14 -18 -15 4 -4 12 6 22 13 22 15 0 8 -5 6 -26 -11z"/>
<path d="M1777 2453 c-27 -4 -29 -7 -22 -40 6 -33 5 -35 -14 -30 -24 6 -29
-14 -7 -32 8 -6 17 -32 20 -56 8 -49 23 -67 28 -33 2 14 12 24 28 28 19 5 24
12 22 28 -3 21 0 22 67 22 56 0 71 -3 71 -15 0 -30 19 -14 26 21 8 44 -3 54
-68 54 -43 0 -47 2 -53 30 -7 32 -20 35 -98 23z"/>
<path d="M1437 2404 c-4 -4 16 -31 44 -60 43 -44 56 -51 71 -43 15 8 20 5 28
-17 9 -23 5 -31 -37 -78 -60 -65 -84 -107 -65 -114 10 -3 8 -8 -5 -17 -15 -11
-16 -16 -5 -27 11 -11 16 -10 27 5 11 15 17 16 34 8 18 -10 23 -7 44 26 14 21
33 46 44 55 19 17 21 17 43 -7 16 -17 30 -23 42 -19 13 4 25 -3 39 -20 19 -24
49 -36 49 -18 -1 17 -87 142 -94 135 -7 -7 -26 17 -27 34 -1 5 -10 21 -22 37
-20 28 -20 29 -2 42 10 8 22 14 27 14 4 0 8 7 8 15 0 18 -5 18 -30 5 -15 -8
-22 -5 -37 15 l-18 26 -47 -30 -46 -29 -28 35 c-16 19 -32 31 -37 27z"/>
<path d="M2997 2369 c-13 -8 -15 -14 -7 -30 6 -11 8 -24 5 -29 -4 -6 -1 -26 5
-45 10 -31 14 -34 38 -29 15 4 29 8 31 10 5 5 -42 134 -48 134 -3 0 -14 -5
-24 -11z"/>
<path d="M572 2298 c-28 -109 -43 -180 -39 -184 2 -3 18 -9 35 -13 35 -10 52
1 52 36 0 13 11 56 25 95 14 39 25 73 25 75 0 5 -67 33 -78 33 -5 0 -14 -19
-20 -42z"/>
<path d="M2221 2230 l-34 -29 -25 19 c-33 27 -40 25 -58 -14 -12 -25 -21 -32
-35 -29 -13 4 -19 0 -19 -11 0 -21 -25 -20 -77 3 l-41 19 -4 -34 c-2 -19 0
-34 5 -34 4 0 5 -4 2 -10 -10 -15 -35 -12 -35 5 0 8 -4 15 -10 15 -5 0 -10 -6
-10 -14 0 -8 -5 -16 -12 -18 -9 -3 -9 -12 1 -36 17 -40 40 -41 48 -2 7 38 19
46 38 27 19 -20 55 -10 55 15 0 15 5 18 19 13 14 -4 23 0 31 15 14 26 21 25
60 -9 l33 -29 31 19 c17 10 36 19 43 19 13 0 50 -60 59 -96 8 -33 19 -37 58
-24 30 10 34 15 31 40 -5 35 -29 84 -65 130 -15 19 -29 44 -31 54 -6 29 -21
28 -58 -4z"/>
<path d="M2530 2240 c-11 -7 -11 -11 -1 -24 14 -17 8 -46 -10 -46 -6 0 -13 9
-16 20 -7 26 -13 26 -84 -11 -48 -24 -59 -34 -53 -47 4 -9 15 -39 25 -67 10
-27 24 -51 32 -53 10 -2 18 -21 22 -53 6 -40 10 -49 27 -49 18 0 20 5 17 63
l-4 62 33 10 c37 11 37 9 17 66 -16 43 -10 58 21 59 11 0 54 -121 54 -152 0
-9 5 -20 10 -23 19 -12 -1 97 -32 172 -33 80 -37 86 -58 73z"/>
<path d="M3050 2220 c-19 -5 -24 -12 -22 -30 3 -31 6 -34 37 -26 15 4 25 13
25 24 0 28 -13 39 -40 32z"/>
<path d="M956 2078 c-3 -13 -9 -66 -13 -119 l-6 -96 29 -6 c15 -3 43 -3 61 0
32 5 33 5 33 -31 0 -26 -4 -36 -15 -36 -12 0 -15 -11 -13 -52 l3 -53 -35 -5
c-40 -6 -55 -36 -20 -42 17 -2 29 -21 52 -81 16 -43 36 -81 42 -83 7 -3 33 4
59 15 l46 20 -24 54 c-28 61 -55 195 -55 278 l0 57 -75 7 -75 7 6 51 c4 29 10
71 14 95 8 44 -3 59 -14 20z"/>
<path d="M57 2023 c-4 -38 -7 -96 -7 -130 0 -56 2 -63 19 -63 16 0 21 -10 26
-57 12 -112 15 -125 31 -119 9 3 31 6 50 6 30 0 34 3 30 23 -3 12 -8 50 -11
85 -5 52 -3 62 10 62 9 0 15 9 15 25 0 21 -5 25 -31 25 l-31 0 7 98 7 99 -38
6 c-72 12 -71 13 -77 -60z"/>
<path d="M3010 2066 c0 -34 14 -76 25 -76 23 0 37 28 30 60 -5 23 -12 30 -31
30 -14 0 -24 -6 -24 -14z"/>
<path d="M3205 2074 c-5 -1 -27 -5 -47 -9 -25 -4 -38 -11 -38 -22 0 -13 8 -15
45 -11 25 3 45 2 45 -3 0 -5 5 -9 10 -9 12 0 14 47 3 53 -5 2 -12 3 -18 1z"/>
<path d="M1610 2030 c-24 -47 -24 -46 -5 -54 10 -4 21 7 35 34 24 47 24 46 5
54 -10 4 -21 -7 -35 -34z"/>
<path d="M1705 2050 c-10 -17 12 -37 25 -24 8 8 6 15 -4 23 -10 9 -16 9 -21 1z"/>
<path d="M3343 2053 c-21 -8 -15 -43 7 -43 15 0 20 7 20 25 0 25 -4 28 -27 18z"/>
<path d="M1827 2023 c-4 -6 0 -19 8 -29 11 -15 14 -16 15 -4 0 21 -16 44 -23
33z"/>
<path d="M1865 2010 c-3 -5 -2 -10 4 -10 5 0 13 5 16 10 3 6 2 10 -4 10 -5 0
-13 -4 -16 -10z"/>
<path d="M1490 2000 c8 -5 20 -10 25 -10 6 0 3 5 -5 10 -8 5 -19 10 -25 10 -5
0 -3 -5 5 -10z"/>
<path d="M2026 1991 c-15 -6 -16 -10 -7 -16 11 -6 11 -9 0 -16 -7 -4 -11 -10
-8 -13 8 -9 89 26 83 35 -2 4 -11 6 -19 2 -8 -3 -15 0 -15 6 0 12 -7 13 -34 2z"/>
<path d="M3247 1993 c-24 -4 -28 -9 -25 -31 3 -24 8 -27 46 -30 l42 -3 0 -55
0 -54 45 0 c38 0 45 -3 45 -19 0 -11 5 -21 11 -23 7 -2 9 -22 4 -61 -6 -44
-11 -57 -21 -53 -8 3 -14 0 -14 -7 0 -7 -3 -22 -6 -34 -5 -18 -2 -23 14 -23
11 0 23 8 26 18 20 65 34 329 20 366 -5 13 -21 16 -83 15 -42 -1 -89 -4 -104
-6z m170 -145 c-3 -7 -5 -2 -5 12 0 14 2 19 5 13 2 -7 2 -19 0 -25z"/>
<path d="M530 1893 c0 -48 5 -127 11 -176 11 -79 14 -90 35 -98 14 -5 24 -17
24 -28 0 -18 3 -18 48 -7 39 10 47 17 50 37 4 40 -8 47 -60 40 -38 -6 -48 -5
-54 8 -3 9 -9 74 -12 145 l-5 129 52 -7 c50 -7 51 -6 51 19 0 24 -2 25 -70 25
l-70 0 0 -87z"/>
<path d="M2253 1973 c-15 -6 -17 -33 -3 -33 6 0 10 5 10 10 0 6 7 10 15 10 8
0 15 5 15 10 0 10 -16 12 -37 3z"/>
<path d="M2398 1973 c7 -3 16 -2 19 1 4 3 -2 6 -13 5 -11 0 -14 -3 -6 -6z"/>
<path d="M3003 1973 c9 -2 23 -2 30 0 6 3 -1 5 -18 5 -16 0 -22 -2 -12 -5z"/>
<path d="M2338 1963 c6 -2 18 -2 25 0 6 3 1 5 -13 5 -14 0 -19 -2 -12 -5z"/>
<path d="M1590 1951 c0 -5 7 -11 15 -15 9 -3 15 0 15 9 0 8 -7 15 -15 15 -8 0
-15 -4 -15 -9z"/>
<path d="M1946 1925 c-4 -12 -1 -16 11 -13 18 3 21 20 5 26 -5 1 -12 -4 -16
-13z"/>
<path d="M2394 1928 c-4 -6 -2 -14 4 -16 7 -2 12 -12 12 -23 0 -10 5 -19 10
-19 11 0 12 15 4 48 -7 24 -19 28 -30 10z"/>
<path d="M1830 1926 c0 -2 8 -10 18 -17 15 -13 16 -12 3 4 -13 16 -21 21 -21
13z"/>
<path d="M1880 1909 c0 -5 5 -7 10 -4 6 3 10 8 10 11 0 2 -4 4 -10 4 -5 0 -10
-5 -10 -11z"/>
<path d="M2026 1912 c-8 -13 5 -52 15 -46 12 7 12 54 0 54 -6 0 -12 -4 -15 -8z"/>
<path d="M1408 1903 c7 -3 16 -2 19 1 4 3 -2 6 -13 5 -11 0 -14 -3 -6 -6z"/>
<path d="M751 1878 c-1 -23 3 -28 22 -27 15 1 17 3 5 6 -9 2 -19 14 -21 26 -4
18 -5 17 -6 -5z"/>
<path d="M1488 1893 c7 -3 16 -2 19 1 4 3 -2 6 -13 5 -11 0 -14 -3 -6 -6z"/>
<path d="M1540 1880 c0 -16 7 -20 35 -20 28 0 35 4 35 20 0 16 -7 20 -35 20
-28 0 -35 -4 -35 -20z"/>
<path d="M1323 1883 c-35 -2 -63 -8 -63 -13 0 -5 22 -6 48 -3 l49 5 6 -38 c14
-83 17 -80 -83 -95 l-89 -14 24 -69 c13 -38 28 -73 32 -77 5 -5 32 0 61 11
l51 20 12 -22 c10 -19 8 -25 -19 -48 l-32 -26 43 -51 c50 -62 64 -69 88 -47
23 21 24 37 4 54 -14 12 -12 17 15 45 28 29 30 35 18 54 -10 17 -10 23 -1 29
9 6 7 17 -11 42 -25 39 -61 142 -71 208 -4 23 -10 41 -13 40 -4 -1 -35 -3 -69
-5z"/>
<path d="M1803 1883 c9 -2 23 -2 30 0 6 3 -1 5 -18 5 -16 0 -22 -2 -12 -5z"/>
<path d="M2158 1865 c-3 -13 -1 -26 5 -28 12 -4 1 -56 -18 -81 -13 -17 -17
-18 -32 -4 -10 8 -36 20 -58 26 -35 10 -42 9 -59 -8 -18 -18 -18 -20 -2 -26
10 -4 24 0 35 10 18 16 20 15 39 -11 15 -21 23 -25 34 -16 10 9 26 3 73 -28
88 -59 92 -64 72 -87 -17 -18 -16 -20 15 -44 18 -14 40 -27 48 -30 17 -6 60
36 60 58 0 7 7 14 16 14 10 0 14 -6 10 -15 -3 -9 3 -19 15 -26 23 -12 22 -12
38 18 9 18 8 23 -9 28 -24 8 -24 12 -5 58 18 43 20 70 4 47 -9 -12 -10 -10 -6
8 6 24 -4 31 -66 46 -24 6 -30 3 -34 -14 -3 -11 -9 -20 -13 -20 -5 0 -5 13 0
30 7 23 5 32 -8 40 -10 5 -12 10 -4 10 7 0 12 13 12 29 0 34 -17 41 -101 41
-52 0 -57 -2 -61 -25z m132 -204 c0 -6 -4 -13 -10 -16 -5 -3 -10 1 -10 9 0 9
5 16 10 16 6 0 10 -4 10 -9z"/>
<path d="M1831 1846 c-17 -18 -19 -26 -10 -31 8 -5 10 -4 5 3 -4 7 -3 12 3 12
6 0 15 9 21 20 14 26 8 25 -19 -4z"/>
<path d="M1877 1853 c-2 -5 -7 -25 -11 -45 -5 -27 -11 -36 -21 -31 -20 7 -19
-14 1 -25 14 -8 13 -15 -10 -60 -28 -55 -37 -61 -58 -38 -11 12 -15 12 -30 -1
-14 -13 -21 -13 -32 -4 -12 10 -19 5 -41 -28 -14 -23 -30 -41 -35 -41 -18 0 0
-25 30 -42 l29 -17 -15 -38 c-9 -21 -18 -40 -20 -42 -7 -7 -74 33 -74 45 0 12
-42 54 -55 54 -5 0 -4 -5 3 -12 9 -9 7 -17 -10 -35 -26 -28 -19 -39 53 -78 52
-28 59 -27 72 10 2 6 24 3 54 -8 28 -10 76 -21 107 -24 l56 -6 0 37 c0 26 4
36 15 36 13 0 15 7 9 36 -5 27 -4 35 5 30 6 -4 11 -14 11 -23 0 -10 6 -13 16
-9 9 3 27 6 41 6 22 0 24 3 18 31 -4 17 -8 50 -10 72 -2 23 -4 48 -4 55 -1 6
-10 12 -21 12 -17 0 -20 7 -20 38 1 36 1 36 14 13 8 -14 16 -19 20 -13 7 11
-33 122 -44 122 -10 0 -20 -37 -20 -72 0 -16 -5 -28 -10 -28 -7 0 -8 23 -4 65
6 59 3 79 -9 58z m-1 -190 c-4 -9 -1 -20 6 -25 10 -6 8 -8 -4 -8 -13 0 -18 8
-18 25 0 14 5 25 11 25 6 0 8 -7 5 -17z m-36 -88 c0 -28 -11 -37 -30 -25 -11
7 -12 14 -2 35 14 30 32 25 32 -10z m60 -15 c0 -21 -15 -27 -25 -10 -7 12 2
30 16 30 5 0 9 -9 9 -20z"/>
<path d="M930 1834 c0 -14 3 -14 15 -4 8 7 15 14 15 16 0 2 -7 4 -15 4 -8 0
-15 -7 -15 -16z"/>
<path d="M1528 1745 c-26 -14 -49 -29 -53 -35 -9 -14 12 -49 57 -96 33 -35 37
-42 22 -48 -16 -6 -16 -8 1 -26 22 -25 27 -25 42 0 11 16 10 18 -4 13 -11 -4
-14 -3 -9 5 4 7 -5 28 -20 47 -15 20 -25 37 -23 39 2 1 23 13 46 26 l42 23
-22 38 c-12 22 -24 39 -27 38 -3 0 -26 -11 -52 -24z"/>
<path d="M1676 1731 c-3 -5 3 -11 15 -14 16 -4 18 -3 8 9 -13 16 -16 17 -23 5z"/>
<path d="M3392 1720 c0 -14 2 -19 5 -12 2 6 2 18 0 25 -3 6 -5 1 -5 -13z"/>
<path d="M3066 1668 c-2 -7 -7 -27 -10 -45 -5 -31 -4 -33 37 -44 23 -6 48 -16
54 -21 9 -7 15 -3 23 17 14 36 15 34 -31 41 -36 6 -40 9 -37 33 2 18 -2 27
-15 29 -9 2 -19 -2 -21 -10z"/>
<path d="M203 1653 c-38 -5 -39 -7 -17 -106 l16 -74 37 12 c86 29 89 29 97
-10 6 -32 24 -50 24 -24 0 26 -25 95 -37 102 -7 4 -15 30 -19 57 -7 55 -7 55
-101 43z"/>
<path d="M2175 1653 c-31 -8 -57 -35 -45 -47 7 -7 20 0 42 22 18 18 30 31 28
31 -3 -1 -14 -4 -25 -6z"/>
<path d="M2940 1596 c-12 -42 -14 -44 -36 -34 -13 6 -26 9 -28 7 -1 -2 -25
-51 -53 -109 -28 -58 -72 -134 -98 -169 l-48 -65 27 -23 c15 -13 30 -23 34
-23 4 1 19 16 33 35 l26 35 49 -37 c27 -20 51 -38 53 -39 7 -6 -27 -51 -83
-111 l-54 -58 -36 35 -36 34 -38 -38 c-28 -29 -32 -37 -16 -32 14 4 28 -2 45
-20 l24 -26 -35 -30 c-36 -30 -149 -103 -160 -103 -4 0 -14 -8 -24 -18 -10 -9
-22 -15 -26 -12 -11 7 -85 -29 -95 -45 -4 -6 -14 -8 -24 -5 -9 3 -25 -1 -34
-8 -16 -11 -16 -16 9 -77 14 -36 27 -66 29 -68 1 -1 39 13 85 32 92 39 221
112 233 133 4 7 14 13 21 13 7 0 59 39 116 86 73 61 105 83 113 75 6 -6 14
-11 18 -11 5 0 38 40 75 89 37 49 72 87 78 85 12 -4 104 139 113 176 4 14 -2
23 -21 31 -14 7 -26 16 -26 20 0 5 -6 6 -12 4 -7 -2 -21 1 -30 9 -16 12 -16
16 7 72 14 32 24 70 24 84 0 15 -11 -5 -28 -50 -28 -75 -114 -234 -133 -246
-5 -3 -32 8 -60 25 -27 17 -55 28 -61 24 -12 -7 30 66 47 82 6 6 12 17 14 25
2 8 8 17 13 18 5 2 7 8 3 13 -3 5 0 9 6 9 6 0 9 4 6 9 -8 12 4 42 14 36 4 -3
8 1 7 8 -1 32 4 48 13 42 6 -3 7 1 4 9 -3 9 -1 16 5 16 6 0 8 7 4 17 -5 12 -3
14 7 8 10 -6 12 -4 7 8 -3 9 -2 29 3 45 9 34 -3 52 -36 52 -17 0 -24 -9 -34
-44z"/>
<path d="M730 1573 c-25 -8 -46 -16 -48 -18 -7 -6 22 -85 30 -85 5 0 7 -4 4
-9 -7 -10 13 -71 22 -71 17 0 162 63 162 70 0 5 -9 29 -20 54 -18 43 -21 45
-45 36 -30 -11 -45 -6 -45 15 0 22 -12 24 -60 8z"/>
<path d="M2162 1552 l-41 -38 47 -52 47 -52 40 34 39 34 -28 40 c-52 76 -57
77 -104 34z"/>
<path d="M2496 1563 c-6 -14 -5 -15 5 -6 7 7 10 15 7 18 -3 3 -9 -2 -12 -12z"/>
<path d="M563 1532 c-16 -10 -5 -52 13 -52 15 0 19 27 6 47 -4 7 -13 9 -19 5z"/>
<path d="M2475 1530 c3 -5 8 -10 11 -10 2 0 4 5 4 10 0 6 -5 10 -11 10 -5 0
-7 -4 -4 -10z"/>
<path d="M3242 1463 c-6 -20 -10 -38 -8 -40 1 -1 16 -6 33 -9 29 -6 32 -3 43
31 14 41 5 55 -36 55 -15 0 -24 -10 -32 -37z"/>
<path d="M1120 1447 c-41 -26 -70 -53 -70 -66 0 -5 7 -14 15 -21 12 -10 20 -8
41 9 36 28 45 27 72 -12 12 -18 36 -46 52 -62 l30 -29 -32 -33 c-51 -53 -22
-51 32 2 l50 49 -28 31 c-15 17 -9 13 16 -10 l42 -39 -32 -33 c-36 -37 -33
-45 40 -95 48 -33 47 -34 89 35 19 30 25 32 53 17 15 -8 20 -5 28 19 10 28 8
30 -56 71 -61 38 -67 40 -79 24 -7 -9 -14 -22 -17 -28 -2 -6 -34 19 -71 57
-37 37 -71 67 -75 67 -5 0 -18 16 -30 35 -12 19 -25 35 -28 35 -4 0 -23 -10
-42 -23z"/>
<path d="M2532 1448 c5 -15 28 -23 28 -10 0 5 -7 13 -16 16 -10 4 -14 1 -12
-6z"/>
<path d="M2398 1403 c-38 -38 -49 -44 -61 -34 -12 10 -29 3 -92 -38 -43 -28
-81 -48 -86 -45 -5 3 -17 -1 -28 -8 -18 -13 -17 -17 21 -113 22 -55 42 -102
44 -104 7 -8 215 100 220 114 3 8 -15 43 -41 79 -42 59 -45 67 -28 72 25 9
113 95 113 111 0 22 -14 15 -62 -34z"/>
<path d="M3173 1400 c-6 -16 -8 -30 -4 -30 3 0 12 14 18 30 6 17 8 30 4 30 -3
0 -12 -13 -18 -30z"/>
<path d="M2175 1380 c-3 -6 1 -7 9 -4 18 7 21 14 7 14 -6 0 -13 -4 -16 -10z"/>
<path d="M560 1357 c-109 -48 -112 -50 -107 -68 18 -68 195 -335 231 -348 6
-2 -4 12 -22 33 -17 20 -32 40 -32 44 0 4 21 21 46 39 44 30 48 31 71 16 22
-15 26 -15 40 0 14 14 12 22 -29 84 -25 37 -51 79 -58 91 -8 16 -18 22 -30 19
-15 -4 -24 7 -42 49 -24 57 -28 59 -68 41z"/>
<path d="M2043 1329 c-37 -11 -40 -20 -17 -43 24 -25 37 -19 30 12 l-6 27 15
-25 16 -25 -5 27 c-4 16 -1 28 7 31 20 9 -6 6 -40 -4z"/>
<path d="M950 1303 c0 -7 10 -22 23 -35 12 -13 17 -17 11 -8 -6 8 -16 24 -22
35 -6 11 -12 15 -12 8z"/>
<path d="M421 1268 c-1 -26 90 -198 105 -198 9 0 -4 30 -34 83 -27 45 -53 93
-59 107 -8 17 -12 20 -12 8z"/>
<path d="M2666 1162 c-7 -12 22 -38 31 -28 4 3 0 14 -9 22 -9 10 -18 12 -22 6z"/>
<path d="M2375 1049 c-38 -21 -96 -49 -128 -61 -63 -23 -60 -16 -41 -92 5 -22
2 -25 -30 -32 -20 -3 -39 -10 -42 -15 -7 -13 -6 -12 94 20 105 35 195 78 187
90 -2 5 2 11 10 15 8 3 15 2 15 -2 0 -4 10 -18 21 -32 11 -14 18 -20 15 -13
-4 6 3 18 13 25 20 14 20 15 -9 50 -21 25 -26 38 -18 46 11 11 4 43 -9 41 -4
0 -39 -18 -78 -40z"/>
<path d="M925 1046 c-18 -13 -16 -16 24 -64 49 -58 65 -67 81 -46 20 23 32 16
25 -14 -5 -23 0 -32 25 -51 17 -12 38 -20 47 -17 10 4 13 2 10 -8 -3 -8 -1
-16 5 -18 7 -3 5 -14 -7 -31 -14 -22 -20 -25 -31 -16 -8 6 -14 8 -14 3 0 -4
-6 0 -13 10 -12 16 -14 16 -31 -3 -11 -12 -25 -21 -31 -21 -7 0 -42 27 -78 61
-51 46 -71 59 -87 54 -11 -3 -20 -12 -20 -19 0 -34 254 -218 394 -286 76 -37
197 -83 201 -78 2 2 6 13 9 25 6 18 2 22 -24 28 -31 7 -34 12 -24 39 8 22 21
20 154 -13 63 -16 143 -32 178 -35 l62 -7 0 28 c0 60 9 72 49 70 30 -2 37 2
39 19 3 19 -3 22 -60 28 -35 4 -84 9 -109 13 -46 5 -47 5 -54 -26 -4 -18 -13
-31 -22 -31 -27 0 -137 31 -216 62 -63 24 -77 33 -72 46 19 46 17 49 -61 93
-42 24 -83 43 -90 41 -19 -4 -17 5 7 36 l20 26 -33 28 c-59 50 -64 51 -88 18
-12 -17 -27 -30 -33 -30 -6 0 -34 23 -62 50 -46 45 -53 49 -70 36z m217 -308
c15 -11 15 -16 3 -31 -12 -17 -15 -17 -45 -2 -34 18 -45 37 -36 60 5 14 9 14
33 1 16 -8 36 -20 45 -28z"/>
<path d="M1938 987 l-98 -9 0 -89 0 -89 68 1 c37 0 90 4 117 7 l50 7 -3 47
c-3 39 -1 47 17 53 11 3 26 3 31 0 7 -4 9 3 4 22 -9 39 -24 54 -45 48 -9 -3
-20 -1 -24 5 -3 5 -9 9 -13 9 -4 -1 -51 -6 -104 -12z"/>
<path d="M768 945 c-33 -28 -34 -36 -10 -58 16 -14 19 -13 45 8 32 28 33 36
10 58 -17 14 -20 13 -45 -8z"/>
<path d="M3247 904 c-18 -24 -18 -25 10 -49 34 -30 36 -30 57 -6 20 22 17 32
-22 59 l-27 20 -18 -24z"/>
<path d="M3085 829 c-72 -88 -165 -173 -177 -161 -7 7 -42 -12 -103 -54 -93
-64 -254 -151 -332 -178 l-42 -15 -10 30 c-5 16 -17 29 -25 29 -13 0 -13 -5 1
-45 8 -25 19 -45 24 -45 5 0 31 8 58 19 39 15 51 16 55 6 5 -14 -87 -52 -192
-80 -74 -19 -82 -19 -82 0 0 8 9 15 20 15 23 0 23 2 9 53 -11 41 -9 40 -64 27
-54 -13 -266 -25 -390 -23 -55 0 -92 -1 -82 -4 9 -2 17 -13 17 -24 0 -15 -6
-20 -22 -17 -17 2 -22 9 -21 26 2 12 2 22 0 22 -1 0 -40 7 -87 15 -47 8 -87
15 -89 15 -2 0 -1 6 2 14 4 10 -7 17 -36 24 -23 6 -42 10 -43 9 -1 -1 -11 -33
-24 -71 -19 -57 -20 -70 -9 -77 8 -5 19 -9 26 -9 7 0 17 -9 23 -19 5 -11 20
-21 32 -23 20 -3 23 -8 20 -39 -3 -34 -1 -37 29 -43 46 -9 49 -8 49 14 0 14 7
20 24 20 26 0 36 16 36 61 0 16 5 29 10 29 6 0 8 -11 4 -25 -6 -24 -4 -25 35
-25 39 0 41 -2 41 -29 0 -24 -3 -28 -20 -24 -15 4 -20 0 -20 -15 0 -28 17 -32
136 -32 102 0 104 0 101 23 -2 20 3 22 52 25 l53 3 -5 39 c-5 39 -4 40 31 45
21 4 49 9 65 11 23 5 27 2 27 -18 0 -13 7 -36 16 -53 8 -16 13 -37 11 -46 -10
-38 7 -41 94 -19 106 27 188 55 262 87 45 20 56 30 51 42 -18 42 -15 57 11 69
34 16 32 16 50 -18 l16 -30 49 25 c28 14 50 30 50 35 0 6 -11 28 -25 50 -14
22 -25 43 -25 47 0 5 28 26 63 48 152 98 368 305 346 331 -6 8 -14 14 -18 14
-3 0 -28 -28 -56 -61z m-1040 -469 c7 -23 -2 -43 -16 -35 -12 8 -12 55 0 55 5
0 12 -9 16 -20z"/>
<path d="M2106 741 c-3 -4 8 -8 24 -7 17 1 30 4 30 9 0 10 -48 9 -54 -2z"/>
<path d="M690 531 c0 -27 236 -184 385 -256 122 -59 290 -119 305 -110 22 13
6 24 -82 55 -144 50 -219 86 -212 103 3 9 -5 18 -23 26 -15 6 -71 38 -123 70
-88 55 -96 58 -113 44 -16 -15 -22 -13 -77 30 -33 26 -60 43 -60 38z"/>
</g>
</svg>
