<?xml version="1.0" encoding="UTF-8"?>
<svg id="Layer_1" xmlns="http://www.w3.org/2000/svg" xmlns:xlink="http://www.w3.org/1999/xlink" version="1.1" viewBox="0 0 1200 800">
  <!-- Generator: Adobe Illustrator 30.1.0, SVG Export Plug-In . SVG Version: 2.1.1 Build 136)  -->
  <defs>
    <style>
      .st0 {
        fill: #4c2165;
      }

      .st1 {
        stroke: url(#linear-gradient9);
      }

      .st1, .st2, .st3, .st4, .st5, .st6, .st7, .st8, .st9, .st10, .st11, .st12, .st13, .st14, .st15 {
        fill: none;
      }

      .st1, .st2, .st3, .st4, .st5, .st6, .st7, .st8, .st9, .st12, .st13, .st14, .st15 {
        stroke-miterlimit: 10;
      }

      .st1, .st2, .st13, .st14, .st15 {
        stroke-width: .66px;
      }

      .st2 {
        stroke: url(#linear-gradient8);
      }

      .st3 {
        stroke: url(#linear-gradient2);
      }

      .st3, .st4, .st5, .st6, .st7, .st8, .st9, .st12 {
        stroke-width: .5px;
      }

      .st4 {
        stroke: url(#linear-gradient1);
      }

      .st5 {
        stroke: url(#linear-gradient7);
      }

      .st6 {
        stroke: url(#linear-gradient3);
      }

      .st7 {
        stroke: url(#linear-gradient5);
      }

      .st8 {
        stroke: url(#linear-gradient4);
      }

      .st9 {
        stroke: url(#linear-gradient6);
      }

      .st10 {
        stroke: #4c2165;
      }

      .st10, .st11 {
        stroke-linecap: round;
        stroke-linejoin: round;
      }

      .st11 {
        stroke: #e9e9e9;
        stroke-width: 1.27px;
      }

      .st16 {
        fill: #e9e9e9;
      }

      .st12 {
        stroke: url(#linear-gradient);
      }

      .st13 {
        stroke: url(#linear-gradient10);
      }

      .st14 {
        stroke: url(#linear-gradient12);
      }

      .st15 {
        stroke: url(#linear-gradient11);
      }
    </style>
    <linearGradient id="linear-gradient" x1="123.47" y1="800" x2="123.47" y2="0" gradientUnits="userSpaceOnUse">
      <stop offset=".07" stop-color="#706f70" stop-opacity="0"/>
      <stop offset=".52" stop-color="#706f70"/>
      <stop offset=".94" stop-color="#706f70" stop-opacity="0"/>
    </linearGradient>
    <linearGradient id="linear-gradient1" x1="258.04" x2="258.04" xlink:href="#linear-gradient"/>
    <linearGradient id="linear-gradient2" x1="392.6" x2="392.6" xlink:href="#linear-gradient"/>
    <linearGradient id="linear-gradient3" x1="527.17" x2="527.17" xlink:href="#linear-gradient"/>
    <linearGradient id="linear-gradient4" x1="661.73" x2="661.73" xlink:href="#linear-gradient"/>
    <linearGradient id="linear-gradient5" x1="796.3" x2="796.3" xlink:href="#linear-gradient"/>
    <linearGradient id="linear-gradient6" x1="930.87" x2="930.87" xlink:href="#linear-gradient"/>
    <linearGradient id="linear-gradient7" x1="1065.43" x2="1065.43" xlink:href="#linear-gradient"/>
    <linearGradient id="linear-gradient8" x1="-1448.54" y1="-777.24" x2="-1448.54" y2="-1976.44" gradientTransform="translate(-776.44 1576.44) rotate(90)" gradientUnits="userSpaceOnUse">
      <stop offset=".07" stop-color="#706f70" stop-opacity="0"/>
      <stop offset=".52" stop-color="#706f70"/>
      <stop offset=".96" stop-color="#706f70" stop-opacity="0"/>
    </linearGradient>
    <linearGradient id="linear-gradient9" x1="-1314.12" y1="-777.24" x2="-1314.12" y2="-1976.44" xlink:href="#linear-gradient8"/>
    <linearGradient id="linear-gradient10" x1="-1179.7" y1="-777.24" x2="-1179.7" y2="-1976.44" xlink:href="#linear-gradient8"/>
    <linearGradient id="linear-gradient11" x1="-1045.28" y1="-777.24" x2="-1045.28" y2="-1976.44" xlink:href="#linear-gradient8"/>
    <linearGradient id="linear-gradient12" x1="-910.86" y1="-777.24" x2="-910.86" y2="-1976.44" xlink:href="#linear-gradient8"/>
  </defs>
  <g>
    <line class="st12" x1="123.47" x2="123.47" y2="800"/>
    <line class="st4" x1="258.04" x2="258.04" y2="800"/>
    <line class="st3" x1="392.6" x2="392.6" y2="800"/>
    <line class="st6" x1="527.17" x2="527.17" y2="800"/>
    <line class="st8" x1="661.73" x2="661.73" y2="800"/>
    <line class="st7" x1="796.3" x2="796.3" y2="800"/>
    <line class="st9" x1="930.87" x2="930.87" y2="800"/>
    <line class="st5" x1="1065.43" x2="1065.43" y2="800"/>
  </g>
  <g>
    <line class="st2" x1="1200" y1="127.9" x2=".8" y2="127.9"/>
    <line class="st1" x1="1200" y1="262.32" x2=".8" y2="262.32"/>
    <line class="st13" x1="1200" y1="396.74" x2=".8" y2="396.74"/>
    <line class="st15" x1="1200" y1="531.16" x2=".8" y2="531.16"/>
    <line class="st14" x1="1200" y1="665.58" x2=".8" y2="665.58"/>
  </g>
  <circle class="st0" cx="258.04" cy="665.58" r="5.71"/>
  <circle class="st0" cx="661.15" cy="127.9" r="2.85"/>
  <circle class="st0" cx="796.3" cy="396.74" r="2.85"/>
  <circle class="st0" cx="930.53" cy="665.58" r="2.85"/>
  <circle class="st0" cx="123.47" cy="127.9" r="2.85"/>
  <g>
    <path class="st0" d="M114.43,492.02v-16.01h5.47c4.97,0,8.21,3.48,8.21,8.02s-3.24,7.99-8.21,7.99h-5.47ZM116.42,490.24h3.48c3.89,0,6.14-2.78,6.14-6.22s-2.18-6.24-6.14-6.24h-3.48v12.46Z"/>
    <path class="st0" d="M136.2,480.14c3.5,0,5.57,2.74,5.57,6.22v.46h-9.38c.14,2.18,1.68,4.01,4.18,4.01,1.32,0,2.67-.53,3.58-1.46l.86,1.18c-1.15,1.15-2.71,1.78-4.61,1.78-3.43,0-5.9-2.47-5.9-6.1,0-3.36,2.4-6.07,5.71-6.07ZM132.38,485.49h7.61c-.02-1.73-1.18-3.86-3.82-3.86-2.47,0-3.7,2.09-3.79,3.86Z"/>
    <path class="st0" d="M144.59,489.19c.77.89,2.23,1.66,3.82,1.66,1.78,0,2.74-.79,2.74-1.92,0-1.27-1.42-1.68-2.98-2.06-1.97-.46-4.2-.98-4.2-3.38,0-1.8,1.56-3.34,4.32-3.34,1.97,0,3.36.74,4.3,1.68l-.84,1.25c-.7-.84-1.97-1.46-3.46-1.46-1.58,0-2.57.72-2.57,1.75,0,1.13,1.32,1.49,2.83,1.85,2.02.46,4.34,1.03,4.34,3.6,0,1.94-1.56,3.5-4.56,3.5-1.9,0-3.5-.58-4.68-1.82l.94-1.3Z"/>
    <path class="st0" d="M155.51,477.26c0-.67.55-1.2,1.2-1.2s1.22.53,1.22,1.2-.55,1.22-1.22,1.22-1.2-.55-1.2-1.22ZM155.83,492.02v-11.59h1.8v11.59h-1.8Z"/>
    <path class="st0" d="M162.12,493.65c.96,1.15,2.11,1.58,3.77,1.58,1.92,0,3.72-.94,3.72-3.48v-1.66c-.84,1.18-2.26,2.06-3.89,2.06-3.02,0-5.16-2.26-5.16-6s2.11-6.02,5.16-6.02c1.56,0,2.95.77,3.89,2.04v-1.75h1.8v11.26c0,3.84-2.69,5.04-5.52,5.04-1.97,0-3.31-.38-4.68-1.73l.91-1.34ZM169.6,483.62c-.62-1.01-2.02-1.87-3.46-1.87-2.33,0-3.72,1.85-3.72,4.42s1.39,4.42,3.72,4.42c1.44,0,2.83-.89,3.46-1.9v-5.06Z"/>
    <path class="st0" d="M182.83,492.02v-7.58c0-2.04-1.03-2.69-2.59-2.69-1.42,0-2.76.86-3.43,1.8v8.47h-1.8v-11.59h1.8v1.68c.82-.96,2.4-1.97,4.13-1.97,2.42,0,3.7,1.22,3.7,3.74v8.14h-1.8Z"/>
    <path class="st0" d="M193.27,480.14c3.5,0,5.57,2.74,5.57,6.22v.46h-9.38c.14,2.18,1.68,4.01,4.18,4.01,1.32,0,2.67-.53,3.58-1.46l.86,1.18c-1.15,1.15-2.71,1.78-4.61,1.78-3.43,0-5.9-2.47-5.9-6.1,0-3.36,2.4-6.07,5.71-6.07ZM189.45,485.49h7.61c-.02-1.73-1.18-3.86-3.82-3.86-2.47,0-3.7,2.09-3.79,3.86Z"/>
    <path class="st0" d="M210.14,492.02v-1.73c-.86,1.18-2.28,2.02-3.91,2.02-3.02,0-5.16-2.3-5.16-6.07s2.11-6.1,5.16-6.1c1.56,0,2.98.77,3.91,2.04v-6.17h1.8v16.01h-1.8ZM210.14,483.62c-.65-1.01-2.04-1.87-3.48-1.87-2.33,0-3.72,1.92-3.72,4.49s1.39,4.46,3.72,4.46c1.44,0,2.83-.82,3.48-1.82v-5.26Z"/>
    <path class="st0" d="M224.04,482.01v10.01h-1.8v-10.01h-1.92v-1.58h1.92v-.89c0-2.4,1.34-3.77,3.36-3.77.67,0,1.3.12,1.75.41l-.46,1.34c-.29-.17-.62-.26-1.03-.26-1.18,0-1.82.82-1.82,2.28v.89h2.35v1.58h-2.35Z"/>
    <path class="st0" d="M227.85,486.21c0-3.36,2.21-6.07,5.74-6.07s5.74,2.71,5.74,6.07-2.21,6.1-5.74,6.1-5.74-2.74-5.74-6.1ZM237.43,486.21c0-2.35-1.37-4.46-3.84-4.46s-3.86,2.11-3.86,4.46,1.39,4.49,3.86,4.49,3.84-2.11,3.84-4.49Z"/>
    <path class="st0" d="M242.25,492.02v-11.59h1.8v1.87c.94-1.22,2.28-2.11,3.86-2.11v1.85c-.22-.05-.43-.07-.72-.07-1.1,0-2.62.91-3.14,1.85v8.21h-1.8Z"/>
    <path class="st0" d="M261.48,480.14c2.11,0,3.36.86,4.25,2.02l-1.2,1.1c-.77-1.06-1.75-1.51-2.95-1.51-2.47,0-4.01,1.9-4.01,4.46s1.54,4.49,4.01,4.49c1.2,0,2.18-.48,2.95-1.51l1.2,1.1c-.89,1.15-2.14,2.02-4.25,2.02-3.46,0-5.79-2.64-5.79-6.1s2.33-6.07,5.79-6.07Z"/>
    <path class="st0" d="M267.57,486.21c0-3.36,2.21-6.07,5.74-6.07s5.74,2.71,5.74,6.07-2.21,6.1-5.74,6.1-5.74-2.74-5.74-6.1ZM277.15,486.21c0-2.35-1.37-4.46-3.84-4.46s-3.86,2.11-3.86,4.46,1.39,4.49,3.86,4.49,3.84-2.11,3.84-4.49Z"/>
    <path class="st0" d="M281.97,492.02v-16.01h1.8v16.01h-1.8Z"/>
    <path class="st0" d="M287.37,492.02v-16.01h1.8v16.01h-1.8Z"/>
    <path class="st0" d="M300.02,492.02v-1.32c-.96,1.06-2.28,1.61-3.84,1.61-1.97,0-4.06-1.32-4.06-3.84s2.09-3.82,4.06-3.82c1.58,0,2.9.5,3.84,1.58v-2.09c0-1.56-1.25-2.45-2.93-2.45-1.39,0-2.52.5-3.55,1.61l-.84-1.25c1.25-1.3,2.74-1.92,4.63-1.92,2.45,0,4.49,1.1,4.49,3.91v7.97h-1.8ZM300.02,487.38c-.7-.96-1.92-1.44-3.19-1.44-1.68,0-2.86,1.06-2.86,2.54s1.18,2.52,2.86,2.52c1.27,0,2.5-.48,3.19-1.44v-2.18Z"/>
    <path class="st0" d="M305.42,492.02v-16.01h1.8v6.17c.94-1.27,2.33-2.04,3.91-2.04,3.02,0,5.16,2.4,5.16,6.1s-2.14,6.07-5.16,6.07c-1.63,0-3.05-.84-3.91-2.02v1.73h-1.8ZM307.22,488.87c.62,1.01,2.04,1.82,3.46,1.82,2.35,0,3.74-1.9,3.74-4.46s-1.39-4.49-3.74-4.49c-1.42,0-2.83.86-3.46,1.87v5.26Z"/>
    <path class="st0" d="M318.55,486.21c0-3.36,2.21-6.07,5.74-6.07s5.74,2.71,5.74,6.07-2.21,6.1-5.74,6.1-5.74-2.74-5.74-6.1ZM328.12,486.21c0-2.35-1.37-4.46-3.84-4.46s-3.86,2.11-3.86,4.46,1.39,4.49,3.86,4.49,3.84-2.11,3.84-4.49Z"/>
    <path class="st0" d="M332.95,492.02v-11.59h1.8v1.87c.94-1.22,2.28-2.11,3.86-2.11v1.85c-.22-.05-.43-.07-.72-.07-1.1,0-2.62.91-3.14,1.85v8.21h-1.8Z"/>
    <path class="st0" d="M348.12,492.02v-1.32c-.96,1.06-2.28,1.61-3.84,1.61-1.97,0-4.06-1.32-4.06-3.84s2.09-3.82,4.06-3.82c1.58,0,2.9.5,3.84,1.58v-2.09c0-1.56-1.25-2.45-2.93-2.45-1.39,0-2.52.5-3.55,1.61l-.84-1.25c1.25-1.3,2.74-1.92,4.63-1.92,2.45,0,4.49,1.1,4.49,3.91v7.97h-1.8ZM348.12,487.38c-.7-.96-1.92-1.44-3.19-1.44-1.68,0-2.86,1.06-2.86,2.54s1.18,2.52,2.86,2.52c1.27,0,2.5-.48,3.19-1.44v-2.18Z"/>
    <path class="st0" d="M353.88,489.59v-7.58h-1.92v-1.58h1.92v-3.17h1.8v3.17h2.35v1.58h-2.35v7.2c0,.86.38,1.49,1.18,1.49.5,0,.98-.22,1.22-.48l.53,1.34c-.46.43-1.1.74-2.16.74-1.7,0-2.57-.98-2.57-2.71Z"/>
    <path class="st0" d="M360.26,477.26c0-.67.55-1.2,1.2-1.2s1.22.53,1.22,1.2-.55,1.22-1.22,1.22-1.2-.55-1.2-1.22ZM360.57,492.02v-11.59h1.8v11.59h-1.8Z"/>
    <path class="st0" d="M365.3,486.21c0-3.36,2.21-6.07,5.74-6.07s5.74,2.71,5.74,6.07-2.21,6.1-5.74,6.1-5.74-2.74-5.74-6.1ZM374.88,486.21c0-2.35-1.37-4.46-3.84-4.46s-3.86,2.11-3.86,4.46,1.39,4.49,3.86,4.49,3.84-2.11,3.84-4.49Z"/>
    <path class="st0" d="M387.52,492.02v-7.58c0-2.04-1.03-2.69-2.59-2.69-1.42,0-2.76.86-3.43,1.8v8.47h-1.8v-11.59h1.8v1.68c.82-.96,2.4-1.97,4.13-1.97,2.42,0,3.7,1.22,3.7,3.74v8.14h-1.8Z"/>
    <path class="st0" d="M114.43,520.82v-16.01h6.43c3.22,0,5.02,2.21,5.02,4.83s-1.85,4.82-5.02,4.82h-4.44v6.36h-1.99ZM120.62,506.58h-4.2v6.1h4.2c1.9,0,3.19-1.25,3.19-3.05s-1.3-3.05-3.19-3.05Z"/>
    <path class="st0" d="M128.44,520.82v-11.59h1.8v1.87c.94-1.22,2.28-2.11,3.86-2.11v1.85c-.22-.05-.43-.07-.72-.07-1.1,0-2.62.91-3.14,1.85v8.21h-1.8Z"/>
    <path class="st0" d="M135.69,515.01c0-3.36,2.21-6.07,5.74-6.07s5.74,2.71,5.74,6.07-2.21,6.1-5.74,6.1-5.74-2.74-5.74-6.1ZM145.27,515.01c0-2.35-1.37-4.46-3.84-4.46s-3.86,2.11-3.86,4.46,1.39,4.49,3.86,4.49,3.84-2.11,3.84-4.49Z"/>
    <path class="st0" d="M150.45,518.39v-7.58h-1.92v-1.58h1.92v-3.17h1.8v3.17h2.35v1.58h-2.35v7.2c0,.86.38,1.49,1.18,1.49.5,0,.98-.22,1.22-.48l.53,1.34c-.46.43-1.1.74-2.16.74-1.7,0-2.57-.98-2.57-2.71Z"/>
    <path class="st0" d="M156.47,515.01c0-3.36,2.21-6.07,5.74-6.07s5.74,2.71,5.74,6.07-2.21,6.1-5.74,6.1-5.74-2.74-5.74-6.1ZM166.05,515.01c0-2.35-1.37-4.46-3.84-4.46s-3.86,2.11-3.86,4.46,1.39,4.49,3.86,4.49,3.84-2.11,3.84-4.49Z"/>
    <path class="st0" d="M175.99,508.94c2.11,0,3.36.86,4.25,2.02l-1.2,1.1c-.77-1.06-1.75-1.51-2.95-1.51-2.47,0-4.01,1.9-4.01,4.46s1.54,4.49,4.01,4.49c1.2,0,2.18-.48,2.95-1.51l1.2,1.1c-.89,1.15-2.14,2.02-4.25,2.02-3.46,0-5.79-2.64-5.79-6.1s2.33-6.07,5.79-6.07Z"/>
    <path class="st0" d="M182.08,515.01c0-3.36,2.21-6.07,5.74-6.07s5.74,2.71,5.74,6.07-2.21,6.1-5.74,6.1-5.74-2.74-5.74-6.1ZM191.66,515.01c0-2.35-1.37-4.46-3.84-4.46s-3.86,2.11-3.86,4.46,1.39,4.49,3.86,4.49,3.84-2.11,3.84-4.49Z"/>
    <path class="st0" d="M196.48,520.82v-16.01h1.8v16.01h-1.8Z"/>
    <path class="st0" d="M201.81,517.99c.77.89,2.23,1.66,3.82,1.66,1.78,0,2.74-.79,2.74-1.92,0-1.27-1.42-1.68-2.98-2.06-1.97-.46-4.2-.98-4.2-3.38,0-1.8,1.56-3.34,4.32-3.34,1.97,0,3.36.74,4.3,1.68l-.84,1.25c-.7-.84-1.97-1.46-3.46-1.46-1.58,0-2.57.72-2.57,1.75,0,1.13,1.32,1.49,2.83,1.85,2.02.46,4.34,1.03,4.34,3.6,0,1.94-1.56,3.5-4.56,3.5-1.9,0-3.5-.58-4.68-1.82l.94-1.3Z"/>
    <path class="st0" d="M221.54,510.81v10.01h-1.8v-10.01h-1.92v-1.58h1.92v-.89c0-2.4,1.34-3.77,3.36-3.77.67,0,1.3.12,1.75.41l-.46,1.34c-.29-.17-.62-.26-1.03-.26-1.18,0-1.82.82-1.82,2.28v.89h2.35v1.58h-2.35Z"/>
    <path class="st0" d="M225.35,515.01c0-3.36,2.21-6.07,5.74-6.07s5.74,2.71,5.74,6.07-2.21,6.1-5.74,6.1-5.74-2.74-5.74-6.1ZM234.93,515.01c0-2.35-1.37-4.46-3.84-4.46s-3.86,2.11-3.86,4.46,1.39,4.49,3.86,4.49,3.84-2.11,3.84-4.49Z"/>
    <path class="st0" d="M239.75,520.82v-11.59h1.8v1.87c.94-1.22,2.28-2.11,3.86-2.11v1.85c-.22-.05-.43-.07-.72-.07-1.1,0-2.62.91-3.14,1.85v8.21h-1.8Z"/>
    <path class="st0" d="M253.55,506.06c0-.67.55-1.2,1.2-1.2s1.22.53,1.22,1.2-.55,1.22-1.22,1.22-1.2-.55-1.2-1.22ZM253.87,520.82v-11.59h1.8v11.59h-1.8Z"/>
    <path class="st0" d="M267.09,520.82v-7.58c0-2.04-1.03-2.69-2.59-2.69-1.42,0-2.76.86-3.43,1.8v8.47h-1.8v-11.59h1.8v1.68c.82-.96,2.4-1.97,4.13-1.97,2.42,0,3.7,1.22,3.7,3.74v8.14h-1.8Z"/>
    <path class="st0" d="M272.85,518.39v-7.58h-1.92v-1.58h1.92v-3.17h1.8v3.17h2.35v1.58h-2.35v7.2c0,.86.38,1.49,1.18,1.49.5,0,.98-.22,1.22-.48l.53,1.34c-.46.43-1.1.74-2.16.74-1.7,0-2.57-.98-2.57-2.71Z"/>
    <path class="st0" d="M284.59,508.94c3.5,0,5.57,2.74,5.57,6.22v.46h-9.38c.14,2.18,1.68,4.01,4.18,4.01,1.32,0,2.67-.53,3.58-1.46l.86,1.18c-1.15,1.15-2.71,1.78-4.61,1.78-3.43,0-5.9-2.47-5.9-6.1,0-3.36,2.4-6.07,5.71-6.07ZM280.77,514.29h7.61c-.02-1.73-1.18-3.86-3.82-3.86-2.47,0-3.7,2.09-3.79,3.86Z"/>
    <path class="st0" d="M293.06,520.82v-11.59h1.8v1.87c.94-1.22,2.28-2.11,3.86-2.11v1.85c-.22-.05-.43-.07-.72-.07-1.1,0-2.62.91-3.14,1.85v8.21h-1.8Z"/>
    <path class="st0" d="M308.23,520.82v-1.32c-.96,1.06-2.28,1.61-3.84,1.61-1.97,0-4.06-1.32-4.06-3.84s2.09-3.82,4.06-3.82c1.58,0,2.9.5,3.84,1.58v-2.09c0-1.56-1.25-2.45-2.93-2.45-1.39,0-2.52.5-3.55,1.61l-.84-1.25c1.25-1.3,2.74-1.92,4.63-1.92,2.45,0,4.49,1.1,4.49,3.91v7.97h-1.8ZM308.23,516.18c-.7-.96-1.92-1.44-3.19-1.44-1.68,0-2.86,1.06-2.86,2.54s1.18,2.52,2.86,2.52c1.27,0,2.5-.48,3.19-1.44v-2.18Z"/>
    <path class="st0" d="M318.74,508.94c2.11,0,3.36.86,4.25,2.02l-1.2,1.1c-.77-1.06-1.75-1.51-2.95-1.51-2.47,0-4.01,1.9-4.01,4.46s1.54,4.49,4.01,4.49c1.2,0,2.18-.48,2.95-1.51l1.2,1.1c-.89,1.15-2.14,2.02-4.25,2.02-3.46,0-5.78-2.64-5.78-6.1s2.33-6.07,5.78-6.07Z"/>
    <path class="st0" d="M325.87,518.39v-7.58h-1.92v-1.58h1.92v-3.17h1.8v3.17h2.35v1.58h-2.35v7.2c0,.86.38,1.49,1.18,1.49.5,0,.98-.22,1.22-.48l.53,1.34c-.46.43-1.1.74-2.16.74-1.7,0-2.57-.98-2.57-2.71Z"/>
    <path class="st0" d="M332.25,506.06c0-.67.55-1.2,1.2-1.2s1.22.53,1.22,1.2-.55,1.22-1.22,1.22-1.2-.55-1.2-1.22ZM332.56,520.82v-11.59h1.8v11.59h-1.8Z"/>
    <path class="st0" d="M337.29,515.01c0-3.36,2.21-6.07,5.74-6.07s5.74,2.71,5.74,6.07-2.21,6.1-5.74,6.1-5.74-2.74-5.74-6.1ZM346.87,515.01c0-2.35-1.37-4.46-3.84-4.46s-3.86,2.11-3.86,4.46,1.39,4.49,3.86,4.49,3.84-2.11,3.84-4.49Z"/>
    <path class="st0" d="M359.52,520.82v-7.58c0-2.04-1.03-2.69-2.59-2.69-1.42,0-2.76.86-3.43,1.8v8.47h-1.8v-11.59h1.8v1.68c.82-.96,2.4-1.97,4.13-1.97,2.42,0,3.7,1.22,3.7,3.74v8.14h-1.8Z"/>
    <path class="st0" d="M122.01,533.34c2.83,0,4.8,1.25,6.22,3l-1.58.98c-1.01-1.3-2.71-2.21-4.63-2.21-3.5,0-6.17,2.69-6.17,6.5s2.66,6.53,6.17,6.53c1.92,0,3.5-.94,4.3-1.73v-3.26h-5.5v-1.78h7.49v5.78c-1.49,1.66-3.67,2.76-6.29,2.76-4.56,0-8.23-3.34-8.23-8.31s3.67-8.28,8.23-8.28Z"/>
    <path class="st0" d="M130.79,543.81c0-3.36,2.21-6.07,5.74-6.07s5.74,2.71,5.74,6.07-2.21,6.1-5.74,6.1-5.74-2.74-5.74-6.1ZM140.37,543.81c0-2.35-1.37-4.46-3.84-4.46s-3.86,2.11-3.86,4.46,1.39,4.49,3.86,4.49,3.84-2.11,3.84-4.49Z"/>
    <path class="st0" d="M148.29,549.62l-4.82-11.59h1.94l3.86,9.5,3.84-9.5h1.97l-4.83,11.59h-1.97Z"/>
    <path class="st0" d="M162,537.74c3.5,0,5.57,2.74,5.57,6.22v.46h-9.38c.14,2.18,1.68,4.01,4.18,4.01,1.32,0,2.67-.53,3.58-1.46l.86,1.18c-1.15,1.15-2.71,1.78-4.61,1.78-3.43,0-5.9-2.47-5.9-6.1,0-3.36,2.4-6.07,5.71-6.07ZM158.18,543.09h7.61c-.02-1.73-1.18-3.86-3.82-3.86-2.47,0-3.7,2.09-3.79,3.86Z"/>
    <path class="st0" d="M170.47,549.62v-11.59h1.8v1.87c.94-1.22,2.28-2.11,3.86-2.11v1.85c-.22-.05-.43-.07-.72-.07-1.1,0-2.62.91-3.14,1.85v8.21h-1.8Z"/>
    <path class="st0" d="M186.21,549.62v-7.58c0-2.04-1.03-2.69-2.59-2.69-1.42,0-2.76.86-3.43,1.8v8.47h-1.8v-11.59h1.8v1.68c.82-.96,2.4-1.97,4.13-1.97,2.42,0,3.7,1.22,3.7,3.74v8.14h-1.8Z"/>
    <path class="st0" d="M198.86,549.62v-1.32c-.96,1.06-2.28,1.61-3.84,1.61-1.97,0-4.06-1.32-4.06-3.84s2.09-3.82,4.06-3.82c1.58,0,2.9.5,3.84,1.58v-2.09c0-1.56-1.25-2.45-2.93-2.45-1.39,0-2.52.5-3.55,1.61l-.84-1.25c1.25-1.3,2.74-1.92,4.63-1.92,2.45,0,4.49,1.1,4.49,3.91v7.97h-1.8ZM198.86,544.98c-.7-.96-1.92-1.44-3.19-1.44-1.68,0-2.86,1.06-2.86,2.54s1.18,2.52,2.86,2.52c1.27,0,2.5-.48,3.19-1.44v-2.18Z"/>
    <path class="st0" d="M212.08,549.62v-7.58c0-2.04-1.03-2.69-2.59-2.69-1.42,0-2.76.86-3.43,1.8v8.47h-1.8v-11.59h1.8v1.68c.82-.96,2.4-1.97,4.13-1.97,2.42,0,3.7,1.22,3.7,3.74v8.14h-1.8Z"/>
    <path class="st0" d="M222.59,537.74c2.11,0,3.36.86,4.25,2.02l-1.2,1.1c-.77-1.06-1.75-1.51-2.95-1.51-2.47,0-4.01,1.9-4.01,4.46s1.54,4.49,4.01,4.49c1.2,0,2.18-.48,2.95-1.51l1.2,1.1c-.89,1.15-2.14,2.02-4.25,2.02-3.46,0-5.78-2.64-5.78-6.1s2.33-6.07,5.78-6.07Z"/>
    <path class="st0" d="M234.4,537.74c3.5,0,5.57,2.74,5.57,6.22v.46h-9.38c.14,2.18,1.68,4.01,4.18,4.01,1.32,0,2.67-.53,3.58-1.46l.86,1.18c-1.15,1.15-2.71,1.78-4.61,1.78-3.43,0-5.9-2.47-5.9-6.1,0-3.36,2.4-6.07,5.71-6.07ZM230.59,543.09h7.61c-.02-1.73-1.18-3.86-3.82-3.86-2.47,0-3.7,2.09-3.79,3.86Z"/>
    <path class="st0" d="M263.06,549.62v-7.87c0-1.46-.65-2.4-2.14-2.4-1.2,0-2.47.86-3.07,1.78v8.5h-1.8v-7.87c0-1.46-.62-2.4-2.14-2.4-1.18,0-2.42.86-3.05,1.8v8.47h-1.8v-11.59h1.8v1.68c.48-.74,2.04-1.97,3.74-1.97s2.78.96,3.12,2.16c.65-1.06,2.21-2.16,3.89-2.16,2.11,0,3.24,1.18,3.24,3.5v8.38h-1.8Z"/>
    <path class="st0" d="M273.5,537.74c3.5,0,5.57,2.74,5.57,6.22v.46h-9.38c.14,2.18,1.68,4.01,4.18,4.01,1.32,0,2.67-.53,3.58-1.46l.86,1.18c-1.15,1.15-2.71,1.78-4.61,1.78-3.43,0-5.9-2.47-5.9-6.1,0-3.36,2.4-6.07,5.71-6.07ZM269.68,543.09h7.61c-.02-1.73-1.18-3.86-3.82-3.86-2.47,0-3.7,2.09-3.79,3.86Z"/>
    <path class="st0" d="M287.08,537.74c2.11,0,3.36.86,4.25,2.02l-1.2,1.1c-.77-1.06-1.75-1.51-2.95-1.51-2.47,0-4.01,1.9-4.01,4.46s1.54,4.49,4.01,4.49c1.2,0,2.18-.48,2.95-1.51l1.2,1.1c-.89,1.15-2.14,2.02-4.25,2.02-3.46,0-5.78-2.64-5.78-6.1s2.33-6.07,5.78-6.07Z"/>
    <path class="st0" d="M301.7,549.62v-7.63c0-2.04-1.06-2.64-2.62-2.64-1.39,0-2.74.86-3.43,1.8v8.47h-1.8v-16.01h1.8v6.1c.82-.96,2.4-1.97,4.15-1.97,2.42,0,3.7,1.18,3.7,3.7v8.18h-1.8Z"/>
    <path class="st0" d="M314.35,549.62v-1.32c-.96,1.06-2.28,1.61-3.84,1.61-1.97,0-4.06-1.32-4.06-3.84s2.09-3.82,4.06-3.82c1.58,0,2.9.5,3.84,1.58v-2.09c0-1.56-1.25-2.45-2.93-2.45-1.39,0-2.52.5-3.55,1.61l-.84-1.25c1.25-1.3,2.74-1.92,4.63-1.92,2.45,0,4.49,1.1,4.49,3.91v7.97h-1.8ZM314.35,544.98c-.7-.96-1.92-1.44-3.19-1.44-1.68,0-2.86,1.06-2.86,2.54s1.18,2.52,2.86,2.52c1.27,0,2.5-.48,3.19-1.44v-2.18Z"/>
    <path class="st0" d="M327.57,549.62v-7.58c0-2.04-1.03-2.69-2.59-2.69-1.42,0-2.76.86-3.43,1.8v8.47h-1.8v-11.59h1.8v1.68c.82-.96,2.4-1.97,4.13-1.97,2.42,0,3.7,1.22,3.7,3.74v8.14h-1.8Z"/>
    <path class="st0" d="M332.66,534.86c0-.67.55-1.2,1.2-1.2s1.22.53,1.22,1.2-.55,1.22-1.22,1.22-1.2-.55-1.2-1.22ZM332.97,549.62v-11.59h1.8v11.59h-1.8Z"/>
    <path class="st0" d="M338.3,546.79c.77.89,2.23,1.66,3.82,1.66,1.78,0,2.74-.79,2.74-1.92,0-1.27-1.42-1.68-2.98-2.06-1.97-.46-4.2-.98-4.2-3.38,0-1.8,1.56-3.34,4.32-3.34,1.97,0,3.36.74,4.3,1.68l-.84,1.25c-.7-.84-1.97-1.46-3.46-1.46-1.58,0-2.57.72-2.57,1.75,0,1.13,1.32,1.49,2.83,1.85,2.02.46,4.34,1.03,4.34,3.6,0,1.94-1.56,3.5-4.56,3.5-1.9,0-3.5-.58-4.68-1.82l.94-1.3Z"/>
    <path class="st0" d="M363.52,549.62v-7.87c0-1.46-.65-2.4-2.14-2.4-1.2,0-2.47.86-3.07,1.78v8.5h-1.8v-7.87c0-1.46-.62-2.4-2.14-2.4-1.18,0-2.42.86-3.05,1.8v8.47h-1.8v-11.59h1.8v1.68c.48-.74,2.04-1.97,3.74-1.97s2.78.96,3.12,2.16c.65-1.06,2.21-2.16,3.89-2.16,2.11,0,3.24,1.18,3.24,3.5v8.38h-1.8Z"/>
  </g>
  <g>
    <path class="st0" d="M788.94,175.59v-16.01h7.13c2.78,0,4.49,1.68,4.49,4.08,0,2.02-1.34,3.36-2.81,3.67,1.7.26,3.12,2.02,3.12,3.94,0,2.57-1.7,4.32-4.63,4.32h-7.3ZM790.93,166.52h4.8c1.8,0,2.76-1.1,2.76-2.57s-.96-2.59-2.76-2.59h-4.8v5.16ZM790.93,173.81h4.9c1.87,0,2.98-1.06,2.98-2.76,0-1.46-1.01-2.76-2.98-2.76h-4.9v5.52Z"/>
    <path class="st0" d="M811.21,175.59v-1.32c-.96,1.06-2.28,1.61-3.84,1.61-1.97,0-4.06-1.32-4.06-3.84s2.09-3.82,4.06-3.82c1.58,0,2.9.5,3.84,1.58v-2.09c0-1.56-1.25-2.45-2.93-2.45-1.39,0-2.52.5-3.55,1.61l-.84-1.25c1.25-1.3,2.74-1.92,4.63-1.92,2.45,0,4.49,1.1,4.49,3.91v7.97h-1.8ZM811.21,170.96c-.7-.96-1.92-1.44-3.19-1.44-1.68,0-2.86,1.06-2.86,2.54s1.18,2.52,2.86,2.52c1.27,0,2.5-.48,3.19-1.44v-2.18Z"/>
    <path class="st0" d="M824.44,175.59v-7.58c0-2.04-1.03-2.69-2.59-2.69-1.42,0-2.76.86-3.43,1.8v8.47h-1.8v-11.59h1.8v1.68c.82-.96,2.4-1.97,4.13-1.97,2.42,0,3.7,1.22,3.7,3.74v8.14h-1.8Z"/>
    <path class="st0" d="M837.73,175.59l-4.18-5.21-1.92,1.9v3.31h-1.8v-16.01h1.8v10.58l6.1-6.17h2.28l-5.14,5.26,5.16,6.34h-2.3Z"/>
    <path class="st0" d="M847.69,169.78c0-3.36,2.21-6.07,5.74-6.07s5.74,2.71,5.74,6.07-2.21,6.1-5.74,6.1-5.74-2.74-5.74-6.1ZM857.27,169.78c0-2.35-1.37-4.46-3.84-4.46s-3.86,2.11-3.86,4.46,1.39,4.49,3.86,4.49,3.84-2.11,3.84-4.49Z"/>
    <path class="st0" d="M864.4,165.58v10.01h-1.8v-10.01h-1.92v-1.58h1.92v-.89c0-2.4,1.34-3.77,3.36-3.77.67,0,1.3.12,1.75.41l-.46,1.34c-.29-.17-.62-.26-1.03-.26-1.18,0-1.82.82-1.82,2.28v.89h2.35v1.58h-2.35Z"/>
    <path class="st0" d="M875.44,173.16v-7.58h-1.92v-1.58h1.92v-3.17h1.8v3.17h2.35v1.58h-2.35v7.2c0,.86.38,1.49,1.18,1.49.5,0,.98-.22,1.22-.48l.53,1.34c-.46.43-1.1.74-2.16.74-1.7,0-2.57-.98-2.57-2.71Z"/>
    <path class="st0" d="M881.46,169.78c0-3.36,2.21-6.07,5.74-6.07s5.74,2.71,5.74,6.07-2.21,6.1-5.74,6.1-5.74-2.74-5.74-6.1ZM891.04,169.78c0-2.35-1.37-4.46-3.84-4.46s-3.86,2.11-3.86,4.46,1.39,4.49,3.86,4.49,3.84-2.11,3.84-4.49Z"/>
    <path class="st0" d="M895.19,169.78c0-3.36,2.21-6.07,5.74-6.07s5.74,2.71,5.74,6.07-2.21,6.1-5.74,6.1-5.74-2.74-5.74-6.1ZM904.77,169.78c0-2.35-1.37-4.46-3.84-4.46s-3.86,2.11-3.86,4.46,1.39,4.49,3.86,4.49,3.84-2.11,3.84-4.49Z"/>
    <path class="st0" d="M909.59,175.59v-16.01h1.8v16.01h-1.8Z"/>
    <path class="st0" d="M914.92,172.76c.77.89,2.23,1.66,3.82,1.66,1.78,0,2.74-.79,2.74-1.92,0-1.27-1.42-1.68-2.98-2.06-1.97-.46-4.2-.98-4.2-3.38,0-1.8,1.56-3.34,4.32-3.34,1.97,0,3.36.74,4.3,1.68l-.84,1.25c-.7-.84-1.97-1.46-3.46-1.46-1.58,0-2.57.72-2.57,1.75,0,1.13,1.32,1.49,2.83,1.85,2.02.46,4.34,1.03,4.34,3.6,0,1.94-1.56,3.5-4.56,3.5-1.9,0-3.5-.58-4.68-1.82l.94-1.3Z"/>
    <path class="st0" d="M925.72,177.89c.77-.5,1.46-1.44,1.56-2.23-.05.02-.22.05-.34.05-.67,0-1.15-.5-1.15-1.22s.55-1.3,1.27-1.3c.79,0,1.51.67,1.51,1.82,0,1.46-.86,2.83-1.97,3.62l-.89-.74Z"/>
    <path class="st0" d="M788.8,201.56c.77.89,2.23,1.66,3.82,1.66,1.78,0,2.74-.79,2.74-1.92,0-1.27-1.42-1.68-2.98-2.06-1.97-.46-4.2-.98-4.2-3.38,0-1.8,1.56-3.34,4.32-3.34,1.97,0,3.36.74,4.3,1.68l-.84,1.25c-.7-.84-1.97-1.46-3.46-1.46-1.58,0-2.57.72-2.57,1.75,0,1.13,1.32,1.49,2.83,1.85,2.02.46,4.34,1.03,4.34,3.6,0,1.94-1.56,3.5-4.56,3.5-1.9,0-3.5-.58-4.68-1.82l.94-1.3Z"/>
    <path class="st0" d="M800.39,201.96v-7.58h-1.92v-1.58h1.92v-3.17h1.8v3.17h2.35v1.58h-2.35v7.2c0,.86.38,1.49,1.18,1.49.5,0,.98-.22,1.22-.48l.53,1.34c-.46.43-1.1.74-2.16.74-1.7,0-2.57-.98-2.57-2.71Z"/>
    <path class="st0" d="M806.41,198.58c0-3.36,2.21-6.07,5.74-6.07s5.74,2.71,5.74,6.07-2.21,6.1-5.74,6.1-5.74-2.74-5.74-6.1ZM815.99,198.58c0-2.35-1.37-4.46-3.84-4.46s-3.86,2.11-3.86,4.46,1.39,4.49,3.86,4.49,3.84-2.11,3.84-4.49Z"/>
    <path class="st0" d="M820.81,204.39v-11.59h1.8v1.87c.94-1.22,2.28-2.11,3.86-2.11v1.85c-.22-.05-.43-.07-.72-.07-1.1,0-2.62.91-3.14,1.85v8.21h-1.8Z"/>
    <path class="st0" d="M828.37,207.29c.26.12.7.19.98.19.79,0,1.32-.26,1.73-1.22l.77-1.75-4.85-11.71h1.94l3.86,9.5,3.84-9.5h1.97l-5.81,13.95c-.7,1.68-1.87,2.33-3.41,2.35-.38,0-.98-.07-1.32-.17l.29-1.63Z"/>
    <path class="st0" d="M851.73,192.51c3.5,0,5.57,2.74,5.57,6.22v.46h-9.38c.14,2.18,1.68,4.01,4.18,4.01,1.32,0,2.67-.53,3.58-1.46l.86,1.18c-1.15,1.15-2.71,1.78-4.61,1.78-3.43,0-5.9-2.47-5.9-6.1,0-3.36,2.4-6.07,5.71-6.07ZM847.91,197.86h7.61c-.02-1.73-1.18-3.86-3.82-3.86-2.47,0-3.7,2.09-3.79,3.86Z"/>
    <path class="st0" d="M866.94,204.39l-3.48-4.75-3.48,4.75h-2.06l4.44-5.95-4.2-5.64h2.09l3.22,4.42,3.22-4.42h2.09l-4.2,5.64,4.46,5.95h-2.09Z"/>
    <path class="st0" d="M875.39,192.51c3.5,0,5.57,2.74,5.57,6.22v.46h-9.38c.14,2.18,1.68,4.01,4.18,4.01,1.32,0,2.67-.53,3.58-1.46l.86,1.18c-1.15,1.15-2.71,1.78-4.61,1.78-3.43,0-5.9-2.47-5.9-6.1,0-3.36,2.4-6.07,5.71-6.07ZM871.57,197.86h7.61c-.02-1.73-1.18-3.86-3.82-3.86-2.47,0-3.7,2.09-3.79,3.86Z"/>
    <path class="st0" d="M897.85,204.39v-7.87c0-1.46-.65-2.4-2.14-2.4-1.2,0-2.47.86-3.07,1.78v8.5h-1.8v-7.87c0-1.46-.62-2.4-2.14-2.4-1.18,0-2.42.86-3.05,1.8v8.47h-1.8v-11.59h1.8v1.68c.48-.74,2.04-1.97,3.74-1.97s2.78.96,3.12,2.16c.65-1.06,2.21-2.16,3.89-2.16,2.11,0,3.24,1.18,3.24,3.5v8.38h-1.8Z"/>
    <path class="st0" d="M905.05,208.8h-1.8v-16.01h1.8v1.73c.84-1.18,2.28-2.02,3.91-2.02,3.05,0,5.16,2.3,5.16,6.07s-2.11,6.1-5.16,6.1c-1.58,0-2.98-.74-3.91-2.04v6.17ZM908.51,194.12c-1.42,0-2.83.84-3.46,1.85v5.23c.62,1.01,2.04,1.87,3.46,1.87,2.33,0,3.72-1.92,3.72-4.49s-1.39-4.46-3.72-4.46Z"/>
    <path class="st0" d="M917.03,204.39v-16.01h1.8v16.01h-1.8Z"/>
    <path class="st0" d="M929.68,204.39v-1.32c-.96,1.06-2.28,1.61-3.84,1.61-1.97,0-4.06-1.32-4.06-3.84s2.09-3.82,4.06-3.82c1.58,0,2.9.5,3.84,1.58v-2.09c0-1.56-1.25-2.45-2.93-2.45-1.39,0-2.52.5-3.55,1.61l-.84-1.25c1.25-1.3,2.74-1.92,4.63-1.92,2.45,0,4.49,1.1,4.49,3.91v7.97h-1.8ZM929.68,199.76c-.7-.96-1.92-1.44-3.19-1.44-1.68,0-2.86,1.06-2.86,2.54s1.18,2.52,2.86,2.52c1.27,0,2.5-.48,3.19-1.44v-2.18Z"/>
    <path class="st0" d="M935.08,204.39v-11.59h1.8v1.87c.94-1.22,2.28-2.11,3.86-2.11v1.85c-.22-.05-.43-.07-.72-.07-1.1,0-2.62.91-3.14,1.85v8.21h-1.8Z"/>
    <path class="st0" d="M942.93,201.56c.77.89,2.23,1.66,3.82,1.66,1.78,0,2.74-.79,2.74-1.92,0-1.27-1.42-1.68-2.98-2.06-1.97-.46-4.2-.98-4.2-3.38,0-1.8,1.56-3.34,4.32-3.34,1.97,0,3.36.74,4.3,1.68l-.84,1.25c-.7-.84-1.97-1.46-3.46-1.46-1.58,0-2.57.72-2.57,1.75,0,1.13,1.32,1.49,2.83,1.85,2.02.46,4.34,1.03,4.34,3.6,0,1.94-1.56,3.5-4.56,3.5-1.9,0-3.5-.58-4.68-1.82l.94-1.3Z"/>
  </g>
  <g>
    <path class="st0" d="M618.09,496v-16.01h10.49v1.78h-8.5v5.16h8.33v1.78h-8.33v7.3h-1.99Z"/>
    <path class="st0" d="M636.26,484.12c3.5,0,5.57,2.74,5.57,6.22v.46h-9.38c.14,2.18,1.68,4.01,4.18,4.01,1.32,0,2.67-.53,3.58-1.46l.86,1.18c-1.15,1.15-2.71,1.78-4.61,1.78-3.43,0-5.9-2.47-5.9-6.1,0-3.36,2.4-6.07,5.71-6.07ZM632.44,489.47h7.61c-.02-1.73-1.18-3.86-3.82-3.86-2.47,0-3.7,2.09-3.79,3.86Z"/>
    <path class="st0" d="M653.13,496v-1.73c-.86,1.18-2.28,2.02-3.91,2.02-3.02,0-5.16-2.3-5.16-6.07s2.11-6.1,5.16-6.1c1.56,0,2.98.77,3.91,2.04v-6.17h1.8v16.01h-1.8ZM653.13,487.6c-.65-1.01-2.04-1.87-3.48-1.87-2.33,0-3.72,1.92-3.72,4.49s1.39,4.46,3.72,4.46c1.44,0,2.83-.82,3.48-1.82v-5.26Z"/>
    <path class="st0" d="M663.57,484.12c3.5,0,5.57,2.74,5.57,6.22v.46h-9.38c.14,2.18,1.68,4.01,4.18,4.01,1.32,0,2.67-.53,3.58-1.46l.86,1.18c-1.15,1.15-2.71,1.78-4.61,1.78-3.43,0-5.9-2.47-5.9-6.1,0-3.36,2.4-6.07,5.71-6.07ZM659.75,489.47h7.61c-.02-1.73-1.18-3.86-3.82-3.86-2.47,0-3.7,2.09-3.79,3.86Z"/>
    <path class="st0" d="M672.04,496v-11.59h1.8v1.87c.94-1.22,2.28-2.11,3.86-2.11v1.85c-.22-.05-.43-.07-.72-.07-1.1,0-2.62.91-3.14,1.85v8.21h-1.8Z"/>
    <path class="st0" d="M687.21,496v-1.32c-.96,1.06-2.28,1.61-3.84,1.61-1.97,0-4.06-1.32-4.06-3.84s2.09-3.82,4.06-3.82c1.58,0,2.9.5,3.84,1.58v-2.09c0-1.56-1.25-2.45-2.93-2.45-1.39,0-2.52.5-3.55,1.61l-.84-1.25c1.25-1.3,2.74-1.92,4.63-1.92,2.45,0,4.49,1.1,4.49,3.91v7.97h-1.8ZM687.21,491.36c-.7-.96-1.92-1.44-3.19-1.44-1.68,0-2.86,1.06-2.86,2.54s1.18,2.52,2.86,2.52c1.27,0,2.5-.48,3.19-1.44v-2.18Z"/>
    <path class="st0" d="M692.97,493.57v-7.58h-1.92v-1.58h1.92v-3.17h1.8v3.17h2.35v1.58h-2.35v7.2c0,.86.38,1.49,1.18,1.49.5,0,.98-.22,1.22-.48l.53,1.34c-.46.43-1.1.74-2.16.74-1.7,0-2.57-.98-2.57-2.71Z"/>
    <path class="st0" d="M704.71,484.12c3.5,0,5.57,2.74,5.57,6.22v.46h-9.38c.14,2.18,1.68,4.01,4.18,4.01,1.32,0,2.67-.53,3.58-1.46l.86,1.18c-1.15,1.15-2.71,1.78-4.61,1.78-3.43,0-5.9-2.47-5.9-6.1,0-3.36,2.4-6.07,5.71-6.07ZM700.89,489.47h7.61c-.02-1.73-1.18-3.86-3.82-3.86-2.47,0-3.7,2.09-3.79,3.86Z"/>
    <path class="st0" d="M721.58,496v-1.73c-.86,1.18-2.28,2.02-3.91,2.02-3.02,0-5.16-2.3-5.16-6.07s2.11-6.1,5.16-6.1c1.56,0,2.98.77,3.91,2.04v-6.17h1.8v16.01h-1.8ZM721.58,487.6c-.65-1.01-2.04-1.87-3.48-1.87-2.33,0-3.72,1.92-3.72,4.49s1.39,4.46,3.72,4.46c1.44,0,2.83-.82,3.48-1.82v-5.26Z"/>
    <path class="st0" d="M733.24,496v-16.01h5.47c4.97,0,8.21,3.48,8.21,8.02s-3.24,7.99-8.21,7.99h-5.47ZM735.23,494.22h3.48c3.89,0,6.14-2.78,6.14-6.22s-2.18-6.24-6.14-6.24h-3.48v12.46Z"/>
    <path class="st0" d="M755.01,484.12c3.5,0,5.57,2.74,5.57,6.22v.46h-9.38c.14,2.18,1.68,4.01,4.18,4.01,1.32,0,2.67-.53,3.58-1.46l.86,1.18c-1.15,1.15-2.71,1.78-4.61,1.78-3.43,0-5.9-2.47-5.9-6.1,0-3.36,2.4-6.07,5.71-6.07ZM751.19,489.47h7.61c-.02-1.73-1.18-3.86-3.82-3.86-2.47,0-3.7,2.09-3.79,3.86Z"/>
    <path class="st0" d="M765.28,500.41h-1.8v-16.01h1.8v1.73c.84-1.18,2.28-2.02,3.91-2.02,3.05,0,5.16,2.3,5.16,6.07s-2.11,6.1-5.16,6.1c-1.58,0-2.98-.74-3.91-2.04v6.17ZM768.74,485.72c-1.42,0-2.83.84-3.46,1.85v5.23c.62,1.01,2.04,1.87,3.46,1.87,2.33,0,3.72-1.92,3.72-4.49s-1.39-4.46-3.72-4.46Z"/>
    <path class="st0" d="M776.58,490.19c0-3.36,2.21-6.07,5.74-6.07s5.74,2.71,5.74,6.07-2.21,6.1-5.74,6.1-5.74-2.74-5.74-6.1ZM786.16,490.19c0-2.35-1.37-4.46-3.84-4.46s-3.86,2.11-3.86,4.46,1.39,4.49,3.86,4.49,3.84-2.11,3.84-4.49Z"/>
    <path class="st0" d="M790.91,493.16c.77.89,2.23,1.66,3.82,1.66,1.78,0,2.74-.79,2.74-1.92,0-1.27-1.42-1.68-2.98-2.06-1.97-.46-4.2-.98-4.2-3.38,0-1.8,1.56-3.34,4.32-3.34,1.97,0,3.36.74,4.3,1.68l-.84,1.25c-.7-.84-1.97-1.46-3.46-1.46-1.58,0-2.57.72-2.57,1.75,0,1.13,1.32,1.49,2.83,1.85,2.02.46,4.34,1.03,4.34,3.6,0,1.94-1.56,3.5-4.56,3.5-1.9,0-3.5-.58-4.68-1.82l.94-1.3Z"/>
    <path class="st0" d="M801.83,481.24c0-.67.55-1.2,1.2-1.2s1.22.53,1.22,1.2-.55,1.22-1.22,1.22-1.2-.55-1.2-1.22ZM802.14,496v-11.59h1.8v11.59h-1.8Z"/>
    <path class="st0" d="M807.9,493.57v-7.58h-1.92v-1.58h1.92v-3.17h1.8v3.17h2.35v1.58h-2.35v7.2c0,.86.38,1.49,1.18,1.49.5,0,.98-.22,1.22-.48l.53,1.34c-.46.43-1.1.74-2.16.74-1.7,0-2.57-.98-2.57-2.71Z"/>
    <path class="st0" d="M813.93,490.19c0-3.36,2.21-6.07,5.74-6.07s5.74,2.71,5.74,6.07-2.21,6.1-5.74,6.1-5.74-2.74-5.74-6.1ZM823.5,490.19c0-2.35-1.37-4.46-3.84-4.46s-3.86,2.11-3.86,4.46,1.39,4.49,3.86,4.49,3.84-2.11,3.84-4.49Z"/>
    <path class="st0" d="M828.33,496v-11.59h1.8v1.87c.94-1.22,2.28-2.11,3.86-2.11v1.85c-.22-.05-.43-.07-.72-.07-1.1,0-2.62.91-3.14,1.85v8.21h-1.8Z"/>
    <path class="st0" d="M835.89,498.9c.26.12.7.19.98.19.79,0,1.32-.26,1.73-1.22l.77-1.75-4.85-11.71h1.94l3.86,9.5,3.84-9.5h1.97l-5.81,13.95c-.7,1.68-1.87,2.33-3.41,2.35-.38,0-.98-.07-1.32-.17l.29-1.63Z"/>
    <path class="st0" d="M848.97,484.24c.72,0,1.32.6,1.32,1.32s-.6,1.32-1.32,1.32-1.32-.6-1.32-1.32.6-1.32,1.32-1.32ZM848.97,493.6c.72,0,1.32.6,1.32,1.32s-.6,1.32-1.32,1.32-1.32-.6-1.32-1.32.6-1.32,1.32-1.32Z"/>
    <path class="st0" d="M617.94,518.99c0-1.42,1.18-2.59,2.59-2.59s2.59,1.18,2.59,2.59-1.18,2.57-2.59,2.57-2.59-1.18-2.59-2.57Z"/>
    <path class="st0" d="M644.2,524.8l-9.34-12.91v12.91h-1.99v-16.01h2.04l9.22,12.65v-12.65h1.99v16.01h-1.92Z"/>
    <path class="st0" d="M657.04,524.8v-1.32c-.96,1.06-2.28,1.61-3.84,1.61-1.97,0-4.06-1.32-4.06-3.84s2.09-3.82,4.06-3.82c1.58,0,2.9.5,3.84,1.58v-2.09c0-1.56-1.25-2.45-2.93-2.45-1.39,0-2.52.5-3.55,1.61l-.84-1.25c1.25-1.3,2.74-1.92,4.63-1.92,2.45,0,4.49,1.1,4.49,3.91v7.97h-1.8ZM657.04,520.16c-.7-.96-1.92-1.44-3.19-1.44-1.68,0-2.86,1.06-2.86,2.54s1.18,2.52,2.86,2.52c1.27,0,2.5-.48,3.19-1.44v-2.18Z"/>
    <path class="st0" d="M662.8,522.37v-7.58h-1.92v-1.58h1.92v-3.17h1.8v3.17h2.35v1.58h-2.35v7.2c0,.86.38,1.49,1.18,1.49.5,0,.98-.22,1.22-.48l.53,1.34c-.46.43-1.1.74-2.16.74-1.7,0-2.57-.98-2.57-2.71Z"/>
    <path class="st0" d="M677.32,524.8v-1.63c-.89,1.01-2.4,1.92-4.13,1.92-2.42,0-3.7-1.18-3.7-3.7v-8.18h1.8v7.63c0,2.04,1.03,2.64,2.59,2.64,1.42,0,2.76-.82,3.43-1.75v-8.52h1.8v11.59h-1.8Z"/>
    <path class="st0" d="M682.72,524.8v-11.59h1.8v1.87c.94-1.22,2.28-2.11,3.86-2.11v1.85c-.22-.05-.43-.07-.72-.07-1.1,0-2.62.91-3.14,1.85v8.21h-1.8Z"/>
    <path class="st0" d="M697.89,524.8v-1.32c-.96,1.06-2.28,1.61-3.84,1.61-1.97,0-4.06-1.32-4.06-3.84s2.09-3.82,4.06-3.82c1.58,0,2.9.5,3.84,1.58v-2.09c0-1.56-1.25-2.45-2.93-2.45-1.39,0-2.52.5-3.55,1.61l-.84-1.25c1.25-1.3,2.74-1.92,4.63-1.92,2.45,0,4.49,1.1,4.49,3.91v7.97h-1.8ZM697.89,520.16c-.7-.96-1.92-1.44-3.19-1.44-1.68,0-2.86,1.06-2.86,2.54s1.18,2.52,2.86,2.52c1.27,0,2.5-.48,3.19-1.44v-2.18Z"/>
    <path class="st0" d="M703.29,524.8v-16.01h1.8v16.01h-1.8Z"/>
    <path class="st0" d="M707.61,519.78v-1.58h5.76v1.58h-5.76Z"/>
    <path class="st0" d="M715.89,524.8v-16.01h1.8v16.01h-1.8Z"/>
    <path class="st0" d="M728.54,524.8v-1.32c-.96,1.06-2.28,1.61-3.84,1.61-1.97,0-4.06-1.32-4.06-3.84s2.09-3.82,4.06-3.82c1.58,0,2.9.5,3.84,1.58v-2.09c0-1.56-1.25-2.45-2.93-2.45-1.39,0-2.52.5-3.55,1.61l-.84-1.25c1.25-1.3,2.74-1.92,4.63-1.92,2.45,0,4.49,1.1,4.49,3.91v7.97h-1.8ZM728.54,520.16c-.7-.96-1.92-1.44-3.19-1.44-1.68,0-2.86,1.06-2.86,2.54s1.18,2.52,2.86,2.52c1.27,0,2.5-.48,3.19-1.44v-2.18Z"/>
    <path class="st0" d="M741.76,524.8v-7.58c0-2.04-1.03-2.69-2.59-2.69-1.42,0-2.76.86-3.43,1.8v8.47h-1.8v-11.59h1.8v1.68c.82-.96,2.4-1.97,4.13-1.97,2.42,0,3.7,1.22,3.7,3.74v8.14h-1.8Z"/>
    <path class="st0" d="M748.05,526.43c.96,1.15,2.11,1.58,3.77,1.58,1.92,0,3.72-.94,3.72-3.48v-1.66c-.84,1.18-2.26,2.06-3.89,2.06-3.02,0-5.16-2.26-5.16-6s2.11-6.02,5.16-6.02c1.56,0,2.95.77,3.89,2.04v-1.75h1.8v11.26c0,3.84-2.69,5.04-5.52,5.04-1.97,0-3.31-.38-4.68-1.73l.91-1.34ZM755.54,516.4c-.62-1.01-2.02-1.87-3.46-1.87-2.33,0-3.72,1.85-3.72,4.42s1.39,4.42,3.72,4.42c1.44,0,2.83-.89,3.46-1.9v-5.06Z"/>
    <path class="st0" d="M768.76,524.8v-1.63c-.89,1.01-2.4,1.92-4.13,1.92-2.42,0-3.7-1.18-3.7-3.7v-8.18h1.8v7.63c0,2.04,1.03,2.64,2.59,2.64,1.42,0,2.76-.82,3.43-1.75v-8.52h1.8v11.59h-1.8Z"/>
    <path class="st0" d="M781.41,524.8v-1.32c-.96,1.06-2.28,1.61-3.84,1.61-1.97,0-4.06-1.32-4.06-3.84s2.09-3.82,4.06-3.82c1.58,0,2.9.5,3.84,1.58v-2.09c0-1.56-1.25-2.45-2.93-2.45-1.39,0-2.52.5-3.55,1.61l-.84-1.25c1.25-1.3,2.74-1.92,4.63-1.92,2.45,0,4.49,1.1,4.49,3.91v7.97h-1.8ZM781.41,520.16c-.7-.96-1.92-1.44-3.19-1.44-1.68,0-2.86,1.06-2.86,2.54s1.18,2.52,2.86,2.52c1.27,0,2.5-.48,3.19-1.44v-2.18Z"/>
    <path class="st0" d="M787.7,526.43c.96,1.15,2.11,1.58,3.77,1.58,1.92,0,3.72-.94,3.72-3.48v-1.66c-.84,1.18-2.26,2.06-3.89,2.06-3.02,0-5.16-2.26-5.16-6s2.11-6.02,5.16-6.02c1.56,0,2.95.77,3.89,2.04v-1.75h1.8v11.26c0,3.84-2.69,5.04-5.52,5.04-1.97,0-3.31-.38-4.68-1.73l.91-1.34ZM795.18,516.4c-.62-1.01-2.02-1.87-3.46-1.87-2.33,0-3.72,1.85-3.72,4.42s1.39,4.42,3.72,4.42c1.44,0,2.83-.89,3.46-1.9v-5.06Z"/>
    <path class="st0" d="M805.62,512.92c3.5,0,5.57,2.74,5.57,6.22v.46h-9.38c.14,2.18,1.68,4.01,4.18,4.01,1.32,0,2.67-.53,3.58-1.46l.86,1.18c-1.15,1.15-2.71,1.78-4.61,1.78-3.43,0-5.9-2.47-5.9-6.1,0-3.36,2.4-6.07,5.71-6.07ZM801.81,518.27h7.61c-.02-1.73-1.18-3.86-3.82-3.86-2.47,0-3.7,2.09-3.79,3.86Z"/>
    <path class="st0" d="M830.46,529.21h-1.8v-6.17c-.94,1.3-2.33,2.04-3.89,2.04-3.05,0-5.16-2.35-5.16-6.1s2.11-6.07,5.16-6.07c1.63,0,3.05.84,3.89,2.02v-1.73h1.8v16.01ZM828.67,516.37c-.62-1.01-2.02-1.85-3.46-1.85-2.33,0-3.72,1.9-3.72,4.46s1.39,4.49,3.72,4.49c1.44,0,2.83-.86,3.46-1.87v-5.23Z"/>
    <path class="st0" d="M841.89,524.8v-1.63c-.89,1.01-2.4,1.92-4.13,1.92-2.42,0-3.7-1.18-3.7-3.7v-8.18h1.8v7.63c0,2.04,1.03,2.64,2.59,2.64,1.42,0,2.76-.82,3.43-1.75v-8.52h1.8v11.59h-1.8Z"/>
    <path class="st0" d="M852.33,512.92c3.5,0,5.57,2.74,5.57,6.22v.46h-9.38c.14,2.18,1.68,4.01,4.18,4.01,1.32,0,2.67-.53,3.58-1.46l.86,1.18c-1.15,1.15-2.71,1.78-4.61,1.78-3.43,0-5.9-2.47-5.9-6.1,0-3.36,2.4-6.07,5.71-6.07ZM848.51,518.27h7.61c-.02-1.73-1.18-3.86-3.82-3.86-2.47,0-3.7,2.09-3.79,3.86Z"/>
    <path class="st0" d="M860.8,524.8v-11.59h1.8v1.87c.94-1.22,2.28-2.11,3.86-2.11v1.85c-.22-.05-.43-.07-.72-.07-1.1,0-2.62.91-3.14,1.85v8.21h-1.8Z"/>
    <path class="st0" d="M868.36,527.7c.26.12.7.19.98.19.79,0,1.32-.26,1.73-1.22l.77-1.75-4.85-11.71h1.94l3.86,9.5,3.84-9.5h1.97l-5.81,13.95c-.7,1.68-1.87,2.33-3.41,2.35-.38,0-.98-.07-1.32-.17l.29-1.63Z"/>
    <path class="st0" d="M880.17,510.04c0-.67.55-1.2,1.2-1.2s1.22.53,1.22,1.2-.55,1.22-1.22,1.22-1.2-.55-1.2-1.22ZM880.48,524.8v-11.59h1.8v11.59h-1.8Z"/>
    <path class="st0" d="M893.71,524.8v-7.58c0-2.04-1.03-2.69-2.59-2.69-1.42,0-2.76.86-3.43,1.8v8.47h-1.8v-11.59h1.8v1.68c.82-.96,2.4-1.97,4.13-1.97,2.42,0,3.7,1.22,3.7,3.74v8.14h-1.8Z"/>
    <path class="st0" d="M899.99,526.43c.96,1.15,2.11,1.58,3.77,1.58,1.92,0,3.72-.94,3.72-3.48v-1.66c-.84,1.18-2.26,2.06-3.89,2.06-3.02,0-5.16-2.26-5.16-6s2.11-6.02,5.16-6.02c1.56,0,2.95.77,3.89,2.04v-1.75h1.8v11.26c0,3.84-2.69,5.04-5.52,5.04-1.97,0-3.31-.38-4.68-1.73l.91-1.34ZM907.48,516.4c-.62-1.01-2.02-1.87-3.46-1.87-2.33,0-3.72,1.85-3.72,4.42s1.39,4.42,3.72,4.42c1.44,0,2.83-.89,3.46-1.9v-5.06Z"/>
    <path class="st0" d="M617.94,547.79c0-1.42,1.18-2.59,2.59-2.59s2.59,1.18,2.59,2.59-1.18,2.57-2.59,2.57-2.59-1.18-2.59-2.57Z"/>
    <path class="st0" d="M632.87,553.6v-16.01h5.47c4.97,0,8.21,3.48,8.21,8.02s-3.24,7.99-8.21,7.99h-5.47ZM634.86,551.82h3.48c3.89,0,6.14-2.78,6.14-6.22s-2.18-6.24-6.14-6.24h-3.48v12.46Z"/>
    <path class="st0" d="M649.29,538.83c0-.67.55-1.2,1.2-1.2s1.22.53,1.22,1.2-.55,1.22-1.22,1.22-1.2-.55-1.2-1.22ZM649.6,553.6v-11.59h1.8v11.59h-1.8Z"/>
    <path class="st0" d="M655.5,553.6v-10.01h-1.92v-1.58h1.92v-.89c0-2.4,1.34-3.77,3.36-3.77.67,0,1.3.12,1.75.41l-.46,1.34c-.29-.17-.62-.26-1.03-.26-1.18,0-1.82.82-1.82,2.28v.89h2.35v1.58h-2.35v10.01h-1.8ZM662.3,553.6v-10.01h-1.92v-1.58h1.92v-.89c0-2.4,1.34-3.77,3.36-3.77.67,0,1.3.12,1.75.41l-.46,1.34c-.29-.17-.62-.26-1.03-.26-1.18,0-1.82.82-1.82,2.28v.89h2.35v1.58h-2.35v10.01h-1.8Z"/>
    <path class="st0" d="M673.62,541.72c3.5,0,5.57,2.74,5.57,6.22v.46h-9.38c.14,2.18,1.68,4.01,4.18,4.01,1.32,0,2.67-.53,3.58-1.46l.86,1.18c-1.15,1.15-2.71,1.78-4.61,1.78-3.43,0-5.9-2.47-5.9-6.1,0-3.36,2.4-6.07,5.71-6.07ZM669.81,547.07h7.61c-.02-1.73-1.18-3.86-3.82-3.86-2.47,0-3.7,2.09-3.79,3.86Z"/>
    <path class="st0" d="M682.1,553.6v-11.59h1.8v1.87c.94-1.22,2.28-2.11,3.86-2.11v1.85c-.22-.05-.43-.07-.72-.07-1.1,0-2.62.91-3.14,1.85v8.21h-1.8Z"/>
    <path class="st0" d="M695.06,541.72c3.5,0,5.57,2.74,5.57,6.22v.46h-9.38c.14,2.18,1.68,4.01,4.18,4.01,1.32,0,2.67-.53,3.58-1.46l.86,1.18c-1.15,1.15-2.71,1.78-4.61,1.78-3.43,0-5.9-2.47-5.9-6.1,0-3.36,2.4-6.07,5.71-6.07ZM691.24,547.07h7.61c-.02-1.73-1.18-3.86-3.82-3.86-2.47,0-3.7,2.09-3.79,3.86Z"/>
    <path class="st0" d="M711.35,553.6v-7.58c0-2.04-1.03-2.69-2.59-2.69-1.42,0-2.76.86-3.43,1.8v8.47h-1.8v-11.59h1.8v1.68c.82-.96,2.4-1.97,4.13-1.97,2.42,0,3.7,1.22,3.7,3.74v8.14h-1.8Z"/>
    <path class="st0" d="M717.11,551.17v-7.58h-1.92v-1.58h1.92v-3.17h1.8v3.17h2.35v1.58h-2.35v7.2c0,.86.38,1.49,1.18,1.49.5,0,.98-.22,1.22-.48l.53,1.34c-.46.43-1.1.74-2.16.74-1.7,0-2.57-.98-2.57-2.71Z"/>
    <path class="st0" d="M738.4,553.6v-1.73c-.86,1.18-2.28,2.02-3.91,2.02-3.02,0-5.16-2.3-5.16-6.07s2.11-6.1,5.16-6.1c1.56,0,2.98.77,3.91,2.04v-6.17h1.8v16.01h-1.8ZM738.4,545.2c-.65-1.01-2.04-1.87-3.48-1.87-2.33,0-3.72,1.92-3.72,4.49s1.39,4.46,3.72,4.46c1.44,0,2.83-.82,3.48-1.82v-5.26Z"/>
    <path class="st0" d="M751.05,553.6v-1.32c-.96,1.06-2.28,1.61-3.84,1.61-1.97,0-4.06-1.32-4.06-3.84s2.09-3.82,4.06-3.82c1.58,0,2.9.5,3.84,1.58v-2.09c0-1.56-1.25-2.45-2.93-2.45-1.39,0-2.52.5-3.55,1.61l-.84-1.25c1.25-1.3,2.74-1.92,4.63-1.92,2.45,0,4.49,1.1,4.49,3.91v7.97h-1.8ZM751.05,548.96c-.7-.96-1.92-1.44-3.19-1.44-1.68,0-2.86,1.06-2.86,2.54s1.18,2.52,2.86,2.52c1.27,0,2.5-.48,3.19-1.44v-2.18Z"/>
    <path class="st0" d="M756.81,551.17v-7.58h-1.92v-1.58h1.92v-3.17h1.8v3.17h2.35v1.58h-2.35v7.2c0,.86.38,1.49,1.18,1.49.5,0,.98-.22,1.22-.48l.53,1.34c-.46.43-1.1.74-2.16.74-1.7,0-2.57-.98-2.57-2.71Z"/>
    <path class="st0" d="M770.75,553.6v-1.32c-.96,1.06-2.28,1.61-3.84,1.61-1.97,0-4.06-1.32-4.06-3.84s2.09-3.82,4.06-3.82c1.58,0,2.9.5,3.84,1.58v-2.09c0-1.56-1.25-2.45-2.93-2.45-1.39,0-2.52.5-3.55,1.61l-.84-1.25c1.25-1.3,2.74-1.92,4.63-1.92,2.45,0,4.49,1.1,4.49,3.91v7.97h-1.8ZM770.75,548.96c-.7-.96-1.92-1.44-3.19-1.44-1.68,0-2.86,1.06-2.86,2.54s1.18,2.52,2.86,2.52c1.27,0,2.5-.48,3.19-1.44v-2.18Z"/>
    <path class="st0" d="M784.65,543.59v10.01h-1.8v-10.01h-1.92v-1.58h1.92v-.89c0-2.4,1.34-3.77,3.36-3.77.67,0,1.3.12,1.75.41l-.46,1.34c-.29-.17-.62-.26-1.03-.26-1.18,0-1.82.82-1.82,2.28v.89h2.35v1.58h-2.35Z"/>
    <path class="st0" d="M788.46,547.79c0-3.36,2.21-6.07,5.74-6.07s5.74,2.71,5.74,6.07-2.21,6.1-5.74,6.1-5.74-2.74-5.74-6.1ZM798.04,547.79c0-2.35-1.37-4.46-3.84-4.46s-3.86,2.11-3.86,4.46,1.39,4.49,3.86,4.49,3.84-2.11,3.84-4.49Z"/>
    <path class="st0" d="M802.86,553.6v-11.59h1.8v1.87c.94-1.22,2.28-2.11,3.86-2.11v1.85c-.22-.05-.43-.07-.72-.07-1.1,0-2.62.91-3.14,1.85v8.21h-1.8Z"/>
    <path class="st0" d="M824.78,553.6v-7.87c0-1.46-.65-2.4-2.14-2.4-1.2,0-2.47.86-3.07,1.78v8.5h-1.8v-7.87c0-1.46-.62-2.4-2.14-2.4-1.18,0-2.42.86-3.05,1.8v8.47h-1.8v-11.59h1.8v1.68c.48-.74,2.04-1.97,3.74-1.97s2.78.96,3.12,2.16c.65-1.06,2.21-2.16,3.89-2.16,2.11,0,3.24,1.18,3.24,3.5v8.38h-1.8Z"/>
    <path class="st0" d="M837.42,553.6v-1.32c-.96,1.06-2.28,1.61-3.84,1.61-1.97,0-4.06-1.32-4.06-3.84s2.09-3.82,4.06-3.82c1.58,0,2.9.5,3.84,1.58v-2.09c0-1.56-1.25-2.45-2.93-2.45-1.39,0-2.52.5-3.55,1.61l-.84-1.25c1.25-1.3,2.74-1.92,4.63-1.92,2.45,0,4.49,1.1,4.49,3.91v7.97h-1.8ZM837.42,548.96c-.7-.96-1.92-1.44-3.19-1.44-1.68,0-2.86,1.06-2.86,2.54s1.18,2.52,2.86,2.52c1.27,0,2.5-.48,3.19-1.44v-2.18Z"/>
    <path class="st0" d="M843.18,551.17v-7.58h-1.92v-1.58h1.92v-3.17h1.8v3.17h2.35v1.58h-2.35v7.2c0,.86.38,1.49,1.18,1.49.5,0,.98-.22,1.22-.48l.53,1.34c-.46.43-1.1.74-2.16.74-1.7,0-2.57-.98-2.57-2.71Z"/>
    <path class="st0" d="M849.81,550.76c.77.89,2.23,1.66,3.82,1.66,1.78,0,2.74-.79,2.74-1.92,0-1.27-1.42-1.68-2.98-2.06-1.97-.46-4.2-.98-4.2-3.38,0-1.8,1.56-3.34,4.32-3.34,1.97,0,3.36.74,4.3,1.68l-.84,1.25c-.7-.84-1.97-1.46-3.46-1.46-1.58,0-2.57.72-2.57,1.75,0,1.13,1.32,1.49,2.83,1.85,2.02.46,4.34,1.03,4.34,3.6,0,1.94-1.56,3.5-4.56,3.5-1.9,0-3.5-.58-4.68-1.82l.94-1.3Z"/>
    <path class="st0" d="M617.94,576.59c0-1.42,1.18-2.59,2.59-2.59s2.59,1.18,2.59,2.59-1.18,2.57-2.59,2.57-2.59-1.18-2.59-2.57Z"/>
    <path class="st0" d="M632.22,574.4c0-4.92,3.62-8.28,8.16-8.28,2.9,0,4.87,1.37,6.14,3.17l-1.68.94c-.91-1.34-2.57-2.33-4.46-2.33-3.43,0-6.1,2.69-6.1,6.5s2.66,6.5,6.1,6.5c1.9,0,3.55-.96,4.46-2.33l1.7.94c-1.34,1.82-3.26,3.17-6.17,3.17-4.54,0-8.16-3.36-8.16-8.28Z"/>
    <path class="st0" d="M648.35,576.59c0-3.36,2.21-6.07,5.74-6.07s5.74,2.71,5.74,6.07-2.21,6.1-5.74,6.1-5.74-2.74-5.74-6.1ZM657.93,576.59c0-2.35-1.37-4.46-3.84-4.46s-3.86,2.11-3.86,4.46,1.39,4.49,3.86,4.49,3.84-2.11,3.84-4.49Z"/>
    <path class="st0" d="M670.58,582.4v-7.58c0-2.04-1.03-2.69-2.59-2.69-1.42,0-2.76.86-3.43,1.8v8.47h-1.8v-11.59h1.8v1.68c.82-.96,2.4-1.97,4.13-1.97,2.42,0,3.7,1.22,3.7,3.74v8.14h-1.8Z"/>
    <path class="st0" d="M683.8,582.4v-7.58c0-2.04-1.03-2.69-2.59-2.69-1.42,0-2.76.86-3.43,1.8v8.47h-1.8v-11.59h1.8v1.68c.82-.96,2.4-1.97,4.13-1.97,2.42,0,3.7,1.22,3.7,3.74v8.14h-1.8Z"/>
    <path class="st0" d="M694.24,570.52c3.5,0,5.57,2.74,5.57,6.22v.46h-9.38c.14,2.18,1.68,4.01,4.18,4.01,1.32,0,2.67-.53,3.58-1.46l.86,1.18c-1.15,1.15-2.71,1.78-4.61,1.78-3.43,0-5.9-2.47-5.9-6.1,0-3.36,2.4-6.07,5.71-6.07ZM690.42,575.87h7.61c-.02-1.73-1.18-3.86-3.82-3.86-2.47,0-3.7,2.09-3.79,3.86Z"/>
    <path class="st0" d="M707.83,570.52c2.11,0,3.36.86,4.25,2.02l-1.2,1.1c-.77-1.06-1.75-1.51-2.95-1.51-2.47,0-4.01,1.9-4.01,4.46s1.54,4.49,4.01,4.49c1.2,0,2.18-.48,2.95-1.51l1.2,1.1c-.89,1.15-2.14,2.02-4.25,2.02-3.46,0-5.79-2.64-5.79-6.1s2.33-6.07,5.79-6.07Z"/>
    <path class="st0" d="M714.95,579.97v-7.58h-1.92v-1.58h1.92v-3.17h1.8v3.17h2.35v1.58h-2.35v7.2c0,.86.38,1.49,1.18,1.49.5,0,.98-.22,1.22-.48l.53,1.34c-.46.43-1.1.74-2.16.74-1.7,0-2.57-.98-2.57-2.71Z"/>
    <path class="st0" d="M728.2,579.97v-7.58h-1.92v-1.58h1.92v-3.17h1.8v3.17h2.35v1.58h-2.35v7.2c0,.86.38,1.49,1.18,1.49.5,0,.98-.22,1.22-.48l.53,1.34c-.46.43-1.1.74-2.16.74-1.7,0-2.57-.98-2.57-2.71Z"/>
    <path class="st0" d="M734.22,576.59c0-3.36,2.21-6.07,5.74-6.07s5.74,2.71,5.74,6.07-2.21,6.1-5.74,6.1-5.74-2.74-5.74-6.1ZM743.8,576.59c0-2.35-1.37-4.46-3.84-4.46s-3.86,2.11-3.86,4.46,1.39,4.49,3.86,4.49,3.84-2.11,3.84-4.49Z"/>
    <path class="st0" d="M754.82,582.4v-16.01h1.8v16.01h-1.8Z"/>
    <path class="st0" d="M767.46,582.4v-1.32c-.96,1.06-2.28,1.61-3.84,1.61-1.97,0-4.06-1.32-4.06-3.84s2.09-3.82,4.06-3.82c1.58,0,2.9.5,3.84,1.58v-2.09c0-1.56-1.25-2.45-2.93-2.45-1.39,0-2.52.5-3.55,1.61l-.84-1.25c1.25-1.3,2.74-1.92,4.63-1.92,2.45,0,4.49,1.1,4.49,3.91v7.97h-1.8ZM767.46,577.76c-.7-.96-1.92-1.44-3.19-1.44-1.68,0-2.86,1.06-2.86,2.54s1.18,2.52,2.86,2.52c1.27,0,2.5-.48,3.19-1.44v-2.18Z"/>
    <path class="st0" d="M772.86,582.4v-11.59h1.8v1.87c.94-1.22,2.28-2.11,3.86-2.11v1.85c-.22-.05-.43-.07-.72-.07-1.1,0-2.62.91-3.14,1.85v8.21h-1.8Z"/>
    <path class="st0" d="M781.67,584.03c.96,1.15,2.11,1.58,3.77,1.58,1.92,0,3.72-.94,3.72-3.48v-1.66c-.84,1.18-2.26,2.06-3.89,2.06-3.02,0-5.16-2.26-5.16-6s2.11-6.02,5.16-6.02c1.56,0,2.95.77,3.89,2.04v-1.75h1.8v11.26c0,3.84-2.69,5.04-5.52,5.04-1.97,0-3.31-.38-4.68-1.73l.91-1.34ZM789.16,574c-.62-1.01-2.02-1.87-3.46-1.87-2.33,0-3.72,1.85-3.72,4.42s1.39,4.42,3.72,4.42c1.44,0,2.83-.89,3.46-1.9v-5.06Z"/>
    <path class="st0" d="M799.6,570.52c3.5,0,5.57,2.74,5.57,6.22v.46h-9.38c.14,2.18,1.68,4.01,4.18,4.01,1.32,0,2.67-.53,3.58-1.46l.86,1.18c-1.15,1.15-2.71,1.78-4.61,1.78-3.43,0-5.9-2.47-5.9-6.1,0-3.36,2.4-6.07,5.71-6.07ZM795.78,575.87h7.61c-.02-1.73-1.18-3.86-3.82-3.86-2.47,0-3.7,2.09-3.79,3.86Z"/>
    <path class="st0" d="M808.07,582.4v-11.59h1.8v1.87c.94-1.22,2.28-2.11,3.86-2.11v1.85c-.22-.05-.43-.07-.72-.07-1.1,0-2.62.91-3.14,1.85v8.21h-1.8Z"/>
    <path class="st0" d="M830.58,582.4v-1.73c-.86,1.18-2.28,2.02-3.91,2.02-3.02,0-5.16-2.3-5.16-6.07s2.11-6.1,5.16-6.1c1.56,0,2.98.77,3.91,2.04v-6.17h1.8v16.01h-1.8ZM830.58,574c-.65-1.01-2.04-1.87-3.48-1.87-2.33,0-3.72,1.92-3.72,4.49s1.39,4.46,3.72,4.46c1.44,0,2.83-.82,3.48-1.82v-5.26Z"/>
    <path class="st0" d="M843.23,582.4v-1.32c-.96,1.06-2.28,1.61-3.84,1.61-1.97,0-4.06-1.32-4.06-3.84s2.09-3.82,4.06-3.82c1.58,0,2.9.5,3.84,1.58v-2.09c0-1.56-1.25-2.45-2.93-2.45-1.39,0-2.52.5-3.55,1.61l-.84-1.25c1.25-1.3,2.74-1.92,4.63-1.92,2.45,0,4.49,1.1,4.49,3.91v7.97h-1.8ZM843.23,577.76c-.7-.96-1.92-1.44-3.19-1.44-1.68,0-2.86,1.06-2.86,2.54s1.18,2.52,2.86,2.52c1.27,0,2.5-.48,3.19-1.44v-2.18Z"/>
    <path class="st0" d="M848.99,579.97v-7.58h-1.92v-1.58h1.92v-3.17h1.8v3.17h2.35v1.58h-2.35v7.2c0,.86.38,1.49,1.18,1.49.5,0,.98-.22,1.22-.48l.53,1.34c-.46.43-1.1.74-2.16.74-1.7,0-2.57-.98-2.57-2.71Z"/>
    <path class="st0" d="M862.94,582.4v-1.32c-.96,1.06-2.28,1.61-3.84,1.61-1.97,0-4.06-1.32-4.06-3.84s2.09-3.82,4.06-3.82c1.58,0,2.9.5,3.84,1.58v-2.09c0-1.56-1.25-2.45-2.93-2.45-1.39,0-2.52.5-3.55,1.61l-.84-1.25c1.25-1.3,2.74-1.92,4.63-1.92,2.45,0,4.49,1.1,4.49,3.91v7.97h-1.8ZM862.94,577.76c-.7-.96-1.92-1.44-3.19-1.44-1.68,0-2.86,1.06-2.86,2.54s1.18,2.52,2.86,2.52c1.27,0,2.5-.48,3.19-1.44v-2.18Z"/>
    <path class="st0" d="M868.34,582.4v-16.01h1.8v6.17c.94-1.27,2.33-2.04,3.91-2.04,3.02,0,5.16,2.4,5.16,6.1s-2.14,6.07-5.16,6.07c-1.63,0-3.05-.84-3.91-2.02v1.73h-1.8ZM870.14,579.25c.62,1.01,2.04,1.82,3.46,1.82,2.35,0,3.74-1.9,3.74-4.46s-1.39-4.49-3.74-4.49c-1.42,0-2.83.86-3.46,1.87v5.26Z"/>
    <path class="st0" d="M889.38,582.4v-1.32c-.96,1.06-2.28,1.61-3.84,1.61-1.97,0-4.06-1.32-4.06-3.84s2.09-3.82,4.06-3.82c1.58,0,2.9.5,3.84,1.58v-2.09c0-1.56-1.25-2.45-2.93-2.45-1.39,0-2.52.5-3.55,1.61l-.84-1.25c1.25-1.3,2.74-1.92,4.63-1.92,2.45,0,4.49,1.1,4.49,3.91v7.97h-1.8ZM889.38,577.76c-.7-.96-1.92-1.44-3.19-1.44-1.68,0-2.86,1.06-2.86,2.54s1.18,2.52,2.86,2.52c1.27,0,2.5-.48,3.19-1.44v-2.18Z"/>
    <path class="st0" d="M894.71,579.57c.77.89,2.23,1.66,3.82,1.66,1.78,0,2.74-.79,2.74-1.92,0-1.27-1.42-1.68-2.98-2.06-1.97-.46-4.2-.98-4.2-3.38,0-1.8,1.56-3.34,4.32-3.34,1.97,0,3.36.74,4.3,1.68l-.84,1.25c-.7-.84-1.97-1.46-3.46-1.46-1.58,0-2.57.72-2.57,1.75,0,1.13,1.32,1.49,2.83,1.85,2.02.46,4.34,1.03,4.34,3.6,0,1.94-1.56,3.5-4.56,3.5-1.9,0-3.5-.58-4.68-1.82l.94-1.3Z"/>
    <path class="st0" d="M910.98,570.52c3.5,0,5.57,2.74,5.57,6.22v.46h-9.38c.14,2.18,1.68,4.01,4.18,4.01,1.32,0,2.67-.53,3.58-1.46l.86,1.18c-1.15,1.15-2.71,1.78-4.61,1.78-3.43,0-5.9-2.47-5.9-6.1,0-3.36,2.4-6.07,5.71-6.07ZM907.17,575.87h7.61c-.02-1.73-1.18-3.86-3.82-3.86-2.47,0-3.7,2.09-3.79,3.86Z"/>
    <path class="st0" d="M919.38,579.57c.77.89,2.23,1.66,3.82,1.66,1.78,0,2.74-.79,2.74-1.92,0-1.27-1.42-1.68-2.98-2.06-1.97-.46-4.2-.98-4.2-3.38,0-1.8,1.56-3.34,4.32-3.34,1.97,0,3.36.74,4.3,1.68l-.84,1.25c-.7-.84-1.97-1.46-3.46-1.46-1.58,0-2.57.72-2.57,1.75,0,1.13,1.32,1.49,2.83,1.85,2.02.46,4.34,1.03,4.34,3.6,0,1.94-1.56,3.5-4.56,3.5-1.9,0-3.5-.58-4.68-1.82l.94-1.3Z"/>
  </g>
  <circle class="st0" cx="753.37" cy="187.18" r="17.69"/>
  <circle class="st0" cx="586.44" cy="499.27" r="17.69"/>
  <circle class="st0" cx="328.7" cy="447.7" r="9.64"/>
  <circle class="st0" cx="476.33" cy="599.27" r="9.64"/>
  <circle class="st0" cx="258.04" cy="396.74" r="6.57"/>
  <circle cx="695.5" cy="50.35" r="9.64"/>
  <circle class="st0" cx="123.47" cy="262.32" r="17.69"/>
  <line class="st10" x1="280.51" y1="268.79" x2="149.12" y2="263.42"/>
  <circle class="st0" cx="388.55" cy="211.9" r="109.83"/>
  <g>
    <path class="st0" d="M269.18,201.13l-16.74-2.44,1.29-8.81c.46-3.19,2.74-4.52,4.97-4.2,2.11.31,3.32,1.82,3.42,3.45.54-1.74,2.48-2.92,4.58-2.61,2.51.37,4.27,2.34,3.81,5.53l-1.33,9.09ZM259.68,196.1l.65-4.47c.18-1.2-.49-2.07-1.57-2.23-1.03-.15-1.94.49-2.12,1.69l-.65,4.47,3.69.54ZM266.66,197.12l.67-4.59c.2-1.36-.46-2.27-1.67-2.45-1.05-.15-2.07.47-2.27,1.87l-.67,4.59,3.94.58Z"/>
    <path class="st0" d="M255.43,180.3l1.04-3.5,9.63,2.85c2.26.67,4.19-.11,4.94-2.64.73-2.48-.46-4.18-2.72-4.85l-9.63-2.85,1.04-3.5,9.73,2.88c4.04,1.2,6.1,4.32,4.65,9.23-1.47,4.96-4.93,6.45-8.92,5.27l-9.75-2.89Z"/>
    <path class="st0" d="M277.2,167.95l-15.64-6.45,1.37-3.33,15.64,6.45-1.37,3.33Z"/>
    <path class="st0" d="M279.72,161.84l-15.06-7.71,1.64-3.21,12.24,6.27,3.26-6.37,2.82,1.45-4.9,9.58Z"/>
    <path class="st0" d="M285.55,150.49l-13.96-9.57,3.77-5.51c3-4.38,7.86-5.5,12.07-2.62s4.89,7.81,1.89,12.19l-3.77,5.51ZM284.97,145.73l1.74-2.53c1.89-2.76,1.01-5.74-1.36-7.36-2.47-1.69-5.41-1.49-7.37,1.38l-1.74,2.53,8.73,5.98Z"/>
    <path class="st0" d="M304.14,126.76l-11.15-12.73,5.02-4.4c3.99-3.5,8.98-3.38,12.34.46,3.36,3.84,2.8,8.78-1.19,12.28l-5.02,4.4ZM304.76,122l2.31-2.02c2.52-2.21,2.4-5.31.51-7.47-1.97-2.25-4.87-2.79-7.49-.5l-2.31,2.02,6.97,7.96Z"/>
    <path class="st0" d="M326.78,109.28l-2.5-1.85-6.31,4.17.72,3.02-3.3,2.18-3.86-17.73,3.77-2.49,14.77,10.53-3.28,2.17ZM315.13,100.43l1.93,8.03,4.68-3.09-6.61-4.94Z"/>
    <path class="st0" d="M333.17,105.78l-6.19-12.28-4.42,2.23-1.43-2.83,12.05-6.07,1.43,2.83-4.4,2.21,6.19,12.28-3.24,1.63Z"/>
    <path class="st0" d="M352.13,97.78l-2-2.38-7.1,2.59v3.11s-3.72,1.35-3.72,1.35l.36-18.14,4.24-1.55,11.92,13.67-3.69,1.35ZM342.85,86.47v8.26s5.28-1.92,5.28-1.92l-5.28-6.34Z"/>
    <path class="st0" d="M363.12,94.93l-3.33-16.59,3.53-.71,3.33,16.59-3.53.71Z"/>
    <path class="st0" d="M381.14,92.39l-9.11-10.55,1.08,11.31-3.59.34-1.61-16.84,3.69-.35,8.84,10.17-1.04-10.91,3.59-.34,1.61,16.84-3.46.33Z"/>
    <path class="st0" d="M387.42,92.12l.62-16.92,11.97.44-.11,3.09-8.37-.31-.13,3.68,8.19.3-.11,3.09-8.19-.3-.26,7.05-3.6-.13Z"/>
    <path class="st0" d="M410.83,94.27l-2.31-6.51-2.6-.42-.97,5.98-3.56-.57,2.7-16.7,7.81,1.26c3.48.56,5.24,3.18,4.74,6.29-.48,2.96-2.58,4.23-4.46,4.37l2.73,6.97-4.08-.66ZM410.88,80.27l-3.73-.6-.74,4.61,3.73.6c1.43.23,2.65-.5,2.88-1.9.23-1.4-.7-2.48-2.13-2.71Z"/>
    <path class="st0" d="M428.24,98.87l-.17-3.1-7.23-2.21-1.87,2.48-3.78-1.16,11.21-14.27,4.32,1.32,1.29,18.09-3.76-1.15ZM427.64,84.25l-4.96,6.6,5.36,1.64-.4-8.24Z"/>
    <path class="st0" d="M435.59,96.17c.57,1.63,1.82,3.34,3.95,4.31,1.8.82,3.07.37,3.47-.51.53-1.15-.63-2.16-2.22-3.38-2.25-1.72-5.17-3.89-3.6-7.33,1.17-2.56,4.33-3.63,7.96-1.98,2.45,1.12,4.14,2.78,5.02,4.88l-2.92,1.57c-.72-1.72-2.14-3.01-3.64-3.7-1.48-.67-2.56-.38-2.98.54-.47,1.04.67,1.95,2.26,3.18,2.28,1.74,5.16,3.97,3.6,7.39-1.28,2.82-4.26,4.02-8.42,2.13-2.96-1.35-4.63-3.31-5.42-5.43l2.94-1.67Z"/>
    <path class="st0" d="M449.25,108.74l7.16-11.74-4.22-2.58,1.65-2.71,11.52,7.03-1.65,2.71-4.2-2.56-7.16,11.74-3.1-1.89Z"/>
    <path class="st0" d="M465.47,120.18l1.18-6.81-2.06-1.64-3.78,4.74-2.82-2.25,10.54-13.23,6.19,4.93c2.76,2.2,3,5.35,1.04,7.81-1.87,2.34-4.33,2.42-6.03,1.62l-1.04,7.41-3.23-2.58ZM472.38,108.01l-2.96-2.36-2.91,3.65,2.96,2.36c1.13.9,2.55.87,3.44-.24.88-1.11.6-2.5-.53-3.41Z"/>
    <path class="st0" d="M482.53,112.51l2.51,2.65-7.29,6.91c-1.71,1.62-2,3.68-.19,5.59,1.78,1.88,3.85,1.7,5.56.08l7.29-6.91,2.51,2.65-7.37,6.98c-3.06,2.9-6.79,3.12-10.32-.6-3.56-3.76-3.12-7.5-.09-10.36l7.39-6.99Z"/>
    <path class="st0" d="M488.8,131.75c4.25-3,9.42-1.83,12.27,2.21,2.22,3.15,1.81,6.08.77,8.27l-3.03-1.65c.71-1.37.72-3.24-.36-4.78-1.7-2.41-4.91-2.87-7.52-1.03-2.61,1.84-3.25,5.03-1.56,7.43,1.08,1.53,2.83,2.16,4.38,1.94l.56,3.39c-2.42.22-5.33-.34-7.55-3.49-2.85-4.04-2.21-9.3,2.04-12.3Z"/>
    <path class="st0" d="M493.7,154.7l12.17-6.4-2.3-4.38,2.81-1.48,6.28,11.95-2.81,1.48-2.29-4.36-12.17,6.4-1.69-3.21Z"/>
    <path class="st0" d="M514.34,158.07l1.25,3.43-9.44,3.44c-2.22.81-3.3,2.58-2.4,5.06.89,2.43,2.85,3.09,5.07,2.28l9.44-3.44,1.25,3.43-9.53,3.47c-3.96,1.44-7.47.16-9.23-4.66-1.77-4.86.12-8.12,4.03-9.54l9.56-3.48Z"/>
    <path class="st0" d="M506.27,190.11l5.25-4.5-.54-2.58-5.93,1.25-.74-3.53,16.56-3.49,1.63,7.75c.73,3.45-1.09,6.04-4.17,6.69-2.93.62-4.88-.89-5.68-2.59l-5.52,5.05-.85-4.05ZM519.35,185.13l-.78-3.7-4.57.96.78,3.7c.3,1.42,1.42,2.29,2.81,2,1.39-.29,2.06-1.55,1.76-2.96Z"/>
    <path class="st0" d="M507.33,196.25l16.86-1.38.98,11.93-3.08.25-.69-8.34-3.67.3.67,8.17-3.08.25-.67-8.17-3.92.32.68,8.34-3.11.25-.98-11.93Z"/>
  </g>
  <line class="st10" x1="379.74" y1="330.34" x2="336.34" y2="434.48"/>
  <line class="st10" x1="505.32" y1="238.1" x2="724.32" y2="192.63"/>
  <line class="st10" x1="483.9" y1="284.2" x2="573.79" y2="476.62"/>
  <line class="st10" x1="312.28" y1="443.64" x2="268.89" y2="407.39"/>
  <line class="st10" x1="747.59" y1="162.72" x2="703.49" y2="63.96"/>
  <line class="st10" x1="705.14" y1="38.06" x2="764.42" y2="-3.88"/>
  <line class="st10" x1="560.98" y1="516.96" x2="489.64" y2="590.94"/>
  <g>
    <g>
      <rect class="st11" x="332.22" y="207.88" width="51.15" height="60.22"/>
      <line class="st11" x1="342.14" y1="216.16" x2="374.57" y2="216.16"/>
      <line class="st11" x1="342.14" y1="224.62" x2="374.57" y2="224.62"/>
      <line class="st11" x1="342.14" y1="233.08" x2="374.57" y2="233.08"/>
      <line class="st11" x1="342.14" y1="241.54" x2="374.57" y2="241.54"/>
      <line class="st11" x1="342.14" y1="250" x2="374.57" y2="250"/>
      <line class="st11" x1="342.14" y1="258.46" x2="374.57" y2="258.46"/>
    </g>
    <g>
      <path class="st16" d="M428.24,212.83c-3.02-.88-7.02-1.36-11.27-1.36s-8.25.48-11.27,1.36c-3.24.95-4.96,2.22-4.96,3.7v29.47c0,1.48,1.72,2.76,4.96,3.7,3.02.88,7.01,1.36,11.27,1.36s8.25-.48,11.27-1.36c3.24-.95,4.96-2.22,4.96-3.7v-29.47c0-1.48-1.71-2.75-4.96-3.7ZM405.98,213.75c2.93-.86,6.84-1.32,11-1.32s8.07.47,11,1.32c2.67.77,4.26,1.81,4.26,2.78s-1.6,2-4.26,2.78c-2.93.85-6.84,1.32-11,1.32s-8.07-.47-11-1.32c-2.67-.78-4.26-1.81-4.26-2.78,0-.96,1.6-2,4.26-2.78ZM427.97,248.77c-2.93.85-6.84,1.32-11,1.32s-8.07-.47-11-1.32c-2.67-.78-4.26-1.81-4.26-2.78v-8c.83.72,2.16,1.36,4,1.89,3.02.88,7.01,1.36,11.27,1.36s8.25-.48,11.27-1.36c1.83-.53,3.17-1.17,4-1.89v8c0,.96-1.6,2-4.26,2.77h0ZM427.97,238.95c-2.93.85-6.84,1.32-11,1.32s-8.07-.47-11-1.32c-2.67-.78-4.26-1.81-4.26-2.78v-8.01c.83.72,2.16,1.36,4,1.89,3.02.88,7.01,1.36,11.27,1.36s8.25-.48,11.27-1.36c1.83-.53,3.17-1.17,4-1.89v8.01c0,.96-1.6,2-4.26,2.78ZM427.97,229.13c-2.93.86-6.84,1.32-11,1.32s-8.07-.47-11-1.32c-2.67-.78-4.26-1.81-4.26-2.78v-8.01c.83.72,2.16,1.36,4,1.89,3.02.88,7.01,1.36,11.27,1.36s8.25-.48,11.27-1.36c1.83-.53,3.17-1.17,4-1.89v8.01c0,.96-1.6,2-4.26,2.77h0ZM408.43,223.23c-1.13,0-2.06.92-2.06,2.06s.92,2.06,2.06,2.06,2.06-.92,2.06-2.06-.92-2.06-2.06-2.06ZM408.43,226.38c-.6,0-1.09-.49-1.09-1.09s.49-1.09,1.09-1.09,1.09.49,1.09,1.09c0,.6-.49,1.09-1.09,1.09ZM408.43,232.95c-1.13,0-2.06.92-2.06,2.06s.92,2.06,2.06,2.06,2.06-.92,2.06-2.06-.92-2.06-2.06-2.06ZM408.43,236.1c-.6,0-1.09-.49-1.09-1.09s.49-1.09,1.09-1.09,1.09.49,1.09,1.09c0,.6-.49,1.09-1.09,1.09ZM408.43,242.67c-1.13,0-2.06.92-2.06,2.06s.92,2.06,2.06,2.06,2.06-.92,2.06-2.06-.92-2.06-2.06-2.06ZM408.43,245.82c-.6,0-1.09-.49-1.09-1.09s.49-1.09,1.09-1.09,1.09.49,1.09,1.09c0,.6-.49,1.09-1.09,1.09Z"/>
      <line class="st11" x1="417.29" y1="250.89" x2="417.29" y2="259"/>
      <rect class="st11" x="389.7" y="267.84" width="13.76" height="11.27"/>
      <g>
        <rect class="st11" x="431.11" y="267.84" width="13.76" height="11.27" transform="translate(875.99 546.96) rotate(-180)"/>
        <polyline class="st11" points="437.99 267.4 437.99 259.44 396.58 259.44 396.58 267.4"/>
      </g>
    </g>
    <polygon class="st11" points="428.8 199.84 395.79 199.84 395.79 172.98 406.83 172.98 412.3 179.56 428.8 179.56 428.8 199.84"/>
    <g>
      <g>
        <rect class="st11" x="369.57" y="187.33" width="13.76" height="11.27" transform="translate(183.48 569.42) rotate(-90)"/>
        <rect class="st11" x="369.57" y="145.92" width="13.76" height="11.27" transform="translate(528.01 -224.89) rotate(90)"/>
        <polyline class="st11" points="370.37 151.56 362.41 151.56 362.41 192.97 370.37 192.97"/>
        <rect class="st11" x="341.08" y="166.63" width="13.76" height="11.27" transform="translate(520.23 -175.7) rotate(90)"/>
        <line class="st11" x1="362.41" y1="172.26" x2="353.6" y2="172.26"/>
      </g>
      <rect class="st11" x="369.57" y="166.63" width="13.76" height="11.27" transform="translate(548.71 -204.18) rotate(90)"/>
    </g>
  </g>
  <circle class="st0" cx="1065.43" cy="262.32" r="5.71"/>
</svg>