<?xml version="1.0" encoding="UTF-8"?>
<svg id="Layer_1" xmlns="http://www.w3.org/2000/svg" xmlns:xlink="http://www.w3.org/1999/xlink" version="1.1" viewBox="0 0 1200 800">
  <!-- Generator: Adobe Illustrator 30.1.0, SVG Export Plug-In . SVG Version: 2.1.1 Build 136)  -->
  <defs>
    <style>
      .st0, .st1, .st2 {
        fill: #e9e9e9;
      }

      .st0, .st2 {
        fill-rule: evenodd;
      }

      .st3 {
        fill: #4c2165;
      }

      .st4 {
        stroke: url(#linear-gradient2);
      }

      .st4, .st5, .st6, .st7, .st8, .st9, .st10, .st11, .st12, .st13, .st14, .st15, .st16, .st17, .st18, .st19, .st20 {
        fill: none;
      }

      .st4, .st5, .st6, .st7, .st8, .st9, .st10, .st11, .st12, .st17, .st18, .st19, .st20 {
        stroke-miterlimit: 10;
      }

      .st4, .st5, .st6, .st7, .st17 {
        stroke-width: .66px;
      }

      .st5 {
        stroke: url(#linear-gradient1);
      }

      .st6 {
        stroke: url(#linear-gradient3);
      }

      .st7 {
        stroke: url(#linear-gradient4);
      }

      .st8 {
        stroke: url(#linear-gradient8);
      }

      .st8, .st9, .st10, .st11, .st12, .st18, .st19, .st20 {
        stroke-width: .5px;
      }

      .st9 {
        stroke: url(#linear-gradient7);
      }

      .st10 {
        stroke: url(#linear-gradient5);
      }

      .st11 {
        stroke: url(#linear-gradient6);
      }

      .st12 {
        stroke: url(#linear-gradient9);
      }

      .st13 {
        stroke-width: 1.36px;
      }

      .st13, .st14, .st15, .st16, .st2 {
        stroke-linecap: round;
        stroke-linejoin: round;
      }

      .st13, .st14, .st16, .st2 {
        stroke: #e9e9e9;
      }

      .st14, .st2 {
        stroke-width: 1.36px;
      }

      .st15 {
        stroke: #4c2165;
      }

      .st16 {
        stroke-width: .62px;
      }

      .st17 {
        stroke: url(#linear-gradient);
      }

      .st18 {
        stroke: url(#linear-gradient10);
      }

      .st19 {
        stroke: url(#linear-gradient12);
      }

      .st20 {
        stroke: url(#linear-gradient11);
      }
    </style>
    <linearGradient id="linear-gradient" x1="192.97" y1="1068.88" x2="192.97" y2="-130.32" gradientTransform="translate(1069.68 -65.07) rotate(90)" gradientUnits="userSpaceOnUse">
      <stop offset=".07" stop-color="#706f70" stop-opacity="0"/>
      <stop offset=".52" stop-color="#706f70"/>
      <stop offset=".96" stop-color="#706f70" stop-opacity="0"/>
    </linearGradient>
    <linearGradient id="linear-gradient1" x1="327.39" y1="1068.88" x2="327.39" y2="-130.32" gradientTransform="translate(1069.68 -65.07) rotate(90)" gradientUnits="userSpaceOnUse">
      <stop offset=".07" stop-color="#706f70" stop-opacity="0"/>
      <stop offset=".52" stop-color="#706f70"/>
      <stop offset=".96" stop-color="#706f70" stop-opacity="0"/>
    </linearGradient>
    <linearGradient id="linear-gradient2" x1="461.81" y1="1068.88" x2="461.81" y2="-130.32" gradientTransform="translate(1069.68 -65.07) rotate(90)" gradientUnits="userSpaceOnUse">
      <stop offset=".07" stop-color="#706f70" stop-opacity="0"/>
      <stop offset=".52" stop-color="#706f70"/>
      <stop offset=".96" stop-color="#706f70" stop-opacity="0"/>
    </linearGradient>
    <linearGradient id="linear-gradient3" x1="596.23" y1="1068.88" x2="596.23" y2="-130.32" gradientTransform="translate(1069.68 -65.07) rotate(90)" gradientUnits="userSpaceOnUse">
      <stop offset=".07" stop-color="#706f70" stop-opacity="0"/>
      <stop offset=".52" stop-color="#706f70"/>
      <stop offset=".96" stop-color="#706f70" stop-opacity="0"/>
    </linearGradient>
    <linearGradient id="linear-gradient4" x1="730.65" y1="1068.88" x2="730.65" y2="-130.32" gradientTransform="translate(1069.68 -65.07) rotate(90)" gradientUnits="userSpaceOnUse">
      <stop offset=".07" stop-color="#706f70" stop-opacity="0"/>
      <stop offset=".52" stop-color="#706f70"/>
      <stop offset=".96" stop-color="#706f70" stop-opacity="0"/>
    </linearGradient>
    <linearGradient id="linear-gradient5" x1="123.47" y1="842.61" x2="123.47" y2="42.61" gradientTransform="translate(0 -42.61)" gradientUnits="userSpaceOnUse">
      <stop offset=".07" stop-color="#706f70" stop-opacity="0"/>
      <stop offset=".52" stop-color="#706f70"/>
      <stop offset=".94" stop-color="#706f70" stop-opacity="0"/>
    </linearGradient>
    <linearGradient id="linear-gradient6" x1="258.04" y1="842.61" x2="258.04" y2="42.61" gradientTransform="translate(0 -42.61)" gradientUnits="userSpaceOnUse">
      <stop offset=".07" stop-color="#706f70" stop-opacity="0"/>
      <stop offset=".52" stop-color="#706f70"/>
      <stop offset=".94" stop-color="#706f70" stop-opacity="0"/>
    </linearGradient>
    <linearGradient id="linear-gradient7" x1="392.6" y1="842.61" x2="392.6" y2="42.61" gradientTransform="translate(0 -42.61)" gradientUnits="userSpaceOnUse">
      <stop offset=".07" stop-color="#706f70" stop-opacity="0"/>
      <stop offset=".52" stop-color="#706f70"/>
      <stop offset=".94" stop-color="#706f70" stop-opacity="0"/>
    </linearGradient>
    <linearGradient id="linear-gradient8" x1="527.17" y1="842.61" x2="527.17" y2="42.61" gradientTransform="translate(0 -42.61)" gradientUnits="userSpaceOnUse">
      <stop offset=".07" stop-color="#706f70" stop-opacity="0"/>
      <stop offset=".52" stop-color="#706f70"/>
      <stop offset=".94" stop-color="#706f70" stop-opacity="0"/>
    </linearGradient>
    <linearGradient id="linear-gradient9" x1="661.73" y1="842.61" x2="661.73" y2="42.61" gradientTransform="translate(0 -42.61)" gradientUnits="userSpaceOnUse">
      <stop offset=".07" stop-color="#706f70" stop-opacity="0"/>
      <stop offset=".52" stop-color="#706f70"/>
      <stop offset=".94" stop-color="#706f70" stop-opacity="0"/>
    </linearGradient>
    <linearGradient id="linear-gradient10" x1="796.3" y1="842.61" x2="796.3" y2="42.61" gradientTransform="translate(0 -42.61)" gradientUnits="userSpaceOnUse">
      <stop offset=".07" stop-color="#706f70" stop-opacity="0"/>
      <stop offset=".52" stop-color="#706f70"/>
      <stop offset=".94" stop-color="#706f70" stop-opacity="0"/>
    </linearGradient>
    <linearGradient id="linear-gradient11" x1="930.87" y1="842.61" x2="930.87" y2="42.61" gradientTransform="translate(0 -42.61)" gradientUnits="userSpaceOnUse">
      <stop offset=".07" stop-color="#706f70" stop-opacity="0"/>
      <stop offset=".52" stop-color="#706f70"/>
      <stop offset=".94" stop-color="#706f70" stop-opacity="0"/>
    </linearGradient>
    <linearGradient id="linear-gradient12" x1="1065.43" y1="842.61" x2="1065.43" y2="42.61" gradientTransform="translate(0 -42.61)" gradientUnits="userSpaceOnUse">
      <stop offset=".07" stop-color="#706f70" stop-opacity="0"/>
      <stop offset=".52" stop-color="#706f70"/>
      <stop offset=".94" stop-color="#706f70" stop-opacity="0"/>
    </linearGradient>
  </defs>
  <g>
    <line class="st17" x1="1200" y1="127.9" x2=".8" y2="127.9"/>
    <line class="st5" x1="1200" y1="262.32" x2=".8" y2="262.32"/>
    <line class="st4" x1="1200" y1="396.74" x2=".8" y2="396.74"/>
    <line class="st6" x1="1200" y1="531.16" x2=".8" y2="531.16"/>
    <line class="st7" x1="1200" y1="665.58" x2=".8" y2="665.58"/>
  </g>
  <g>
    <line class="st10" x1="123.47" y1="0" x2="123.47" y2="800"/>
    <line class="st11" x1="258.04" y1="0" x2="258.04" y2="800"/>
    <line class="st9" x1="392.6" y1="0" x2="392.6" y2="800"/>
    <line class="st8" x1="527.17" y1="0" x2="527.17" y2="800"/>
    <line class="st12" x1="661.73" y1="0" x2="661.73" y2="800"/>
    <line class="st18" x1="796.3" y1="0" x2="796.3" y2="800"/>
    <line class="st20" x1="930.87" y1="0" x2="930.87" y2="800"/>
    <line class="st19" x1="1065.43" y1="0" x2="1065.43" y2="800"/>
  </g>
  <circle class="st3" cx="860.03" cy="304.63" r="109.83"/>
  <g>
    <path class="st3" d="M333.12,227.93v-16.01h2.81v16.01h-2.81Z"/>
    <path class="st3" d="M353.47,227.93v-7.56c0-1.25-.55-2.09-1.9-2.09-1.13,0-2.18.79-2.69,1.54v8.11h-2.52v-7.56c0-1.25-.55-2.09-1.92-2.09-1.1,0-2.14.79-2.66,1.56v8.09h-2.52v-11.59h2.52v1.58c.48-.72,2.02-1.87,3.77-1.87s2.78.86,3.17,2.14c.67-1.06,2.21-2.14,3.94-2.14,2.14,0,3.34,1.15,3.34,3.5v8.38h-2.53Z"/>
    <path class="st3" d="M361.77,232.35h-2.52v-16.01h2.52v1.58c.86-1.15,2.21-1.87,3.72-1.87,3,0,5.14,2.26,5.14,6.07s-2.14,6.1-5.14,6.1c-1.46,0-2.78-.65-3.72-1.9v6.02h0ZM364.75,218.28c-1.18,0-2.42.7-2.98,1.56v4.58c.55.84,1.8,1.56,2.98,1.56,1.99,0,3.26-1.61,3.26-3.86s-1.27-3.84-3.26-3.84Z"/>
    <path class="st3" d="M373.17,227.93v-11.59h2.52v1.7c.86-1.1,2.26-1.97,3.77-1.97v2.5c-.22-.05-.48-.07-.79-.07-1.06,0-2.47.72-2.98,1.54v7.9h-2.52,0Z"/>
    <path class="st3" d="M380.78,222.12c0-3.31,2.28-6.07,5.95-6.07s5.98,2.76,5.98,6.07-2.26,6.1-5.98,6.1-5.95-2.76-5.95-6.1ZM390.09,222.12c0-2.04-1.2-3.84-3.36-3.84s-3.34,1.8-3.34,3.84,1.2,3.86,3.34,3.86,3.36-1.8,3.36-3.86Z"/>
    <path class="st3" d="M398.3,227.93l-4.73-11.59h2.69l3.38,8.69,3.38-8.69h2.71l-4.73,11.59h-2.71.01Z"/>
    <path class="st3" d="M407.01,212.86c0-.86.72-1.56,1.56-1.56s1.56.7,1.56,1.56-.7,1.56-1.56,1.56-1.56-.7-1.56-1.56ZM407.33,227.93v-11.59h2.52v11.59h-2.52Z"/>
    <path class="st3" d="M420.94,227.93v-7.25c0-1.8-.91-2.4-2.33-2.4-1.3,0-2.4.77-2.98,1.56v8.09h-2.52v-11.59h2.52v1.58c.77-.91,2.26-1.87,4.08-1.87,2.5,0,3.74,1.34,3.74,3.72v8.16h-2.52.01Z"/>
    <path class="st3" d="M427.75,229.08c.94,1.08,2.14,1.49,3.67,1.49,1.66,0,3.43-.77,3.43-3.14v-1.39c-.89,1.15-2.21,1.92-3.72,1.92-2.95,0-5.14-2.14-5.14-5.95s2.16-5.95,5.14-5.95c1.46,0,2.78.67,3.72,1.9v-1.61h2.52v10.99c0,4.18-3.1,5.3-5.95,5.3-1.97,0-3.43-.43-4.85-1.73l1.18-1.82h0ZM434.85,219.84c-.55-.86-1.8-1.56-2.98-1.56-1.99,0-3.26,1.49-3.26,3.72s1.27,3.72,3.26,3.72c1.18,0,2.42-.7,2.98-1.56v-4.32Z"/>
    <path class="st3" d="M446.88,227.93v-16.01h2.81v16.01h-2.81Z"/>
    <path class="st3" d="M460.85,227.93v-7.25c0-1.8-.91-2.4-2.33-2.4-1.3,0-2.4.77-2.98,1.56v8.09h-2.52v-11.59h2.52v1.58c.77-.91,2.26-1.87,4.08-1.87,2.5,0,3.74,1.34,3.74,3.72v8.16h-2.52.01Z"/>
    <path class="st3" d="M467.13,225.24v-6.7h-1.92v-2.21h1.92v-3.17h2.52v3.17h2.35v2.21h-2.35v6.07c0,.79.38,1.37,1.1,1.37.48,0,.94-.19,1.13-.41l.6,1.9c-.46.43-1.2.74-2.38.74-1.94,0-2.98-1.06-2.98-2.98h.01Z"/>
    <path class="st3" d="M479.45,216.05c3.48,0,5.71,2.66,5.71,6.31v.6h-8.95c.19,1.75,1.51,3.19,3.7,3.19,1.13,0,2.47-.46,3.29-1.27l1.15,1.66c-1.15,1.1-2.86,1.68-4.71,1.68-3.48,0-6.07-2.42-6.07-6.1,0-3.36,2.45-6.07,5.88-6.07h0ZM476.18,221.19h6.53c-.05-1.37-.98-3.07-3.26-3.07-2.16,0-3.14,1.66-3.26,3.07h0Z"/>
    <path class="st3" d="M487.65,227.93v-11.59h2.52v1.7c.86-1.1,2.26-1.97,3.77-1.97v2.5c-.22-.05-.48-.07-.79-.07-1.06,0-2.47.72-2.98,1.54v7.9h-2.52,0Z"/>
    <path class="st3" d="M495.26,222.12c0-3.31,2.28-6.07,5.95-6.07s5.98,2.76,5.98,6.07-2.26,6.1-5.98,6.1-5.95-2.76-5.95-6.1ZM504.57,222.12c0-2.04-1.2-3.84-3.36-3.84s-3.34,1.8-3.34,3.84,1.2,3.86,3.34,3.86,3.36-1.8,3.36-3.86Z"/>
    <path class="st3" d="M512.26,232.35h-2.52v-16.01h2.52v1.58c.86-1.15,2.21-1.87,3.72-1.87,3,0,5.14,2.26,5.14,6.07s-2.14,6.1-5.14,6.1c-1.46,0-2.78-.65-3.72-1.9v6.02h0ZM515.23,218.28c-1.18,0-2.42.7-2.98,1.56v4.58c.55.84,1.8,1.56,2.98,1.56,1.99,0,3.26-1.61,3.26-3.86s-1.27-3.84-3.26-3.84Z"/>
    <path class="st3" d="M528.82,216.05c3.48,0,5.71,2.66,5.71,6.31v.6h-8.95c.19,1.75,1.51,3.19,3.7,3.19,1.13,0,2.47-.46,3.29-1.27l1.15,1.66c-1.15,1.1-2.86,1.68-4.71,1.68-3.48,0-6.07-2.42-6.07-6.1,0-3.36,2.45-6.07,5.88-6.07h0ZM525.55,221.19h6.53c-.05-1.37-.98-3.07-3.26-3.07-2.16,0-3.14,1.66-3.26,3.07h-.01Z"/>
    <path class="st3" d="M537.02,227.93v-11.59h2.52v1.7c.86-1.1,2.26-1.97,3.77-1.97v2.5c-.22-.05-.48-.07-.79-.07-1.06,0-2.47.72-2.98,1.54v7.9h-2.52Z"/>
    <path class="st3" d="M552.43,227.93v-1.25c-.86.98-2.21,1.54-3.74,1.54-1.9,0-4.03-1.27-4.03-3.84s2.14-3.77,4.03-3.77c1.56,0,2.9.5,3.74,1.49v-1.73c0-1.34-1.1-2.16-2.71-2.16-1.3,0-2.42.48-3.43,1.46l-1.03-1.75c1.34-1.27,3.02-1.87,4.87-1.87,2.57,0,4.83,1.08,4.83,4.2v7.68h-2.53,0ZM552.43,223.54c-.58-.79-1.66-1.2-2.76-1.2-1.42,0-2.47.82-2.47,2.09s1.06,2.06,2.47,2.06c1.1,0,2.18-.41,2.76-1.2v-1.75Z"/>
    <path class="st3" d="M558.21,227.93v-16.01h2.52v6.03c.91-1.22,2.26-1.9,3.72-1.9,2.98,0,5.14,2.35,5.14,6.1s-2.18,6.07-5.14,6.07c-1.51,0-2.83-.72-3.72-1.87v1.58h-2.52ZM560.73,224.45c.55.86,1.8,1.54,2.98,1.54,2.02,0,3.29-1.58,3.29-3.84s-1.27-3.86-3.29-3.86c-1.18,0-2.42.72-2.98,1.58v4.58Z"/>
    <path class="st3" d="M571.85,212.86c0-.86.72-1.56,1.56-1.56s1.56.7,1.56,1.56-.7,1.56-1.56,1.56-1.56-.7-1.56-1.56ZM572.16,227.93v-11.59h2.52v11.59h-2.52Z"/>
    <path class="st3" d="M577.94,227.93v-16.01h2.52v16.01h-2.52Z"/>
    <path class="st3" d="M583.41,212.86c0-.86.72-1.56,1.56-1.56s1.56.7,1.56,1.56-.7,1.56-1.56,1.56-1.56-.7-1.56-1.56ZM583.73,227.93v-11.59h2.52v11.59h-2.52Z"/>
    <path class="st3" d="M590.01,225.24v-6.7h-1.92v-2.21h1.92v-3.17h2.52v3.17h2.35v2.21h-2.35v6.07c0,.79.38,1.37,1.1,1.37.48,0,.94-.19,1.13-.41l.6,1.9c-.46.43-1.2.74-2.38.74-1.94,0-2.98-1.06-2.98-2.98h.01Z"/>
    <path class="st3" d="M597.05,230.21c.26.12.67.19.96.19.79,0,1.32-.24,1.66-1.01l.58-1.32-4.75-11.74h2.69l3.38,8.69,3.38-8.69h2.71l-5.59,13.68c-.79,1.97-2.18,2.59-3.98,2.62-.36,0-1.06-.07-1.42-.17l.38-2.26h0Z"/>
    <path class="st3" d="M333.21,256.73v-16.01h1.8v6.17c.94-1.27,2.33-2.04,3.91-2.04,3.02,0,5.16,2.4,5.16,6.1s-2.14,6.07-5.16,6.07c-1.63,0-3.05-.84-3.91-2.02v1.73h-1.8ZM335.01,253.59c.62,1.01,2.04,1.82,3.46,1.82,2.35,0,3.74-1.9,3.74-4.46s-1.39-4.49-3.74-4.49c-1.42,0-2.83.86-3.46,1.87v5.26h0Z"/>
    <path class="st3" d="M346.65,259.64c.26.12.7.19.98.19.79,0,1.32-.26,1.73-1.22l.77-1.75-4.85-11.71h1.94l3.86,9.5,3.84-9.5h1.97l-5.81,13.95c-.7,1.68-1.87,2.33-3.41,2.35-.38,0-.98-.07-1.32-.17l.29-1.63h.01Z"/>
    <path class="st3" d="M364.97,256.73v-16.01h1.8v6.17c.94-1.27,2.33-2.04,3.91-2.04,3.02,0,5.16,2.4,5.16,6.1s-2.14,6.07-5.16,6.07c-1.63,0-3.05-.84-3.91-2.02v1.73h-1.8ZM366.77,253.59c.62,1.01,2.04,1.82,3.46,1.82,2.35,0,3.74-1.9,3.74-4.46s-1.39-4.49-3.74-4.49c-1.42,0-2.83.86-3.46,1.87v5.26h0Z"/>
    <path class="st3" d="M386.59,256.73v-1.63c-.89,1.01-2.4,1.92-4.13,1.92-2.42,0-3.7-1.18-3.7-3.7v-8.18h1.8v7.63c0,2.04,1.03,2.64,2.59,2.64,1.42,0,2.76-.82,3.43-1.75v-8.52h1.8v11.59h-1.8.01Z"/>
    <path class="st3" d="M391.68,241.97c0-.67.55-1.2,1.2-1.2s1.22.53,1.22,1.2-.55,1.22-1.22,1.22-1.2-.55-1.2-1.22ZM391.99,256.73v-11.59h1.8v11.59h-1.8Z"/>
    <path class="st3" d="M397.39,256.73v-16.01h1.8v16.01h-1.8Z"/>
    <path class="st3" d="M411.19,256.73v-1.73c-.86,1.18-2.28,2.02-3.91,2.02-3.02,0-5.16-2.3-5.16-6.07s2.11-6.1,5.16-6.1c1.56,0,2.98.77,3.91,2.04v-6.17h1.8v16.01h-1.8ZM411.19,248.33c-.65-1.01-2.04-1.87-3.48-1.87-2.33,0-3.72,1.92-3.72,4.49s1.39,4.46,3.72,4.46c1.44,0,2.83-.82,3.48-1.82v-5.26h0Z"/>
    <path class="st3" d="M416.28,241.97c0-.67.55-1.2,1.2-1.2s1.22.53,1.22,1.2-.55,1.22-1.22,1.22-1.2-.55-1.2-1.22ZM416.59,256.73v-11.59h1.8v11.59h-1.8Z"/>
    <path class="st3" d="M429.82,256.73v-7.58c0-2.04-1.03-2.69-2.59-2.69-1.42,0-2.76.86-3.43,1.8v8.47h-1.8v-11.59h1.8v1.68c.82-.96,2.4-1.97,4.13-1.97,2.42,0,3.7,1.22,3.7,3.74v8.14h-1.81Z"/>
    <path class="st3" d="M436.1,258.36c.96,1.15,2.11,1.58,3.77,1.58,1.92,0,3.72-.94,3.72-3.48v-1.66c-.84,1.18-2.26,2.06-3.89,2.06-3.02,0-5.16-2.26-5.16-6s2.11-6.02,5.16-6.02c1.56,0,2.95.77,3.89,2.04v-1.75h1.8v11.26c0,3.84-2.69,5.04-5.52,5.04-1.97,0-3.31-.38-4.68-1.73l.91-1.34h0ZM443.59,248.33c-.62-1.01-2.02-1.87-3.46-1.87-2.33,0-3.72,1.85-3.72,4.42s1.39,4.42,3.72,4.42c1.44,0,2.83-.89,3.46-1.9v-5.06h0Z"/>
    <path class="st3" d="M455.25,256.73v-16.01h5.47c4.97,0,8.21,3.48,8.21,8.02s-3.24,7.99-8.21,7.99h-5.47ZM457.25,254.96h3.48c3.89,0,6.14-2.78,6.14-6.22s-2.18-6.24-6.14-6.24h-3.48v12.46Z"/>
    <path class="st3" d="M479.23,256.73v-1.32c-.96,1.06-2.28,1.61-3.84,1.61-1.97,0-4.06-1.32-4.06-3.84s2.09-3.82,4.06-3.82c1.58,0,2.9.5,3.84,1.58v-2.09c0-1.56-1.25-2.45-2.93-2.45-1.39,0-2.52.5-3.55,1.61l-.84-1.25c1.25-1.3,2.74-1.92,4.63-1.92,2.45,0,4.49,1.1,4.49,3.91v7.97h-1.8ZM479.23,252.1c-.7-.96-1.92-1.44-3.19-1.44-1.68,0-2.86,1.06-2.86,2.54s1.18,2.52,2.86,2.52c1.27,0,2.5-.48,3.19-1.44v-2.18Z"/>
    <path class="st3" d="M484.99,254.31v-7.58h-1.92v-1.58h1.92v-3.17h1.8v3.17h2.35v1.58h-2.35v7.2c0,.86.38,1.49,1.18,1.49.5,0,.98-.22,1.22-.48l.53,1.34c-.46.43-1.1.74-2.16.74-1.7,0-2.57-.98-2.57-2.71h0Z"/>
    <path class="st3" d="M498.93,256.73v-1.32c-.96,1.06-2.28,1.61-3.84,1.61-1.97,0-4.06-1.32-4.06-3.84s2.09-3.82,4.06-3.82c1.58,0,2.9.5,3.84,1.58v-2.09c0-1.56-1.25-2.45-2.93-2.45-1.39,0-2.52.5-3.55,1.61l-.84-1.25c1.25-1.3,2.74-1.92,4.63-1.92,2.45,0,4.49,1.1,4.49,3.91v7.97h-1.8ZM498.93,252.1c-.7-.96-1.92-1.44-3.19-1.44-1.68,0-2.86,1.06-2.86,2.54s1.18,2.52,2.86,2.52c1.27,0,2.5-.48,3.19-1.44v-2.18Z"/>
    <path class="st3" d="M510.81,252.96c1.06,1.18,2.78,2.28,5.04,2.28,2.86,0,3.77-1.54,3.77-2.76,0-1.92-1.94-2.45-4.06-3.02-2.57-.67-5.42-1.39-5.42-4.54,0-2.64,2.35-4.44,5.5-4.44,2.45,0,4.34.82,5.69,2.23l-1.2,1.46c-1.2-1.32-2.88-1.92-4.63-1.92-1.92,0-3.29,1.03-3.29,2.54,0,1.61,1.85,2.09,3.89,2.64,2.62.7,5.59,1.51,5.59,4.87,0,2.33-1.58,4.7-5.9,4.7-2.78,0-4.82-1.06-6.14-2.54l1.18-1.51h-.02Z"/>
    <path class="st3" d="M524.54,254.31v-7.58h-1.92v-1.58h1.92v-3.17h1.8v3.17h2.35v1.58h-2.35v7.2c0,.86.38,1.49,1.18,1.49.5,0,.98-.22,1.22-.48l.53,1.34c-.46.43-1.1.74-2.16.74-1.7,0-2.57-.98-2.57-2.71h0Z"/>
    <path class="st3" d="M538.49,256.73v-1.32c-.96,1.06-2.28,1.61-3.84,1.61-1.97,0-4.06-1.32-4.06-3.84s2.09-3.82,4.06-3.82c1.58,0,2.9.5,3.84,1.58v-2.09c0-1.56-1.25-2.45-2.93-2.45-1.39,0-2.52.5-3.55,1.61l-.84-1.25c1.25-1.3,2.74-1.92,4.63-1.92,2.45,0,4.49,1.1,4.49,3.91v7.97h-1.8ZM538.49,252.1c-.7-.96-1.92-1.44-3.19-1.44-1.68,0-2.86,1.06-2.86,2.54s1.18,2.52,2.86,2.52c1.27,0,2.5-.48,3.19-1.44v-2.18Z"/>
    <path class="st3" d="M551.71,256.73v-7.58c0-2.04-1.03-2.69-2.59-2.69-1.42,0-2.76.86-3.43,1.8v8.47h-1.8v-11.59h1.8v1.68c.82-.96,2.4-1.97,4.13-1.97,2.42,0,3.7,1.22,3.7,3.74v8.14h-1.81Z"/>
    <path class="st3" d="M565.51,256.73v-1.73c-.86,1.18-2.28,2.02-3.91,2.02-3.02,0-5.16-2.3-5.16-6.07s2.11-6.1,5.16-6.1c1.56,0,2.98.77,3.91,2.04v-6.17h1.8v16.01h-1.8ZM565.51,248.33c-.65-1.01-2.04-1.87-3.48-1.87-2.33,0-3.72,1.92-3.72,4.49s1.39,4.46,3.72,4.46c1.44,0,2.83-.82,3.48-1.82v-5.26h0Z"/>
    <path class="st3" d="M578.16,256.73v-1.32c-.96,1.06-2.28,1.61-3.84,1.61-1.97,0-4.06-1.32-4.06-3.84s2.09-3.82,4.06-3.82c1.58,0,2.9.5,3.84,1.58v-2.09c0-1.56-1.25-2.45-2.93-2.45-1.39,0-2.52.5-3.55,1.61l-.84-1.25c1.25-1.3,2.74-1.92,4.63-1.92,2.45,0,4.49,1.1,4.49,3.91v7.97h-1.8ZM578.16,252.1c-.7-.96-1.92-1.44-3.19-1.44-1.68,0-2.86,1.06-2.86,2.54s1.18,2.52,2.86,2.52c1.27,0,2.5-.48,3.19-1.44v-2.18Z"/>
    <path class="st3" d="M583.56,256.73v-11.59h1.8v1.87c.94-1.22,2.28-2.11,3.86-2.11v1.85c-.22-.05-.43-.07-.72-.07-1.1,0-2.62.91-3.14,1.85v8.21h-1.8Z"/>
    <path class="st3" d="M599.88,256.73v-1.73c-.86,1.18-2.28,2.02-3.91,2.02-3.02,0-5.16-2.3-5.16-6.07s2.11-6.1,5.16-6.1c1.56,0,2.98.77,3.91,2.04v-6.17h1.8v16.01h-1.8ZM599.88,248.33c-.65-1.01-2.04-1.87-3.48-1.87-2.33,0-3.72,1.92-3.72,4.49s1.39,4.46,3.72,4.46c1.44,0,2.83-.82,3.48-1.82v-5.26h0Z"/>
    <path class="st3" d="M605.21,253.9c.77.89,2.23,1.66,3.82,1.66,1.78,0,2.74-.79,2.74-1.92,0-1.27-1.42-1.68-2.98-2.06-1.97-.46-4.2-.98-4.2-3.38,0-1.8,1.56-3.34,4.32-3.34,1.97,0,3.36.74,4.3,1.68l-.84,1.25c-.7-.84-1.97-1.46-3.46-1.46-1.58,0-2.57.72-2.57,1.75,0,1.13,1.32,1.49,2.83,1.85,2.02.46,4.34,1.03,4.34,3.6,0,1.94-1.56,3.5-4.56,3.5-1.9,0-3.5-.58-4.68-1.82l.94-1.3h0Z"/>
    <path class="st3" d="M616.01,259.04c.77-.5,1.46-1.44,1.56-2.23-.05.02-.22.05-.34.05-.67,0-1.15-.5-1.15-1.22s.55-1.3,1.27-1.3c.79,0,1.51.67,1.51,1.82,0,1.46-.86,2.83-1.97,3.62l-.89-.74h.01Z"/>
    <path class="st3" d="M333.29,285.53v-16.01h5.47c4.97,0,8.21,3.48,8.21,8.02s-3.24,7.99-8.21,7.99h-5.47ZM335.28,283.76h3.48c3.89,0,6.14-2.78,6.14-6.22s-2.18-6.24-6.14-6.24h-3.48v12.46Z"/>
    <path class="st3" d="M357.26,285.53v-1.32c-.96,1.06-2.28,1.61-3.84,1.61-1.97,0-4.06-1.32-4.06-3.84s2.09-3.82,4.06-3.82c1.58,0,2.9.5,3.84,1.58v-2.09c0-1.56-1.25-2.45-2.93-2.45-1.39,0-2.52.5-3.55,1.61l-.84-1.25c1.25-1.3,2.74-1.92,4.63-1.92,2.45,0,4.49,1.1,4.49,3.91v7.97h-1.8ZM357.26,280.9c-.7-.96-1.92-1.44-3.19-1.44-1.68,0-2.86,1.06-2.86,2.54s1.18,2.52,2.86,2.52c1.27,0,2.5-.48,3.19-1.44v-2.18Z"/>
    <path class="st3" d="M363.02,283.11v-7.58h-1.92v-1.58h1.92v-3.17h1.8v3.17h2.35v1.58h-2.35v7.2c0,.86.38,1.49,1.18,1.49.5,0,.98-.22,1.22-.48l.53,1.34c-.46.43-1.1.74-2.16.74-1.7,0-2.57-.98-2.57-2.71h0Z"/>
    <path class="st3" d="M376.97,285.53v-1.32c-.96,1.06-2.28,1.61-3.84,1.61-1.97,0-4.06-1.32-4.06-3.84s2.09-3.82,4.06-3.82c1.58,0,2.9.5,3.84,1.58v-2.09c0-1.56-1.25-2.45-2.93-2.45-1.39,0-2.52.5-3.55,1.61l-.84-1.25c1.25-1.3,2.74-1.92,4.63-1.92,2.45,0,4.49,1.1,4.49,3.91v7.97h-1.8ZM376.97,280.9c-.7-.96-1.92-1.44-3.19-1.44-1.68,0-2.86,1.06-2.86,2.54s1.18,2.52,2.86,2.52c1.27,0,2.5-.48,3.19-1.44v-2.18Z"/>
    <path class="st3" d="M388.63,285.53v-16.01h5.47c4.97,0,8.21,3.48,8.21,8.02s-3.24,7.99-8.21,7.99h-5.47ZM390.62,283.76h3.48c3.89,0,6.14-2.78,6.14-6.22s-2.18-6.24-6.14-6.24h-3.48v12.46Z"/>
    <path class="st3" d="M405.05,270.77c0-.67.55-1.2,1.2-1.2s1.22.53,1.22,1.2-.55,1.22-1.22,1.22-1.2-.55-1.2-1.22ZM405.36,285.53v-11.59h1.8v11.59h-1.8Z"/>
    <path class="st3" d="M415.87,273.65c2.11,0,3.36.86,4.25,2.02l-1.2,1.1c-.77-1.06-1.75-1.51-2.95-1.51-2.47,0-4.01,1.9-4.01,4.46s1.54,4.49,4.01,4.49c1.2,0,2.18-.48,2.95-1.51l1.2,1.1c-.89,1.15-2.14,2.02-4.25,2.02-3.46,0-5.79-2.64-5.79-6.1s2.33-6.07,5.79-6.07h0Z"/>
    <path class="st3" d="M423,283.11v-7.58h-1.92v-1.58h1.92v-3.17h1.8v3.17h2.35v1.58h-2.35v7.2c0,.86.38,1.49,1.18,1.49.5,0,.98-.22,1.22-.48l.53,1.34c-.46.43-1.1.74-2.16.74-1.7,0-2.57-.98-2.57-2.71h0Z"/>
    <path class="st3" d="M429.38,270.77c0-.67.55-1.2,1.2-1.2s1.22.53,1.22,1.2-.55,1.22-1.22,1.22-1.2-.55-1.2-1.22ZM429.69,285.53v-11.59h1.8v11.59h-1.8Z"/>
    <path class="st3" d="M434.42,279.72c0-3.36,2.21-6.07,5.74-6.07s5.74,2.71,5.74,6.07-2.21,6.1-5.74,6.1-5.74-2.74-5.74-6.1ZM444,279.72c0-2.35-1.37-4.46-3.84-4.46s-3.86,2.11-3.86,4.46,1.39,4.49,3.86,4.49,3.84-2.11,3.84-4.49Z"/>
    <path class="st3" d="M456.65,285.53v-7.58c0-2.04-1.03-2.69-2.59-2.69-1.42,0-2.76.86-3.43,1.8v8.47h-1.8v-11.59h1.8v1.68c.82-.96,2.4-1.97,4.13-1.97,2.42,0,3.7,1.22,3.7,3.74v8.14h-1.81Z"/>
    <path class="st3" d="M469.3,285.53v-1.32c-.96,1.06-2.28,1.61-3.84,1.61-1.97,0-4.06-1.32-4.06-3.84s2.09-3.82,4.06-3.82c1.58,0,2.9.5,3.84,1.58v-2.09c0-1.56-1.25-2.45-2.93-2.45-1.39,0-2.52.5-3.55,1.61l-.84-1.25c1.25-1.3,2.74-1.92,4.63-1.92,2.45,0,4.49,1.1,4.49,3.91v7.97h-1.8ZM469.3,280.9c-.7-.96-1.92-1.44-3.19-1.44-1.68,0-2.86,1.06-2.86,2.54s1.18,2.52,2.86,2.52c1.27,0,2.5-.48,3.19-1.44v-2.18Z"/>
    <path class="st3" d="M474.69,285.53v-11.59h1.8v1.87c.94-1.22,2.28-2.11,3.86-2.11v1.85c-.22-.05-.43-.07-.72-.07-1.1,0-2.62.91-3.14,1.85v8.21h-1.8,0Z"/>
    <path class="st3" d="M482.3,270.77c0-.67.55-1.2,1.2-1.2s1.22.53,1.22,1.2-.55,1.22-1.22,1.22-1.2-.55-1.2-1.22ZM482.61,285.53v-11.59h1.8v11.59h-1.8Z"/>
    <path class="st3" d="M493.05,273.65c3.5,0,5.57,2.74,5.57,6.22v.46h-9.38c.14,2.18,1.68,4.01,4.18,4.01,1.32,0,2.67-.53,3.58-1.46l.86,1.18c-1.15,1.15-2.71,1.78-4.61,1.78-3.43,0-5.9-2.47-5.9-6.1,0-3.36,2.4-6.07,5.71-6.07v-.02h0ZM489.24,279h7.61c-.02-1.73-1.18-3.86-3.82-3.86-2.47,0-3.7,2.09-3.79,3.86h0Z"/>
    <path class="st3" d="M501.45,282.7c.77.89,2.23,1.66,3.82,1.66,1.78,0,2.74-.79,2.74-1.92,0-1.27-1.42-1.68-2.98-2.06-1.97-.46-4.2-.98-4.2-3.38,0-1.8,1.56-3.34,4.32-3.34,1.97,0,3.36.74,4.3,1.68l-.84,1.25c-.7-.84-1.97-1.46-3.46-1.46-1.58,0-2.57.72-2.57,1.75,0,1.13,1.32,1.49,2.83,1.85,2.02.46,4.34,1.03,4.34,3.6,0,1.94-1.56,3.5-4.56,3.5-1.9,0-3.5-.58-4.68-1.82l.94-1.3h0Z"/>
    <path class="st3" d="M512.25,287.84c.77-.5,1.46-1.44,1.56-2.23-.05.02-.22.05-.34.05-.67,0-1.15-.5-1.15-1.22s.55-1.3,1.27-1.3c.79,0,1.51.67,1.51,1.82,0,1.46-.86,2.83-1.97,3.62l-.89-.74h.01Z"/>
    <path class="st3" d="M524.47,285.53v-16.01h6.43c3.22,0,5.02,2.21,5.02,4.83s-1.85,4.82-5.02,4.82h-4.44v6.36h-1.99ZM530.66,271.3h-4.2v6.1h4.2c1.9,0,3.19-1.25,3.19-3.05s-1.3-3.05-3.19-3.05h0Z"/>
    <path class="st3" d="M538.49,285.53v-11.59h1.8v1.87c.94-1.22,2.28-2.11,3.86-2.11v1.85c-.22-.05-.43-.07-.72-.07-1.1,0-2.62.91-3.14,1.85v8.21h-1.8Z"/>
    <path class="st3" d="M545.73,279.72c0-3.36,2.21-6.07,5.74-6.07s5.74,2.71,5.74,6.07-2.21,6.1-5.74,6.1-5.74-2.74-5.74-6.1ZM555.31,279.72c0-2.35-1.37-4.46-3.84-4.46s-3.86,2.11-3.86,4.46,1.39,4.49,3.86,4.49,3.84-2.11,3.84-4.49Z"/>
    <path class="st3" d="M560.49,283.11v-7.58h-1.92v-1.58h1.92v-3.17h1.8v3.17h2.35v1.58h-2.35v7.2c0,.86.38,1.49,1.18,1.49.5,0,.98-.22,1.22-.48l.53,1.34c-.46.43-1.1.74-2.16.74-1.7,0-2.57-.98-2.57-2.71Z"/>
    <path class="st3" d="M566.52,279.72c0-3.36,2.21-6.07,5.74-6.07s5.74,2.71,5.74,6.07-2.21,6.1-5.74,6.1-5.74-2.74-5.74-6.1ZM576.09,279.72c0-2.35-1.37-4.46-3.84-4.46s-3.86,2.11-3.86,4.46,1.39,4.49,3.86,4.49,3.84-2.11,3.84-4.49Z"/>
    <path class="st3" d="M586.03,273.65c2.11,0,3.36.86,4.25,2.02l-1.2,1.1c-.77-1.06-1.75-1.51-2.95-1.51-2.47,0-4.01,1.9-4.01,4.46s1.54,4.49,4.01,4.49c1.2,0,2.18-.48,2.95-1.51l1.2,1.1c-.89,1.15-2.14,2.02-4.25,2.02-3.46,0-5.79-2.64-5.79-6.1s2.33-6.07,5.79-6.07h0Z"/>
    <path class="st3" d="M592.13,279.72c0-3.36,2.21-6.07,5.74-6.07s5.74,2.71,5.74,6.07-2.21,6.1-5.74,6.1-5.74-2.74-5.74-6.1ZM601.7,279.72c0-2.35-1.37-4.46-3.84-4.46s-3.86,2.11-3.86,4.46,1.39,4.49,3.86,4.49,3.84-2.11,3.84-4.49Z"/>
    <path class="st3" d="M606.53,285.53v-16.01h1.8v16.01h-1.8Z"/>
    <path class="st3" d="M611.85,282.7c.77.89,2.23,1.66,3.82,1.66,1.78,0,2.74-.79,2.74-1.92,0-1.27-1.42-1.68-2.98-2.06-1.97-.46-4.2-.98-4.2-3.38,0-1.8,1.56-3.34,4.32-3.34,1.97,0,3.36.74,4.3,1.68l-.84,1.25c-.7-.84-1.97-1.46-3.46-1.46-1.58,0-2.57.72-2.57,1.75,0,1.13,1.32,1.49,2.83,1.85,2.02.46,4.34,1.03,4.34,3.6,0,1.94-1.56,3.5-4.56,3.5-1.9,0-3.5-.58-4.68-1.82l.94-1.3h0Z"/>
  </g>
  <g>
    <path class="st3" d="M836.85,498.32v-16.01h10.49v1.78h-8.5v5.16h8.33v1.78h-8.33v7.3h-1.99Z"/>
    <path class="st3" d="M849.31,492.51c0-3.36,2.21-6.07,5.74-6.07s5.74,2.71,5.74,6.07-2.21,6.1-5.74,6.1-5.74-2.74-5.74-6.1ZM858.88,492.51c0-2.35-1.37-4.46-3.84-4.46s-3.86,2.11-3.86,4.46,1.39,4.49,3.86,4.49,3.84-2.11,3.84-4.49Z"/>
    <path class="st3" d="M868.82,486.44c2.11,0,3.36.86,4.25,2.02l-1.2,1.1c-.77-1.06-1.75-1.51-2.95-1.51-2.47,0-4.01,1.9-4.01,4.46s1.54,4.49,4.01,4.49c1.2,0,2.18-.48,2.95-1.51l1.2,1.1c-.89,1.15-2.14,2.02-4.25,2.02-3.46,0-5.79-2.64-5.79-6.1s2.33-6.07,5.79-6.07h0Z"/>
    <path class="st3" d="M883.41,498.32v-1.63c-.89,1.01-2.4,1.92-4.13,1.92-2.42,0-3.7-1.18-3.7-3.7v-8.18h1.8v7.63c0,2.04,1.03,2.64,2.59,2.64,1.42,0,2.76-.82,3.43-1.75v-8.52h1.8v11.59h-1.8.01Z"/>
    <path class="st3" d="M888.74,495.49c.77.89,2.23,1.66,3.82,1.66,1.78,0,2.74-.79,2.74-1.92,0-1.27-1.42-1.68-2.98-2.06-1.97-.46-4.2-.98-4.2-3.38,0-1.8,1.56-3.34,4.32-3.34,1.97,0,3.36.74,4.3,1.68l-.84,1.25c-.7-.84-1.97-1.46-3.46-1.46-1.58,0-2.57.72-2.57,1.75,0,1.13,1.32,1.49,2.83,1.85,2.02.46,4.34,1.03,4.34,3.6,0,1.94-1.56,3.5-4.56,3.5-1.9,0-3.5-.58-4.68-1.82l.94-1.3h0Z"/>
    <path class="st3" d="M905.01,486.44c3.5,0,5.57,2.74,5.57,6.22v.46h-9.38c.14,2.18,1.68,4.01,4.18,4.01,1.32,0,2.67-.53,3.58-1.46l.86,1.18c-1.15,1.15-2.71,1.78-4.61,1.78-3.43,0-5.9-2.47-5.9-6.1,0-3.36,2.4-6.07,5.71-6.07v-.02h-.01ZM901.2,491.79h7.61c-.02-1.73-1.18-3.86-3.82-3.86-2.47,0-3.7,2.09-3.79,3.86Z"/>
    <path class="st3" d="M921.88,498.32v-1.73c-.86,1.18-2.28,2.02-3.91,2.02-3.02,0-5.16-2.3-5.16-6.07s2.11-6.1,5.16-6.1c1.56,0,2.98.77,3.91,2.04v-6.17h1.8v16.01h-1.8ZM921.88,489.92c-.65-1.01-2.04-1.87-3.48-1.87-2.33,0-3.72,1.92-3.72,4.49s1.39,4.46,3.72,4.46c1.44,0,2.83-.82,3.48-1.82v-5.26h0Z"/>
    <path class="st3" d="M933.48,498.32v-16.01h1.8v16.01h-1.8Z"/>
    <path class="st3" d="M938.2,492.51c0-3.36,2.21-6.07,5.74-6.07s5.74,2.71,5.74,6.07-2.21,6.1-5.74,6.1-5.74-2.74-5.74-6.1ZM947.78,492.51c0-2.35-1.37-4.46-3.84-4.46s-3.86,2.11-3.86,4.46,1.39,4.49,3.86,4.49,3.84-2.11,3.84-4.49Z"/>
    <path class="st3" d="M960.43,498.32v-7.58c0-2.04-1.03-2.69-2.59-2.69-1.42,0-2.76.86-3.43,1.8v8.47h-1.8v-11.59h1.8v1.68c.82-.96,2.4-1.97,4.13-1.97,2.42,0,3.7,1.22,3.7,3.74v8.14h-1.81Z"/>
    <path class="st3" d="M966.72,499.95c.96,1.15,2.11,1.58,3.77,1.58,1.92,0,3.72-.94,3.72-3.48v-1.66c-.84,1.18-2.26,2.06-3.89,2.06-3.02,0-5.16-2.26-5.16-6s2.11-6.02,5.16-6.02c1.56,0,2.95.77,3.89,2.04v-1.75h1.8v11.26c0,3.84-2.69,5.04-5.52,5.04-1.97,0-3.31-.38-4.68-1.73l.91-1.34h0ZM974.2,489.92c-.62-1.01-2.02-1.87-3.46-1.87-2.33,0-3.72,1.85-3.72,4.42s1.39,4.42,3.72,4.42c1.44,0,2.83-.89,3.46-1.9v-5.06h0Z"/>
    <path class="st3" d="M978.52,493.3v-1.58h5.76v1.58h-5.76Z"/>
    <path class="st3" d="M987.16,495.9v-7.58h-1.92v-1.58h1.92v-3.17h1.8v3.17h2.35v1.58h-2.35v7.2c0,.86.38,1.49,1.18,1.49.5,0,.98-.22,1.22-.48l.53,1.34c-.46.43-1.1.74-2.16.74-1.7,0-2.57-.98-2.57-2.71Z"/>
    <path class="st3" d="M998.9,486.44c3.5,0,5.57,2.74,5.57,6.22v.46h-9.38c.14,2.18,1.68,4.01,4.18,4.01,1.32,0,2.67-.53,3.58-1.46l.86,1.18c-1.15,1.15-2.71,1.78-4.61,1.78-3.43,0-5.9-2.47-5.9-6.1,0-3.36,2.4-6.07,5.71-6.07v-.02h-.01ZM995.08,491.79h7.61c-.02-1.73-1.18-3.86-3.82-3.86-2.47,0-3.7,2.09-3.79,3.86Z"/>
    <path class="st3" d="M1007.37,498.32v-11.59h1.8v1.87c.94-1.22,2.28-2.11,3.86-2.11v1.85c-.22-.05-.43-.07-.72-.07-1.1,0-2.62.91-3.14,1.85v8.21h-1.8Z"/>
    <path class="st3" d="M1029.28,498.32v-7.87c0-1.46-.65-2.4-2.14-2.4-1.2,0-2.47.86-3.07,1.78v8.5h-1.8v-7.87c0-1.46-.62-2.4-2.14-2.4-1.18,0-2.42.86-3.05,1.8v8.47h-1.8v-11.59h1.8v1.68c.48-.74,2.04-1.97,3.74-1.97s2.78.96,3.12,2.16c.65-1.06,2.21-2.16,3.89-2.16,2.11,0,3.24,1.18,3.24,3.5v8.38h-1.8.01Z"/>
    <path class="st3" d="M1045.92,486.44c3.5,0,5.57,2.74,5.57,6.22v.46h-9.38c.14,2.18,1.68,4.01,4.18,4.01,1.32,0,2.67-.53,3.58-1.46l.86,1.18c-1.15,1.15-2.71,1.78-4.61,1.78-3.43,0-5.9-2.47-5.9-6.1,0-3.36,2.4-6.07,5.71-6.07v-.02h0ZM1042.1,491.79h7.61c-.02-1.73-1.18-3.86-3.82-3.86-2.47,0-3.7,2.09-3.79,3.86Z"/>
    <path class="st3" d="M1062.21,498.32v-7.58c0-2.04-1.03-2.69-2.59-2.69-1.42,0-2.76.86-3.43,1.8v8.47h-1.8v-11.59h1.8v1.68c.82-.96,2.4-1.97,4.13-1.97,2.42,0,3.7,1.22,3.7,3.74v8.14h-1.81,0Z"/>
    <path class="st3" d="M1068.5,499.95c.96,1.15,2.11,1.58,3.77,1.58,1.92,0,3.72-.94,3.72-3.48v-1.66c-.84,1.18-2.26,2.06-3.89,2.06-3.02,0-5.16-2.26-5.16-6s2.11-6.02,5.16-6.02c1.56,0,2.95.77,3.89,2.04v-1.75h1.8v11.26c0,3.84-2.69,5.04-5.52,5.04-1.97,0-3.31-.38-4.68-1.73l.91-1.34ZM1075.99,489.92c-.62-1.01-2.02-1.87-3.46-1.87-2.33,0-3.72,1.85-3.72,4.42s1.39,4.42,3.72,4.42c1.44,0,2.83-.89,3.46-1.9v-5.06h0Z"/>
    <path class="st3" d="M1088.64,498.32v-1.32c-.96,1.06-2.28,1.61-3.84,1.61-1.97,0-4.06-1.32-4.06-3.84s2.09-3.82,4.06-3.82c1.58,0,2.9.5,3.84,1.58v-2.09c0-1.56-1.25-2.45-2.93-2.45-1.39,0-2.52.5-3.55,1.61l-.84-1.25c1.25-1.3,2.74-1.92,4.63-1.92,2.45,0,4.49,1.1,4.49,3.91v7.97h-1.8,0ZM1088.64,493.69c-.7-.96-1.92-1.44-3.19-1.44-1.68,0-2.86,1.06-2.86,2.54s1.18,2.52,2.86,2.52c1.27,0,2.5-.48,3.19-1.44v-2.18Z"/>
    <path class="st3" d="M1094.92,499.95c.96,1.15,2.11,1.58,3.77,1.58,1.92,0,3.72-.94,3.72-3.48v-1.66c-.84,1.18-2.26,2.06-3.89,2.06-3.02,0-5.16-2.26-5.16-6s2.11-6.02,5.16-6.02c1.56,0,2.95.77,3.89,2.04v-1.75h1.8v11.26c0,3.84-2.69,5.04-5.52,5.04-1.97,0-3.31-.38-4.68-1.73l.91-1.34ZM1102.41,489.92c-.62-1.01-2.02-1.87-3.46-1.87-2.33,0-3.72,1.85-3.72,4.42s1.39,4.42,3.72,4.42c1.44,0,2.83-.89,3.46-1.9v-5.06h0Z"/>
    <path class="st3" d="M1112.85,486.44c3.5,0,5.57,2.74,5.57,6.22v.46h-9.38c.14,2.18,1.68,4.01,4.18,4.01,1.32,0,2.67-.53,3.58-1.46l.86,1.18c-1.15,1.15-2.71,1.78-4.61,1.78-3.43,0-5.9-2.47-5.9-6.1,0-3.36,2.4-6.07,5.71-6.07v-.02h0ZM1109.04,491.79h7.61c-.02-1.73-1.18-3.86-3.82-3.86-2.47,0-3.7,2.09-3.79,3.86Z"/>
    <path class="st3" d="M1135.32,498.32v-7.87c0-1.46-.65-2.4-2.14-2.4-1.2,0-2.47.86-3.07,1.78v8.5h-1.8v-7.87c0-1.46-.62-2.4-2.14-2.4-1.18,0-2.42.86-3.05,1.8v8.47h-1.8v-11.59h1.8v1.68c.48-.74,2.04-1.97,3.74-1.97s2.78.96,3.12,2.16c.65-1.06,2.21-2.16,3.89-2.16,2.11,0,3.24,1.18,3.24,3.5v8.38h-1.8.01Z"/>
    <path class="st3" d="M1145.76,486.44c3.5,0,5.57,2.74,5.57,6.22v.46h-9.38c.14,2.18,1.68,4.01,4.18,4.01,1.32,0,2.67-.53,3.58-1.46l.86,1.18c-1.15,1.15-2.71,1.78-4.61,1.78-3.43,0-5.9-2.47-5.9-6.1,0-3.36,2.4-6.07,5.71-6.07v-.02h0ZM1141.94,491.79h7.61c-.02-1.73-1.18-3.86-3.82-3.86-2.47,0-3.7,2.09-3.79,3.86Z"/>
    <path class="st3" d="M1162.05,498.32v-7.58c0-2.04-1.03-2.69-2.59-2.69-1.42,0-2.76.86-3.43,1.8v8.47h-1.8v-11.59h1.8v1.68c.82-.96,2.4-1.97,4.13-1.97,2.42,0,3.7,1.22,3.7,3.74v8.14h-1.81,0Z"/>
    <path class="st3" d="M1167.81,495.9v-7.58h-1.92v-1.58h1.92v-3.17h1.8v3.17h2.35v1.58h-2.35v7.2c0,.86.38,1.49,1.18,1.49.5,0,.98-.22,1.22-.48l.53,1.34c-.46.43-1.1.74-2.16.74-1.7,0-2.57-.98-2.57-2.71h0Z"/>
    <path class="st3" d="M846.81,527.12l-3.02-9.31-3.02,9.31h-1.8l-3.7-11.59h1.87l2.83,9.24,3.05-9.24h1.54l3.05,9.24,2.83-9.24h1.87l-3.7,11.59h-1.8,0Z"/>
    <path class="st3" d="M854.08,512.36c0-.67.55-1.2,1.2-1.2s1.22.53,1.22,1.2-.55,1.22-1.22,1.22-1.2-.55-1.2-1.22ZM854.4,527.12v-11.59h1.8v11.59h-1.8Z"/>
    <path class="st3" d="M860.16,524.7v-7.58h-1.92v-1.58h1.92v-3.17h1.8v3.17h2.35v1.58h-2.35v7.2c0,.86.38,1.49,1.18,1.49.5,0,.98-.22,1.22-.48l.53,1.34c-.46.43-1.1.74-2.16.74-1.7,0-2.57-.98-2.57-2.71Z"/>
    <path class="st3" d="M874.7,527.12v-7.63c0-2.04-1.06-2.64-2.62-2.64-1.39,0-2.74.86-3.43,1.8v8.47h-1.8v-16.01h1.8v6.1c.82-.96,2.4-1.97,4.15-1.97,2.42,0,3.7,1.18,3.7,3.7v8.18h-1.8Z"/>
    <path class="st3" d="M891.4,515.24c2.11,0,3.36.86,4.25,2.02l-1.2,1.1c-.77-1.06-1.75-1.51-2.95-1.51-2.47,0-4.01,1.9-4.01,4.46s1.54,4.49,4.01,4.49c1.2,0,2.18-.48,2.95-1.51l1.2,1.1c-.89,1.15-2.14,2.02-4.25,2.02-3.46,0-5.79-2.64-5.79-6.1s2.33-6.07,5.79-6.07Z"/>
    <path class="st3" d="M897.86,512.36c0-.67.55-1.2,1.2-1.2s1.22.53,1.22,1.2-.55,1.22-1.22,1.22-1.2-.55-1.2-1.22ZM898.17,527.12v-11.59h1.8v11.59h-1.8Z"/>
    <path class="st3" d="M906.67,527.12l-4.82-11.59h1.94l3.86,9.5,3.84-9.5h1.97l-4.83,11.59h-1.97.01Z"/>
    <path class="st3" d="M915.02,512.36c0-.67.55-1.2,1.2-1.2s1.22.53,1.22,1.2-.55,1.22-1.22,1.22-1.2-.55-1.2-1.22ZM915.33,527.12v-11.59h1.8v11.59h-1.8Z"/>
    <path class="st3" d="M920.73,527.12v-16.01h1.8v16.01h-1.8Z"/>
    <path class="st3" d="M932.25,524.29c.77.89,2.23,1.66,3.82,1.66,1.78,0,2.74-.79,2.74-1.92,0-1.27-1.42-1.68-2.98-2.06-1.97-.46-4.2-.98-4.2-3.38,0-1.8,1.56-3.34,4.32-3.34,1.97,0,3.36.74,4.3,1.68l-.84,1.25c-.7-.84-1.97-1.46-3.46-1.46-1.58,0-2.57.72-2.57,1.75,0,1.13,1.32,1.49,2.83,1.85,2.02.46,4.34,1.03,4.34,3.6,0,1.94-1.56,3.5-4.56,3.5-1.9,0-3.5-.58-4.68-1.82l.94-1.3h0Z"/>
    <path class="st3" d="M942.81,521.31c0-3.36,2.21-6.07,5.74-6.07s5.74,2.71,5.74,6.07-2.21,6.1-5.74,6.1-5.74-2.74-5.74-6.1ZM952.39,521.31c0-2.35-1.37-4.46-3.84-4.46s-3.86,2.11-3.86,4.46,1.39,4.49,3.86,4.49,3.84-2.11,3.84-4.49Z"/>
    <path class="st3" d="M962.32,515.24c2.11,0,3.36.86,4.25,2.02l-1.2,1.1c-.77-1.06-1.75-1.51-2.95-1.51-2.47,0-4.01,1.9-4.01,4.46s1.54,4.49,4.01,4.49c1.2,0,2.18-.48,2.95-1.51l1.2,1.1c-.89,1.15-2.14,2.02-4.25,2.02-3.46,0-5.79-2.64-5.79-6.1s2.33-6.07,5.79-6.07Z"/>
    <path class="st3" d="M968.78,512.36c0-.67.55-1.2,1.2-1.2s1.22.53,1.22,1.2-.55,1.22-1.22,1.22-1.2-.55-1.2-1.22ZM969.09,527.12v-11.59h1.8v11.59h-1.8Z"/>
    <path class="st3" d="M979.53,515.24c3.5,0,5.57,2.74,5.57,6.22v.46h-9.38c.14,2.18,1.68,4.01,4.18,4.01,1.32,0,2.67-.53,3.58-1.46l.86,1.18c-1.15,1.15-2.71,1.78-4.61,1.78-3.43,0-5.9-2.47-5.9-6.1,0-3.36,2.4-6.07,5.71-6.07v-.02h-.01ZM975.72,520.59h7.61c-.02-1.73-1.18-3.86-3.82-3.86-2.47,0-3.7,2.09-3.79,3.86Z"/>
    <path class="st3" d="M988.36,524.7v-7.58h-1.92v-1.58h1.92v-3.17h1.8v3.17h2.35v1.58h-2.35v7.2c0,.86.38,1.49,1.18,1.49.5,0,.98-.22,1.22-.48l.53,1.34c-.46.43-1.1.74-2.16.74-1.7,0-2.57-.98-2.57-2.71Z"/>
    <path class="st3" d="M994.7,530.02c.26.12.7.19.98.19.79,0,1.32-.26,1.73-1.22l.77-1.75-4.85-11.71h1.94l3.86,9.5,3.84-9.5h1.97l-5.81,13.95c-.7,1.68-1.87,2.33-3.41,2.35-.38,0-.98-.07-1.32-.17l.29-1.63h.01Z"/>
    <path class="st3" d="M1012.34,521.31c0-3.36,2.21-6.07,5.74-6.07s5.74,2.71,5.74,6.07-2.21,6.1-5.74,6.1-5.74-2.74-5.74-6.1ZM1021.92,521.31c0-2.35-1.37-4.46-3.84-4.46s-3.86,2.11-3.86,4.46,1.39,4.49,3.86,4.49,3.84-2.11,3.84-4.49Z"/>
    <path class="st3" d="M1026.74,527.12v-11.59h1.8v1.87c.94-1.22,2.28-2.11,3.86-2.11v1.85c-.22-.05-.43-.07-.72-.07-1.1,0-2.62.91-3.14,1.85v8.21h-1.8Z"/>
    <path class="st3" d="M1035.55,528.75c.96,1.15,2.11,1.58,3.77,1.58,1.92,0,3.72-.94,3.72-3.48v-1.66c-.84,1.18-2.26,2.06-3.89,2.06-3.02,0-5.16-2.26-5.16-6s2.11-6.02,5.16-6.02c1.56,0,2.95.77,3.89,2.04v-1.75h1.8v11.26c0,3.84-2.69,5.04-5.52,5.04-1.97,0-3.31-.38-4.68-1.73l.91-1.34ZM1043.04,518.72c-.62-1.01-2.02-1.87-3.46-1.87-2.33,0-3.72,1.85-3.72,4.42s1.39,4.42,3.72,4.42c1.44,0,2.83-.89,3.46-1.9v-5.06h0Z"/>
    <path class="st3" d="M1055.68,527.12v-1.32c-.96,1.06-2.28,1.61-3.84,1.61-1.97,0-4.06-1.32-4.06-3.84s2.09-3.82,4.06-3.82c1.58,0,2.9.5,3.84,1.58v-2.09c0-1.56-1.25-2.45-2.93-2.45-1.39,0-2.52.5-3.55,1.61l-.84-1.25c1.25-1.3,2.74-1.92,4.63-1.92,2.45,0,4.49,1.1,4.49,3.91v7.97h-1.8,0ZM1055.68,522.49c-.7-.96-1.92-1.44-3.19-1.44-1.68,0-2.86,1.06-2.86,2.54s1.18,2.52,2.86,2.52c1.27,0,2.5-.48,3.19-1.44v-2.18Z"/>
    <path class="st3" d="M1068.91,527.12v-7.58c0-2.04-1.03-2.69-2.59-2.69-1.42,0-2.76.86-3.43,1.8v8.47h-1.8v-11.59h1.8v1.68c.82-.96,2.4-1.97,4.13-1.97,2.42,0,3.7,1.22,3.7,3.74v8.14h-1.81,0Z"/>
    <path class="st3" d="M1074,512.36c0-.67.55-1.2,1.2-1.2s1.22.53,1.22,1.2-.55,1.22-1.22,1.22-1.2-.55-1.2-1.22ZM1074.31,527.12v-11.59h1.8v11.59h-1.8Z"/>
    <path class="st3" d="M1079.64,524.29c.77.89,2.23,1.66,3.82,1.66,1.78,0,2.74-.79,2.74-1.92,0-1.27-1.42-1.68-2.98-2.06-1.97-.46-4.2-.98-4.2-3.38,0-1.8,1.56-3.34,4.32-3.34,1.97,0,3.36.74,4.3,1.68l-.84,1.25c-.7-.84-1.97-1.46-3.46-1.46-1.58,0-2.57.72-2.57,1.75,0,1.13,1.32,1.49,2.83,1.85,2.02.46,4.34,1.03,4.34,3.6,0,1.94-1.56,3.5-4.56,3.5-1.9,0-3.5-.58-4.68-1.82l.94-1.3h0Z"/>
    <path class="st3" d="M1098.12,527.12v-1.32c-.96,1.06-2.28,1.61-3.84,1.61-1.97,0-4.06-1.32-4.06-3.84s2.09-3.82,4.06-3.82c1.58,0,2.9.5,3.84,1.58v-2.09c0-1.56-1.25-2.45-2.93-2.45-1.39,0-2.52.5-3.55,1.61l-.84-1.25c1.25-1.3,2.74-1.92,4.63-1.92,2.45,0,4.49,1.1,4.49,3.91v7.97h-1.8,0ZM1098.12,522.49c-.7-.96-1.92-1.44-3.19-1.44-1.68,0-2.86,1.06-2.86,2.54s1.18,2.52,2.86,2.52c1.27,0,2.5-.48,3.19-1.44v-2.18Z"/>
    <path class="st3" d="M1103.88,524.7v-7.58h-1.92v-1.58h1.92v-3.17h1.8v3.17h2.35v1.58h-2.35v7.2c0,.86.38,1.49,1.18,1.49.5,0,.98-.22,1.22-.48l.53,1.34c-.46.43-1.1.74-2.16.74-1.7,0-2.57-.98-2.57-2.71h0Z"/>
    <path class="st3" d="M1110.26,512.36c0-.67.55-1.2,1.2-1.2s1.22.53,1.22,1.2-.55,1.22-1.22,1.22-1.2-.55-1.2-1.22ZM1110.57,527.12v-11.59h1.8v11.59h-1.8Z"/>
    <path class="st3" d="M1115.3,521.31c0-3.36,2.21-6.07,5.74-6.07s5.74,2.71,5.74,6.07-2.21,6.1-5.74,6.1-5.74-2.74-5.74-6.1ZM1124.88,521.31c0-2.35-1.37-4.46-3.84-4.46s-3.86,2.11-3.86,4.46,1.39,4.49,3.86,4.49,3.84-2.11,3.84-4.49Z"/>
    <path class="st3" d="M1137.52,527.12v-7.58c0-2.04-1.03-2.69-2.59-2.69-1.42,0-2.76.86-3.43,1.8v8.47h-1.8v-11.59h1.8v1.68c.82-.96,2.4-1.97,4.13-1.97,2.42,0,3.7,1.22,3.7,3.74v8.14h-1.81,0Z"/>
    <path class="st3" d="M1142.85,524.29c.77.89,2.23,1.66,3.82,1.66,1.78,0,2.74-.79,2.74-1.92,0-1.27-1.42-1.68-2.98-2.06-1.97-.46-4.2-.98-4.2-3.38,0-1.8,1.56-3.34,4.32-3.34,1.97,0,3.36.74,4.3,1.68l-.84,1.25c-.7-.84-1.97-1.46-3.46-1.46-1.58,0-2.57.72-2.57,1.75,0,1.13,1.32,1.49,2.83,1.85,2.02.46,4.34,1.03,4.34,3.6,0,1.94-1.56,3.5-4.56,3.5-1.9,0-3.5-.58-4.68-1.82l.94-1.3h0Z"/>
    <path class="st3" d="M837.14,553.5v-7.58h-1.92v-1.58h1.92v-3.17h1.8v3.17h2.35v1.58h-2.35v7.2c0,.86.38,1.49,1.18,1.49.5,0,.98-.22,1.22-.48l.53,1.34c-.46.43-1.1.74-2.16.74-1.7,0-2.57-.98-2.57-2.71Z"/>
    <path class="st3" d="M843.16,550.11c0-3.36,2.21-6.07,5.74-6.07s5.74,2.71,5.74,6.07-2.21,6.1-5.74,6.1-5.74-2.74-5.74-6.1ZM852.74,550.11c0-2.35-1.37-4.46-3.84-4.46s-3.86,2.11-3.86,4.46,1.39,4.49,3.86,4.49,3.84-2.11,3.84-4.49Z"/>
    <path class="st3" d="M863.44,541.16c0-.67.55-1.2,1.2-1.2s1.22.53,1.22,1.2-.55,1.22-1.22,1.22-1.2-.55-1.2-1.22ZM863.76,555.92v-11.59h1.8v11.59h-1.8Z"/>
    <path class="st3" d="M883.15,555.92v-7.87c0-1.46-.65-2.4-2.14-2.4-1.2,0-2.47.86-3.07,1.78v8.5h-1.8v-7.87c0-1.46-.62-2.4-2.14-2.4-1.18,0-2.42.86-3.05,1.8v8.47h-1.8v-11.59h1.8v1.68c.48-.74,2.04-1.97,3.74-1.97s2.78.96,3.12,2.16c.65-1.06,2.21-2.16,3.89-2.16,2.11,0,3.24,1.18,3.24,3.5v8.38h-1.8.01Z"/>
    <path class="st3" d="M890.35,560.33h-1.8v-16.01h1.8v1.73c.84-1.18,2.28-2.02,3.91-2.02,3.05,0,5.16,2.3,5.16,6.07s-2.11,6.1-5.16,6.1c-1.58,0-2.98-.74-3.91-2.04v6.17h0ZM893.8,545.65c-1.42,0-2.83.84-3.46,1.85v5.23c.62,1.01,2.04,1.87,3.46,1.87,2.33,0,3.72-1.92,3.72-4.49s-1.39-4.46-3.72-4.46h0Z"/>
    <path class="st3" d="M902.32,555.92v-11.59h1.8v1.87c.94-1.22,2.28-2.11,3.86-2.11v1.85c-.22-.05-.43-.07-.72-.07-1.1,0-2.62.91-3.14,1.85v8.21h-1.8Z"/>
    <path class="st3" d="M909.57,550.11c0-3.36,2.21-6.07,5.74-6.07s5.74,2.71,5.74,6.07-2.21,6.1-5.74,6.1-5.74-2.74-5.74-6.1ZM919.15,550.11c0-2.35-1.37-4.46-3.84-4.46s-3.86,2.11-3.86,4.46,1.39,4.49,3.86,4.49,3.84-2.11,3.84-4.49Z"/>
    <path class="st3" d="M927.07,555.92l-4.82-11.59h1.94l3.86,9.5,3.84-9.5h1.97l-4.83,11.59h-1.97.01Z"/>
    <path class="st3" d="M940.77,544.04c3.5,0,5.57,2.74,5.57,6.22v.46h-9.38c.14,2.18,1.68,4.01,4.18,4.01,1.32,0,2.67-.53,3.58-1.46l.86,1.18c-1.15,1.15-2.71,1.78-4.61,1.78-3.43,0-5.9-2.47-5.9-6.1,0-3.36,2.4-6.07,5.71-6.07v-.02h-.01ZM936.96,549.39h7.61c-.02-1.73-1.18-3.86-3.82-3.86-2.47,0-3.7,2.09-3.79,3.86Z"/>
    <path class="st3" d="M955.8,553.5v-7.58h-1.92v-1.58h1.92v-3.17h1.8v3.17h2.35v1.58h-2.35v7.2c0,.86.38,1.49,1.18,1.49.5,0,.98-.22,1.22-.48l.53,1.34c-.46.43-1.1.74-2.16.74-1.7,0-2.57-.98-2.57-2.71Z"/>
    <path class="st3" d="M970.34,555.92v-7.63c0-2.04-1.06-2.64-2.62-2.64-1.39,0-2.74.86-3.43,1.8v8.47h-1.8v-16.01h1.8v6.1c.82-.96,2.4-1.97,4.15-1.97,2.42,0,3.7,1.18,3.7,3.7v8.18h-1.8Z"/>
    <path class="st3" d="M980.78,544.04c3.5,0,5.57,2.74,5.57,6.22v.46h-9.38c.14,2.18,1.68,4.01,4.18,4.01,1.32,0,2.67-.53,3.58-1.46l.86,1.18c-1.15,1.15-2.71,1.78-4.61,1.78-3.43,0-5.9-2.47-5.9-6.1,0-3.36,2.4-6.07,5.71-6.07v-.02h-.01ZM976.96,549.39h7.61c-.02-1.73-1.18-3.86-3.82-3.86-2.47,0-3.7,2.09-3.79,3.86Z"/>
    <path class="st3" d="M988.94,541.16c0-.67.55-1.2,1.2-1.2s1.22.53,1.22,1.2-.55,1.22-1.22,1.22-1.2-.55-1.2-1.22ZM989.25,555.92v-11.59h1.8v11.59h-1.8Z"/>
    <path class="st3" d="M994.65,555.92v-11.59h1.8v1.87c.94-1.22,2.28-2.11,3.86-2.11v1.85c-.22-.05-.43-.07-.72-.07-1.1,0-2.62.91-3.14,1.85v8.21h-1.8Z"/>
    <path class="st3" d="M1017.17,555.92v-1.73c-.86,1.18-2.28,2.02-3.91,2.02-3.02,0-5.16-2.3-5.16-6.07s2.11-6.1,5.16-6.1c1.56,0,2.98.77,3.91,2.04v-6.17h1.8v16.01h-1.8ZM1017.17,547.52c-.65-1.01-2.04-1.87-3.48-1.87-2.33,0-3.72,1.92-3.72,4.49s1.39,4.46,3.72,4.46c1.44,0,2.83-.82,3.48-1.82v-5.26Z"/>
    <path class="st3" d="M1029.81,555.92v-1.32c-.96,1.06-2.28,1.61-3.84,1.61-1.97,0-4.06-1.32-4.06-3.84s2.09-3.82,4.06-3.82c1.58,0,2.9.5,3.84,1.58v-2.09c0-1.56-1.25-2.45-2.93-2.45-1.39,0-2.52.5-3.55,1.61l-.84-1.25c1.25-1.3,2.74-1.92,4.63-1.92,2.45,0,4.49,1.1,4.49,3.91v7.97h-1.8,0ZM1029.81,551.29c-.7-.96-1.92-1.44-3.19-1.44-1.68,0-2.86,1.06-2.86,2.54s1.18,2.52,2.86,2.52c1.27,0,2.5-.48,3.19-1.44v-2.18Z"/>
    <path class="st3" d="M1035.57,553.5v-7.58h-1.92v-1.58h1.92v-3.17h1.8v3.17h2.35v1.58h-2.35v7.2c0,.86.38,1.49,1.18,1.49.5,0,.98-.22,1.22-.48l.53,1.34c-.46.43-1.1.74-2.16.74-1.7,0-2.57-.98-2.57-2.71h0Z"/>
    <path class="st3" d="M1049.52,555.92v-1.32c-.96,1.06-2.28,1.61-3.84,1.61-1.97,0-4.06-1.32-4.06-3.84s2.09-3.82,4.06-3.82c1.58,0,2.9.5,3.84,1.58v-2.09c0-1.56-1.25-2.45-2.93-2.45-1.39,0-2.52.5-3.55,1.61l-.84-1.25c1.25-1.3,2.74-1.92,4.63-1.92,2.45,0,4.49,1.1,4.49,3.91v7.97h-1.8,0ZM1049.52,551.29c-.7-.96-1.92-1.44-3.19-1.44-1.68,0-2.86,1.06-2.86,2.54s1.18,2.52,2.86,2.52c1.27,0,2.5-.48,3.19-1.44v-2.18Z"/>
    <path class="st3" d="M1075.1,555.92v-7.87c0-1.46-.65-2.4-2.14-2.4-1.2,0-2.47.86-3.07,1.78v8.5h-1.8v-7.87c0-1.46-.62-2.4-2.14-2.4-1.18,0-2.42.86-3.05,1.8v8.47h-1.8v-11.59h1.8v1.68c.48-.74,2.04-1.97,3.74-1.97s2.78.96,3.12,2.16c.65-1.06,2.21-2.16,3.89-2.16,2.11,0,3.24,1.18,3.24,3.5v8.38h-1.8.01Z"/>
    <path class="st3" d="M1087.75,555.92v-1.32c-.96,1.06-2.28,1.61-3.84,1.61-1.97,0-4.06-1.32-4.06-3.84s2.09-3.82,4.06-3.82c1.58,0,2.9.5,3.84,1.58v-2.09c0-1.56-1.25-2.45-2.93-2.45-1.39,0-2.52.5-3.55,1.61l-.84-1.25c1.25-1.3,2.74-1.92,4.63-1.92,2.45,0,4.49,1.1,4.49,3.91v7.97h-1.8,0ZM1087.75,551.29c-.7-.96-1.92-1.44-3.19-1.44-1.68,0-2.86,1.06-2.86,2.54s1.18,2.52,2.86,2.52c1.27,0,2.5-.48,3.19-1.44v-2.18Z"/>
    <path class="st3" d="M1093.51,553.5v-7.58h-1.92v-1.58h1.92v-3.17h1.8v3.17h2.35v1.58h-2.35v7.2c0,.86.38,1.49,1.18,1.49.5,0,.98-.22,1.22-.48l.53,1.34c-.46.43-1.1.74-2.16.74-1.7,0-2.57-.98-2.57-2.71h0Z"/>
    <path class="st3" d="M1108.03,555.92v-1.63c-.89,1.01-2.4,1.92-4.13,1.92-2.42,0-3.7-1.18-3.7-3.7v-8.18h1.8v7.63c0,2.04,1.03,2.64,2.59,2.64,1.42,0,2.76-.82,3.43-1.75v-8.52h1.8v11.59h-1.8,0Z"/>
    <path class="st3" d="M1113.43,555.92v-11.59h1.8v1.87c.94-1.22,2.28-2.11,3.86-2.11v1.85c-.22-.05-.43-.07-.72-.07-1.1,0-2.62.91-3.14,1.85v8.21h-1.8Z"/>
    <path class="st3" d="M1121.04,541.16c0-.67.55-1.2,1.2-1.2s1.22.53,1.22,1.2-.55,1.22-1.22,1.22-1.2-.55-1.2-1.22ZM1121.35,555.92v-11.59h1.8v11.59h-1.8Z"/>
    <path class="st3" d="M1127.11,553.5v-7.58h-1.92v-1.58h1.92v-3.17h1.8v3.17h2.35v1.58h-2.35v7.2c0,.86.38,1.49,1.18,1.49.5,0,.98-.22,1.22-.48l.53,1.34c-.46.43-1.1.74-2.16.74-1.7,0-2.57-.98-2.57-2.71h0Z"/>
    <path class="st3" d="M1133.44,558.82c.26.12.7.19.98.19.79,0,1.32-.26,1.73-1.22l.77-1.75-4.85-11.71h1.94l3.86,9.5,3.84-9.5h1.97l-5.81,13.95c-.7,1.68-1.87,2.33-3.41,2.35-.38,0-.98-.07-1.32-.17l.29-1.63h.01Z"/>
  </g>
  <circle class="st3" cx="1107.68" cy="393.89" r="17.69"/>
  <circle class="st3" cx="665.65" cy="262.79" r="17.69"/>
  <circle class="st3" cx="1148.55" cy="260.77" r="13.26"/>
  <circle class="st3" cx="652.86" cy="123.88" r="13.26"/>
  <circle class="st3" cx="930.85" cy="459.5" r="13.26"/>
  <circle class="st3" cx="575.91" cy="531.16" r="9.64"/>
  <circle class="st3" cx="796.3" cy="766.73" r="9.64"/>
  <circle class="st3" cx="298.1" cy="51.04" r="9.64"/>
  <line class="st15" x1="761.97" y1="373.22" x2="589.73" y2="515.5"/>
  <line class="st15" x1="291.03" y1="33.72" x2="262.75" y2="-38.47"/>
  <line class="st15" x1="633.1" y1="116.43" x2="317.48" y2="55.45"/>
  <line class="st15" x1="661.73" y1="234.65" x2="654.58" y2="143.31"/>
  <line class="st15" x1="743.93" y1="269.12" x2="692.94" y2="264.44"/>
  <line class="st15" x1="908.53" y1="411.77" x2="924.7" y2="441.13"/>
  <line class="st15" x1="1115.39" y1="371.29" x2="1143.74" y2="281.4"/>
  <line class="st15" x1="975.17" y1="338.25" x2="1086.22" y2="380.41"/>
  <line class="st15" x1="930.85" y1="573.67" x2="807.81" y2="753.12"/>
  <g>
    <path class="st1" d="M872.86,259.4c-4.1-1.19-9.55-1.85-15.33-1.85s-11.23.66-15.33,1.85c-4.41,1.29-6.75,3.03-6.75,5.03v40.1c0,2.01,2.34,3.75,6.75,5.03,4.1,1.19,9.55,1.85,15.33,1.85s11.23-.66,15.33-1.85c4.41-1.29,6.75-3.03,6.75-5.03v-40.1c0-2.01-2.33-3.75-6.75-5.03ZM842.56,260.66c3.99-1.16,9.3-1.8,14.97-1.8s10.98.64,14.97,1.8c3.63,1.05,5.8,2.47,5.8,3.78s-2.17,2.72-5.8,3.78c-3.99,1.16-9.3,1.8-14.97,1.8s-10.98-.64-14.97-1.8c-3.63-1.06-5.8-2.47-5.8-3.78s2.17-2.72,5.8-3.78ZM872.5,308.3c-3.99,1.16-9.3,1.8-14.97,1.8s-10.98-.64-14.97-1.8c-3.63-1.06-5.8-2.47-5.8-3.78v-10.89c1.12.98,2.94,1.85,5.44,2.57,4.1,1.19,9.55,1.85,15.33,1.85s11.23-.66,15.33-1.85c2.49-.72,4.31-1.59,5.44-2.57v10.89c0,1.3-2.17,2.72-5.8,3.77h0ZM872.5,294.95c-3.99,1.16-9.3,1.8-14.97,1.8s-10.98-.64-14.97-1.8c-3.63-1.06-5.8-2.47-5.8-3.78v-10.9c1.12.98,2.94,1.85,5.44,2.57,4.1,1.19,9.55,1.85,15.33,1.85s11.23-.66,15.33-1.85c2.49-.72,4.31-1.59,5.44-2.57v10.9c0,1.31-2.17,2.72-5.8,3.78h0ZM872.5,281.58c-3.99,1.16-9.3,1.8-14.97,1.8s-10.98-.64-14.97-1.8c-3.63-1.06-5.8-2.47-5.8-3.78v-10.9c1.12.98,2.94,1.85,5.44,2.57,4.1,1.19,9.55,1.85,15.33,1.85s11.23-.66,15.33-1.85c2.49-.72,4.31-1.59,5.44-2.57v10.9c0,1.3-2.17,2.72-5.8,3.77h0ZM845.9,273.55c-1.54,0-2.8,1.26-2.8,2.8s1.26,2.8,2.8,2.8,2.8-1.26,2.8-2.8-1.26-2.8-2.8-2.8ZM845.9,277.84c-.82,0-1.48-.67-1.48-1.48s.67-1.48,1.48-1.48,1.48.67,1.48,1.48-.67,1.48-1.48,1.48ZM845.9,286.78c-1.54,0-2.8,1.26-2.8,2.8s1.26,2.8,2.8,2.8,2.8-1.26,2.8-2.8-1.26-2.8-2.8-2.8ZM845.9,291.07c-.82,0-1.48-.67-1.48-1.48s.67-1.48,1.48-1.48,1.48.67,1.48,1.48-.67,1.48-1.48,1.48ZM845.9,300.01c-1.54,0-2.8,1.26-2.8,2.8s1.26,2.8,2.8,2.8,2.8-1.26,2.8-2.8-1.26-2.8-2.8-2.8ZM845.9,304.3c-.82,0-1.48-.67-1.48-1.48s.67-1.48,1.48-1.48,1.48.67,1.48,1.48-.67,1.48-1.48,1.48Z"/>
    <g>
      <line class="st14" x1="901.26" y1="304.3" x2="901.26" y2="312.99"/>
      <g>
        <rect class="st14" x="871.66" y="322.48" width="14.76" height="12.09"/>
        <rect class="st14" x="893.88" y="322.48" width="14.76" height="12.09"/>
        <g>
          <rect class="st14" x="916.08" y="322.48" width="14.76" height="12.09"/>
          <polyline class="st14" points="923.47 322 923.47 313.47 879.04 313.47 879.04 322"/>
        </g>
      </g>
    </g>
    <g>
      <line class="st16" x1="895.44" y1="285.55" x2="907.07" y2="285.55"/>
      <line class="st16" x1="895.44" y1="291.07" x2="907.07" y2="291.07"/>
      <line class="st16" x1="895.44" y1="296.58" x2="907.07" y2="296.58"/>
    </g>
    <g>
      <rect class="st14" x="800.82" y="292.08" width="25.98" height="31.02"/>
      <g>
        <path class="st0" d="M816.53,307.13c.14-.11.29-.21.43-.34,4.1-4.22-2.08-10.49-6.33-6.38-2.28,2.35-1.38,5.32.6,6.79-2.97,1.02-5.3,3.62-4.77,7.21.11.97.93,1.7,1.9,1.71h10.88c.49,0,.94-.18,1.28-.49,1.55-1.9.3-5.1-1.15-6.65-.79-.89-1.77-1.49-2.83-1.85h0Z"/>
        <path class="st0" d="M813.8,300.49c4.04.02,4.04,6.19,0,6.22-4.04-.02-4.04-6.19,0-6.22Z"/>
        <path class="st0" d="M819.58,314.6c-.09.07-.21.12-.34.12h-10.88c-.6-.01-.55-.68-.56-1.12.07-7.98,13.56-6.82,11.77,1h.01Z"/>
      </g>
    </g>
    <polygon class="st14" points="914.24 304.02 888.27 304.02 888.27 273 904.58 273 914.24 281.4 914.24 304.02"/>
    <g>
      <circle class="st14" cx="848.29" cy="328.37" r="11.35"/>
      <line class="st14" x1="856.44" y1="336.46" x2="860.32" y2="340.34"/>
      <rect class="st13" x="866.08" y="337.14" width="6.52" height="23.96" rx="2.09" ry="2.09" transform="translate(7.76 716.97) rotate(-45)"/>
    </g>
    <polyline class="st2" points="904.58 273 904.58 281.4 914.24 281.4"/>
  </g>
  <circle class="st3" cx="258.05" cy="531.21" r="5.71" transform="translate(-304.33 711.5) rotate(-81.86)"/>
  <circle class="st3" cx="258.05" cy="531.21" r="5.71" transform="translate(-304.33 711.5) rotate(-81.86)"/>
  <circle class="st3" cx="1065.43" cy="127.9" r="2.85"/>
  <circle class="st3" cx="796.3" cy="127.9" r="2.85"/>
  <circle class="st3" cx="1065.43" cy="396.74" r="2.85"/>
  <circle class="st3" cx="123.47" cy="127.9" r="2.85"/>
  <circle class="st3" cx="258.04" cy="262.32" r="2.85"/>
  <circle class="st3" cx="661.73" cy="396.74" r="2.85"/>
  <g>
    <path class="st3" d="M751.68,253.33l-14.86-8.1,4.26-7.82c1.54-2.83,4.14-3.29,6.12-2.21,1.87,1.02,2.49,2.86,2.01,4.42,1.11-1.45,3.34-1.88,5.21-.86,2.23,1.21,3.2,3.68,1.65,6.51l-4.4,8.06h0ZM744.52,245.32l2.16-3.96c.58-1.07.26-2.11-.7-2.64-.91-.5-1.99-.22-2.57.85l-2.16,3.96,3.28,1.79h-.01ZM750.71,248.7l2.22-4.08c.66-1.2.35-2.29-.72-2.88-.94-.51-2.1-.28-2.78.97l-2.22,4.08,3.5,1.91Z"/>
    <path class="st3" d="M746.03,229l2.19-2.93,8.05,6.01c1.89,1.41,3.96,1.35,5.54-.77,1.55-2.07,1.02-4.08-.87-5.49l-8.05-6.01,2.19-2.93,8.13,6.07c3.37,2.52,4.23,6.17,1.16,10.27-3.1,4.15-6.86,4.35-10.19,1.86l-8.15-6.09h0Z"/>
    <path class="st3" d="M770.72,224.97l-12.46-11.46,2.44-2.65,12.46,11.46-2.44,2.65Z"/>
    <path class="st3" d="M775.2,220.09l-11.48-12.43,2.65-2.44,9.33,10.1,5.25-4.85,2.15,2.33-7.9,7.3h0Z"/>
    <path class="st3" d="M784.6,211.44l-9.82-13.78,5.43-3.87c4.32-3.08,9.27-2.46,12.23,1.69,2.96,4.15,1.91,9.01-2.41,12.09l-5.43,3.87ZM785.69,206.77l2.5-1.78c2.73-1.94,2.92-5.04,1.25-7.38-1.74-2.44-4.57-3.26-7.4-1.24l-2.5,1.78,6.14,8.62h.01Z"/>
    <path class="st3" d="M799.31,201.48l-8.38-14.71,3.13-1.78,8.38,14.71-3.13,1.78Z"/>
    <path class="st3" d="M815.62,193.41l-11.97-7.15,4.58,10.4-3.3,1.45-6.82-15.49,3.39-1.49,11.59,6.87-4.42-10.03,3.3-1.45,6.82,15.49-3.18,1.4h0Z"/>
    <path class="st3" d="M824.79,172.35c3.38-.92,5.96.14,7.73,1.74l-2.46,2.35c-1.07-.94-2.71-1.47-4.43-1.01-2.96.8-4.5,3.67-3.66,6.75.84,3.09,3.61,4.78,6.58,3.97,1.49-.41,2.65-1.38,3.19-2.21l-.54-1.98-4.36,1.18-.81-2.99,7.79-2.12,1.7,6.25c-1.16,2.31-3.15,4.17-6.12,4.98-4.78,1.3-9.6-.97-11-6.11-1.4-5.17,1.62-9.51,6.4-10.81h-.01Z"/>
    <path class="st3" d="M850.98,185.1l-.27-16.92,6.67-.11c5.3-.09,9.04,3.23,9.12,8.33s-3.54,8.51-8.85,8.6l-6.67.11h0ZM854.53,181.87l3.07-.05c3.35-.05,5.26-2.5,5.22-5.36-.05-2.99-1.91-5.27-5.39-5.22l-3.07.05.17,10.58h0Z"/>
    <path class="st3" d="M879.51,186.45l-.7-3.02-7.5-.92-1.41,2.77-3.93-.48,8.55-16,4.48.55,4.41,17.59-3.9-.48h0ZM876.38,172.17l-3.74,7.36,5.56.68-1.83-8.04h.01Z"/>
    <path class="st3" d="M886.66,187.93l3.25-13.37-4.81-1.17.75-3.08,13.12,3.19-.75,3.08-4.78-1.16-3.25,13.36-3.53-.86h0Z"/>
    <path class="st3" d="M906.28,194.12l.02-3.11-7.09-2.63-2.02,2.36-3.71-1.38,12.03-13.59,4.23,1.57.22,18.14-3.69-1.37h.01ZM906.54,179.5l-5.34,6.3,5.26,1.95.09-8.25h-.01Z"/>
    <path class="st3" d="M933.92,210.34l7.07-9.92-10.95,7.15-1.28-.91,3.18-12.69-7.07,9.92-2.93-2.09,9.82-13.78,4.11,2.93-2.78,10.98,9.47-6.21,4.13,2.94-9.82,13.78-2.95-2.11h0Z"/>
    <path class="st3" d="M947.31,222.63l1.28-2.83-5.4-5.3-2.8,1.34-2.83-2.77,16.53-7.49,3.22,3.16-7.2,16.65-2.81-2.76h.01ZM953.52,209.38l-7.45,3.57,4,3.93,3.45-7.5Z"/>
    <path class="st3" d="M952.09,228.16l10.7-8.63-3.11-3.85,2.47-1.99,8.47,10.5-2.47,1.99-3.09-3.83-10.7,8.63-2.28-2.82h.01Z"/>
    <path class="st3" d="M972.99,227.46l1.89,3.12-8.59,5.21c-2.02,1.22-2.74,3.17-1.37,5.43,1.34,2.21,3.4,2.48,5.42,1.25l8.59-5.21,1.89,3.12-8.68,5.26c-3.6,2.18-7.3,1.61-9.96-2.78-2.68-4.43-1.46-7.99,2.1-10.14l8.7-5.27h.01Z"/>
    <path class="st3" d="M971.32,260.47l4.27-5.44-1.04-2.43-5.58,2.38-1.42-3.31,15.56-6.66,3.11,7.28c1.39,3.24.11,6.13-2.78,7.37-2.75,1.18-4.96.08-6.08-1.43l-4.43,6.03-1.63-3.8h.02ZM983.18,253.03l-1.49-3.48-4.29,1.84,1.49,3.48c.57,1.33,1.84,1.97,3.14,1.42,1.31-.56,1.72-1.92,1.15-3.25h0Z"/>
    <path class="st3" d="M973.48,266.43l16.12-5.15,1.1,3.43-16.12,5.15-1.1-3.43Z"/>
    <path class="st3" d="M976.38,276.51l13.41-3.02-1.09-4.83,3.09-.7,2.96,13.17-3.09.7-1.08-4.8-13.42,3.02-.8-3.54h.02Z"/>
    <path class="st3" d="M978.97,291.33l6.89-.66,9.33-7.44.39,4.09-6.37,4.84,7.16,3.5.39,4.09-10.56-5.49-6.89.66-.34-3.59Z"/>
  </g>
  <g>
    <path class="st3" d="M300.21,567.66v-16.01h5.95c4.99,0,8.38,3.31,8.38,8.02s-3.38,7.99-8.38,7.99h-5.95ZM303.02,565.19h3.14c3.48,0,5.5-2.5,5.5-5.52s-1.92-5.54-5.5-5.54h-3.14v11.06Z"/>
    <path class="st3" d="M324.26,567.66v-1.25c-.86.98-2.21,1.54-3.74,1.54-1.9,0-4.03-1.27-4.03-3.84s2.14-3.77,4.03-3.77c1.56,0,2.9.5,3.74,1.49v-1.73c0-1.34-1.1-2.16-2.71-2.16-1.3,0-2.42.48-3.43,1.46l-1.03-1.75c1.34-1.27,3.02-1.87,4.87-1.87,2.57,0,4.83,1.08,4.83,4.2v7.68h-2.52ZM324.26,563.27c-.58-.79-1.66-1.2-2.76-1.2-1.42,0-2.47.82-2.47,2.09s1.06,2.06,2.47,2.06c1.1,0,2.18-.41,2.76-1.2v-1.75Z"/>
    <path class="st3" d="M330.55,564.97v-6.7h-1.92v-2.21h1.92v-3.17h2.52v3.17h2.35v2.21h-2.35v6.07c0,.79.38,1.37,1.1,1.37.48,0,.94-.19,1.13-.41l.6,1.9c-.46.43-1.2.74-2.38.74-1.94,0-2.98-1.06-2.98-2.98Z"/>
    <path class="st3" d="M344.78,567.66v-1.25c-.86.98-2.21,1.54-3.74,1.54-1.9,0-4.03-1.27-4.03-3.84s2.14-3.77,4.03-3.77c1.56,0,2.9.5,3.74,1.49v-1.73c0-1.34-1.1-2.16-2.71-2.16-1.3,0-2.42.48-3.43,1.46l-1.03-1.75c1.34-1.27,3.02-1.87,4.87-1.87,2.57,0,4.83,1.08,4.83,4.2v7.68h-2.52ZM344.78,563.27c-.58-.79-1.66-1.2-2.76-1.2-1.42,0-2.47.82-2.47,2.09s1.06,2.06,2.47,2.06c1.1,0,2.18-.41,2.76-1.2v-1.75Z"/>
    <path class="st3" d="M356.87,564.32c.82.84,2.42,1.63,3.94,1.63s2.28-.55,2.28-1.42c0-1.01-1.22-1.37-2.64-1.68-1.99-.43-4.37-.96-4.37-3.55,0-1.9,1.63-3.53,4.56-3.53,1.97,0,3.46.7,4.51,1.63l-1.06,1.78c-.7-.79-1.99-1.39-3.43-1.39-1.32,0-2.16.48-2.16,1.3,0,.89,1.15,1.2,2.52,1.51,2.02.43,4.49,1.01,4.49,3.74,0,2.04-1.7,3.6-4.82,3.6-1.97,0-3.77-.62-4.97-1.8l1.15-1.82Z"/>
    <path class="st3" d="M368.56,564.97v-6.7h-1.92v-2.21h1.92v-3.17h2.52v3.17h2.35v2.21h-2.35v6.07c0,.79.38,1.37,1.1,1.37.48,0,.94-.19,1.13-.41l.6,1.9c-.46.43-1.2.74-2.38.74-1.94,0-2.98-1.06-2.98-2.98Z"/>
    <path class="st3" d="M380.88,555.78c3.48,0,5.71,2.66,5.71,6.31v.6h-8.95c.19,1.75,1.51,3.19,3.7,3.19,1.13,0,2.47-.46,3.29-1.27l1.15,1.66c-1.15,1.1-2.86,1.68-4.71,1.68-3.48,0-6.07-2.42-6.07-6.1,0-3.36,2.45-6.07,5.88-6.07ZM377.61,560.91h6.53c-.05-1.37-.98-3.07-3.26-3.07-2.16,0-3.14,1.66-3.26,3.07Z"/>
    <path class="st3" d="M399.19,567.66l-2.69-8.5-2.69,8.5h-2.64l-3.6-11.59h2.62l2.45,8.42,2.76-8.42h2.21l2.76,8.42,2.45-8.42h2.62l-3.6,11.59h-2.64Z"/>
    <path class="st3" d="M414.26,567.66v-1.25c-.86.98-2.21,1.54-3.74,1.54-1.9,0-4.03-1.27-4.03-3.84s2.14-3.77,4.03-3.77c1.56,0,2.9.5,3.74,1.49v-1.73c0-1.34-1.1-2.16-2.71-2.16-1.3,0-2.42.48-3.43,1.46l-1.03-1.75c1.34-1.27,3.02-1.87,4.87-1.87,2.57,0,4.83,1.08,4.83,4.2v7.68h-2.52ZM414.26,563.27c-.58-.79-1.66-1.2-2.76-1.2-1.42,0-2.47.82-2.47,2.09s1.06,2.06,2.47,2.06c1.1,0,2.18-.41,2.76-1.2v-1.75Z"/>
    <path class="st3" d="M420.04,567.66v-11.59h2.52v1.7c.86-1.1,2.26-1.97,3.77-1.97v2.5c-.22-.05-.48-.07-.79-.07-1.06,0-2.47.72-2.98,1.54v7.9h-2.52Z"/>
    <path class="st3" d="M436.53,567.66v-1.58c-.89,1.15-2.23,1.87-3.72,1.87-2.98,0-5.16-2.26-5.16-6.07s2.16-6.1,5.16-6.1c1.44,0,2.78.67,3.72,1.9v-6.03h2.52v16.01h-2.52ZM436.53,559.57c-.58-.86-1.8-1.56-3-1.56-1.99,0-3.26,1.61-3.26,3.86s1.27,3.84,3.26,3.84c1.2,0,2.42-.67,3-1.54v-4.61Z"/>
    <path class="st3" d="M442.46,564.32c.82.84,2.42,1.63,3.94,1.63s2.28-.55,2.28-1.42c0-1.01-1.22-1.37-2.64-1.68-1.99-.43-4.37-.96-4.37-3.55,0-1.9,1.63-3.53,4.56-3.53,1.97,0,3.46.7,4.51,1.63l-1.06,1.78c-.7-.79-1.99-1.39-3.43-1.39-1.32,0-2.16.48-2.16,1.3,0,.89,1.15,1.2,2.52,1.51,2.02.43,4.49,1.01,4.49,3.74,0,2.04-1.7,3.6-4.82,3.6-1.97,0-3.77-.62-4.97-1.8l1.15-1.82Z"/>
    <path class="st3" d="M461.49,567.66v-7.3c0-1.8-.94-2.35-2.35-2.35-1.27,0-2.38.77-2.98,1.56v8.09h-2.52v-16.01h2.52v6c.77-.91,2.28-1.87,4.1-1.87,2.5,0,3.74,1.3,3.74,3.67v8.21h-2.52Z"/>
    <path class="st3" d="M466.96,552.59c0-.86.72-1.56,1.56-1.56s1.56.7,1.56,1.56-.7,1.56-1.56,1.56-1.56-.7-1.56-1.56ZM467.27,567.66v-11.59h2.52v11.59h-2.52Z"/>
    <path class="st3" d="M475.58,572.07h-2.52v-16.01h2.52v1.58c.86-1.15,2.21-1.87,3.72-1.87,3,0,5.14,2.26,5.14,6.07s-2.14,6.1-5.14,6.1c-1.46,0-2.78-.65-3.72-1.9v6.02ZM478.56,558.01c-1.18,0-2.42.7-2.98,1.56v4.58c.55.84,1.8,1.56,2.98,1.56,1.99,0,3.26-1.61,3.26-3.86s-1.27-3.84-3.26-3.84Z"/>
    <path class="st3" d="M495.67,572.07h-2.52v-16.01h2.52v1.58c.86-1.15,2.21-1.87,3.72-1.87,3,0,5.14,2.26,5.14,6.07s-2.14,6.1-5.14,6.1c-1.46,0-2.78-.65-3.72-1.9v6.02ZM498.64,558.01c-1.18,0-2.42.7-2.98,1.56v4.58c.55.84,1.8,1.56,2.98,1.56,1.99,0,3.26-1.61,3.26-3.86s-1.27-3.84-3.26-3.84Z"/>
    <path class="st3" d="M507.07,567.66v-11.59h2.52v1.7c.86-1.1,2.26-1.97,3.77-1.97v2.5c-.22-.05-.48-.07-.79-.07-1.06,0-2.47.72-2.98,1.54v7.9h-2.52Z"/>
    <path class="st3" d="M514.67,561.85c0-3.31,2.28-6.07,5.95-6.07s5.98,2.76,5.98,6.07-2.26,6.1-5.98,6.1-5.95-2.76-5.95-6.1ZM523.99,561.85c0-2.04-1.2-3.84-3.36-3.84s-3.34,1.8-3.34,3.84,1.2,3.86,3.34,3.86,3.36-1.8,3.36-3.86Z"/>
    <path class="st3" d="M530.18,568.81c.94,1.08,2.14,1.49,3.67,1.49,1.66,0,3.43-.77,3.43-3.14v-1.39c-.89,1.15-2.21,1.92-3.72,1.92-2.95,0-5.14-2.14-5.14-5.95s2.16-5.95,5.14-5.95c1.46,0,2.78.67,3.72,1.9v-1.61h2.52v10.99c0,4.18-3.1,5.3-5.95,5.3-1.97,0-3.43-.43-4.85-1.73l1.18-1.82ZM537.28,559.57c-.55-.86-1.8-1.56-2.98-1.56-1.99,0-3.26,1.49-3.26,3.72s1.27,3.72,3.26,3.72c1.18,0,2.42-.7,2.98-1.56v-4.32Z"/>
    <path class="st3" d="M543.07,567.66v-11.59h2.52v1.7c.86-1.1,2.26-1.97,3.77-1.97v2.5c-.22-.05-.48-.07-.79-.07-1.06,0-2.47.72-2.98,1.54v7.9h-2.52Z"/>
    <path class="st3" d="M558.48,567.66v-1.25c-.86.98-2.21,1.54-3.74,1.54-1.9,0-4.03-1.27-4.03-3.84s2.14-3.77,4.03-3.77c1.56,0,2.9.5,3.74,1.49v-1.73c0-1.34-1.1-2.16-2.71-2.16-1.3,0-2.42.48-3.43,1.46l-1.03-1.75c1.34-1.27,3.02-1.87,4.87-1.87,2.57,0,4.83,1.08,4.83,4.2v7.68h-2.52ZM558.48,563.27c-.58-.79-1.66-1.2-2.76-1.2-1.42,0-2.47.82-2.47,2.09s1.06,2.06,2.47,2.06c1.1,0,2.18-.41,2.76-1.2v-1.75Z"/>
    <path class="st3" d="M578.47,567.66v-7.56c0-1.25-.55-2.09-1.9-2.09-1.13,0-2.18.79-2.69,1.54v8.11h-2.52v-7.56c0-1.25-.55-2.09-1.92-2.09-1.1,0-2.14.79-2.66,1.56v8.09h-2.52v-11.59h2.52v1.58c.48-.72,2.02-1.87,3.77-1.87s2.78.86,3.17,2.14c.67-1.06,2.21-2.14,3.94-2.14,2.14,0,3.34,1.15,3.34,3.5v8.38h-2.52Z"/>
    <path class="st3" d="M598.46,567.66v-7.56c0-1.25-.55-2.09-1.9-2.09-1.13,0-2.18.79-2.69,1.54v8.11h-2.52v-7.56c0-1.25-.55-2.09-1.92-2.09-1.1,0-2.14.79-2.66,1.56v8.09h-2.52v-11.59h2.52v1.58c.48-.72,2.02-1.87,3.77-1.87s2.78.86,3.17,2.14c.67-1.06,2.21-2.14,3.94-2.14,2.14,0,3.34,1.15,3.34,3.5v8.38h-2.52Z"/>
    <path class="st3" d="M609.4,555.78c3.48,0,5.71,2.66,5.71,6.31v.6h-8.95c.19,1.75,1.51,3.19,3.7,3.19,1.13,0,2.47-.46,3.29-1.27l1.15,1.66c-1.15,1.1-2.86,1.68-4.71,1.68-3.48,0-6.07-2.42-6.07-6.1,0-3.36,2.45-6.07,5.88-6.07ZM606.14,560.91h6.53c-.05-1.37-.98-3.07-3.26-3.07-2.16,0-3.14,1.66-3.26,3.07Z"/>
    <path class="st3" d="M304.34,596.46v-14.23h-5.06v-1.78h12.15v1.78h-5.09v14.23h-1.99Z"/>
    <path class="st3" d="M318.96,596.46v-1.32c-.96,1.06-2.28,1.61-3.84,1.61-1.97,0-4.06-1.32-4.06-3.84s2.09-3.82,4.06-3.82c1.58,0,2.9.5,3.84,1.58v-2.09c0-1.56-1.25-2.45-2.93-2.45-1.39,0-2.52.5-3.55,1.61l-.84-1.25c1.25-1.3,2.74-1.92,4.63-1.92,2.45,0,4.49,1.1,4.49,3.91v7.97h-1.8ZM318.96,591.83c-.7-.96-1.92-1.44-3.19-1.44-1.68,0-2.86,1.06-2.86,2.54s1.18,2.52,2.86,2.52c1.27,0,2.5-.48,3.19-1.44v-2.18Z"/>
    <path class="st3" d="M324.35,596.46v-11.59h1.8v1.87c.94-1.22,2.28-2.11,3.86-2.11v1.85c-.22-.05-.43-.07-.72-.07-1.1,0-2.62.91-3.14,1.85v8.21h-1.8Z"/>
    <path class="st3" d="M340.17,596.46l-4.18-5.21-1.92,1.9v3.31h-1.8v-16.01h1.8v10.58l6.1-6.17h2.28l-5.14,5.26,5.16,6.34h-2.3Z"/>
    <path class="st3" d="M351.86,596.46v-1.32c-.96,1.06-2.28,1.61-3.84,1.61-1.97,0-4.06-1.32-4.06-3.84s2.09-3.82,4.06-3.82c1.58,0,2.9.5,3.84,1.58v-2.09c0-1.56-1.25-2.45-2.93-2.45-1.39,0-2.52.5-3.55,1.61l-.84-1.25c1.25-1.3,2.74-1.92,4.63-1.92,2.45,0,4.49,1.1,4.49,3.91v7.97h-1.8ZM351.86,591.83c-.7-.96-1.92-1.44-3.19-1.44-1.68,0-2.86,1.06-2.86,2.54s1.18,2.52,2.86,2.52c1.27,0,2.5-.48,3.19-1.44v-2.18Z"/>
    <path class="st3" d="M371.25,596.46v-7.87c0-1.46-.65-2.4-2.14-2.4-1.2,0-2.47.86-3.07,1.78v8.5h-1.8v-7.87c0-1.46-.62-2.4-2.14-2.4-1.18,0-2.42.86-3.05,1.8v8.47h-1.8v-11.59h1.8v1.68c.48-.74,2.04-1.97,3.74-1.97s2.78.96,3.12,2.16c.65-1.06,2.21-2.16,3.89-2.16,2.11,0,3.24,1.18,3.24,3.5v8.38h-1.8Z"/>
    <path class="st3" d="M392.88,596.46l-3.02-9.31-3.02,9.31h-1.8l-3.7-11.59h1.87l2.83,9.24,3.05-9.24h1.54l3.05,9.24,2.83-9.24h1.87l-3.7,11.59h-1.8Z"/>
    <path class="st3" d="M400.15,581.7c0-.67.55-1.2,1.2-1.2s1.22.53,1.22,1.2-.55,1.22-1.22,1.22-1.2-.55-1.2-1.22ZM400.46,596.46v-11.59h1.8v11.59h-1.8Z"/>
    <path class="st3" d="M405.86,596.46v-16.01h1.8v16.01h-1.8Z"/>
    <path class="st3" d="M411.26,596.46v-16.01h1.8v16.01h-1.8Z"/>
    <path class="st3" d="M423.21,594.03v-7.58h-1.92v-1.58h1.92v-3.17h1.8v3.17h2.35v1.58h-2.35v7.2c0,.86.38,1.49,1.18,1.49.5,0,.98-.22,1.22-.48l.53,1.34c-.46.43-1.1.74-2.16.74-1.7,0-2.57-.98-2.57-2.71Z"/>
    <path class="st3" d="M429.91,596.46v-11.59h1.8v1.87c.94-1.22,2.28-2.11,3.86-2.11v1.85c-.22-.05-.43-.07-.72-.07-1.1,0-2.62.91-3.14,1.85v8.21h-1.8Z"/>
    <path class="st3" d="M445.07,596.46v-1.32c-.96,1.06-2.28,1.61-3.84,1.61-1.97,0-4.06-1.32-4.06-3.84s2.09-3.82,4.06-3.82c1.58,0,2.9.5,3.84,1.58v-2.09c0-1.56-1.25-2.45-2.93-2.45-1.39,0-2.52.5-3.55,1.61l-.84-1.25c1.25-1.3,2.74-1.92,4.63-1.92,2.45,0,4.49,1.1,4.49,3.91v7.97h-1.8ZM445.07,591.83c-.7-.96-1.92-1.44-3.19-1.44-1.68,0-2.86,1.06-2.86,2.54s1.18,2.52,2.86,2.52c1.27,0,2.5-.48,3.19-1.44v-2.18Z"/>
    <path class="st3" d="M450.16,581.7c0-.67.55-1.2,1.2-1.2s1.22.53,1.22,1.2-.55,1.22-1.22,1.22-1.2-.55-1.2-1.22ZM450.47,596.46v-11.59h1.8v11.59h-1.8Z"/>
    <path class="st3" d="M463.7,596.46v-7.58c0-2.04-1.03-2.69-2.59-2.69-1.42,0-2.76.86-3.43,1.8v8.47h-1.8v-11.59h1.8v1.68c.82-.96,2.4-1.97,4.13-1.97,2.42,0,3.7,1.22,3.7,3.74v8.14h-1.8Z"/>
    <path class="st3" d="M482.54,596.46v-1.32c-.96,1.06-2.28,1.61-3.84,1.61-1.97,0-4.06-1.32-4.06-3.84s2.09-3.82,4.06-3.82c1.58,0,2.9.5,3.84,1.58v-2.09c0-1.56-1.25-2.45-2.93-2.45-1.39,0-2.52.5-3.55,1.61l-.84-1.25c1.25-1.3,2.74-1.92,4.63-1.92,2.45,0,4.49,1.1,4.49,3.91v7.97h-1.8ZM482.54,591.83c-.7-.96-1.92-1.44-3.19-1.44-1.68,0-2.86,1.06-2.86,2.54s1.18,2.52,2.86,2.52c1.27,0,2.5-.48,3.19-1.44v-2.18Z"/>
    <path class="st3" d="M499.24,584.58c2.11,0,3.36.86,4.25,2.02l-1.2,1.1c-.77-1.06-1.75-1.51-2.95-1.51-2.47,0-4.01,1.9-4.01,4.46s1.54,4.49,4.01,4.49c1.2,0,2.18-.48,2.95-1.51l1.2,1.1c-.89,1.15-2.14,2.02-4.25,2.02-3.46,0-5.78-2.64-5.78-6.1s2.33-6.07,5.78-6.07Z"/>
    <path class="st3" d="M513.26,596.46v-1.32c-.96,1.06-2.28,1.61-3.84,1.61-1.97,0-4.06-1.32-4.06-3.84s2.09-3.82,4.06-3.82c1.58,0,2.9.5,3.84,1.58v-2.09c0-1.56-1.25-2.45-2.93-2.45-1.39,0-2.52.5-3.55,1.61l-.84-1.25c1.25-1.3,2.74-1.92,4.63-1.92,2.45,0,4.49,1.1,4.49,3.91v7.97h-1.8ZM513.26,591.83c-.7-.96-1.92-1.44-3.19-1.44-1.68,0-2.86,1.06-2.86,2.54s1.18,2.52,2.86,2.52c1.27,0,2.5-.48,3.19-1.44v-2.18Z"/>
    <path class="st3" d="M527.06,596.46v-1.73c-.86,1.18-2.28,2.02-3.91,2.02-3.02,0-5.16-2.3-5.16-6.07s2.11-6.1,5.16-6.1c1.56,0,2.98.77,3.91,2.04v-6.17h1.8v16.01h-1.8ZM527.06,588.06c-.65-1.01-2.04-1.87-3.48-1.87-2.33,0-3.72,1.92-3.72,4.49s1.39,4.46,3.72,4.46c1.44,0,2.83-.82,3.48-1.82v-5.26Z"/>
    <path class="st3" d="M532.46,596.46v-11.59h1.8v1.87c.94-1.22,2.28-2.11,3.86-2.11v1.85c-.22-.05-.43-.07-.72-.07-1.1,0-2.62.91-3.14,1.85v8.21h-1.8Z"/>
    <path class="st3" d="M545.42,584.58c3.5,0,5.57,2.74,5.57,6.22v.46h-9.38c.14,2.18,1.68,4.01,4.18,4.01,1.32,0,2.67-.53,3.58-1.46l.86,1.18c-1.15,1.15-2.71,1.78-4.61,1.78-3.43,0-5.9-2.47-5.9-6.1,0-3.36,2.4-6.07,5.71-6.07ZM541.6,589.93h7.61c-.02-1.73-1.18-3.86-3.82-3.86-2.47,0-3.7,2.09-3.79,3.86Z"/>
    <path class="st3" d="M559.41,590.65c0-3.36,2.21-6.07,5.74-6.07s5.74,2.71,5.74,6.07-2.21,6.1-5.74,6.1-5.74-2.74-5.74-6.1ZM568.99,590.65c0-2.35-1.37-4.46-3.84-4.46s-3.86,2.11-3.86,4.46,1.39,4.49,3.86,4.49,3.84-2.11,3.84-4.49Z"/>
    <path class="st3" d="M576.11,586.45v10.01h-1.8v-10.01h-1.92v-1.58h1.92v-.89c0-2.4,1.34-3.77,3.36-3.77.67,0,1.3.12,1.75.41l-.46,1.34c-.29-.17-.62-.26-1.03-.26-1.18,0-1.82.82-1.82,2.28v.89h2.35v1.58h-2.35Z"/>
    <path class="st3" d="M300.38,625.26v-16.01h5.47c4.97,0,8.21,3.48,8.21,8.02s-3.24,7.99-8.21,7.99h-5.47ZM302.37,623.48h3.48c3.89,0,6.14-2.78,6.14-6.22s-2.18-6.24-6.14-6.24h-3.48v12.46Z"/>
    <path class="st3" d="M324.35,625.26v-1.32c-.96,1.06-2.28,1.61-3.84,1.61-1.97,0-4.06-1.32-4.06-3.84s2.09-3.82,4.06-3.82c1.58,0,2.9.5,3.84,1.58v-2.09c0-1.56-1.25-2.45-2.93-2.45-1.39,0-2.52.5-3.55,1.61l-.84-1.25c1.25-1.3,2.74-1.92,4.63-1.92,2.45,0,4.49,1.1,4.49,3.91v7.97h-1.8ZM324.35,620.63c-.7-.96-1.92-1.44-3.19-1.44-1.68,0-2.86,1.06-2.86,2.54s1.18,2.52,2.86,2.52c1.27,0,2.5-.48,3.19-1.44v-2.18Z"/>
    <path class="st3" d="M330.11,622.83v-7.58h-1.92v-1.58h1.92v-3.17h1.8v3.17h2.35v1.58h-2.35v7.2c0,.86.38,1.49,1.18,1.49.5,0,.98-.22,1.22-.48l.53,1.34c-.46.43-1.1.74-2.16.74-1.7,0-2.57-.98-2.57-2.71Z"/>
    <path class="st3" d="M344.06,625.26v-1.32c-.96,1.06-2.28,1.61-3.84,1.61-1.97,0-4.06-1.32-4.06-3.84s2.09-3.82,4.06-3.82c1.58,0,2.9.5,3.84,1.58v-2.09c0-1.56-1.25-2.45-2.93-2.45-1.39,0-2.52.5-3.55,1.61l-.84-1.25c1.25-1.3,2.74-1.92,4.63-1.92,2.45,0,4.49,1.1,4.49,3.91v7.97h-1.8ZM344.06,620.63c-.7-.96-1.92-1.44-3.19-1.44-1.68,0-2.86,1.06-2.86,2.54s1.18,2.52,2.86,2.52c1.27,0,2.5-.48,3.19-1.44v-2.18Z"/>
    <path class="st3" d="M355.94,621.49c1.06,1.18,2.78,2.28,5.04,2.28,2.86,0,3.77-1.54,3.77-2.76,0-1.92-1.94-2.45-4.06-3.02-2.57-.67-5.42-1.39-5.42-4.54,0-2.64,2.35-4.44,5.5-4.44,2.45,0,4.34.82,5.69,2.23l-1.2,1.46c-1.2-1.32-2.88-1.92-4.63-1.92-1.92,0-3.29,1.03-3.29,2.54,0,1.61,1.85,2.09,3.89,2.64,2.62.7,5.59,1.51,5.59,4.87,0,2.33-1.58,4.7-5.9,4.7-2.78,0-4.82-1.06-6.14-2.54l1.18-1.51Z"/>
    <path class="st3" d="M369.67,622.83v-7.58h-1.92v-1.58h1.92v-3.17h1.8v3.17h2.35v1.58h-2.35v7.2c0,.86.38,1.49,1.18,1.49.5,0,.98-.22,1.22-.48l.53,1.34c-.46.43-1.1.74-2.16.74-1.7,0-2.57-.98-2.57-2.71Z"/>
    <path class="st3" d="M381.4,613.38c3.5,0,5.57,2.74,5.57,6.22v.46h-9.38c.14,2.18,1.68,4.01,4.18,4.01,1.32,0,2.67-.53,3.58-1.46l.86,1.18c-1.15,1.15-2.71,1.78-4.61,1.78-3.43,0-5.9-2.47-5.9-6.1,0-3.36,2.4-6.07,5.71-6.07ZM377.59,618.73h7.61c-.02-1.73-1.18-3.86-3.82-3.86-2.47,0-3.7,2.09-3.79,3.86Z"/>
    <path class="st3" d="M399.91,625.26l-3.02-9.31-3.02,9.31h-1.8l-3.7-11.59h1.87l2.83,9.24,3.05-9.24h1.54l3.05,9.24,2.83-9.24h1.87l-3.7,11.59h-1.8Z"/>
    <path class="st3" d="M414.74,625.26v-1.32c-.96,1.06-2.28,1.61-3.84,1.61-1.97,0-4.06-1.32-4.06-3.84s2.09-3.82,4.06-3.82c1.58,0,2.9.5,3.84,1.58v-2.09c0-1.56-1.25-2.45-2.93-2.45-1.39,0-2.52.5-3.55,1.61l-.84-1.25c1.25-1.3,2.74-1.92,4.63-1.92,2.45,0,4.49,1.1,4.49,3.91v7.97h-1.8ZM414.74,620.63c-.7-.96-1.92-1.44-3.19-1.44-1.68,0-2.86,1.06-2.86,2.54s1.18,2.52,2.86,2.52c1.27,0,2.5-.48,3.19-1.44v-2.18Z"/>
    <path class="st3" d="M420.14,625.26v-11.59h1.8v1.87c.94-1.22,2.28-2.11,3.86-2.11v1.85c-.22-.05-.43-.07-.72-.07-1.1,0-2.62.91-3.14,1.85v8.21h-1.8Z"/>
    <path class="st3" d="M436.46,625.26v-1.73c-.86,1.18-2.28,2.02-3.91,2.02-3.02,0-5.16-2.3-5.16-6.07s2.11-6.1,5.16-6.1c1.56,0,2.98.77,3.91,2.04v-6.17h1.8v16.01h-1.8ZM436.46,616.86c-.65-1.01-2.04-1.87-3.48-1.87-2.33,0-3.72,1.92-3.72,4.49s1.39,4.46,3.72,4.46c1.44,0,2.83-.82,3.48-1.82v-5.26Z"/>
    <path class="st3" d="M441.79,622.43c.77.89,2.23,1.66,3.82,1.66,1.78,0,2.74-.79,2.74-1.92,0-1.27-1.42-1.68-2.98-2.06-1.97-.46-4.2-.98-4.2-3.38,0-1.8,1.56-3.34,4.32-3.34,1.97,0,3.36.74,4.3,1.68l-.84,1.25c-.7-.84-1.97-1.46-3.46-1.46-1.58,0-2.57.72-2.57,1.75,0,1.13,1.32,1.49,2.83,1.85,2.02.46,4.34,1.03,4.34,3.6,0,1.94-1.56,3.5-4.56,3.5-1.9,0-3.5-.58-4.68-1.82l.94-1.3Z"/>
    <path class="st3" d="M469.24,625.26l-3.02-9.31-3.02,9.31h-1.8l-3.7-11.59h1.87l2.83,9.24,3.05-9.24h1.54l3.05,9.24,2.83-9.24h1.87l-3.7,11.59h-1.8Z"/>
    <path class="st3" d="M484.67,625.26v-7.63c0-2.04-1.06-2.64-2.62-2.64-1.39,0-2.74.86-3.43,1.8v8.47h-1.8v-16.01h1.8v6.1c.82-.96,2.4-1.97,4.15-1.97,2.42,0,3.7,1.18,3.7,3.7v8.18h-1.8Z"/>
    <path class="st3" d="M489.4,619.45c0-3.36,2.21-6.07,5.74-6.07s5.74,2.71,5.74,6.07-2.21,6.1-5.74,6.1-5.74-2.74-5.74-6.1ZM498.98,619.45c0-2.35-1.37-4.46-3.84-4.46s-3.86,2.11-3.86,4.46,1.39,4.49,3.86,4.49,3.84-2.11,3.84-4.49Z"/>
    <path class="st3" d="M520.03,625.26l-3.02-9.31-3.02,9.31h-1.8l-3.7-11.59h1.87l2.83,9.24,3.05-9.24h1.54l3.05,9.24,2.83-9.24h1.87l-3.7,11.59h-1.8Z"/>
    <path class="st3" d="M527.3,610.5c0-.67.55-1.2,1.2-1.2s1.22.53,1.22,1.2-.55,1.22-1.22,1.22-1.2-.55-1.2-1.22ZM527.61,625.26v-11.59h1.8v11.59h-1.8Z"/>
    <path class="st3" d="M533.01,625.26v-16.01h1.8v16.01h-1.8Z"/>
    <path class="st3" d="M538.41,625.26v-16.01h1.8v16.01h-1.8Z"/>
    <path class="st3" d="M560.04,625.26l-3.02-9.31-3.02,9.31h-1.8l-3.7-11.59h1.87l2.83,9.24,3.05-9.24h1.54l3.05,9.24,2.83-9.24h1.87l-3.7,11.59h-1.8Z"/>
    <path class="st3" d="M566.95,619.45c0-3.36,2.21-6.07,5.74-6.07s5.74,2.71,5.74,6.07-2.21,6.1-5.74,6.1-5.74-2.74-5.74-6.1ZM576.52,619.45c0-2.35-1.37-4.46-3.84-4.46s-3.86,2.11-3.86,4.46,1.39,4.49,3.86,4.49,3.84-2.11,3.84-4.49Z"/>
    <path class="st3" d="M581.35,625.26v-11.59h1.8v1.87c.94-1.22,2.28-2.11,3.86-2.11v1.85c-.22-.05-.43-.07-.72-.07-1.1,0-2.62.91-3.14,1.85v8.21h-1.8Z"/>
    <path class="st3" d="M597.16,625.26l-4.18-5.21-1.92,1.9v3.31h-1.8v-16.01h1.8v10.58l6.1-6.17h2.28l-5.14,5.26,5.16,6.34h-2.3Z"/>
    <path class="st3" d="M310.34,654.06l-3.02-9.31-3.02,9.31h-1.8l-3.7-11.59h1.87l2.83,9.24,3.05-9.24h1.54l3.05,9.24,2.83-9.24h1.87l-3.7,11.59h-1.8Z"/>
    <path class="st3" d="M317.61,639.3c0-.67.55-1.2,1.2-1.2s1.22.53,1.22,1.2-.55,1.22-1.22,1.22-1.2-.55-1.2-1.22ZM317.92,654.06v-11.59h1.8v11.59h-1.8Z"/>
    <path class="st3" d="M323.68,651.63v-7.58h-1.92v-1.58h1.92v-3.17h1.8v3.17h2.35v1.58h-2.35v7.2c0,.86.38,1.49,1.18,1.49.5,0,.98-.22,1.22-.48l.53,1.34c-.46.43-1.1.74-2.16.74-1.7,0-2.57-.98-2.57-2.71Z"/>
    <path class="st3" d="M338.23,654.06v-7.63c0-2.04-1.06-2.64-2.62-2.64-1.39,0-2.74.86-3.43,1.8v8.47h-1.8v-16.01h1.8v6.1c.82-.96,2.4-1.97,4.15-1.97,2.42,0,3.7,1.18,3.7,3.7v8.18h-1.8Z"/>
    <path class="st3" d="M349.24,646.07c0-4.92,3.62-8.28,8.16-8.28,2.9,0,4.87,1.37,6.14,3.17l-1.68.94c-.91-1.34-2.57-2.33-4.46-2.33-3.43,0-6.1,2.69-6.1,6.5s2.66,6.5,6.1,6.5c1.9,0,3.55-.96,4.46-2.33l1.7.94c-1.34,1.82-3.26,3.17-6.17,3.17-4.54,0-8.16-3.36-8.16-8.28Z"/>
    <path class="st3" d="M366.33,650.29c1.06,1.18,2.78,2.28,5.04,2.28,2.86,0,3.77-1.54,3.77-2.76,0-1.92-1.94-2.45-4.06-3.02-2.57-.67-5.42-1.39-5.42-4.54,0-2.64,2.35-4.44,5.5-4.44,2.45,0,4.34.82,5.69,2.23l-1.2,1.46c-1.2-1.32-2.88-1.92-4.63-1.92-1.92,0-3.29,1.03-3.29,2.54,0,1.61,1.85,2.09,3.89,2.64,2.62.7,5.59,1.51,5.59,4.87,0,2.33-1.58,4.7-5.9,4.7-2.78,0-4.82-1.06-6.14-2.54l1.18-1.51Z"/>
    <path class="st3" d="M387.48,637.79c4.73,0,7.94,3.55,7.94,8.28s-3.22,8.28-7.94,8.28-7.95-3.55-7.95-8.28,3.19-8.28,7.95-8.28ZM387.48,639.56c-3.6,0-5.88,2.76-5.88,6.5s2.28,6.5,5.88,6.5,5.88-2.78,5.88-6.5-2.3-6.5-5.88-6.5Z"/>
    <path class="st3" d="M398.4,651.23c.77.89,2.23,1.66,3.82,1.66,1.78,0,2.74-.79,2.74-1.92,0-1.27-1.42-1.68-2.98-2.06-1.97-.46-4.2-.98-4.2-3.38,0-1.8,1.56-3.34,4.32-3.34,1.97,0,3.36.74,4.3,1.68l-.84,1.25c-.7-.84-1.97-1.46-3.46-1.46-1.58,0-2.57.72-2.57,1.75,0,1.13,1.32,1.49,2.83,1.85,2.02.46,4.34,1.03,4.34,3.6,0,1.94-1.56,3.5-4.56,3.5-1.9,0-3.5-.58-4.68-1.82l.94-1.3Z"/>
    <path class="st3" d="M415.15,648.25c0-3.36,2.21-6.07,5.74-6.07s5.74,2.71,5.74,6.07-2.21,6.1-5.74,6.1-5.74-2.74-5.74-6.1ZM424.72,648.25c0-2.35-1.37-4.46-3.84-4.46s-3.86,2.11-3.86,4.46,1.39,4.49,3.86,4.49,3.84-2.11,3.84-4.49Z"/>
    <path class="st3" d="M437.37,654.06v-7.58c0-2.04-1.03-2.69-2.59-2.69-1.42,0-2.76.86-3.43,1.8v8.47h-1.8v-11.59h1.8v1.68c.82-.96,2.4-1.97,4.13-1.97,2.42,0,3.7,1.22,3.7,3.74v8.14h-1.8Z"/>
    <path class="st3" d="M449.32,651.63v-7.58h-1.92v-1.58h1.92v-3.17h1.8v3.17h2.35v1.58h-2.35v7.2c0,.86.38,1.49,1.18,1.49.5,0,.98-.22,1.22-.48l.53,1.34c-.46.43-1.1.74-2.16.74-1.7,0-2.57-.98-2.57-2.71Z"/>
    <path class="st3" d="M463.87,654.06v-7.63c0-2.04-1.06-2.64-2.62-2.64-1.39,0-2.74.86-3.43,1.8v8.47h-1.8v-16.01h1.8v6.1c.82-.96,2.4-1.97,4.15-1.97,2.42,0,3.7,1.18,3.7,3.7v8.18h-1.8Z"/>
    <path class="st3" d="M474.31,642.18c3.5,0,5.57,2.74,5.57,6.22v.46h-9.38c.14,2.18,1.68,4.01,4.18,4.01,1.32,0,2.67-.53,3.58-1.46l.86,1.18c-1.15,1.15-2.71,1.78-4.61,1.78-3.43,0-5.9-2.47-5.9-6.1,0-3.36,2.4-6.07,5.71-6.07ZM470.49,647.53h7.61c-.02-1.73-1.18-3.86-3.82-3.86-2.47,0-3.7,2.09-3.79,3.86Z"/>
    <path class="st3" d="M482.47,639.3c0-.67.55-1.2,1.2-1.2s1.22.53,1.22,1.2-.55,1.22-1.22,1.22-1.2-.55-1.2-1.22ZM482.78,654.06v-11.59h1.8v11.59h-1.8Z"/>
    <path class="st3" d="M488.18,654.06v-11.59h1.8v1.87c.94-1.22,2.28-2.11,3.86-2.11v1.85c-.22-.05-.43-.07-.72-.07-1.1,0-2.62.91-3.14,1.85v8.21h-1.8Z"/>
    <path class="st3" d="M510.69,654.06v-1.73c-.86,1.18-2.28,2.02-3.91,2.02-3.02,0-5.16-2.3-5.16-6.07s2.11-6.1,5.16-6.1c1.56,0,2.98.77,3.91,2.04v-6.17h1.8v16.01h-1.8ZM510.69,645.66c-.65-1.01-2.04-1.87-3.48-1.87-2.33,0-3.72,1.92-3.72,4.49s1.39,4.46,3.72,4.46c1.44,0,2.83-.82,3.48-1.82v-5.26Z"/>
    <path class="st3" d="M523.34,654.06v-1.32c-.96,1.06-2.28,1.61-3.84,1.61-1.97,0-4.06-1.32-4.06-3.84s2.09-3.82,4.06-3.82c1.58,0,2.9.5,3.84,1.58v-2.09c0-1.56-1.25-2.45-2.93-2.45-1.39,0-2.52.5-3.55,1.61l-.84-1.25c1.25-1.3,2.74-1.92,4.63-1.92,2.45,0,4.49,1.1,4.49,3.91v7.97h-1.8ZM523.34,649.43c-.7-.96-1.92-1.44-3.19-1.44-1.68,0-2.86,1.06-2.86,2.54s1.18,2.52,2.86,2.52c1.27,0,2.5-.48,3.19-1.44v-2.18Z"/>
    <path class="st3" d="M529.1,651.63v-7.58h-1.92v-1.58h1.92v-3.17h1.8v3.17h2.35v1.58h-2.35v7.2c0,.86.38,1.49,1.18,1.49.5,0,.98-.22,1.22-.48l.53,1.34c-.46.43-1.1.74-2.16.74-1.7,0-2.57-.98-2.57-2.71Z"/>
    <path class="st3" d="M543.04,654.06v-1.32c-.96,1.06-2.28,1.61-3.84,1.61-1.97,0-4.06-1.32-4.06-3.84s2.09-3.82,4.06-3.82c1.58,0,2.9.5,3.84,1.58v-2.09c0-1.56-1.25-2.45-2.93-2.45-1.39,0-2.52.5-3.55,1.61l-.84-1.25c1.25-1.3,2.74-1.92,4.63-1.92,2.45,0,4.49,1.1,4.49,3.91v7.97h-1.8ZM543.04,649.43c-.7-.96-1.92-1.44-3.19-1.44-1.68,0-2.86,1.06-2.86,2.54s1.18,2.52,2.86,2.52c1.27,0,2.5-.48,3.19-1.44v-2.18Z"/>
    <path class="st3" d="M562.46,654.06v-7.58c0-2.04-1.03-2.69-2.59-2.69-1.42,0-2.76.86-3.43,1.8v8.47h-1.8v-11.59h1.8v1.68c.82-.96,2.4-1.97,4.13-1.97,2.42,0,3.7,1.22,3.7,3.74v8.14h-1.8Z"/>
    <path class="st3" d="M572.9,642.18c3.5,0,5.57,2.74,5.57,6.22v.46h-9.38c.14,2.18,1.68,4.01,4.18,4.01,1.32,0,2.67-.53,3.58-1.46l.86,1.18c-1.15,1.15-2.71,1.78-4.61,1.78-3.43,0-5.9-2.47-5.9-6.1,0-3.36,2.4-6.07,5.71-6.07ZM569.08,647.53h7.61c-.02-1.73-1.18-3.86-3.82-3.86-2.47,0-3.7,2.09-3.79,3.86Z"/>
    <path class="st3" d="M586.41,642.18c3.5,0,5.57,2.74,5.57,6.22v.46h-9.38c.14,2.18,1.68,4.01,4.18,4.01,1.32,0,2.67-.53,3.58-1.46l.86,1.18c-1.15,1.15-2.71,1.78-4.61,1.78-3.43,0-5.9-2.47-5.9-6.1,0-3.36,2.4-6.07,5.71-6.07ZM582.6,647.53h7.61c-.02-1.73-1.18-3.86-3.82-3.86-2.47,0-3.7,2.09-3.79,3.86Z"/>
    <path class="st3" d="M603.28,654.06v-1.73c-.86,1.18-2.28,2.02-3.91,2.02-3.02,0-5.16-2.3-5.16-6.07s2.11-6.1,5.16-6.1c1.56,0,2.98.77,3.91,2.04v-6.17h1.8v16.01h-1.8ZM603.28,645.66c-.65-1.01-2.04-1.87-3.48-1.87-2.33,0-3.72,1.92-3.72,4.49s1.39,4.46,3.72,4.46c1.44,0,2.83-.82,3.48-1.82v-5.26Z"/>
    <path class="st3" d="M608.61,651.23c.77.89,2.23,1.66,3.82,1.66,1.78,0,2.74-.79,2.74-1.92,0-1.27-1.42-1.68-2.98-2.06-1.97-.46-4.2-.98-4.2-3.38,0-1.8,1.56-3.34,4.32-3.34,1.97,0,3.36.74,4.3,1.68l-.84,1.25c-.7-.84-1.97-1.46-3.46-1.46-1.58,0-2.57.72-2.57,1.75,0,1.13,1.32,1.49,2.83,1.85,2.02.46,4.34,1.03,4.34,3.6,0,1.94-1.56,3.5-4.56,3.5-1.9,0-3.5-.58-4.68-1.82l.94-1.3Z"/>
  </g>
</svg>