<?xml version="1.0" encoding="UTF-8"?>
<svg id="Layer_1" xmlns="http://www.w3.org/2000/svg" xmlns:xlink="http://www.w3.org/1999/xlink" version="1.1" viewBox="0 0 1200 800">
  <!-- Generator: Adobe Illustrator 30.1.0, SVG Export Plug-In . SVG Version: 2.1.1 Build 136)  -->
  <defs>
    <style>
      .st0, .st1, .st2 {
        fill: #e9e9e9;
      }

      .st0, .st2 {
        fill-rule: evenodd;
      }

      .st3 {
        fill: #4c2165;
      }

      .st4 {
        stroke: url(#linear-gradient3);
      }

      .st4, .st5, .st6, .st7, .st8, .st9, .st10, .st11, .st12, .st13, .st14, .st15, .st16, .st17, .st18, .st19 {
        fill: none;
      }

      .st4, .st5, .st6, .st7, .st8, .st9, .st10, .st11, .st12, .st16, .st17, .st18, .st19 {
        stroke-miterlimit: 10;
      }

      .st4, .st5, .st6, .st7, .st16 {
        stroke-width: .66px;
      }

      .st5 {
        stroke: url(#linear-gradient4);
      }

      .st6 {
        stroke: url(#linear-gradient2);
      }

      .st7 {
        stroke: url(#linear-gradient1);
      }

      .st8 {
        stroke: url(#linear-gradient8);
      }

      .st8, .st9, .st10, .st11, .st12, .st17, .st18, .st19 {
        stroke-width: .5px;
      }

      .st9 {
        stroke: url(#linear-gradient7);
      }

      .st10 {
        stroke: url(#linear-gradient5);
      }

      .st11 {
        stroke: url(#linear-gradient6);
      }

      .st12 {
        stroke: url(#linear-gradient9);
      }

      .st13, .st14, .st15, .st2 {
        stroke-linecap: round;
        stroke-linejoin: round;
      }

      .st13, .st15, .st2 {
        stroke: #e9e9e9;
      }

      .st13, .st2 {
        stroke-width: 1.36px;
      }

      .st14 {
        stroke: #4c2165;
      }

      .st15 {
        stroke-width: .62px;
      }

      .st16 {
        stroke: url(#linear-gradient);
      }

      .st17 {
        stroke: url(#linear-gradient10);
      }

      .st18 {
        stroke: url(#linear-gradient12);
      }

      .st19 {
        stroke: url(#linear-gradient11);
      }
    </style>
    <linearGradient id="linear-gradient" x1="-207.03" y1="464.27" x2="-207.03" y2="-734.93" gradientTransform="translate(465.07 334.93) rotate(90)" gradientUnits="userSpaceOnUse">
      <stop offset=".07" stop-color="#706f70" stop-opacity="0"/>
      <stop offset=".52" stop-color="#706f70"/>
      <stop offset=".96" stop-color="#706f70" stop-opacity="0"/>
    </linearGradient>
    <linearGradient id="linear-gradient1" x1="-72.61" y1="464.27" x2="-72.61" y2="-734.93" xlink:href="#linear-gradient"/>
    <linearGradient id="linear-gradient2" x1="61.81" y1="464.27" x2="61.81" y2="-734.93" xlink:href="#linear-gradient"/>
    <linearGradient id="linear-gradient3" x1="196.23" y1="464.27" x2="196.23" y2="-734.93" xlink:href="#linear-gradient"/>
    <linearGradient id="linear-gradient4" x1="330.65" y1="464.27" x2="330.65" y2="-734.93" xlink:href="#linear-gradient"/>
    <linearGradient id="linear-gradient5" x1="123.47" y1="800" x2="123.47" y2="0" gradientUnits="userSpaceOnUse">
      <stop offset=".07" stop-color="#706f70" stop-opacity="0"/>
      <stop offset=".52" stop-color="#706f70"/>
      <stop offset=".94" stop-color="#706f70" stop-opacity="0"/>
    </linearGradient>
    <linearGradient id="linear-gradient6" x1="258.04" x2="258.04" xlink:href="#linear-gradient5"/>
    <linearGradient id="linear-gradient7" x1="392.6" x2="392.6" xlink:href="#linear-gradient5"/>
    <linearGradient id="linear-gradient8" x1="527.17" x2="527.17" xlink:href="#linear-gradient5"/>
    <linearGradient id="linear-gradient9" x1="661.73" x2="661.73" xlink:href="#linear-gradient5"/>
    <linearGradient id="linear-gradient10" x1="796.3" x2="796.3" xlink:href="#linear-gradient5"/>
    <linearGradient id="linear-gradient11" x1="930.87" x2="930.87" xlink:href="#linear-gradient5"/>
    <linearGradient id="linear-gradient12" x1="1065.43" x2="1065.43" xlink:href="#linear-gradient5"/>
  </defs>
  <g>
    <line class="st16" x1="1200" y1="127.9" x2=".8" y2="127.9"/>
    <line class="st7" x1="1200" y1="262.32" x2=".8" y2="262.32"/>
    <line class="st6" x1="1200" y1="396.74" x2=".8" y2="396.74"/>
    <line class="st4" x1="1200" y1="531.16" x2=".8" y2="531.16"/>
    <line class="st5" x1="1200" y1="665.58" x2=".8" y2="665.58"/>
  </g>
  <g>
    <line class="st10" x1="123.47" x2="123.47" y2="800"/>
    <line class="st11" x1="258.04" x2="258.04" y2="800"/>
    <line class="st9" x1="392.6" x2="392.6" y2="800"/>
    <line class="st8" x1="527.17" x2="527.17" y2="800"/>
    <line class="st12" x1="661.73" x2="661.73" y2="800"/>
    <line class="st17" x1="796.3" x2="796.3" y2="800"/>
    <line class="st19" x1="930.87" x2="930.87" y2="800"/>
    <line class="st18" x1="1065.43" x2="1065.43" y2="800"/>
  </g>
  <circle class="st3" cx="860.03" cy="304.63" r="109.83"/>
  <g>
    <path class="st3" d="M299.52,568.17v-16.01h5.95c4.99,0,8.38,3.31,8.38,8.02s-3.38,7.99-8.38,7.99h-5.95ZM302.33,565.7h3.14c3.48,0,5.5-2.5,5.5-5.52s-1.92-5.54-5.5-5.54h-3.14v11.06Z"/>
    <path class="st3" d="M323.57,568.17v-1.25c-.86.98-2.21,1.54-3.74,1.54-1.9,0-4.03-1.27-4.03-3.84s2.14-3.77,4.03-3.77c1.56,0,2.9.5,3.74,1.49v-1.73c0-1.34-1.1-2.16-2.71-2.16-1.3,0-2.42.48-3.43,1.46l-1.03-1.75c1.34-1.27,3.02-1.87,4.87-1.87,2.57,0,4.83,1.08,4.83,4.2v7.68h-2.52ZM323.57,563.78c-.58-.79-1.66-1.2-2.76-1.2-1.42,0-2.47.82-2.47,2.09s1.06,2.06,2.47,2.06c1.1,0,2.18-.41,2.76-1.2v-1.75Z"/>
    <path class="st3" d="M329.85,565.49v-6.7h-1.92v-2.21h1.92v-3.17h2.52v3.17h2.35v2.21h-2.35v6.07c0,.79.38,1.37,1.1,1.37.48,0,.94-.19,1.13-.41l.6,1.9c-.46.43-1.2.74-2.38.74-1.94,0-2.98-1.06-2.98-2.98Z"/>
    <path class="st3" d="M344.09,568.17v-1.25c-.86.98-2.21,1.54-3.74,1.54-1.9,0-4.03-1.27-4.03-3.84s2.14-3.77,4.03-3.77c1.56,0,2.9.5,3.74,1.49v-1.73c0-1.34-1.1-2.16-2.71-2.16-1.3,0-2.42.48-3.43,1.46l-1.03-1.75c1.34-1.27,3.02-1.87,4.87-1.87,2.57,0,4.83,1.08,4.83,4.2v7.68h-2.52ZM344.09,563.78c-.58-.79-1.66-1.2-2.76-1.2-1.42,0-2.47.82-2.47,2.09s1.06,2.06,2.47,2.06c1.1,0,2.18-.41,2.76-1.2v-1.75Z"/>
    <path class="st3" d="M356.18,564.84c.82.84,2.42,1.63,3.94,1.63s2.28-.55,2.28-1.42c0-1.01-1.22-1.37-2.64-1.68-1.99-.43-4.37-.96-4.37-3.55,0-1.9,1.63-3.53,4.56-3.53,1.97,0,3.46.7,4.51,1.63l-1.06,1.78c-.7-.79-1.99-1.39-3.43-1.39-1.32,0-2.16.48-2.16,1.3,0,.89,1.15,1.2,2.52,1.51,2.02.43,4.49,1.01,4.49,3.74,0,2.04-1.7,3.6-4.82,3.6-1.97,0-3.77-.62-4.97-1.8l1.15-1.82Z"/>
    <path class="st3" d="M367.87,565.49v-6.7h-1.92v-2.21h1.92v-3.17h2.52v3.17h2.35v2.21h-2.35v6.07c0,.79.38,1.37,1.1,1.37.48,0,.94-.19,1.13-.41l.6,1.9c-.46.43-1.2.74-2.38.74-1.94,0-2.98-1.06-2.98-2.98Z"/>
    <path class="st3" d="M380.18,556.29c3.48,0,5.71,2.66,5.71,6.31v.6h-8.95c.19,1.75,1.51,3.19,3.7,3.19,1.13,0,2.47-.46,3.29-1.27l1.15,1.66c-1.15,1.1-2.86,1.68-4.71,1.68-3.48,0-6.07-2.42-6.07-6.1,0-3.36,2.45-6.07,5.88-6.07ZM376.92,561.43h6.53c-.05-1.37-.98-3.07-3.26-3.07-2.16,0-3.14,1.66-3.26,3.07Z"/>
    <path class="st3" d="M398.5,568.17l-2.69-8.5-2.69,8.5h-2.64l-3.6-11.59h2.62l2.45,8.42,2.76-8.42h2.21l2.76,8.42,2.45-8.42h2.62l-3.6,11.59h-2.64Z"/>
    <path class="st3" d="M413.57,568.17v-1.25c-.86.98-2.21,1.54-3.74,1.54-1.9,0-4.03-1.27-4.03-3.84s2.14-3.77,4.03-3.77c1.56,0,2.9.5,3.74,1.49v-1.73c0-1.34-1.1-2.16-2.71-2.16-1.3,0-2.42.48-3.43,1.46l-1.03-1.75c1.34-1.27,3.02-1.87,4.87-1.87,2.57,0,4.83,1.08,4.83,4.2v7.68h-2.52ZM413.57,563.78c-.58-.79-1.66-1.2-2.76-1.2-1.42,0-2.47.82-2.47,2.09s1.06,2.06,2.47,2.06c1.1,0,2.18-.41,2.76-1.2v-1.75Z"/>
    <path class="st3" d="M419.35,568.17v-11.59h2.52v1.7c.86-1.1,2.26-1.97,3.77-1.97v2.5c-.22-.05-.48-.07-.79-.07-1.06,0-2.47.72-2.98,1.54v7.9h-2.52Z"/>
    <path class="st3" d="M435.84,568.17v-1.58c-.89,1.15-2.23,1.87-3.72,1.87-2.98,0-5.16-2.26-5.16-6.07s2.16-6.1,5.16-6.1c1.44,0,2.78.67,3.72,1.9v-6.03h2.52v16.01h-2.52ZM435.84,560.09c-.58-.86-1.8-1.56-3-1.56-1.99,0-3.26,1.61-3.26,3.86s1.27,3.84,3.26,3.84c1.2,0,2.42-.67,3-1.54v-4.61Z"/>
    <path class="st3" d="M441.77,564.84c.82.84,2.42,1.63,3.94,1.63s2.28-.55,2.28-1.42c0-1.01-1.22-1.37-2.64-1.68-1.99-.43-4.37-.96-4.37-3.55,0-1.9,1.63-3.53,4.56-3.53,1.97,0,3.46.7,4.51,1.63l-1.06,1.78c-.7-.79-1.99-1.39-3.43-1.39-1.32,0-2.16.48-2.16,1.3,0,.89,1.15,1.2,2.52,1.51,2.02.43,4.49,1.01,4.49,3.74,0,2.04-1.7,3.6-4.82,3.6-1.97,0-3.77-.62-4.97-1.8l1.15-1.82Z"/>
    <path class="st3" d="M460.8,568.17v-7.3c0-1.8-.94-2.35-2.35-2.35-1.27,0-2.38.77-2.98,1.56v8.09h-2.52v-16.01h2.52v6c.77-.91,2.28-1.87,4.1-1.87,2.5,0,3.74,1.3,3.74,3.67v8.21h-2.52Z"/>
    <path class="st3" d="M466.27,553.1c0-.86.72-1.56,1.56-1.56s1.56.7,1.56,1.56-.7,1.56-1.56,1.56-1.56-.7-1.56-1.56ZM466.58,568.17v-11.59h2.52v11.59h-2.52Z"/>
    <path class="st3" d="M474.89,572.59h-2.52v-16.01h2.52v1.58c.86-1.15,2.21-1.87,3.72-1.87,3,0,5.14,2.26,5.14,6.07s-2.14,6.1-5.14,6.1c-1.46,0-2.78-.65-3.72-1.9v6.02ZM477.86,558.53c-1.18,0-2.42.7-2.98,1.56v4.58c.55.84,1.8,1.56,2.98,1.56,1.99,0,3.26-1.61,3.26-3.86s-1.27-3.84-3.26-3.84Z"/>
    <path class="st3" d="M494.97,572.59h-2.52v-16.01h2.52v1.58c.86-1.15,2.21-1.87,3.72-1.87,3,0,5.14,2.26,5.14,6.07s-2.14,6.1-5.14,6.1c-1.46,0-2.78-.65-3.72-1.9v6.02ZM497.95,558.53c-1.18,0-2.42.7-2.98,1.56v4.58c.55.84,1.8,1.56,2.98,1.56,1.99,0,3.26-1.61,3.26-3.86s-1.27-3.84-3.26-3.84Z"/>
    <path class="st3" d="M506.37,568.17v-11.59h2.52v1.7c.86-1.1,2.26-1.97,3.77-1.97v2.5c-.22-.05-.48-.07-.79-.07-1.06,0-2.47.72-2.98,1.54v7.9h-2.52Z"/>
    <path class="st3" d="M513.98,562.37c0-3.31,2.28-6.07,5.95-6.07s5.98,2.76,5.98,6.07-2.26,6.1-5.98,6.1-5.95-2.76-5.95-6.1ZM523.3,562.37c0-2.04-1.2-3.84-3.36-3.84s-3.34,1.8-3.34,3.84,1.2,3.86,3.34,3.86,3.36-1.8,3.36-3.86Z"/>
    <path class="st3" d="M529.49,569.33c.94,1.08,2.14,1.49,3.67,1.49,1.66,0,3.43-.77,3.43-3.14v-1.39c-.89,1.15-2.21,1.92-3.72,1.92-2.95,0-5.14-2.14-5.14-5.95s2.16-5.95,5.14-5.95c1.46,0,2.78.67,3.72,1.9v-1.61h2.52v10.99c0,4.18-3.1,5.3-5.95,5.3-1.97,0-3.43-.43-4.85-1.73l1.18-1.82ZM536.59,560.09c-.55-.86-1.8-1.56-2.98-1.56-1.99,0-3.26,1.49-3.26,3.72s1.27,3.72,3.26,3.72c1.18,0,2.42-.7,2.98-1.56v-4.32Z"/>
    <path class="st3" d="M542.37,568.17v-11.59h2.52v1.7c.86-1.1,2.26-1.97,3.77-1.97v2.5c-.22-.05-.48-.07-.79-.07-1.06,0-2.47.72-2.98,1.54v7.9h-2.52Z"/>
    <path class="st3" d="M557.78,568.17v-1.25c-.86.98-2.21,1.54-3.74,1.54-1.9,0-4.03-1.27-4.03-3.84s2.14-3.77,4.03-3.77c1.56,0,2.9.5,3.74,1.49v-1.73c0-1.34-1.1-2.16-2.71-2.16-1.3,0-2.42.48-3.43,1.46l-1.03-1.75c1.34-1.27,3.02-1.87,4.87-1.87,2.57,0,4.83,1.08,4.83,4.2v7.68h-2.52ZM557.78,563.78c-.58-.79-1.66-1.2-2.76-1.2-1.42,0-2.47.82-2.47,2.09s1.06,2.06,2.47,2.06c1.1,0,2.18-.41,2.76-1.2v-1.75Z"/>
    <path class="st3" d="M577.78,568.17v-7.56c0-1.25-.55-2.09-1.9-2.09-1.13,0-2.18.79-2.69,1.54v8.11h-2.52v-7.56c0-1.25-.55-2.09-1.92-2.09-1.1,0-2.14.79-2.66,1.56v8.09h-2.52v-11.59h2.52v1.58c.48-.72,2.02-1.87,3.77-1.87s2.78.86,3.17,2.14c.67-1.06,2.21-2.14,3.94-2.14,2.14,0,3.34,1.15,3.34,3.5v8.38h-2.52Z"/>
    <path class="st3" d="M597.77,568.17v-7.56c0-1.25-.55-2.09-1.9-2.09-1.13,0-2.18.79-2.69,1.54v8.11h-2.52v-7.56c0-1.25-.55-2.09-1.92-2.09-1.1,0-2.14.79-2.66,1.56v8.09h-2.52v-11.59h2.52v1.58c.48-.72,2.02-1.87,3.77-1.87s2.78.86,3.17,2.14c.67-1.06,2.21-2.14,3.94-2.14,2.14,0,3.34,1.15,3.34,3.5v8.38h-2.52Z"/>
    <path class="st3" d="M608.71,556.29c3.48,0,5.71,2.66,5.71,6.31v.6h-8.95c.19,1.75,1.51,3.19,3.7,3.19,1.13,0,2.47-.46,3.29-1.27l1.15,1.66c-1.15,1.1-2.86,1.68-4.71,1.68-3.48,0-6.07-2.42-6.07-6.1,0-3.36,2.45-6.07,5.88-6.07ZM605.45,561.43h6.53c-.05-1.37-.98-3.07-3.26-3.07-2.16,0-3.14,1.66-3.26,3.07Z"/>
    <path class="st3" d="M303.65,596.97v-14.23h-5.06v-1.78h12.15v1.78h-5.09v14.23h-1.99Z"/>
    <path class="st3" d="M311.25,596.97v-11.59h1.8v1.87c.94-1.22,2.28-2.11,3.86-2.11v1.85c-.22-.05-.43-.07-.72-.07-1.1,0-2.62.91-3.14,1.85v8.21h-1.8Z"/>
    <path class="st3" d="M326.42,596.97v-1.32c-.96,1.06-2.28,1.61-3.84,1.61-1.97,0-4.06-1.32-4.06-3.84s2.09-3.82,4.06-3.82c1.58,0,2.9.5,3.84,1.58v-2.09c0-1.56-1.25-2.45-2.93-2.45-1.39,0-2.52.5-3.55,1.61l-.84-1.25c1.25-1.3,2.74-1.92,4.63-1.92,2.45,0,4.49,1.1,4.49,3.91v7.97h-1.8ZM326.42,592.34c-.7-.96-1.92-1.44-3.19-1.44-1.68,0-2.86,1.06-2.86,2.54s1.18,2.52,2.86,2.52c1.27,0,2.5-.48,3.19-1.44v-2.18Z"/>
    <path class="st3" d="M339.72,596.97l-4.18-5.21-1.92,1.9v3.31h-1.8v-16.01h1.8v10.58l6.1-6.17h2.28l-5.14,5.26,5.16,6.34h-2.3Z"/>
    <path class="st3" d="M351.41,596.97v-1.32c-.96,1.06-2.28,1.61-3.84,1.61-1.97,0-4.06-1.32-4.06-3.84s2.09-3.82,4.06-3.82c1.58,0,2.9.5,3.84,1.58v-2.09c0-1.56-1.25-2.45-2.93-2.45-1.39,0-2.52.5-3.55,1.61l-.84-1.25c1.25-1.3,2.74-1.92,4.63-1.92,2.45,0,4.49,1.1,4.49,3.91v7.97h-1.8ZM351.41,592.34c-.7-.96-1.92-1.44-3.19-1.44-1.68,0-2.86,1.06-2.86,2.54s1.18,2.52,2.86,2.52c1.27,0,2.5-.48,3.19-1.44v-2.18Z"/>
    <path class="st3" d="M370.8,596.97v-7.87c0-1.46-.65-2.4-2.14-2.4-1.2,0-2.47.86-3.07,1.78v8.5h-1.8v-7.87c0-1.46-.62-2.4-2.14-2.4-1.18,0-2.42.86-3.05,1.8v8.47h-1.8v-11.59h1.8v1.68c.48-.74,2.04-1.97,3.74-1.97s2.78.96,3.12,2.16c.65-1.06,2.21-2.16,3.89-2.16,2.11,0,3.24,1.18,3.24,3.5v8.38h-1.8Z"/>
    <path class="st3" d="M392.42,596.97l-3.02-9.31-3.02,9.31h-1.8l-3.7-11.59h1.87l2.83,9.24,3.05-9.24h1.54l3.05,9.24,2.83-9.24h1.87l-3.7,11.59h-1.8Z"/>
    <path class="st3" d="M399.69,582.21c0-.67.55-1.2,1.2-1.2s1.22.53,1.22,1.2-.55,1.22-1.22,1.22-1.2-.55-1.2-1.22ZM400.01,596.97v-11.59h1.8v11.59h-1.8Z"/>
    <path class="st3" d="M405.41,596.97v-16.01h1.8v16.01h-1.8Z"/>
    <path class="st3" d="M410.81,596.97v-16.01h1.8v16.01h-1.8Z"/>
    <path class="st3" d="M422.76,594.55v-7.58h-1.92v-1.58h1.92v-3.17h1.8v3.17h2.35v1.58h-2.35v7.2c0,.86.38,1.49,1.18,1.49.5,0,.98-.22,1.22-.48l.53,1.34c-.46.43-1.1.74-2.16.74-1.7,0-2.57-.98-2.57-2.71Z"/>
    <path class="st3" d="M429.45,596.97v-11.59h1.8v1.87c.94-1.22,2.28-2.11,3.86-2.11v1.85c-.22-.05-.43-.07-.72-.07-1.1,0-2.62.91-3.14,1.85v8.21h-1.8Z"/>
    <path class="st3" d="M444.62,596.97v-1.32c-.96,1.06-2.28,1.61-3.84,1.61-1.97,0-4.06-1.32-4.06-3.84s2.09-3.82,4.06-3.82c1.58,0,2.9.5,3.84,1.58v-2.09c0-1.56-1.25-2.45-2.93-2.45-1.39,0-2.52.5-3.55,1.61l-.84-1.25c1.25-1.3,2.74-1.92,4.63-1.92,2.45,0,4.49,1.1,4.49,3.91v7.97h-1.8ZM444.62,592.34c-.7-.96-1.92-1.44-3.19-1.44-1.68,0-2.86,1.06-2.86,2.54s1.18,2.52,2.86,2.52c1.27,0,2.5-.48,3.19-1.44v-2.18Z"/>
    <path class="st3" d="M449.71,582.21c0-.67.55-1.2,1.2-1.2s1.22.53,1.22,1.2-.55,1.22-1.22,1.22-1.2-.55-1.2-1.22ZM450.02,596.97v-11.59h1.8v11.59h-1.8Z"/>
    <path class="st3" d="M463.25,596.97v-7.58c0-2.04-1.03-2.69-2.59-2.69-1.42,0-2.76.86-3.43,1.8v8.47h-1.8v-11.59h1.8v1.68c.82-.96,2.4-1.97,4.13-1.97,2.42,0,3.7,1.22,3.7,3.74v8.14h-1.8Z"/>
    <path class="st3" d="M482.09,596.97v-1.32c-.96,1.06-2.28,1.61-3.84,1.61-1.97,0-4.06-1.32-4.06-3.84s2.09-3.82,4.06-3.82c1.58,0,2.9.5,3.84,1.58v-2.09c0-1.56-1.25-2.45-2.93-2.45-1.39,0-2.52.5-3.55,1.61l-.84-1.25c1.25-1.3,2.74-1.92,4.63-1.92,2.45,0,4.49,1.1,4.49,3.91v7.97h-1.8ZM482.09,592.34c-.7-.96-1.92-1.44-3.19-1.44-1.68,0-2.86,1.06-2.86,2.54s1.18,2.52,2.86,2.52c1.27,0,2.5-.48,3.19-1.44v-2.18Z"/>
    <path class="st3" d="M498.79,585.09c2.11,0,3.36.86,4.25,2.02l-1.2,1.1c-.77-1.06-1.75-1.51-2.95-1.51-2.47,0-4.01,1.9-4.01,4.46s1.54,4.49,4.01,4.49c1.2,0,2.18-.48,2.95-1.51l1.2,1.1c-.89,1.15-2.14,2.02-4.25,2.02-3.46,0-5.78-2.64-5.78-6.1s2.33-6.07,5.78-6.07Z"/>
    <path class="st3" d="M512.81,596.97v-1.32c-.96,1.06-2.28,1.61-3.84,1.61-1.97,0-4.06-1.32-4.06-3.84s2.09-3.82,4.06-3.82c1.58,0,2.9.5,3.84,1.58v-2.09c0-1.56-1.25-2.45-2.93-2.45-1.39,0-2.52.5-3.55,1.61l-.84-1.25c1.25-1.3,2.74-1.92,4.63-1.92,2.45,0,4.49,1.1,4.49,3.91v7.97h-1.8ZM512.81,592.34c-.7-.96-1.92-1.44-3.19-1.44-1.68,0-2.86,1.06-2.86,2.54s1.18,2.52,2.86,2.52c1.27,0,2.5-.48,3.19-1.44v-2.18Z"/>
    <path class="st3" d="M526.61,596.97v-1.73c-.86,1.18-2.28,2.02-3.91,2.02-3.02,0-5.16-2.3-5.16-6.07s2.11-6.1,5.16-6.1c1.56,0,2.98.77,3.91,2.04v-6.17h1.8v16.01h-1.8ZM526.61,588.57c-.65-1.01-2.04-1.87-3.48-1.87-2.33,0-3.72,1.92-3.72,4.49s1.39,4.46,3.72,4.46c1.44,0,2.83-.82,3.48-1.82v-5.26Z"/>
    <path class="st3" d="M532.01,596.97v-11.59h1.8v1.87c.94-1.22,2.28-2.11,3.86-2.11v1.85c-.22-.05-.43-.07-.72-.07-1.1,0-2.62.91-3.14,1.85v8.21h-1.8Z"/>
    <path class="st3" d="M544.97,585.09c3.5,0,5.57,2.74,5.57,6.22v.46h-9.38c.14,2.18,1.68,4.01,4.18,4.01,1.32,0,2.67-.53,3.58-1.46l.86,1.18c-1.15,1.15-2.71,1.78-4.61,1.78-3.43,0-5.9-2.47-5.9-6.1,0-3.36,2.4-6.07,5.71-6.07ZM541.15,590.45h7.61c-.02-1.73-1.18-3.86-3.82-3.86-2.47,0-3.7,2.09-3.79,3.86Z"/>
    <path class="st3" d="M558.96,591.17c0-3.36,2.21-6.07,5.74-6.07s5.74,2.71,5.74,6.07-2.21,6.1-5.74,6.1-5.74-2.74-5.74-6.1ZM568.54,591.17c0-2.35-1.37-4.46-3.84-4.46s-3.86,2.11-3.86,4.46,1.39,4.49,3.86,4.49,3.84-2.11,3.84-4.49Z"/>
    <path class="st3" d="M575.66,586.97v10.01h-1.8v-10.01h-1.92v-1.58h1.92v-.89c0-2.4,1.34-3.77,3.36-3.77.67,0,1.3.12,1.75.41l-.46,1.34c-.29-.17-.62-.26-1.03-.26-1.18,0-1.82.82-1.82,2.28v.89h2.35v1.58h-2.35Z"/>
    <path class="st3" d="M299.69,625.77v-16.01h5.47c4.97,0,8.21,3.48,8.21,8.02s-3.24,7.99-8.21,7.99h-5.47ZM301.68,624h3.48c3.89,0,6.14-2.78,6.14-6.22s-2.18-6.24-6.14-6.24h-3.48v12.46Z"/>
    <path class="st3" d="M323.66,625.77v-1.32c-.96,1.06-2.28,1.61-3.84,1.61-1.97,0-4.06-1.32-4.06-3.84s2.09-3.82,4.06-3.82c1.58,0,2.9.5,3.84,1.58v-2.09c0-1.56-1.25-2.45-2.93-2.45-1.39,0-2.52.5-3.55,1.61l-.84-1.25c1.25-1.3,2.74-1.92,4.63-1.92,2.45,0,4.49,1.1,4.49,3.91v7.97h-1.8ZM323.66,621.14c-.7-.96-1.92-1.44-3.19-1.44-1.68,0-2.86,1.06-2.86,2.54s1.18,2.52,2.86,2.52c1.27,0,2.5-.48,3.19-1.44v-2.18Z"/>
    <path class="st3" d="M329.42,623.35v-7.58h-1.92v-1.58h1.92v-3.17h1.8v3.17h2.35v1.58h-2.35v7.2c0,.86.38,1.49,1.18,1.49.5,0,.98-.22,1.22-.48l.53,1.34c-.46.43-1.1.74-2.16.74-1.7,0-2.57-.98-2.57-2.71Z"/>
    <path class="st3" d="M343.37,625.77v-1.32c-.96,1.06-2.28,1.61-3.84,1.61-1.97,0-4.06-1.32-4.06-3.84s2.09-3.82,4.06-3.82c1.58,0,2.9.5,3.84,1.58v-2.09c0-1.56-1.25-2.45-2.93-2.45-1.39,0-2.52.5-3.55,1.61l-.84-1.25c1.25-1.3,2.74-1.92,4.63-1.92,2.45,0,4.49,1.1,4.49,3.91v7.97h-1.8ZM343.37,621.14c-.7-.96-1.92-1.44-3.19-1.44-1.68,0-2.86,1.06-2.86,2.54s1.18,2.52,2.86,2.52c1.27,0,2.5-.48,3.19-1.44v-2.18Z"/>
    <path class="st3" d="M355.25,622.01c1.06,1.18,2.78,2.28,5.04,2.28,2.86,0,3.77-1.54,3.77-2.76,0-1.92-1.94-2.45-4.06-3.02-2.57-.67-5.42-1.39-5.42-4.54,0-2.64,2.35-4.44,5.5-4.44,2.45,0,4.34.82,5.69,2.23l-1.2,1.46c-1.2-1.32-2.88-1.92-4.63-1.92-1.92,0-3.29,1.03-3.29,2.54,0,1.61,1.85,2.09,3.89,2.64,2.62.7,5.59,1.51,5.59,4.87,0,2.33-1.58,4.7-5.9,4.7-2.78,0-4.82-1.06-6.14-2.54l1.18-1.51Z"/>
    <path class="st3" d="M368.97,623.35v-7.58h-1.92v-1.58h1.92v-3.17h1.8v3.17h2.35v1.58h-2.35v7.2c0,.86.38,1.49,1.18,1.49.5,0,.98-.22,1.22-.48l.53,1.34c-.46.43-1.1.74-2.16.74-1.7,0-2.57-.98-2.57-2.71Z"/>
    <path class="st3" d="M380.71,613.89c3.5,0,5.57,2.74,5.57,6.22v.46h-9.38c.14,2.18,1.68,4.01,4.18,4.01,1.32,0,2.67-.53,3.58-1.46l.86,1.18c-1.15,1.15-2.71,1.78-4.61,1.78-3.43,0-5.9-2.47-5.9-6.1,0-3.36,2.4-6.07,5.71-6.07ZM376.89,619.25h7.61c-.02-1.73-1.18-3.86-3.82-3.86-2.47,0-3.7,2.09-3.79,3.86Z"/>
    <path class="st3" d="M399.22,625.77l-3.02-9.31-3.02,9.31h-1.8l-3.7-11.59h1.87l2.83,9.24,3.05-9.24h1.54l3.05,9.24,2.83-9.24h1.87l-3.7,11.59h-1.8Z"/>
    <path class="st3" d="M414.05,625.77v-1.32c-.96,1.06-2.28,1.61-3.84,1.61-1.97,0-4.06-1.32-4.06-3.84s2.09-3.82,4.06-3.82c1.58,0,2.9.5,3.84,1.58v-2.09c0-1.56-1.25-2.45-2.93-2.45-1.39,0-2.52.5-3.55,1.61l-.84-1.25c1.25-1.3,2.74-1.92,4.63-1.92,2.45,0,4.49,1.1,4.49,3.91v7.97h-1.8ZM414.05,621.14c-.7-.96-1.92-1.44-3.19-1.44-1.68,0-2.86,1.06-2.86,2.54s1.18,2.52,2.86,2.52c1.27,0,2.5-.48,3.19-1.44v-2.18Z"/>
    <path class="st3" d="M419.45,625.77v-11.59h1.8v1.87c.94-1.22,2.28-2.11,3.86-2.11v1.85c-.22-.05-.43-.07-.72-.07-1.1,0-2.62.91-3.14,1.85v8.21h-1.8Z"/>
    <path class="st3" d="M435.77,625.77v-1.73c-.86,1.18-2.28,2.02-3.91,2.02-3.02,0-5.16-2.3-5.16-6.07s2.11-6.1,5.16-6.1c1.56,0,2.98.77,3.91,2.04v-6.17h1.8v16.01h-1.8ZM435.77,617.37c-.65-1.01-2.04-1.87-3.48-1.87-2.33,0-3.72,1.92-3.72,4.49s1.39,4.46,3.72,4.46c1.44,0,2.83-.82,3.48-1.82v-5.26Z"/>
    <path class="st3" d="M441.09,622.94c.77.89,2.23,1.66,3.82,1.66,1.78,0,2.74-.79,2.74-1.92,0-1.27-1.42-1.68-2.98-2.06-1.97-.46-4.2-.98-4.2-3.38,0-1.8,1.56-3.34,4.32-3.34,1.97,0,3.36.74,4.3,1.68l-.84,1.25c-.7-.84-1.97-1.46-3.46-1.46-1.58,0-2.57.72-2.57,1.75,0,1.13,1.32,1.49,2.83,1.85,2.02.46,4.34,1.03,4.34,3.6,0,1.94-1.56,3.5-4.56,3.5-1.9,0-3.5-.58-4.68-1.82l.94-1.3Z"/>
    <path class="st3" d="M468.55,625.77l-3.02-9.31-3.02,9.31h-1.8l-3.7-11.59h1.87l2.83,9.24,3.05-9.24h1.54l3.05,9.24,2.83-9.24h1.87l-3.7,11.59h-1.8Z"/>
    <path class="st3" d="M483.98,625.77v-7.63c0-2.04-1.06-2.64-2.62-2.64-1.39,0-2.74.86-3.43,1.8v8.47h-1.8v-16.01h1.8v6.1c.82-.96,2.4-1.97,4.15-1.97,2.42,0,3.7,1.18,3.7,3.7v8.18h-1.8Z"/>
    <path class="st3" d="M488.71,619.97c0-3.36,2.21-6.07,5.74-6.07s5.74,2.71,5.74,6.07-2.21,6.1-5.74,6.1-5.74-2.74-5.74-6.1ZM498.29,619.97c0-2.35-1.37-4.46-3.84-4.46s-3.86,2.11-3.86,4.46,1.39,4.49,3.86,4.49,3.84-2.11,3.84-4.49Z"/>
    <path class="st3" d="M519.34,625.77l-3.02-9.31-3.02,9.31h-1.8l-3.7-11.59h1.87l2.83,9.24,3.05-9.24h1.54l3.05,9.24,2.83-9.24h1.87l-3.7,11.59h-1.8Z"/>
    <path class="st3" d="M526.61,611.01c0-.67.55-1.2,1.2-1.2s1.22.53,1.22,1.2-.55,1.22-1.22,1.22-1.2-.55-1.2-1.22ZM526.92,625.77v-11.59h1.8v11.59h-1.8Z"/>
    <path class="st3" d="M532.32,625.77v-16.01h1.8v16.01h-1.8Z"/>
    <path class="st3" d="M537.72,625.77v-16.01h1.8v16.01h-1.8Z"/>
    <path class="st3" d="M559.34,625.77l-3.02-9.31-3.02,9.31h-1.8l-3.7-11.59h1.87l2.83,9.24,3.05-9.24h1.54l3.05,9.24,2.83-9.24h1.87l-3.7,11.59h-1.8Z"/>
    <path class="st3" d="M566.25,619.97c0-3.36,2.21-6.07,5.74-6.07s5.74,2.71,5.74,6.07-2.21,6.1-5.74,6.1-5.74-2.74-5.74-6.1ZM575.83,619.97c0-2.35-1.37-4.46-3.84-4.46s-3.86,2.11-3.86,4.46,1.39,4.49,3.86,4.49,3.84-2.11,3.84-4.49Z"/>
    <path class="st3" d="M580.65,625.77v-11.59h1.8v1.87c.94-1.22,2.28-2.11,3.86-2.11v1.85c-.22-.05-.43-.07-.72-.07-1.1,0-2.62.91-3.14,1.85v8.21h-1.8Z"/>
    <path class="st3" d="M596.47,625.77l-4.18-5.21-1.92,1.9v3.31h-1.8v-16.01h1.8v10.58l6.1-6.17h2.28l-5.14,5.26,5.16,6.34h-2.3Z"/>
    <path class="st3" d="M309.65,654.58l-3.02-9.31-3.02,9.31h-1.8l-3.7-11.59h1.87l2.83,9.24,3.05-9.24h1.54l3.05,9.24,2.83-9.24h1.87l-3.7,11.59h-1.8Z"/>
    <path class="st3" d="M316.92,639.81c0-.67.55-1.2,1.2-1.2s1.22.53,1.22,1.2-.55,1.22-1.22,1.22-1.2-.55-1.2-1.22ZM317.23,654.58v-11.59h1.8v11.59h-1.8Z"/>
    <path class="st3" d="M322.99,652.15v-7.58h-1.92v-1.58h1.92v-3.17h1.8v3.17h2.35v1.58h-2.35v7.2c0,.86.38,1.49,1.18,1.49.5,0,.98-.22,1.22-.48l.53,1.34c-.46.43-1.1.74-2.16.74-1.7,0-2.57-.98-2.57-2.71Z"/>
    <path class="st3" d="M337.54,654.58v-7.63c0-2.04-1.06-2.64-2.62-2.64-1.39,0-2.74.86-3.43,1.8v8.47h-1.8v-16.01h1.8v6.1c.82-.96,2.4-1.97,4.15-1.97,2.42,0,3.7,1.18,3.7,3.7v8.18h-1.8Z"/>
    <path class="st3" d="M348.55,646.58c0-4.92,3.62-8.28,8.16-8.28,2.9,0,4.87,1.37,6.14,3.17l-1.68.94c-.91-1.34-2.57-2.33-4.46-2.33-3.43,0-6.1,2.69-6.1,6.5s2.66,6.5,6.1,6.5c1.9,0,3.55-.96,4.46-2.33l1.7.94c-1.34,1.82-3.26,3.17-6.17,3.17-4.54,0-8.16-3.36-8.16-8.28Z"/>
    <path class="st3" d="M365.64,650.81c1.06,1.18,2.78,2.28,5.04,2.28,2.86,0,3.77-1.54,3.77-2.76,0-1.92-1.94-2.45-4.06-3.02-2.57-.67-5.42-1.39-5.42-4.54,0-2.64,2.35-4.44,5.5-4.44,2.45,0,4.34.82,5.69,2.23l-1.2,1.46c-1.2-1.32-2.88-1.92-4.63-1.92-1.92,0-3.29,1.03-3.29,2.54,0,1.61,1.85,2.09,3.89,2.64,2.62.7,5.59,1.51,5.59,4.87,0,2.33-1.58,4.7-5.9,4.7-2.78,0-4.82-1.06-6.14-2.54l1.18-1.51Z"/>
    <path class="st3" d="M386.78,638.3c4.73,0,7.94,3.55,7.94,8.28s-3.22,8.28-7.94,8.28-7.95-3.55-7.95-8.28,3.19-8.28,7.95-8.28ZM386.78,640.08c-3.6,0-5.88,2.76-5.88,6.5s2.28,6.5,5.88,6.5,5.88-2.78,5.88-6.5-2.3-6.5-5.88-6.5Z"/>
    <path class="st3" d="M397.7,651.74c.77.89,2.23,1.66,3.82,1.66,1.78,0,2.74-.79,2.74-1.92,0-1.27-1.42-1.68-2.98-2.06-1.97-.46-4.2-.98-4.2-3.38,0-1.8,1.56-3.34,4.32-3.34,1.97,0,3.36.74,4.3,1.68l-.84,1.25c-.7-.84-1.97-1.46-3.46-1.46-1.58,0-2.57.72-2.57,1.75,0,1.13,1.32,1.49,2.83,1.85,2.02.46,4.34,1.03,4.34,3.6,0,1.94-1.56,3.5-4.56,3.5-1.9,0-3.5-.58-4.68-1.82l.94-1.3Z"/>
    <path class="st3" d="M414.45,648.77c0-3.36,2.21-6.07,5.74-6.07s5.74,2.71,5.74,6.07-2.21,6.1-5.74,6.1-5.74-2.74-5.74-6.1ZM424.03,648.77c0-2.35-1.37-4.46-3.84-4.46s-3.86,2.11-3.86,4.46,1.39,4.49,3.86,4.49,3.84-2.11,3.84-4.49Z"/>
    <path class="st3" d="M436.68,654.58v-7.58c0-2.04-1.03-2.69-2.59-2.69-1.42,0-2.76.86-3.43,1.8v8.47h-1.8v-11.59h1.8v1.68c.82-.96,2.4-1.97,4.13-1.97,2.42,0,3.7,1.22,3.7,3.74v8.14h-1.8Z"/>
    <path class="st3" d="M448.63,652.15v-7.58h-1.92v-1.58h1.92v-3.17h1.8v3.17h2.35v1.58h-2.35v7.2c0,.86.38,1.49,1.18,1.49.5,0,.98-.22,1.22-.48l.53,1.34c-.46.43-1.1.74-2.16.74-1.7,0-2.57-.98-2.57-2.71Z"/>
    <path class="st3" d="M463.18,654.58v-7.63c0-2.04-1.06-2.64-2.62-2.64-1.39,0-2.74.86-3.43,1.8v8.47h-1.8v-16.01h1.8v6.1c.82-.96,2.4-1.97,4.15-1.97,2.42,0,3.7,1.18,3.7,3.7v8.18h-1.8Z"/>
    <path class="st3" d="M473.62,642.69c3.5,0,5.57,2.74,5.57,6.22v.46h-9.38c.14,2.18,1.68,4.01,4.18,4.01,1.32,0,2.67-.53,3.58-1.46l.86,1.18c-1.15,1.15-2.71,1.78-4.61,1.78-3.43,0-5.9-2.47-5.9-6.1,0-3.36,2.4-6.07,5.71-6.07ZM469.8,648.05h7.61c-.02-1.73-1.18-3.86-3.82-3.86-2.47,0-3.7,2.09-3.79,3.86Z"/>
    <path class="st3" d="M481.77,639.81c0-.67.55-1.2,1.2-1.2s1.22.53,1.22,1.2-.55,1.22-1.22,1.22-1.2-.55-1.2-1.22ZM482.09,654.58v-11.59h1.8v11.59h-1.8Z"/>
    <path class="st3" d="M487.49,654.58v-11.59h1.8v1.87c.94-1.22,2.28-2.11,3.86-2.11v1.85c-.22-.05-.43-.07-.72-.07-1.1,0-2.62.91-3.14,1.85v8.21h-1.8Z"/>
    <path class="st3" d="M510,654.58v-1.73c-.86,1.18-2.28,2.02-3.91,2.02-3.02,0-5.16-2.3-5.16-6.07s2.11-6.1,5.16-6.1c1.56,0,2.98.77,3.91,2.04v-6.17h1.8v16.01h-1.8ZM510,646.17c-.65-1.01-2.04-1.87-3.48-1.87-2.33,0-3.72,1.92-3.72,4.49s1.39,4.46,3.72,4.46c1.44,0,2.83-.82,3.48-1.82v-5.26Z"/>
    <path class="st3" d="M522.65,654.58v-1.32c-.96,1.06-2.28,1.61-3.84,1.61-1.97,0-4.06-1.32-4.06-3.84s2.09-3.82,4.06-3.82c1.58,0,2.9.5,3.84,1.58v-2.09c0-1.56-1.25-2.45-2.93-2.45-1.39,0-2.52.5-3.55,1.61l-.84-1.25c1.25-1.3,2.74-1.92,4.63-1.92,2.45,0,4.49,1.1,4.49,3.91v7.97h-1.8ZM522.65,649.94c-.7-.96-1.92-1.44-3.19-1.44-1.68,0-2.86,1.06-2.86,2.54s1.18,2.52,2.86,2.52c1.27,0,2.5-.48,3.19-1.44v-2.18Z"/>
    <path class="st3" d="M528.41,652.15v-7.58h-1.92v-1.58h1.92v-3.17h1.8v3.17h2.35v1.58h-2.35v7.2c0,.86.38,1.49,1.18,1.49.5,0,.98-.22,1.22-.48l.53,1.34c-.46.43-1.1.74-2.16.74-1.7,0-2.57-.98-2.57-2.71Z"/>
    <path class="st3" d="M542.35,654.58v-1.32c-.96,1.06-2.28,1.61-3.84,1.61-1.97,0-4.06-1.32-4.06-3.84s2.09-3.82,4.06-3.82c1.58,0,2.9.5,3.84,1.58v-2.09c0-1.56-1.25-2.45-2.93-2.45-1.39,0-2.52.5-3.55,1.61l-.84-1.25c1.25-1.3,2.74-1.92,4.63-1.92,2.45,0,4.49,1.1,4.49,3.91v7.97h-1.8ZM542.35,649.94c-.7-.96-1.92-1.44-3.19-1.44-1.68,0-2.86,1.06-2.86,2.54s1.18,2.52,2.86,2.52c1.27,0,2.5-.48,3.19-1.44v-2.18Z"/>
    <path class="st3" d="M561.77,654.58v-7.58c0-2.04-1.03-2.69-2.59-2.69-1.42,0-2.76.86-3.43,1.8v8.47h-1.8v-11.59h1.8v1.68c.82-.96,2.4-1.97,4.13-1.97,2.42,0,3.7,1.22,3.7,3.74v8.14h-1.8Z"/>
    <path class="st3" d="M572.21,642.69c3.5,0,5.57,2.74,5.57,6.22v.46h-9.38c.14,2.18,1.68,4.01,4.18,4.01,1.32,0,2.67-.53,3.58-1.46l.86,1.18c-1.15,1.15-2.71,1.78-4.61,1.78-3.43,0-5.9-2.47-5.9-6.1,0-3.36,2.4-6.07,5.71-6.07ZM568.39,648.05h7.61c-.02-1.73-1.18-3.86-3.82-3.86-2.47,0-3.7,2.09-3.79,3.86Z"/>
    <path class="st3" d="M585.72,642.69c3.5,0,5.57,2.74,5.57,6.22v.46h-9.38c.14,2.18,1.68,4.01,4.18,4.01,1.32,0,2.67-.53,3.58-1.46l.86,1.18c-1.15,1.15-2.71,1.78-4.61,1.78-3.43,0-5.9-2.47-5.9-6.1,0-3.36,2.4-6.07,5.71-6.07ZM581.9,648.05h7.61c-.02-1.73-1.18-3.86-3.82-3.86-2.47,0-3.7,2.09-3.79,3.86Z"/>
    <path class="st3" d="M602.59,654.58v-1.73c-.86,1.18-2.28,2.02-3.91,2.02-3.02,0-5.16-2.3-5.16-6.07s2.11-6.1,5.16-6.1c1.56,0,2.98.77,3.91,2.04v-6.17h1.8v16.01h-1.8ZM602.59,646.17c-.65-1.01-2.04-1.87-3.48-1.87-2.33,0-3.72,1.92-3.72,4.49s1.39,4.46,3.72,4.46c1.44,0,2.83-.82,3.48-1.82v-5.26Z"/>
    <path class="st3" d="M607.92,651.74c.77.89,2.23,1.66,3.82,1.66,1.78,0,2.74-.79,2.74-1.92,0-1.27-1.42-1.68-2.98-2.06-1.97-.46-4.2-.98-4.2-3.38,0-1.8,1.56-3.34,4.32-3.34,1.97,0,3.36.74,4.3,1.68l-.84,1.25c-.7-.84-1.97-1.46-3.46-1.46-1.58,0-2.57.72-2.57,1.75,0,1.13,1.32,1.49,2.83,1.85,2.02.46,4.34,1.03,4.34,3.6,0,1.94-1.56,3.5-4.56,3.5-1.9,0-3.5-.58-4.68-1.82l.94-1.3Z"/>
  </g>
  <g>
    <path class="st3" d="M333.12,227.93v-16.01h2.81v16.01h-2.81Z"/>
    <path class="st3" d="M353.47,227.93v-7.56c0-1.25-.55-2.09-1.9-2.09-1.13,0-2.18.79-2.69,1.54v8.11h-2.52v-7.56c0-1.25-.55-2.09-1.92-2.09-1.1,0-2.14.79-2.66,1.56v8.09h-2.52v-11.59h2.52v1.58c.48-.72,2.02-1.87,3.77-1.87s2.78.86,3.17,2.14c.67-1.06,2.21-2.14,3.94-2.14,2.14,0,3.34,1.15,3.34,3.5v8.38h-2.52Z"/>
    <path class="st3" d="M361.77,232.35h-2.52v-16.01h2.52v1.58c.86-1.15,2.21-1.87,3.72-1.87,3,0,5.14,2.26,5.14,6.07s-2.14,6.1-5.14,6.1c-1.46,0-2.78-.65-3.72-1.9v6.02ZM364.75,218.28c-1.18,0-2.42.7-2.98,1.56v4.58c.55.84,1.8,1.56,2.98,1.56,1.99,0,3.26-1.61,3.26-3.86s-1.27-3.84-3.26-3.84Z"/>
    <path class="st3" d="M373.17,227.93v-11.59h2.52v1.7c.86-1.1,2.26-1.97,3.77-1.97v2.5c-.22-.05-.48-.07-.79-.07-1.06,0-2.47.72-2.98,1.54v7.9h-2.52Z"/>
    <path class="st3" d="M380.78,222.12c0-3.31,2.28-6.07,5.95-6.07s5.98,2.76,5.98,6.07-2.26,6.1-5.98,6.1-5.95-2.76-5.95-6.1ZM390.09,222.12c0-2.04-1.2-3.84-3.36-3.84s-3.34,1.8-3.34,3.84,1.2,3.86,3.34,3.86,3.36-1.8,3.36-3.86Z"/>
    <path class="st3" d="M398.3,227.93l-4.73-11.59h2.69l3.38,8.69,3.38-8.69h2.71l-4.73,11.59h-2.71Z"/>
    <path class="st3" d="M407.01,212.86c0-.86.72-1.56,1.56-1.56s1.56.7,1.56,1.56-.7,1.56-1.56,1.56-1.56-.7-1.56-1.56ZM407.33,227.93v-11.59h2.52v11.59h-2.52Z"/>
    <path class="st3" d="M420.94,227.93v-7.25c0-1.8-.91-2.4-2.33-2.4-1.3,0-2.4.77-2.98,1.56v8.09h-2.52v-11.59h2.52v1.58c.77-.91,2.26-1.87,4.08-1.87,2.5,0,3.74,1.34,3.74,3.72v8.16h-2.52Z"/>
    <path class="st3" d="M427.75,229.08c.94,1.08,2.14,1.49,3.67,1.49,1.66,0,3.43-.77,3.43-3.14v-1.39c-.89,1.15-2.21,1.92-3.72,1.92-2.95,0-5.14-2.14-5.14-5.95s2.16-5.95,5.14-5.95c1.46,0,2.78.67,3.72,1.9v-1.61h2.52v10.99c0,4.18-3.1,5.3-5.95,5.3-1.97,0-3.43-.43-4.85-1.73l1.18-1.82ZM434.85,219.84c-.55-.86-1.8-1.56-2.98-1.56-1.99,0-3.26,1.49-3.26,3.72s1.27,3.72,3.26,3.72c1.18,0,2.42-.7,2.98-1.56v-4.32Z"/>
    <path class="st3" d="M446.88,227.93v-16.01h2.81v16.01h-2.81Z"/>
    <path class="st3" d="M460.85,227.93v-7.25c0-1.8-.91-2.4-2.33-2.4-1.3,0-2.4.77-2.98,1.56v8.09h-2.52v-11.59h2.52v1.58c.77-.91,2.26-1.87,4.08-1.87,2.5,0,3.74,1.34,3.74,3.72v8.16h-2.52Z"/>
    <path class="st3" d="M467.13,225.24v-6.7h-1.92v-2.21h1.92v-3.17h2.52v3.17h2.35v2.21h-2.35v6.07c0,.79.38,1.37,1.1,1.37.48,0,.94-.19,1.13-.41l.6,1.9c-.46.43-1.2.74-2.38.74-1.94,0-2.98-1.06-2.98-2.98Z"/>
    <path class="st3" d="M479.45,216.05c3.48,0,5.71,2.66,5.71,6.31v.6h-8.95c.19,1.75,1.51,3.19,3.7,3.19,1.13,0,2.47-.46,3.29-1.27l1.15,1.66c-1.15,1.1-2.86,1.68-4.71,1.68-3.48,0-6.07-2.42-6.07-6.1,0-3.36,2.45-6.07,5.88-6.07ZM476.18,221.19h6.53c-.05-1.37-.98-3.07-3.26-3.07-2.16,0-3.14,1.66-3.26,3.07Z"/>
    <path class="st3" d="M487.65,227.93v-11.59h2.52v1.7c.86-1.1,2.26-1.97,3.77-1.97v2.5c-.22-.05-.48-.07-.79-.07-1.06,0-2.47.72-2.98,1.54v7.9h-2.52Z"/>
    <path class="st3" d="M495.26,222.12c0-3.31,2.28-6.07,5.95-6.07s5.98,2.76,5.98,6.07-2.26,6.1-5.98,6.1-5.95-2.76-5.95-6.1ZM504.57,222.12c0-2.04-1.2-3.84-3.36-3.84s-3.34,1.8-3.34,3.84,1.2,3.86,3.34,3.86,3.36-1.8,3.36-3.86Z"/>
    <path class="st3" d="M512.26,232.35h-2.52v-16.01h2.52v1.58c.86-1.15,2.21-1.87,3.72-1.87,3,0,5.14,2.26,5.14,6.07s-2.14,6.1-5.14,6.1c-1.46,0-2.78-.65-3.72-1.9v6.02ZM515.23,218.28c-1.18,0-2.42.7-2.98,1.56v4.58c.55.84,1.8,1.56,2.98,1.56,1.99,0,3.26-1.61,3.26-3.86s-1.27-3.84-3.26-3.84Z"/>
    <path class="st3" d="M528.82,216.05c3.48,0,5.71,2.66,5.71,6.31v.6h-8.95c.19,1.75,1.51,3.19,3.7,3.19,1.13,0,2.47-.46,3.29-1.27l1.15,1.66c-1.15,1.1-2.86,1.68-4.71,1.68-3.48,0-6.07-2.42-6.07-6.1,0-3.36,2.45-6.07,5.88-6.07ZM525.55,221.19h6.53c-.05-1.37-.98-3.07-3.26-3.07-2.16,0-3.14,1.66-3.26,3.07Z"/>
    <path class="st3" d="M537.02,227.93v-11.59h2.52v1.7c.86-1.1,2.26-1.97,3.77-1.97v2.5c-.22-.05-.48-.07-.79-.07-1.06,0-2.47.72-2.98,1.54v7.9h-2.52Z"/>
    <path class="st3" d="M552.43,227.93v-1.25c-.86.98-2.21,1.54-3.74,1.54-1.9,0-4.03-1.27-4.03-3.84s2.14-3.77,4.03-3.77c1.56,0,2.9.5,3.74,1.49v-1.73c0-1.34-1.1-2.16-2.71-2.16-1.3,0-2.42.48-3.43,1.46l-1.03-1.75c1.34-1.27,3.02-1.87,4.87-1.87,2.57,0,4.83,1.08,4.83,4.2v7.68h-2.52ZM552.43,223.54c-.58-.79-1.66-1.2-2.76-1.2-1.42,0-2.47.82-2.47,2.09s1.06,2.06,2.47,2.06c1.1,0,2.18-.41,2.76-1.2v-1.75Z"/>
    <path class="st3" d="M558.21,227.93v-16.01h2.52v6.03c.91-1.22,2.26-1.9,3.72-1.9,2.98,0,5.14,2.35,5.14,6.1s-2.18,6.07-5.14,6.07c-1.51,0-2.83-.72-3.72-1.87v1.58h-2.52ZM560.73,224.45c.55.86,1.8,1.54,2.98,1.54,2.02,0,3.29-1.58,3.29-3.84s-1.27-3.86-3.29-3.86c-1.18,0-2.42.72-2.98,1.58v4.58Z"/>
    <path class="st3" d="M571.85,212.86c0-.86.72-1.56,1.56-1.56s1.56.7,1.56,1.56-.7,1.56-1.56,1.56-1.56-.7-1.56-1.56ZM572.16,227.93v-11.59h2.52v11.59h-2.52Z"/>
    <path class="st3" d="M577.94,227.93v-16.01h2.52v16.01h-2.52Z"/>
    <path class="st3" d="M583.41,212.86c0-.86.72-1.56,1.56-1.56s1.56.7,1.56,1.56-.7,1.56-1.56,1.56-1.56-.7-1.56-1.56ZM583.73,227.93v-11.59h2.52v11.59h-2.52Z"/>
    <path class="st3" d="M590.01,225.24v-6.7h-1.92v-2.21h1.92v-3.17h2.52v3.17h2.35v2.21h-2.35v6.07c0,.79.38,1.37,1.1,1.37.48,0,.94-.19,1.13-.41l.6,1.9c-.46.43-1.2.74-2.38.74-1.94,0-2.98-1.06-2.98-2.98Z"/>
    <path class="st3" d="M597.05,230.21c.26.12.67.19.96.19.79,0,1.32-.24,1.66-1.01l.58-1.32-4.75-11.74h2.69l3.38,8.69,3.38-8.69h2.71l-5.59,13.68c-.79,1.97-2.18,2.59-3.98,2.62-.36,0-1.06-.07-1.42-.17l.38-2.26Z"/>
    <path class="st3" d="M333.21,256.73v-16.01h1.8v6.17c.94-1.27,2.33-2.04,3.91-2.04,3.02,0,5.16,2.4,5.16,6.1s-2.14,6.07-5.16,6.07c-1.63,0-3.05-.84-3.91-2.02v1.73h-1.8ZM335.01,253.59c.62,1.01,2.04,1.82,3.46,1.82,2.35,0,3.74-1.9,3.74-4.46s-1.39-4.49-3.74-4.49c-1.42,0-2.83.86-3.46,1.87v5.26Z"/>
    <path class="st3" d="M346.65,259.64c.26.12.7.19.98.19.79,0,1.32-.26,1.73-1.22l.77-1.75-4.85-11.71h1.94l3.86,9.5,3.84-9.5h1.97l-5.81,13.95c-.7,1.68-1.87,2.33-3.41,2.35-.38,0-.98-.07-1.32-.17l.29-1.63Z"/>
    <path class="st3" d="M364.97,256.73v-16.01h1.8v6.17c.94-1.27,2.33-2.04,3.91-2.04,3.02,0,5.16,2.4,5.16,6.1s-2.14,6.07-5.16,6.07c-1.63,0-3.05-.84-3.91-2.02v1.73h-1.8ZM366.77,253.59c.62,1.01,2.04,1.82,3.46,1.82,2.35,0,3.74-1.9,3.74-4.46s-1.39-4.49-3.74-4.49c-1.42,0-2.83.86-3.46,1.87v5.26Z"/>
    <path class="st3" d="M386.59,256.73v-1.63c-.89,1.01-2.4,1.92-4.13,1.92-2.42,0-3.7-1.18-3.7-3.7v-8.18h1.8v7.63c0,2.04,1.03,2.64,2.59,2.64,1.42,0,2.76-.82,3.43-1.75v-8.52h1.8v11.59h-1.8Z"/>
    <path class="st3" d="M391.68,241.97c0-.67.55-1.2,1.2-1.2s1.22.53,1.22,1.2-.55,1.22-1.22,1.22-1.2-.55-1.2-1.22ZM391.99,256.73v-11.59h1.8v11.59h-1.8Z"/>
    <path class="st3" d="M397.39,256.73v-16.01h1.8v16.01h-1.8Z"/>
    <path class="st3" d="M411.19,256.73v-1.73c-.86,1.18-2.28,2.02-3.91,2.02-3.02,0-5.16-2.3-5.16-6.07s2.11-6.1,5.16-6.1c1.56,0,2.98.77,3.91,2.04v-6.17h1.8v16.01h-1.8ZM411.19,248.33c-.65-1.01-2.04-1.87-3.48-1.87-2.33,0-3.72,1.92-3.72,4.49s1.39,4.46,3.72,4.46c1.44,0,2.83-.82,3.48-1.82v-5.26Z"/>
    <path class="st3" d="M416.28,241.97c0-.67.55-1.2,1.2-1.2s1.22.53,1.22,1.2-.55,1.22-1.22,1.22-1.2-.55-1.2-1.22ZM416.59,256.73v-11.59h1.8v11.59h-1.8Z"/>
    <path class="st3" d="M429.82,256.73v-7.58c0-2.04-1.03-2.69-2.59-2.69-1.42,0-2.76.86-3.43,1.8v8.47h-1.8v-11.59h1.8v1.68c.82-.96,2.4-1.97,4.13-1.97,2.42,0,3.7,1.22,3.7,3.74v8.14h-1.8Z"/>
    <path class="st3" d="M436.1,258.36c.96,1.15,2.11,1.58,3.77,1.58,1.92,0,3.72-.94,3.72-3.48v-1.66c-.84,1.18-2.26,2.06-3.89,2.06-3.02,0-5.16-2.26-5.16-6s2.11-6.02,5.16-6.02c1.56,0,2.95.77,3.89,2.04v-1.75h1.8v11.26c0,3.84-2.69,5.04-5.52,5.04-1.97,0-3.31-.38-4.68-1.73l.91-1.34ZM443.59,248.33c-.62-1.01-2.02-1.87-3.46-1.87-2.33,0-3.72,1.85-3.72,4.42s1.39,4.42,3.72,4.42c1.44,0,2.83-.89,3.46-1.9v-5.06Z"/>
    <path class="st3" d="M455.25,256.73v-16.01h5.47c4.97,0,8.21,3.48,8.21,8.02s-3.24,7.99-8.21,7.99h-5.47ZM457.25,254.96h3.48c3.89,0,6.14-2.78,6.14-6.22s-2.18-6.24-6.14-6.24h-3.48v12.46Z"/>
    <path class="st3" d="M479.23,256.73v-1.32c-.96,1.06-2.28,1.61-3.84,1.61-1.97,0-4.06-1.32-4.06-3.84s2.09-3.82,4.06-3.82c1.58,0,2.9.5,3.84,1.58v-2.09c0-1.56-1.25-2.45-2.93-2.45-1.39,0-2.52.5-3.55,1.61l-.84-1.25c1.25-1.3,2.74-1.92,4.63-1.92,2.45,0,4.49,1.1,4.49,3.91v7.97h-1.8ZM479.23,252.1c-.7-.96-1.92-1.44-3.19-1.44-1.68,0-2.86,1.06-2.86,2.54s1.18,2.52,2.86,2.52c1.27,0,2.5-.48,3.19-1.44v-2.18Z"/>
    <path class="st3" d="M484.99,254.31v-7.58h-1.92v-1.58h1.92v-3.17h1.8v3.17h2.35v1.58h-2.35v7.2c0,.86.38,1.49,1.18,1.49.5,0,.98-.22,1.22-.48l.53,1.34c-.46.43-1.1.74-2.16.74-1.7,0-2.57-.98-2.57-2.71Z"/>
    <path class="st3" d="M498.93,256.73v-1.32c-.96,1.06-2.28,1.61-3.84,1.61-1.97,0-4.06-1.32-4.06-3.84s2.09-3.82,4.06-3.82c1.58,0,2.9.5,3.84,1.58v-2.09c0-1.56-1.25-2.45-2.93-2.45-1.39,0-2.52.5-3.55,1.61l-.84-1.25c1.25-1.3,2.74-1.92,4.63-1.92,2.45,0,4.49,1.1,4.49,3.91v7.97h-1.8ZM498.93,252.1c-.7-.96-1.92-1.44-3.19-1.44-1.68,0-2.86,1.06-2.86,2.54s1.18,2.52,2.86,2.52c1.27,0,2.5-.48,3.19-1.44v-2.18Z"/>
    <path class="st3" d="M510.81,252.96c1.06,1.18,2.78,2.28,5.04,2.28,2.86,0,3.77-1.54,3.77-2.76,0-1.92-1.94-2.45-4.06-3.02-2.57-.67-5.42-1.39-5.42-4.54,0-2.64,2.35-4.44,5.5-4.44,2.45,0,4.34.82,5.69,2.23l-1.2,1.46c-1.2-1.32-2.88-1.92-4.63-1.92-1.92,0-3.29,1.03-3.29,2.54,0,1.61,1.85,2.09,3.89,2.64,2.62.7,5.59,1.51,5.59,4.87,0,2.33-1.58,4.7-5.9,4.7-2.78,0-4.82-1.06-6.14-2.54l1.18-1.51Z"/>
    <path class="st3" d="M524.54,254.31v-7.58h-1.92v-1.58h1.92v-3.17h1.8v3.17h2.35v1.58h-2.35v7.2c0,.86.38,1.49,1.18,1.49.5,0,.98-.22,1.22-.48l.53,1.34c-.46.43-1.1.74-2.16.74-1.7,0-2.57-.98-2.57-2.71Z"/>
    <path class="st3" d="M538.49,256.73v-1.32c-.96,1.06-2.28,1.61-3.84,1.61-1.97,0-4.06-1.32-4.06-3.84s2.09-3.82,4.06-3.82c1.58,0,2.9.5,3.84,1.58v-2.09c0-1.56-1.25-2.45-2.93-2.45-1.39,0-2.52.5-3.55,1.61l-.84-1.25c1.25-1.3,2.74-1.92,4.63-1.92,2.45,0,4.49,1.1,4.49,3.91v7.97h-1.8ZM538.49,252.1c-.7-.96-1.92-1.44-3.19-1.44-1.68,0-2.86,1.06-2.86,2.54s1.18,2.52,2.86,2.52c1.27,0,2.5-.48,3.19-1.44v-2.18Z"/>
    <path class="st3" d="M551.71,256.73v-7.58c0-2.04-1.03-2.69-2.59-2.69-1.42,0-2.76.86-3.43,1.8v8.47h-1.8v-11.59h1.8v1.68c.82-.96,2.4-1.97,4.13-1.97,2.42,0,3.7,1.22,3.7,3.74v8.14h-1.8Z"/>
    <path class="st3" d="M565.51,256.73v-1.73c-.86,1.18-2.28,2.02-3.91,2.02-3.02,0-5.16-2.3-5.16-6.07s2.11-6.1,5.16-6.1c1.56,0,2.98.77,3.91,2.04v-6.17h1.8v16.01h-1.8ZM565.51,248.33c-.65-1.01-2.04-1.87-3.48-1.87-2.33,0-3.72,1.92-3.72,4.49s1.39,4.46,3.72,4.46c1.44,0,2.83-.82,3.48-1.82v-5.26Z"/>
    <path class="st3" d="M578.16,256.73v-1.32c-.96,1.06-2.28,1.61-3.84,1.61-1.97,0-4.06-1.32-4.06-3.84s2.09-3.82,4.06-3.82c1.58,0,2.9.5,3.84,1.58v-2.09c0-1.56-1.25-2.45-2.93-2.45-1.39,0-2.52.5-3.55,1.61l-.84-1.25c1.25-1.3,2.74-1.92,4.63-1.92,2.45,0,4.49,1.1,4.49,3.91v7.97h-1.8ZM578.16,252.1c-.7-.96-1.92-1.44-3.19-1.44-1.68,0-2.86,1.06-2.86,2.54s1.18,2.52,2.86,2.52c1.27,0,2.5-.48,3.19-1.44v-2.18Z"/>
    <path class="st3" d="M583.56,256.73v-11.59h1.8v1.87c.94-1.22,2.28-2.11,3.86-2.11v1.85c-.22-.05-.43-.07-.72-.07-1.1,0-2.62.91-3.14,1.85v8.21h-1.8Z"/>
    <path class="st3" d="M599.88,256.73v-1.73c-.86,1.18-2.28,2.02-3.91,2.02-3.02,0-5.16-2.3-5.16-6.07s2.11-6.1,5.16-6.1c1.56,0,2.98.77,3.91,2.04v-6.17h1.8v16.01h-1.8ZM599.88,248.33c-.65-1.01-2.04-1.87-3.48-1.87-2.33,0-3.72,1.92-3.72,4.49s1.39,4.46,3.72,4.46c1.44,0,2.83-.82,3.48-1.82v-5.26Z"/>
    <path class="st3" d="M605.21,253.9c.77.89,2.23,1.66,3.82,1.66,1.78,0,2.74-.79,2.74-1.92,0-1.27-1.42-1.68-2.98-2.06-1.97-.46-4.2-.98-4.2-3.38,0-1.8,1.56-3.34,4.32-3.34,1.97,0,3.36.74,4.3,1.68l-.84,1.25c-.7-.84-1.97-1.46-3.46-1.46-1.58,0-2.57.72-2.57,1.75,0,1.13,1.32,1.49,2.83,1.85,2.02.46,4.34,1.03,4.34,3.6,0,1.94-1.56,3.5-4.56,3.5-1.9,0-3.5-.58-4.68-1.82l.94-1.3Z"/>
    <path class="st3" d="M616.01,259.04c.77-.5,1.46-1.44,1.56-2.23-.05.02-.22.05-.34.05-.67,0-1.15-.5-1.15-1.22s.55-1.3,1.27-1.3c.79,0,1.51.67,1.51,1.82,0,1.46-.86,2.83-1.97,3.62l-.89-.74Z"/>
    <path class="st3" d="M333.29,285.53v-16.01h5.47c4.97,0,8.21,3.48,8.21,8.02s-3.24,7.99-8.21,7.99h-5.47ZM335.28,283.76h3.48c3.89,0,6.14-2.78,6.14-6.22s-2.18-6.24-6.14-6.24h-3.48v12.46Z"/>
    <path class="st3" d="M357.26,285.53v-1.32c-.96,1.06-2.28,1.61-3.84,1.61-1.97,0-4.06-1.32-4.06-3.84s2.09-3.82,4.06-3.82c1.58,0,2.9.5,3.84,1.58v-2.09c0-1.56-1.25-2.45-2.93-2.45-1.39,0-2.52.5-3.55,1.61l-.84-1.25c1.25-1.3,2.74-1.92,4.63-1.92,2.45,0,4.49,1.1,4.49,3.91v7.97h-1.8ZM357.26,280.9c-.7-.96-1.92-1.44-3.19-1.44-1.68,0-2.86,1.06-2.86,2.54s1.18,2.52,2.86,2.52c1.27,0,2.5-.48,3.19-1.44v-2.18Z"/>
    <path class="st3" d="M363.02,283.11v-7.58h-1.92v-1.58h1.92v-3.17h1.8v3.17h2.35v1.58h-2.35v7.2c0,.86.38,1.49,1.18,1.49.5,0,.98-.22,1.22-.48l.53,1.34c-.46.43-1.1.74-2.16.74-1.7,0-2.57-.98-2.57-2.71Z"/>
    <path class="st3" d="M376.97,285.53v-1.32c-.96,1.06-2.28,1.61-3.84,1.61-1.97,0-4.06-1.32-4.06-3.84s2.09-3.82,4.06-3.82c1.58,0,2.9.5,3.84,1.58v-2.09c0-1.56-1.25-2.45-2.93-2.45-1.39,0-2.52.5-3.55,1.61l-.84-1.25c1.25-1.3,2.74-1.92,4.63-1.92,2.45,0,4.49,1.1,4.49,3.91v7.97h-1.8ZM376.97,280.9c-.7-.96-1.92-1.44-3.19-1.44-1.68,0-2.86,1.06-2.86,2.54s1.18,2.52,2.86,2.52c1.27,0,2.5-.48,3.19-1.44v-2.18Z"/>
    <path class="st3" d="M388.63,285.53v-16.01h5.47c4.97,0,8.21,3.48,8.21,8.02s-3.24,7.99-8.21,7.99h-5.47ZM390.62,283.76h3.48c3.89,0,6.14-2.78,6.14-6.22s-2.18-6.24-6.14-6.24h-3.48v12.46Z"/>
    <path class="st3" d="M405.05,270.77c0-.67.55-1.2,1.2-1.2s1.22.53,1.22,1.2-.55,1.22-1.22,1.22-1.2-.55-1.2-1.22ZM405.36,285.53v-11.59h1.8v11.59h-1.8Z"/>
    <path class="st3" d="M415.87,273.65c2.11,0,3.36.86,4.25,2.02l-1.2,1.1c-.77-1.06-1.75-1.51-2.95-1.51-2.47,0-4.01,1.9-4.01,4.46s1.54,4.49,4.01,4.49c1.2,0,2.18-.48,2.95-1.51l1.2,1.1c-.89,1.15-2.14,2.02-4.25,2.02-3.46,0-5.79-2.64-5.79-6.1s2.33-6.07,5.79-6.07Z"/>
    <path class="st3" d="M423,283.11v-7.58h-1.92v-1.58h1.92v-3.17h1.8v3.17h2.35v1.58h-2.35v7.2c0,.86.38,1.49,1.18,1.49.5,0,.98-.22,1.22-.48l.53,1.34c-.46.43-1.1.74-2.16.74-1.7,0-2.57-.98-2.57-2.71Z"/>
    <path class="st3" d="M429.38,270.77c0-.67.55-1.2,1.2-1.2s1.22.53,1.22,1.2-.55,1.22-1.22,1.22-1.2-.55-1.2-1.22ZM429.69,285.53v-11.59h1.8v11.59h-1.8Z"/>
    <path class="st3" d="M434.42,279.72c0-3.36,2.21-6.07,5.74-6.07s5.74,2.71,5.74,6.07-2.21,6.1-5.74,6.1-5.74-2.74-5.74-6.1ZM444,279.72c0-2.35-1.37-4.46-3.84-4.46s-3.86,2.11-3.86,4.46,1.39,4.49,3.86,4.49,3.84-2.11,3.84-4.49Z"/>
    <path class="st3" d="M456.65,285.53v-7.58c0-2.04-1.03-2.69-2.59-2.69-1.42,0-2.76.86-3.43,1.8v8.47h-1.8v-11.59h1.8v1.68c.82-.96,2.4-1.97,4.13-1.97,2.42,0,3.7,1.22,3.7,3.74v8.14h-1.8Z"/>
    <path class="st3" d="M469.3,285.53v-1.32c-.96,1.06-2.28,1.61-3.84,1.61-1.97,0-4.06-1.32-4.06-3.84s2.09-3.82,4.06-3.82c1.58,0,2.9.5,3.84,1.58v-2.09c0-1.56-1.25-2.45-2.93-2.45-1.39,0-2.52.5-3.55,1.61l-.84-1.25c1.25-1.3,2.74-1.92,4.63-1.92,2.45,0,4.49,1.1,4.49,3.91v7.97h-1.8ZM469.3,280.9c-.7-.96-1.92-1.44-3.19-1.44-1.68,0-2.86,1.06-2.86,2.54s1.18,2.52,2.86,2.52c1.27,0,2.5-.48,3.19-1.44v-2.18Z"/>
    <path class="st3" d="M474.69,285.53v-11.59h1.8v1.87c.94-1.22,2.28-2.11,3.86-2.11v1.85c-.22-.05-.43-.07-.72-.07-1.1,0-2.62.91-3.14,1.85v8.21h-1.8Z"/>
    <path class="st3" d="M482.3,270.77c0-.67.55-1.2,1.2-1.2s1.22.53,1.22,1.2-.55,1.22-1.22,1.22-1.2-.55-1.2-1.22ZM482.61,285.53v-11.59h1.8v11.59h-1.8Z"/>
    <path class="st3" d="M493.05,273.65c3.5,0,5.57,2.74,5.57,6.22v.46h-9.38c.14,2.18,1.68,4.01,4.18,4.01,1.32,0,2.67-.53,3.58-1.46l.86,1.18c-1.15,1.15-2.71,1.78-4.61,1.78-3.43,0-5.9-2.47-5.9-6.1,0-3.36,2.4-6.07,5.71-6.07ZM489.24,279h7.61c-.02-1.73-1.18-3.86-3.82-3.86-2.47,0-3.7,2.09-3.79,3.86Z"/>
    <path class="st3" d="M501.45,282.7c.77.89,2.23,1.66,3.82,1.66,1.78,0,2.74-.79,2.74-1.92,0-1.27-1.42-1.68-2.98-2.06-1.97-.46-4.2-.98-4.2-3.38,0-1.8,1.56-3.34,4.32-3.34,1.97,0,3.36.74,4.3,1.68l-.84,1.25c-.7-.84-1.97-1.46-3.46-1.46-1.58,0-2.57.72-2.57,1.75,0,1.13,1.32,1.49,2.83,1.85,2.02.46,4.34,1.03,4.34,3.6,0,1.94-1.56,3.5-4.56,3.5-1.9,0-3.5-.58-4.68-1.82l.94-1.3Z"/>
    <path class="st3" d="M512.25,287.84c.77-.5,1.46-1.44,1.56-2.23-.05.02-.22.05-.34.05-.67,0-1.15-.5-1.15-1.22s.55-1.3,1.27-1.3c.79,0,1.51.67,1.51,1.82,0,1.46-.86,2.83-1.97,3.62l-.89-.74Z"/>
    <path class="st3" d="M524.47,285.53v-16.01h6.43c3.22,0,5.02,2.21,5.02,4.83s-1.85,4.82-5.02,4.82h-4.44v6.36h-1.99ZM530.66,271.3h-4.2v6.1h4.2c1.9,0,3.19-1.25,3.19-3.05s-1.3-3.05-3.19-3.05Z"/>
    <path class="st3" d="M538.49,285.53v-11.59h1.8v1.87c.94-1.22,2.28-2.11,3.86-2.11v1.85c-.22-.05-.43-.07-.72-.07-1.1,0-2.62.91-3.14,1.85v8.21h-1.8Z"/>
    <path class="st3" d="M545.73,279.72c0-3.36,2.21-6.07,5.74-6.07s5.74,2.71,5.74,6.07-2.21,6.1-5.74,6.1-5.74-2.74-5.74-6.1ZM555.31,279.72c0-2.35-1.37-4.46-3.84-4.46s-3.86,2.11-3.86,4.46,1.39,4.49,3.86,4.49,3.84-2.11,3.84-4.49Z"/>
    <path class="st3" d="M560.49,283.11v-7.58h-1.92v-1.58h1.92v-3.17h1.8v3.17h2.35v1.58h-2.35v7.2c0,.86.38,1.49,1.18,1.49.5,0,.98-.22,1.22-.48l.53,1.34c-.46.43-1.1.74-2.16.74-1.7,0-2.57-.98-2.57-2.71Z"/>
    <path class="st3" d="M566.52,279.72c0-3.36,2.21-6.07,5.74-6.07s5.74,2.71,5.74,6.07-2.21,6.1-5.74,6.1-5.74-2.74-5.74-6.1ZM576.09,279.72c0-2.35-1.37-4.46-3.84-4.46s-3.86,2.11-3.86,4.46,1.39,4.49,3.86,4.49,3.84-2.11,3.84-4.49Z"/>
    <path class="st3" d="M586.03,273.65c2.11,0,3.36.86,4.25,2.02l-1.2,1.1c-.77-1.06-1.75-1.51-2.95-1.51-2.47,0-4.01,1.9-4.01,4.46s1.54,4.49,4.01,4.49c1.2,0,2.18-.48,2.95-1.51l1.2,1.1c-.89,1.15-2.14,2.02-4.25,2.02-3.46,0-5.79-2.64-5.79-6.1s2.33-6.07,5.79-6.07Z"/>
    <path class="st3" d="M592.13,279.72c0-3.36,2.21-6.07,5.74-6.07s5.74,2.71,5.74,6.07-2.21,6.1-5.74,6.1-5.74-2.74-5.74-6.1ZM601.7,279.72c0-2.35-1.37-4.46-3.84-4.46s-3.86,2.11-3.86,4.46,1.39,4.49,3.86,4.49,3.84-2.11,3.84-4.49Z"/>
    <path class="st3" d="M606.53,285.53v-16.01h1.8v16.01h-1.8Z"/>
    <path class="st3" d="M611.85,282.7c.77.89,2.23,1.66,3.82,1.66,1.78,0,2.74-.79,2.74-1.92,0-1.27-1.42-1.68-2.98-2.06-1.97-.46-4.2-.98-4.2-3.38,0-1.8,1.56-3.34,4.32-3.34,1.97,0,3.36.74,4.3,1.68l-.84,1.25c-.7-.84-1.97-1.46-3.46-1.46-1.58,0-2.57.72-2.57,1.75,0,1.13,1.32,1.49,2.83,1.85,2.02.46,4.34,1.03,4.34,3.6,0,1.94-1.56,3.5-4.56,3.5-1.9,0-3.5-.58-4.68-1.82l.94-1.3Z"/>
  </g>
  <g>
    <path class="st3" d="M836.85,498.32v-16.01h10.49v1.78h-8.5v5.16h8.33v1.78h-8.33v7.3h-1.99Z"/>
    <path class="st3" d="M849.31,492.51c0-3.36,2.21-6.07,5.74-6.07s5.74,2.71,5.74,6.07-2.21,6.1-5.74,6.1-5.74-2.74-5.74-6.1ZM858.88,492.51c0-2.35-1.37-4.46-3.84-4.46s-3.86,2.11-3.86,4.46,1.39,4.49,3.86,4.49,3.84-2.11,3.84-4.49Z"/>
    <path class="st3" d="M868.82,486.44c2.11,0,3.36.86,4.25,2.02l-1.2,1.1c-.77-1.06-1.75-1.51-2.95-1.51-2.47,0-4.01,1.9-4.01,4.46s1.54,4.49,4.01,4.49c1.2,0,2.18-.48,2.95-1.51l1.2,1.1c-.89,1.15-2.14,2.02-4.25,2.02-3.46,0-5.79-2.64-5.79-6.1s2.33-6.07,5.79-6.07Z"/>
    <path class="st3" d="M883.41,498.32v-1.63c-.89,1.01-2.4,1.92-4.13,1.92-2.42,0-3.7-1.18-3.7-3.7v-8.18h1.8v7.63c0,2.04,1.03,2.64,2.59,2.64,1.42,0,2.76-.82,3.43-1.75v-8.52h1.8v11.59h-1.8Z"/>
    <path class="st3" d="M888.74,495.49c.77.89,2.23,1.66,3.82,1.66,1.78,0,2.74-.79,2.74-1.92,0-1.27-1.42-1.68-2.98-2.06-1.97-.46-4.2-.98-4.2-3.38,0-1.8,1.56-3.34,4.32-3.34,1.97,0,3.36.74,4.3,1.68l-.84,1.25c-.7-.84-1.97-1.46-3.46-1.46-1.58,0-2.57.72-2.57,1.75,0,1.13,1.32,1.49,2.83,1.85,2.02.46,4.34,1.03,4.34,3.6,0,1.94-1.56,3.5-4.56,3.5-1.9,0-3.5-.58-4.68-1.82l.94-1.3Z"/>
    <path class="st3" d="M905.01,486.44c3.5,0,5.57,2.74,5.57,6.22v.46h-9.38c.14,2.18,1.68,4.01,4.18,4.01,1.32,0,2.67-.53,3.58-1.46l.86,1.18c-1.15,1.15-2.71,1.78-4.61,1.78-3.43,0-5.9-2.47-5.9-6.1,0-3.36,2.4-6.07,5.71-6.07ZM901.2,491.79h7.61c-.02-1.73-1.18-3.86-3.82-3.86-2.47,0-3.7,2.09-3.79,3.86Z"/>
    <path class="st3" d="M921.88,498.32v-1.73c-.86,1.18-2.28,2.02-3.91,2.02-3.02,0-5.16-2.3-5.16-6.07s2.11-6.1,5.16-6.1c1.56,0,2.98.77,3.91,2.04v-6.17h1.8v16.01h-1.8ZM921.88,489.92c-.65-1.01-2.04-1.87-3.48-1.87-2.33,0-3.72,1.92-3.72,4.49s1.39,4.46,3.72,4.46c1.44,0,2.83-.82,3.48-1.82v-5.26Z"/>
    <path class="st3" d="M933.48,498.32v-16.01h1.8v16.01h-1.8Z"/>
    <path class="st3" d="M938.2,492.51c0-3.36,2.21-6.07,5.74-6.07s5.74,2.71,5.74,6.07-2.21,6.1-5.74,6.1-5.74-2.74-5.74-6.1ZM947.78,492.51c0-2.35-1.37-4.46-3.84-4.46s-3.86,2.11-3.86,4.46,1.39,4.49,3.86,4.49,3.84-2.11,3.84-4.49Z"/>
    <path class="st3" d="M960.43,498.32v-7.58c0-2.04-1.03-2.69-2.59-2.69-1.42,0-2.76.86-3.43,1.8v8.47h-1.8v-11.59h1.8v1.68c.82-.96,2.4-1.97,4.13-1.97,2.42,0,3.7,1.22,3.7,3.74v8.14h-1.8Z"/>
    <path class="st3" d="M966.72,499.95c.96,1.15,2.11,1.58,3.77,1.58,1.92,0,3.72-.94,3.72-3.48v-1.66c-.84,1.18-2.26,2.06-3.89,2.06-3.02,0-5.16-2.26-5.16-6s2.11-6.02,5.16-6.02c1.56,0,2.95.77,3.89,2.04v-1.75h1.8v11.26c0,3.84-2.69,5.04-5.52,5.04-1.97,0-3.31-.38-4.68-1.73l.91-1.34ZM974.2,489.92c-.62-1.01-2.02-1.87-3.46-1.87-2.33,0-3.72,1.85-3.72,4.42s1.39,4.42,3.72,4.42c1.44,0,2.83-.89,3.46-1.9v-5.06Z"/>
    <path class="st3" d="M978.52,493.3v-1.58h5.76v1.58h-5.76Z"/>
    <path class="st3" d="M987.16,495.9v-7.58h-1.92v-1.58h1.92v-3.17h1.8v3.17h2.35v1.58h-2.35v7.2c0,.86.38,1.49,1.18,1.49.5,0,.98-.22,1.22-.48l.53,1.34c-.46.43-1.1.74-2.16.74-1.7,0-2.57-.98-2.57-2.71Z"/>
    <path class="st3" d="M998.9,486.44c3.5,0,5.57,2.74,5.57,6.22v.46h-9.38c.14,2.18,1.68,4.01,4.18,4.01,1.32,0,2.67-.53,3.58-1.46l.86,1.18c-1.15,1.15-2.71,1.78-4.61,1.78-3.43,0-5.9-2.47-5.9-6.1,0-3.36,2.4-6.07,5.71-6.07ZM995.08,491.79h7.61c-.02-1.73-1.18-3.86-3.82-3.86-2.47,0-3.7,2.09-3.79,3.86Z"/>
    <path class="st3" d="M1007.37,498.32v-11.59h1.8v1.87c.94-1.22,2.28-2.11,3.86-2.11v1.85c-.22-.05-.43-.07-.72-.07-1.1,0-2.62.91-3.14,1.85v8.21h-1.8Z"/>
    <path class="st3" d="M1029.28,498.32v-7.87c0-1.46-.65-2.4-2.14-2.4-1.2,0-2.47.86-3.07,1.78v8.5h-1.8v-7.87c0-1.46-.62-2.4-2.14-2.4-1.18,0-2.42.86-3.05,1.8v8.47h-1.8v-11.59h1.8v1.68c.48-.74,2.04-1.97,3.74-1.97s2.78.96,3.12,2.16c.65-1.06,2.21-2.16,3.89-2.16,2.11,0,3.24,1.18,3.24,3.5v8.38h-1.8Z"/>
    <path class="st3" d="M1045.92,486.44c3.5,0,5.57,2.74,5.57,6.22v.46h-9.38c.14,2.18,1.68,4.01,4.18,4.01,1.32,0,2.67-.53,3.58-1.46l.86,1.18c-1.15,1.15-2.71,1.78-4.61,1.78-3.43,0-5.9-2.47-5.9-6.1,0-3.36,2.4-6.07,5.71-6.07ZM1042.1,491.79h7.61c-.02-1.73-1.18-3.86-3.82-3.86-2.47,0-3.7,2.09-3.79,3.86Z"/>
    <path class="st3" d="M1062.21,498.32v-7.58c0-2.04-1.03-2.69-2.59-2.69-1.42,0-2.76.86-3.43,1.8v8.47h-1.8v-11.59h1.8v1.68c.82-.96,2.4-1.97,4.13-1.97,2.42,0,3.7,1.22,3.7,3.74v8.14h-1.8Z"/>
    <path class="st3" d="M1068.5,499.95c.96,1.15,2.11,1.58,3.77,1.58,1.92,0,3.72-.94,3.72-3.48v-1.66c-.84,1.18-2.26,2.06-3.89,2.06-3.02,0-5.16-2.26-5.16-6s2.11-6.02,5.16-6.02c1.56,0,2.95.77,3.89,2.04v-1.75h1.8v11.26c0,3.84-2.69,5.04-5.52,5.04-1.97,0-3.31-.38-4.68-1.73l.91-1.34ZM1075.99,489.92c-.62-1.01-2.02-1.87-3.46-1.87-2.33,0-3.72,1.85-3.72,4.42s1.39,4.42,3.72,4.42c1.44,0,2.83-.89,3.46-1.9v-5.06Z"/>
    <path class="st3" d="M1088.64,498.32v-1.32c-.96,1.06-2.28,1.61-3.84,1.61-1.97,0-4.06-1.32-4.06-3.84s2.09-3.82,4.06-3.82c1.58,0,2.9.5,3.84,1.58v-2.09c0-1.56-1.25-2.45-2.93-2.45-1.39,0-2.52.5-3.55,1.61l-.84-1.25c1.25-1.3,2.74-1.92,4.63-1.92,2.45,0,4.49,1.1,4.49,3.91v7.97h-1.8ZM1088.64,493.69c-.7-.96-1.92-1.44-3.19-1.44-1.68,0-2.86,1.06-2.86,2.54s1.18,2.52,2.86,2.52c1.27,0,2.5-.48,3.19-1.44v-2.18Z"/>
    <path class="st3" d="M1094.92,499.95c.96,1.15,2.11,1.58,3.77,1.58,1.92,0,3.72-.94,3.72-3.48v-1.66c-.84,1.18-2.26,2.06-3.89,2.06-3.02,0-5.16-2.26-5.16-6s2.11-6.02,5.16-6.02c1.56,0,2.95.77,3.89,2.04v-1.75h1.8v11.26c0,3.84-2.69,5.04-5.52,5.04-1.97,0-3.31-.38-4.68-1.73l.91-1.34ZM1102.41,489.92c-.62-1.01-2.02-1.87-3.46-1.87-2.33,0-3.72,1.85-3.72,4.42s1.39,4.42,3.72,4.42c1.44,0,2.83-.89,3.46-1.9v-5.06Z"/>
    <path class="st3" d="M1112.85,486.44c3.5,0,5.57,2.74,5.57,6.22v.46h-9.38c.14,2.18,1.68,4.01,4.18,4.01,1.32,0,2.67-.53,3.58-1.46l.86,1.18c-1.15,1.15-2.71,1.78-4.61,1.78-3.43,0-5.9-2.47-5.9-6.1,0-3.36,2.4-6.07,5.71-6.07ZM1109.04,491.79h7.61c-.02-1.73-1.18-3.86-3.82-3.86-2.47,0-3.7,2.09-3.79,3.86Z"/>
    <path class="st3" d="M1135.32,498.32v-7.87c0-1.46-.65-2.4-2.14-2.4-1.2,0-2.47.86-3.07,1.78v8.5h-1.8v-7.87c0-1.46-.62-2.4-2.14-2.4-1.18,0-2.42.86-3.05,1.8v8.47h-1.8v-11.59h1.8v1.68c.48-.74,2.04-1.97,3.74-1.97s2.78.96,3.12,2.16c.65-1.06,2.21-2.16,3.89-2.16,2.11,0,3.24,1.18,3.24,3.5v8.38h-1.8Z"/>
    <path class="st3" d="M1145.76,486.44c3.5,0,5.57,2.74,5.57,6.22v.46h-9.38c.14,2.18,1.68,4.01,4.18,4.01,1.32,0,2.67-.53,3.58-1.46l.86,1.18c-1.15,1.15-2.71,1.78-4.61,1.78-3.43,0-5.9-2.47-5.9-6.1,0-3.36,2.4-6.07,5.71-6.07ZM1141.94,491.79h7.61c-.02-1.73-1.18-3.86-3.82-3.86-2.47,0-3.7,2.09-3.79,3.86Z"/>
    <path class="st3" d="M1162.05,498.32v-7.58c0-2.04-1.03-2.69-2.59-2.69-1.42,0-2.76.86-3.43,1.8v8.47h-1.8v-11.59h1.8v1.68c.82-.96,2.4-1.97,4.13-1.97,2.42,0,3.7,1.22,3.7,3.74v8.14h-1.8Z"/>
    <path class="st3" d="M1167.81,495.9v-7.58h-1.92v-1.58h1.92v-3.17h1.8v3.17h2.35v1.58h-2.35v7.2c0,.86.38,1.49,1.18,1.49.5,0,.98-.22,1.22-.48l.53,1.34c-.46.43-1.1.74-2.16.74-1.7,0-2.57-.98-2.57-2.71Z"/>
    <path class="st3" d="M846.81,527.12l-3.02-9.31-3.02,9.31h-1.8l-3.7-11.59h1.87l2.83,9.24,3.05-9.24h1.54l3.05,9.24,2.83-9.24h1.87l-3.7,11.59h-1.8Z"/>
    <path class="st3" d="M854.08,512.36c0-.67.55-1.2,1.2-1.2s1.22.53,1.22,1.2-.55,1.22-1.22,1.22-1.2-.55-1.2-1.22ZM854.4,527.12v-11.59h1.8v11.59h-1.8Z"/>
    <path class="st3" d="M860.16,524.7v-7.58h-1.92v-1.58h1.92v-3.17h1.8v3.17h2.35v1.58h-2.35v7.2c0,.86.38,1.49,1.18,1.49.5,0,.98-.22,1.22-.48l.53,1.34c-.46.43-1.1.74-2.16.74-1.7,0-2.57-.98-2.57-2.71Z"/>
    <path class="st3" d="M874.7,527.12v-7.63c0-2.04-1.06-2.64-2.62-2.64-1.39,0-2.74.86-3.43,1.8v8.47h-1.8v-16.01h1.8v6.1c.82-.96,2.4-1.97,4.15-1.97,2.42,0,3.7,1.18,3.7,3.7v8.18h-1.8Z"/>
    <path class="st3" d="M891.4,515.24c2.11,0,3.36.86,4.25,2.02l-1.2,1.1c-.77-1.06-1.75-1.51-2.95-1.51-2.47,0-4.01,1.9-4.01,4.46s1.54,4.49,4.01,4.49c1.2,0,2.18-.48,2.95-1.51l1.2,1.1c-.89,1.15-2.14,2.02-4.25,2.02-3.46,0-5.79-2.64-5.79-6.1s2.33-6.07,5.79-6.07Z"/>
    <path class="st3" d="M897.86,512.36c0-.67.55-1.2,1.2-1.2s1.22.53,1.22,1.2-.55,1.22-1.22,1.22-1.2-.55-1.2-1.22ZM898.17,527.12v-11.59h1.8v11.59h-1.8Z"/>
    <path class="st3" d="M906.67,527.12l-4.82-11.59h1.94l3.86,9.5,3.84-9.5h1.97l-4.83,11.59h-1.97Z"/>
    <path class="st3" d="M915.02,512.36c0-.67.55-1.2,1.2-1.2s1.22.53,1.22,1.2-.55,1.22-1.22,1.22-1.2-.55-1.2-1.22ZM915.33,527.12v-11.59h1.8v11.59h-1.8Z"/>
    <path class="st3" d="M920.73,527.12v-16.01h1.8v16.01h-1.8Z"/>
    <path class="st3" d="M932.25,524.29c.77.89,2.23,1.66,3.82,1.66,1.78,0,2.74-.79,2.74-1.92,0-1.27-1.42-1.68-2.98-2.06-1.97-.46-4.2-.98-4.2-3.38,0-1.8,1.56-3.34,4.32-3.34,1.97,0,3.36.74,4.3,1.68l-.84,1.25c-.7-.84-1.97-1.46-3.46-1.46-1.58,0-2.57.72-2.57,1.75,0,1.13,1.32,1.49,2.83,1.85,2.02.46,4.34,1.03,4.34,3.6,0,1.94-1.56,3.5-4.56,3.5-1.9,0-3.5-.58-4.68-1.82l.94-1.3Z"/>
    <path class="st3" d="M942.81,521.31c0-3.36,2.21-6.07,5.74-6.07s5.74,2.71,5.74,6.07-2.21,6.1-5.74,6.1-5.74-2.74-5.74-6.1ZM952.39,521.31c0-2.35-1.37-4.46-3.84-4.46s-3.86,2.11-3.86,4.46,1.39,4.49,3.86,4.49,3.84-2.11,3.84-4.49Z"/>
    <path class="st3" d="M962.32,515.24c2.11,0,3.36.86,4.25,2.02l-1.2,1.1c-.77-1.06-1.75-1.51-2.95-1.51-2.47,0-4.01,1.9-4.01,4.46s1.54,4.49,4.01,4.49c1.2,0,2.18-.48,2.95-1.51l1.2,1.1c-.89,1.15-2.14,2.02-4.25,2.02-3.46,0-5.79-2.64-5.79-6.1s2.33-6.07,5.79-6.07Z"/>
    <path class="st3" d="M968.78,512.36c0-.67.55-1.2,1.2-1.2s1.22.53,1.22,1.2-.55,1.22-1.22,1.22-1.2-.55-1.2-1.22ZM969.09,527.12v-11.59h1.8v11.59h-1.8Z"/>
    <path class="st3" d="M979.53,515.24c3.5,0,5.57,2.74,5.57,6.22v.46h-9.38c.14,2.18,1.68,4.01,4.18,4.01,1.32,0,2.67-.53,3.58-1.46l.86,1.18c-1.15,1.15-2.71,1.78-4.61,1.78-3.43,0-5.9-2.47-5.9-6.1,0-3.36,2.4-6.07,5.71-6.07ZM975.72,520.59h7.61c-.02-1.73-1.18-3.86-3.82-3.86-2.47,0-3.7,2.09-3.79,3.86Z"/>
    <path class="st3" d="M988.36,524.7v-7.58h-1.92v-1.58h1.92v-3.17h1.8v3.17h2.35v1.58h-2.35v7.2c0,.86.38,1.49,1.18,1.49.5,0,.98-.22,1.22-.48l.53,1.34c-.46.43-1.1.74-2.16.74-1.7,0-2.57-.98-2.57-2.71Z"/>
    <path class="st3" d="M994.7,530.02c.26.12.7.19.98.19.79,0,1.32-.26,1.73-1.22l.77-1.75-4.85-11.71h1.94l3.86,9.5,3.84-9.5h1.97l-5.81,13.95c-.7,1.68-1.87,2.33-3.41,2.35-.38,0-.98-.07-1.32-.17l.29-1.63Z"/>
    <path class="st3" d="M1012.34,521.31c0-3.36,2.21-6.07,5.74-6.07s5.74,2.71,5.74,6.07-2.21,6.1-5.74,6.1-5.74-2.74-5.74-6.1ZM1021.92,521.31c0-2.35-1.37-4.46-3.84-4.46s-3.86,2.11-3.86,4.46,1.39,4.49,3.86,4.49,3.84-2.11,3.84-4.49Z"/>
    <path class="st3" d="M1026.74,527.12v-11.59h1.8v1.87c.94-1.22,2.28-2.11,3.86-2.11v1.85c-.22-.05-.43-.07-.72-.07-1.1,0-2.62.91-3.14,1.85v8.21h-1.8Z"/>
    <path class="st3" d="M1035.55,528.75c.96,1.15,2.11,1.58,3.77,1.58,1.92,0,3.72-.94,3.72-3.48v-1.66c-.84,1.18-2.26,2.06-3.89,2.06-3.02,0-5.16-2.26-5.16-6s2.11-6.02,5.16-6.02c1.56,0,2.95.77,3.89,2.04v-1.75h1.8v11.26c0,3.84-2.69,5.04-5.52,5.04-1.97,0-3.31-.38-4.68-1.73l.91-1.34ZM1043.04,518.72c-.62-1.01-2.02-1.87-3.46-1.87-2.33,0-3.72,1.85-3.72,4.42s1.39,4.42,3.72,4.42c1.44,0,2.83-.89,3.46-1.9v-5.06Z"/>
    <path class="st3" d="M1055.68,527.12v-1.32c-.96,1.06-2.28,1.61-3.84,1.61-1.97,0-4.06-1.32-4.06-3.84s2.09-3.82,4.06-3.82c1.58,0,2.9.5,3.84,1.58v-2.09c0-1.56-1.25-2.45-2.93-2.45-1.39,0-2.52.5-3.55,1.61l-.84-1.25c1.25-1.3,2.74-1.92,4.63-1.92,2.45,0,4.49,1.1,4.49,3.91v7.97h-1.8ZM1055.68,522.49c-.7-.96-1.92-1.44-3.19-1.44-1.68,0-2.86,1.06-2.86,2.54s1.18,2.52,2.86,2.52c1.27,0,2.5-.48,3.19-1.44v-2.18Z"/>
    <path class="st3" d="M1068.91,527.12v-7.58c0-2.04-1.03-2.69-2.59-2.69-1.42,0-2.76.86-3.43,1.8v8.47h-1.8v-11.59h1.8v1.68c.82-.96,2.4-1.97,4.13-1.97,2.42,0,3.7,1.22,3.7,3.74v8.14h-1.8Z"/>
    <path class="st3" d="M1074,512.36c0-.67.55-1.2,1.2-1.2s1.22.53,1.22,1.2-.55,1.22-1.22,1.22-1.2-.55-1.2-1.22ZM1074.31,527.12v-11.59h1.8v11.59h-1.8Z"/>
    <path class="st3" d="M1079.64,524.29c.77.89,2.23,1.66,3.82,1.66,1.78,0,2.74-.79,2.74-1.92,0-1.27-1.42-1.68-2.98-2.06-1.97-.46-4.2-.98-4.2-3.38,0-1.8,1.56-3.34,4.32-3.34,1.97,0,3.36.74,4.3,1.68l-.84,1.25c-.7-.84-1.97-1.46-3.46-1.46-1.58,0-2.57.72-2.57,1.75,0,1.13,1.32,1.49,2.83,1.85,2.02.46,4.34,1.03,4.34,3.6,0,1.94-1.56,3.5-4.56,3.5-1.9,0-3.5-.58-4.68-1.82l.94-1.3Z"/>
    <path class="st3" d="M1098.12,527.12v-1.32c-.96,1.06-2.28,1.61-3.84,1.61-1.97,0-4.06-1.32-4.06-3.84s2.09-3.82,4.06-3.82c1.58,0,2.9.5,3.84,1.58v-2.09c0-1.56-1.25-2.45-2.93-2.45-1.39,0-2.52.5-3.55,1.61l-.84-1.25c1.25-1.3,2.74-1.92,4.63-1.92,2.45,0,4.49,1.1,4.49,3.91v7.97h-1.8ZM1098.12,522.49c-.7-.96-1.92-1.44-3.19-1.44-1.68,0-2.86,1.06-2.86,2.54s1.18,2.52,2.86,2.52c1.27,0,2.5-.48,3.19-1.44v-2.18Z"/>
    <path class="st3" d="M1103.88,524.7v-7.58h-1.92v-1.58h1.92v-3.17h1.8v3.17h2.35v1.58h-2.35v7.2c0,.86.38,1.49,1.18,1.49.5,0,.98-.22,1.22-.48l.53,1.34c-.46.43-1.1.74-2.16.74-1.7,0-2.57-.98-2.57-2.71Z"/>
    <path class="st3" d="M1110.26,512.36c0-.67.55-1.2,1.2-1.2s1.22.53,1.22,1.2-.55,1.22-1.22,1.22-1.2-.55-1.2-1.22ZM1110.57,527.12v-11.59h1.8v11.59h-1.8Z"/>
    <path class="st3" d="M1115.3,521.31c0-3.36,2.21-6.07,5.74-6.07s5.74,2.71,5.74,6.07-2.21,6.1-5.74,6.1-5.74-2.74-5.74-6.1ZM1124.88,521.31c0-2.35-1.37-4.46-3.84-4.46s-3.86,2.11-3.86,4.46,1.39,4.49,3.86,4.49,3.84-2.11,3.84-4.49Z"/>
    <path class="st3" d="M1137.52,527.12v-7.58c0-2.04-1.03-2.69-2.59-2.69-1.42,0-2.76.86-3.43,1.8v8.47h-1.8v-11.59h1.8v1.68c.82-.96,2.4-1.97,4.13-1.97,2.42,0,3.7,1.22,3.7,3.74v8.14h-1.8Z"/>
    <path class="st3" d="M1142.85,524.29c.77.89,2.23,1.66,3.82,1.66,1.78,0,2.74-.79,2.74-1.92,0-1.27-1.42-1.68-2.98-2.06-1.97-.46-4.2-.98-4.2-3.38,0-1.8,1.56-3.34,4.32-3.34,1.97,0,3.36.74,4.3,1.68l-.84,1.25c-.7-.84-1.97-1.46-3.46-1.46-1.58,0-2.57.72-2.57,1.75,0,1.13,1.32,1.49,2.83,1.85,2.02.46,4.34,1.03,4.34,3.6,0,1.94-1.56,3.5-4.56,3.5-1.9,0-3.5-.58-4.68-1.82l.94-1.3Z"/>
    <path class="st3" d="M837.14,553.5v-7.58h-1.92v-1.58h1.92v-3.17h1.8v3.17h2.35v1.58h-2.35v7.2c0,.86.38,1.49,1.18,1.49.5,0,.98-.22,1.22-.48l.53,1.34c-.46.43-1.1.74-2.16.74-1.7,0-2.57-.98-2.57-2.71Z"/>
    <path class="st3" d="M843.16,550.11c0-3.36,2.21-6.07,5.74-6.07s5.74,2.71,5.74,6.07-2.21,6.1-5.74,6.1-5.74-2.74-5.74-6.1ZM852.74,550.11c0-2.35-1.37-4.46-3.84-4.46s-3.86,2.11-3.86,4.46,1.39,4.49,3.86,4.49,3.84-2.11,3.84-4.49Z"/>
    <path class="st3" d="M863.44,541.16c0-.67.55-1.2,1.2-1.2s1.22.53,1.22,1.2-.55,1.22-1.22,1.22-1.2-.55-1.2-1.22ZM863.76,555.92v-11.59h1.8v11.59h-1.8Z"/>
    <path class="st3" d="M883.15,555.92v-7.87c0-1.46-.65-2.4-2.14-2.4-1.2,0-2.47.86-3.07,1.78v8.5h-1.8v-7.87c0-1.46-.62-2.4-2.14-2.4-1.18,0-2.42.86-3.05,1.8v8.47h-1.8v-11.59h1.8v1.68c.48-.74,2.04-1.97,3.74-1.97s2.78.96,3.12,2.16c.65-1.06,2.21-2.16,3.89-2.16,2.11,0,3.24,1.18,3.24,3.5v8.38h-1.8Z"/>
    <path class="st3" d="M890.35,560.33h-1.8v-16.01h1.8v1.73c.84-1.18,2.28-2.02,3.91-2.02,3.05,0,5.16,2.3,5.16,6.07s-2.11,6.1-5.16,6.1c-1.58,0-2.98-.74-3.91-2.04v6.17ZM893.8,545.65c-1.42,0-2.83.84-3.46,1.85v5.23c.62,1.01,2.04,1.87,3.46,1.87,2.33,0,3.72-1.92,3.72-4.49s-1.39-4.46-3.72-4.46Z"/>
    <path class="st3" d="M902.32,555.92v-11.59h1.8v1.87c.94-1.22,2.28-2.11,3.86-2.11v1.85c-.22-.05-.43-.07-.72-.07-1.1,0-2.62.91-3.14,1.85v8.21h-1.8Z"/>
    <path class="st3" d="M909.57,550.11c0-3.36,2.21-6.07,5.74-6.07s5.74,2.71,5.74,6.07-2.21,6.1-5.74,6.1-5.74-2.74-5.74-6.1ZM919.15,550.11c0-2.35-1.37-4.46-3.84-4.46s-3.86,2.11-3.86,4.46,1.39,4.49,3.86,4.49,3.84-2.11,3.84-4.49Z"/>
    <path class="st3" d="M927.07,555.92l-4.82-11.59h1.94l3.86,9.5,3.84-9.5h1.97l-4.83,11.59h-1.97Z"/>
    <path class="st3" d="M940.77,544.04c3.5,0,5.57,2.74,5.57,6.22v.46h-9.38c.14,2.18,1.68,4.01,4.18,4.01,1.32,0,2.67-.53,3.58-1.46l.86,1.18c-1.15,1.15-2.71,1.78-4.61,1.78-3.43,0-5.9-2.47-5.9-6.1,0-3.36,2.4-6.07,5.71-6.07ZM936.96,549.39h7.61c-.02-1.73-1.18-3.86-3.82-3.86-2.47,0-3.7,2.09-3.79,3.86Z"/>
    <path class="st3" d="M955.8,553.5v-7.58h-1.92v-1.58h1.92v-3.17h1.8v3.17h2.35v1.58h-2.35v7.2c0,.86.38,1.49,1.18,1.49.5,0,.98-.22,1.22-.48l.53,1.34c-.46.43-1.1.74-2.16.74-1.7,0-2.57-.98-2.57-2.71Z"/>
    <path class="st3" d="M970.34,555.92v-7.63c0-2.04-1.06-2.64-2.62-2.64-1.39,0-2.74.86-3.43,1.8v8.47h-1.8v-16.01h1.8v6.1c.82-.96,2.4-1.97,4.15-1.97,2.42,0,3.7,1.18,3.7,3.7v8.18h-1.8Z"/>
    <path class="st3" d="M980.78,544.04c3.5,0,5.57,2.74,5.57,6.22v.46h-9.38c.14,2.18,1.68,4.01,4.18,4.01,1.32,0,2.67-.53,3.58-1.46l.86,1.18c-1.15,1.15-2.71,1.78-4.61,1.78-3.43,0-5.9-2.47-5.9-6.1,0-3.36,2.4-6.07,5.71-6.07ZM976.96,549.39h7.61c-.02-1.73-1.18-3.86-3.82-3.86-2.47,0-3.7,2.09-3.79,3.86Z"/>
    <path class="st3" d="M988.94,541.16c0-.67.55-1.2,1.2-1.2s1.22.53,1.22,1.2-.55,1.22-1.22,1.22-1.2-.55-1.2-1.22ZM989.25,555.92v-11.59h1.8v11.59h-1.8Z"/>
    <path class="st3" d="M994.65,555.92v-11.59h1.8v1.87c.94-1.22,2.28-2.11,3.86-2.11v1.85c-.22-.05-.43-.07-.72-.07-1.1,0-2.62.91-3.14,1.85v8.21h-1.8Z"/>
    <path class="st3" d="M1017.17,555.92v-1.73c-.86,1.18-2.28,2.02-3.91,2.02-3.02,0-5.16-2.3-5.16-6.07s2.11-6.1,5.16-6.1c1.56,0,2.98.77,3.91,2.04v-6.17h1.8v16.01h-1.8ZM1017.17,547.52c-.65-1.01-2.04-1.87-3.48-1.87-2.33,0-3.72,1.92-3.72,4.49s1.39,4.46,3.72,4.46c1.44,0,2.83-.82,3.48-1.82v-5.26Z"/>
    <path class="st3" d="M1029.81,555.92v-1.32c-.96,1.06-2.28,1.61-3.84,1.61-1.97,0-4.06-1.32-4.06-3.84s2.09-3.82,4.06-3.82c1.58,0,2.9.5,3.84,1.58v-2.09c0-1.56-1.25-2.45-2.93-2.45-1.39,0-2.52.5-3.55,1.61l-.84-1.25c1.25-1.3,2.74-1.92,4.63-1.92,2.45,0,4.49,1.1,4.49,3.91v7.97h-1.8ZM1029.81,551.29c-.7-.96-1.92-1.44-3.19-1.44-1.68,0-2.86,1.06-2.86,2.54s1.18,2.52,2.86,2.52c1.27,0,2.5-.48,3.19-1.44v-2.18Z"/>
    <path class="st3" d="M1035.57,553.5v-7.58h-1.92v-1.58h1.92v-3.17h1.8v3.17h2.35v1.58h-2.35v7.2c0,.86.38,1.49,1.18,1.49.5,0,.98-.22,1.22-.48l.53,1.34c-.46.43-1.1.74-2.16.74-1.7,0-2.57-.98-2.57-2.71Z"/>
    <path class="st3" d="M1049.52,555.92v-1.32c-.96,1.06-2.28,1.61-3.84,1.61-1.97,0-4.06-1.32-4.06-3.84s2.09-3.82,4.06-3.82c1.58,0,2.9.5,3.84,1.58v-2.09c0-1.56-1.25-2.45-2.93-2.45-1.39,0-2.52.5-3.55,1.61l-.84-1.25c1.25-1.3,2.74-1.92,4.63-1.92,2.45,0,4.49,1.1,4.49,3.91v7.97h-1.8ZM1049.52,551.29c-.7-.96-1.92-1.44-3.19-1.44-1.68,0-2.86,1.06-2.86,2.54s1.18,2.52,2.86,2.52c1.27,0,2.5-.48,3.19-1.44v-2.18Z"/>
    <path class="st3" d="M1075.1,555.92v-7.87c0-1.46-.65-2.4-2.14-2.4-1.2,0-2.47.86-3.07,1.78v8.5h-1.8v-7.87c0-1.46-.62-2.4-2.14-2.4-1.18,0-2.42.86-3.05,1.8v8.47h-1.8v-11.59h1.8v1.68c.48-.74,2.04-1.97,3.74-1.97s2.78.96,3.12,2.16c.65-1.06,2.21-2.16,3.89-2.16,2.11,0,3.24,1.18,3.24,3.5v8.38h-1.8Z"/>
    <path class="st3" d="M1087.75,555.92v-1.32c-.96,1.06-2.28,1.61-3.84,1.61-1.97,0-4.06-1.32-4.06-3.84s2.09-3.82,4.06-3.82c1.58,0,2.9.5,3.84,1.58v-2.09c0-1.56-1.25-2.45-2.93-2.45-1.39,0-2.52.5-3.55,1.61l-.84-1.25c1.25-1.3,2.74-1.92,4.63-1.92,2.45,0,4.49,1.1,4.49,3.91v7.97h-1.8ZM1087.75,551.29c-.7-.96-1.92-1.44-3.19-1.44-1.68,0-2.86,1.06-2.86,2.54s1.18,2.52,2.86,2.52c1.27,0,2.5-.48,3.19-1.44v-2.18Z"/>
    <path class="st3" d="M1093.51,553.5v-7.58h-1.92v-1.58h1.92v-3.17h1.8v3.17h2.35v1.58h-2.35v7.2c0,.86.38,1.49,1.18,1.49.5,0,.98-.22,1.22-.48l.53,1.34c-.46.43-1.1.74-2.16.74-1.7,0-2.57-.98-2.57-2.71Z"/>
    <path class="st3" d="M1108.03,555.92v-1.63c-.89,1.01-2.4,1.92-4.13,1.92-2.42,0-3.7-1.18-3.7-3.7v-8.18h1.8v7.63c0,2.04,1.03,2.64,2.59,2.64,1.42,0,2.76-.82,3.43-1.75v-8.52h1.8v11.59h-1.8Z"/>
    <path class="st3" d="M1113.43,555.92v-11.59h1.8v1.87c.94-1.22,2.28-2.11,3.86-2.11v1.85c-.22-.05-.43-.07-.72-.07-1.1,0-2.62.91-3.14,1.85v8.21h-1.8Z"/>
    <path class="st3" d="M1121.04,541.16c0-.67.55-1.2,1.2-1.2s1.22.53,1.22,1.2-.55,1.22-1.22,1.22-1.2-.55-1.2-1.22ZM1121.35,555.92v-11.59h1.8v11.59h-1.8Z"/>
    <path class="st3" d="M1127.11,553.5v-7.58h-1.92v-1.58h1.92v-3.17h1.8v3.17h2.35v1.58h-2.35v7.2c0,.86.38,1.49,1.18,1.49.5,0,.98-.22,1.22-.48l.53,1.34c-.46.43-1.1.74-2.16.74-1.7,0-2.57-.98-2.57-2.71Z"/>
    <path class="st3" d="M1133.44,558.82c.26.12.7.19.98.19.79,0,1.32-.26,1.73-1.22l.77-1.75-4.85-11.71h1.94l3.86,9.5,3.84-9.5h1.97l-5.81,13.95c-.7,1.68-1.87,2.33-3.41,2.35-.38,0-.98-.07-1.32-.17l.29-1.63Z"/>
  </g>
  <g>
    <path class="st3" d="M777.47,217.75l-10.95-12.89,6.79-5.76c2.46-2.09,5.04-1.59,6.5.13,1.38,1.62,1.29,3.56.29,4.85,1.55-.95,3.79-.55,5.17,1.07,1.64,1.93,1.66,4.58-.79,6.67l-7,5.94ZM773.67,207.71l3.44-2.92c.93-.79,1-1.88.29-2.71-.67-.79-1.78-.92-2.71-.13l-3.44,2.92,2.41,2.84ZM778.23,213.08l3.54-3c1.04-.89,1.15-2.01.37-2.94-.69-.81-1.86-1.02-2.94-.1l-3.54,3,2.58,3.04Z"/>
    <path class="st3" d="M780.92,193.03l3.09-1.95,5.35,8.5c1.26,2,3.22,2.68,5.45,1.28,2.19-1.38,2.42-3.44,1.16-5.44l-5.35-8.5,3.09-1.95,5.41,8.59c2.24,3.56,1.73,7.27-2.6,10-4.38,2.76-7.96,1.59-10.18-1.93l-5.42-8.61Z"/>
    <path class="st3" d="M805.44,198.11l-7.5-15.17,3.23-1.6,7.5,15.17-3.23,1.6Z"/>
    <path class="st3" d="M811.35,195.18l-6.24-15.73,3.35-1.33,5.07,12.79,6.65-2.64,1.17,2.95-10,3.97Z"/>
    <path class="st3" d="M823.21,190.5l-4.17-16.4,6.47-1.65c5.14-1.31,9.53,1.05,10.79,6,1.26,4.94-1.48,9.09-6.62,10.4l-6.47,1.65ZM825.92,186.54l2.97-.76c3.24-.83,4.54-3.64,3.84-6.42-.74-2.9-3.08-4.69-6.45-3.83l-2.97.76,2.61,10.25Z"/>
    <path class="st3" d="M852.81,184.85l.27-16.93,6.67.11c5.3.09,8.93,3.52,8.85,8.62s-3.82,8.39-9.12,8.3l-6.67-.11ZM856.47,181.74l3.07.05c3.35.05,5.34-2.33,5.39-5.19.05-2.99-1.74-5.33-5.22-5.39l-3.07-.05-.17,10.58Z"/>
    <path class="st3" d="M881.38,186.77l-.66-3.04-7.49-1.04-1.46,2.74-3.92-.54,8.8-15.87,4.47.62,4.14,17.66-3.9-.54ZM878.47,172.44l-3.85,7.3,5.55.77-1.7-8.07Z"/>
    <path class="st3" d="M888.5,188.37l3.46-13.31-4.79-1.25.8-3.07,13.06,3.4-.8,3.07-4.76-1.24-3.46,13.31-3.51-.92Z"/>
    <path class="st3" d="M907.99,194.87l.07-3.11-7.04-2.75-2.05,2.33-3.69-1.44,12.25-13.39,4.21,1.64-.07,18.13-3.66-1.43ZM908.49,180.25l-5.44,6.21,5.22,2.04.22-8.25Z"/>
    <path class="st3" d="M935.39,211.51l7.22-9.81-11.06,6.98-1.27-.93,3.38-12.64-7.22,9.81-2.9-2.14,10.04-13.63,4.07,2.99-2.95,10.94,9.57-6.06,4.09,3.01-10.04,13.63-2.92-2.15Z"/>
    <path class="st3" d="M948.58,224.01l1.33-2.81-5.31-5.38-2.82,1.29-2.78-2.82,16.64-7.23,3.17,3.21-7.46,16.53-2.76-2.8ZM955,210.86l-7.5,3.45,3.94,3.99,3.56-7.44Z"/>
    <path class="st3" d="M953.27,229.6l10.83-8.47-3.05-3.9,2.5-1.95,8.31,10.63-2.5,1.95-3.03-3.88-10.83,8.47-2.23-2.86Z"/>
    <path class="st3" d="M974.17,229.21l1.85,3.15-8.67,5.08c-2.04,1.19-2.78,3.13-1.45,5.41,1.31,2.23,3.36,2.53,5.4,1.34l8.67-5.08,1.85,3.15-8.76,5.13c-3.63,2.13-7.33,1.5-9.92-2.93-2.62-4.47-1.34-8.01,2.25-10.11l8.78-5.14Z"/>
    <path class="st3" d="M972,262.21l4.35-5.37-1-2.44-5.61,2.3-1.36-3.33,15.66-6.41,3,7.33c1.34,3.26.02,6.13-2.9,7.33-2.77,1.13-4.96,0-6.05-1.53l-4.52,5.96-1.57-3.83ZM983.97,254.95l-1.43-3.5-4.32,1.77,1.43,3.5c.55,1.34,1.81,2,3.12,1.46,1.31-.54,1.75-1.89,1.2-3.23Z"/>
    <path class="st3" d="M974.06,268.21l16.2-4.91,1.04,3.45-16.2,4.91-1.04-3.45Z"/>
    <path class="st3" d="M976.81,278.34l13.46-2.8-1.01-4.84,3.1-.65,2.75,13.22-3.11.65-1-4.82-13.46,2.8-.74-3.55Z"/>
    <path class="st3" d="M979.16,293.19l6.9-.55,9.44-7.29.33,4.1-6.44,4.74,7.11,3.61.33,4.1-10.48-5.65-6.9.55-.29-3.59Z"/>
  </g>
  <circle class="st3" cx="1107.68" cy="393.89" r="17.69"/>
  <circle class="st3" cx="665.65" cy="262.79" r="17.69"/>
  <circle class="st3" cx="1148.55" cy="260.77" r="13.26"/>
  <circle class="st3" cx="652.86" cy="123.88" r="13.26"/>
  <circle class="st3" cx="930.85" cy="459.5" r="13.26"/>
  <circle class="st3" cx="575.91" cy="531.16" r="9.64"/>
  <circle class="st3" cx="796.3" cy="766.73" r="9.64"/>
  <circle class="st3" cx="298.1" cy="51.04" r="9.64"/>
  <line class="st14" x1="761.97" y1="373.22" x2="589.73" y2="515.5"/>
  <line class="st14" x1="291.03" y1="33.72" x2="262.75" y2="-38.47"/>
  <line class="st14" x1="633.1" y1="116.43" x2="317.48" y2="55.45"/>
  <line class="st14" x1="661.73" y1="234.65" x2="654.58" y2="143.31"/>
  <line class="st14" x1="743.93" y1="269.12" x2="692.94" y2="264.44"/>
  <line class="st14" x1="908.53" y1="411.77" x2="924.7" y2="441.13"/>
  <line class="st14" x1="1115.39" y1="371.29" x2="1143.74" y2="281.4"/>
  <line class="st14" x1="975.17" y1="338.25" x2="1086.22" y2="380.41"/>
  <line class="st14" x1="930.85" y1="573.67" x2="807.81" y2="753.12"/>
  <g>
    <path class="st1" d="M872.86,259.4c-4.1-1.19-9.55-1.85-15.33-1.85s-11.23.66-15.33,1.85c-4.41,1.29-6.75,3.03-6.75,5.03v40.1c0,2.01,2.34,3.75,6.75,5.03,4.1,1.19,9.55,1.85,15.33,1.85s11.23-.66,15.33-1.85c4.41-1.29,6.75-3.03,6.75-5.03v-40.1c0-2.01-2.33-3.75-6.75-5.03ZM842.56,260.66c3.99-1.16,9.3-1.8,14.97-1.8s10.98.64,14.97,1.8c3.63,1.05,5.8,2.47,5.8,3.78s-2.17,2.72-5.8,3.78c-3.99,1.16-9.3,1.8-14.97,1.8s-10.98-.64-14.97-1.8c-3.63-1.06-5.8-2.47-5.8-3.78,0-1.31,2.17-2.72,5.8-3.78ZM872.5,308.3c-3.99,1.16-9.3,1.8-14.97,1.8s-10.98-.64-14.97-1.8c-3.63-1.06-5.8-2.47-5.8-3.78v-10.89c1.12.98,2.94,1.85,5.44,2.57,4.1,1.19,9.55,1.85,15.33,1.85s11.23-.66,15.33-1.85c2.49-.72,4.31-1.59,5.44-2.57v10.89c0,1.3-2.17,2.72-5.8,3.77h0ZM872.5,294.95c-3.99,1.16-9.3,1.8-14.97,1.8s-10.98-.64-14.97-1.8c-3.63-1.06-5.8-2.47-5.8-3.78v-10.9c1.12.98,2.94,1.85,5.44,2.57,4.1,1.19,9.55,1.85,15.33,1.85s11.23-.66,15.33-1.85c2.49-.72,4.31-1.59,5.44-2.57v10.9c0,1.31-2.17,2.72-5.8,3.78ZM872.5,281.58c-3.99,1.16-9.3,1.8-14.97,1.8s-10.98-.64-14.97-1.8c-3.63-1.06-5.8-2.47-5.8-3.78v-10.9c1.12.98,2.94,1.85,5.44,2.57,4.1,1.19,9.55,1.85,15.33,1.85s11.23-.66,15.33-1.85c2.49-.72,4.31-1.59,5.44-2.57v10.9c0,1.3-2.17,2.72-5.8,3.77h0ZM845.9,273.55c-1.54,0-2.8,1.26-2.8,2.8s1.26,2.8,2.8,2.8,2.8-1.26,2.8-2.8-1.26-2.8-2.8-2.8ZM845.9,277.84c-.82,0-1.48-.67-1.48-1.48s.67-1.48,1.48-1.48,1.48.67,1.48,1.48c0,.82-.67,1.48-1.48,1.48ZM845.9,286.78c-1.54,0-2.8,1.26-2.8,2.8s1.26,2.8,2.8,2.8,2.8-1.26,2.8-2.8-1.26-2.8-2.8-2.8ZM845.9,291.07c-.82,0-1.48-.67-1.48-1.48s.67-1.48,1.48-1.48,1.48.67,1.48,1.48c0,.82-.67,1.48-1.48,1.48ZM845.9,300.01c-1.54,0-2.8,1.26-2.8,2.8s1.26,2.8,2.8,2.8,2.8-1.26,2.8-2.8-1.26-2.8-2.8-2.8ZM845.9,304.3c-.82,0-1.48-.67-1.48-1.48s.67-1.48,1.48-1.48,1.48.67,1.48,1.48c0,.82-.67,1.48-1.48,1.48Z"/>
    <g>
      <line class="st13" x1="901.26" y1="304.3" x2="901.26" y2="312.99"/>
      <g>
        <rect class="st13" x="871.66" y="322.48" width="14.76" height="12.09"/>
        <rect class="st13" x="893.88" y="322.48" width="14.76" height="12.09"/>
        <g>
          <rect class="st13" x="916.09" y="322.48" width="14.76" height="12.09" transform="translate(1846.93 657.05) rotate(-180)"/>
          <polyline class="st13" points="923.47 322 923.47 313.47 879.04 313.47 879.04 322"/>
        </g>
      </g>
    </g>
    <g>
      <line class="st15" x1="895.44" y1="285.55" x2="907.07" y2="285.55"/>
      <line class="st15" x1="895.44" y1="291.07" x2="907.07" y2="291.07"/>
      <line class="st15" x1="895.44" y1="296.58" x2="907.07" y2="296.58"/>
    </g>
    <g>
      <rect class="st13" x="800.82" y="292.08" width="25.98" height="31.02"/>
      <g>
        <path class="st0" d="M816.53,307.13c.14-.11.29-.21.43-.34,4.1-4.22-2.08-10.49-6.33-6.38-2.28,2.35-1.38,5.32.6,6.79-2.97,1.02-5.3,3.62-4.77,7.21.11.97.93,1.7,1.9,1.71h10.88c.49,0,.94-.18,1.28-.49,1.55-1.9.3-5.1-1.15-6.65-.79-.89-1.77-1.49-2.83-1.85h0Z"/>
        <path class="st0" d="M813.8,300.49c4.04.02,4.04,6.19,0,6.22-4.04-.02-4.04-6.19,0-6.22Z"/>
        <path class="st0" d="M819.58,314.6c-.09.07-.21.12-.34.12h-10.88c-.6-.01-.55-.68-.56-1.12.07-7.98,13.56-6.82,11.77,1h0Z"/>
      </g>
    </g>
    <polygon class="st13" points="914.24 304.02 888.27 304.02 888.27 273 904.58 273 914.24 281.4 914.24 304.02"/>
    <g>
      <circle class="st13" cx="848.29" cy="328.37" r="11.35"/>
      <line class="st13" x1="856.44" y1="336.46" x2="860.32" y2="340.34"/>
      <rect class="st13" x="866.08" y="337.14" width="6.52" height="23.96" rx="2.09" ry="2.09" transform="translate(7.76 716.97) rotate(-45)"/>
    </g>
    <polyline class="st2" points="904.58 273 904.58 281.4 914.24 281.4"/>
  </g>
  <circle class="st3" cx="258.04" cy="531.16" r="5.71"/>
  <circle class="st3" cx="258.04" cy="531.16" r="5.71"/>
  <circle class="st3" cx="1065.43" cy="127.9" r="2.85"/>
  <circle class="st3" cx="796.3" cy="127.9" r="2.85"/>
  <circle class="st3" cx="1065.43" cy="396.74" r="2.85"/>
  <circle class="st3" cx="123.47" cy="127.9" r="2.85"/>
  <circle class="st3" cx="258.04" cy="262.32" r="2.85"/>
  <circle class="st3" cx="661.73" cy="396.74" r="2.85"/>
</svg>