<?xml version="1.0" encoding="UTF-8"?>
<svg id="Layer_1" xmlns="http://www.w3.org/2000/svg" xmlns:xlink="http://www.w3.org/1999/xlink" version="1.1" viewBox="0 0 1200 800">
  <!-- Generator: Adobe Illustrator 30.1.0, SVG Export Plug-In . SVG Version: 2.1.1 Build 136)  -->
  <defs>
    <style>
      .st0 {
        fill: #4c2165;
      }

      .st1 {
        stroke: url(#linear-gradient9);
      }

      .st1, .st2, .st3, .st4, .st5, .st6, .st7, .st8, .st9, .st10, .st11, .st12, .st13, .st14, .st15 {
        fill: none;
      }

      .st1, .st2, .st3, .st4, .st5, .st6, .st7, .st8, .st9, .st12, .st13, .st14, .st15 {
        stroke-miterlimit: 10;
      }

      .st1, .st2, .st13, .st14, .st15 {
        stroke-width: .66px;
      }

      .st2 {
        stroke: url(#linear-gradient8);
      }

      .st3 {
        stroke: url(#linear-gradient2);
      }

      .st3, .st4, .st5, .st6, .st7, .st8, .st9, .st12 {
        stroke-width: .5px;
      }

      .st4 {
        stroke: url(#linear-gradient1);
      }

      .st5 {
        stroke: url(#linear-gradient7);
      }

      .st6 {
        stroke: url(#linear-gradient3);
      }

      .st7 {
        stroke: url(#linear-gradient5);
      }

      .st8 {
        stroke: url(#linear-gradient4);
      }

      .st9 {
        stroke: url(#linear-gradient6);
      }

      .st10 {
        stroke: #e9e9e9;
        stroke-width: 1.43px;
      }

      .st10, .st11 {
        stroke-linecap: round;
        stroke-linejoin: round;
      }

      .st11 {
        stroke: #4c2165;
      }

      .st16 {
        fill: #e9e9e9;
      }

      .st12 {
        stroke: url(#linear-gradient);
      }

      .st13 {
        stroke: url(#linear-gradient10);
      }

      .st14 {
        stroke: url(#linear-gradient12);
      }

      .st15 {
        stroke: url(#linear-gradient11);
      }
    </style>
    <linearGradient id="linear-gradient" x1="123.47" y1="800" x2="123.47" y2="0" gradientUnits="userSpaceOnUse">
      <stop offset=".07" stop-color="#706f70" stop-opacity="0"/>
      <stop offset=".52" stop-color="#706f70"/>
      <stop offset=".94" stop-color="#706f70" stop-opacity="0"/>
    </linearGradient>
    <linearGradient id="linear-gradient1" x1="258.04" x2="258.04" xlink:href="#linear-gradient"/>
    <linearGradient id="linear-gradient2" x1="392.6" x2="392.6" xlink:href="#linear-gradient"/>
    <linearGradient id="linear-gradient3" x1="527.17" x2="527.17" xlink:href="#linear-gradient"/>
    <linearGradient id="linear-gradient4" x1="661.73" x2="661.73" xlink:href="#linear-gradient"/>
    <linearGradient id="linear-gradient5" x1="796.3" x2="796.3" xlink:href="#linear-gradient"/>
    <linearGradient id="linear-gradient6" x1="930.87" x2="930.87" xlink:href="#linear-gradient"/>
    <linearGradient id="linear-gradient7" x1="1065.43" x2="1065.43" xlink:href="#linear-gradient"/>
    <linearGradient id="linear-gradient8" x1="-2716.68" y1="-2045.38" x2="-2716.68" y2="-3244.59" gradientTransform="translate(-2044.59 2844.59) rotate(90)" gradientUnits="userSpaceOnUse">
      <stop offset=".07" stop-color="#706f70" stop-opacity="0"/>
      <stop offset=".52" stop-color="#706f70"/>
      <stop offset=".96" stop-color="#706f70" stop-opacity="0"/>
    </linearGradient>
    <linearGradient id="linear-gradient9" x1="-2582.26" y1="-2045.38" x2="-2582.26" y2="-3244.59" xlink:href="#linear-gradient8"/>
    <linearGradient id="linear-gradient10" x1="-2447.85" y1="-2045.38" x2="-2447.85" y2="-3244.59" xlink:href="#linear-gradient8"/>
    <linearGradient id="linear-gradient11" x1="-2313.43" y1="-2045.38" x2="-2313.43" y2="-3244.59" xlink:href="#linear-gradient8"/>
    <linearGradient id="linear-gradient12" x1="-2179.01" y1="-2045.38" x2="-2179.01" y2="-3244.59" xlink:href="#linear-gradient8"/>
  </defs>
  <g>
    <line class="st12" x1="123.47" x2="123.47" y2="800"/>
    <line class="st4" x1="258.04" x2="258.04" y2="800"/>
    <line class="st3" x1="392.6" x2="392.6" y2="800"/>
    <line class="st6" x1="527.17" x2="527.17" y2="800"/>
    <line class="st8" x1="661.73" x2="661.73" y2="800"/>
    <line class="st7" x1="796.3" x2="796.3" y2="800"/>
    <line class="st9" x1="930.87" x2="930.87" y2="800"/>
    <line class="st5" x1="1065.43" x2="1065.43" y2="800"/>
  </g>
  <g>
    <line class="st2" x1="1200" y1="127.9" x2=".8" y2="127.9"/>
    <line class="st1" x1="1200" y1="262.32" x2=".8" y2="262.32"/>
    <line class="st13" x1="1200" y1="396.74" x2=".8" y2="396.74"/>
    <line class="st15" x1="1200" y1="531.16" x2=".8" y2="531.16"/>
    <line class="st14" x1="1200" y1="665.58" x2=".8" y2="665.58"/>
  </g>
  <g>
    <path class="st0" d="M175.65,102.33c0-4.92,3.62-8.28,8.16-8.28,2.9,0,4.87,1.37,6.14,3.17l-1.68.94c-.91-1.34-2.57-2.33-4.46-2.33-3.43,0-6.1,2.69-6.1,6.5s2.66,6.5,6.1,6.5c1.9,0,3.55-.96,4.46-2.33l1.7.94c-1.34,1.82-3.26,3.17-6.17,3.17-4.54,0-8.16-3.36-8.16-8.28Z"/>
    <path class="st0" d="M192.45,110.32v-11.59h1.8v1.87c.94-1.22,2.28-2.11,3.86-2.11v1.85c-.22-.05-.43-.07-.72-.07-1.1,0-2.62.91-3.14,1.85v8.21h-1.8Z"/>
    <path class="st0" d="M205.41,98.44c3.5,0,5.57,2.74,5.57,6.22v.46h-9.38c.14,2.18,1.68,4.01,4.18,4.01,1.32,0,2.67-.53,3.58-1.46l.86,1.18c-1.15,1.15-2.71,1.78-4.61,1.78-3.43,0-5.9-2.47-5.9-6.1,0-3.36,2.4-6.07,5.71-6.07ZM201.6,103.79h7.61c-.02-1.73-1.18-3.86-3.82-3.86-2.47,0-3.7,2.09-3.79,3.86Z"/>
    <path class="st0" d="M221.13,110.32v-1.32c-.96,1.06-2.28,1.61-3.84,1.61-1.97,0-4.06-1.32-4.06-3.84s2.09-3.82,4.06-3.82c1.58,0,2.9.5,3.84,1.58v-2.09c0-1.56-1.25-2.45-2.93-2.45-1.39,0-2.52.5-3.55,1.61l-.84-1.25c1.25-1.3,2.74-1.92,4.63-1.92,2.45,0,4.49,1.1,4.49,3.91v7.97h-1.8ZM221.13,105.69c-.7-.96-1.92-1.44-3.19-1.44-1.68,0-2.86,1.06-2.86,2.54s1.18,2.52,2.86,2.52c1.27,0,2.5-.48,3.19-1.44v-2.18Z"/>
    <path class="st0" d="M226.89,107.89v-7.58h-1.92v-1.58h1.92v-3.17h1.8v3.17h2.35v1.58h-2.35v7.2c0,.86.38,1.49,1.18,1.49.5,0,.98-.22,1.22-.48l.53,1.34c-.46.43-1.1.74-2.16.74-1.7,0-2.57-.98-2.57-2.71Z"/>
    <path class="st0" d="M238.63,98.44c3.5,0,5.57,2.74,5.57,6.22v.46h-9.38c.14,2.18,1.68,4.01,4.18,4.01,1.32,0,2.67-.53,3.58-1.46l.86,1.18c-1.15,1.15-2.71,1.78-4.61,1.78-3.43,0-5.9-2.47-5.9-6.1,0-3.36,2.4-6.07,5.71-6.07ZM234.81,103.79h7.61c-.02-1.73-1.18-3.86-3.82-3.86-2.47,0-3.7,2.09-3.79,3.86Z"/>
    <path class="st0" d="M260.54,110.32v-1.32c-.96,1.06-2.28,1.61-3.84,1.61-1.97,0-4.06-1.32-4.06-3.84s2.09-3.82,4.06-3.82c1.58,0,2.9.5,3.84,1.58v-2.09c0-1.56-1.25-2.45-2.93-2.45-1.39,0-2.52.5-3.55,1.61l-.84-1.25c1.25-1.3,2.74-1.92,4.63-1.92,2.45,0,4.49,1.1,4.49,3.91v7.97h-1.8ZM260.54,105.69c-.7-.96-1.92-1.44-3.19-1.44-1.68,0-2.86,1.06-2.86,2.54s1.18,2.52,2.86,2.52c1.27,0,2.5-.48,3.19-1.44v-2.18Z"/>
    <path class="st0" d="M272.42,106.55c1.06,1.18,2.78,2.28,5.04,2.28,2.86,0,3.77-1.54,3.77-2.76,0-1.92-1.94-2.45-4.06-3.02-2.57-.67-5.42-1.39-5.42-4.54,0-2.64,2.35-4.44,5.5-4.44,2.45,0,4.34.82,5.69,2.23l-1.2,1.46c-1.2-1.32-2.88-1.92-4.63-1.92-1.92,0-3.29,1.03-3.29,2.54,0,1.61,1.85,2.09,3.89,2.64,2.62.7,5.59,1.51,5.59,4.87,0,2.33-1.58,4.7-5.9,4.7-2.78,0-4.82-1.06-6.14-2.54l1.18-1.51Z"/>
    <path class="st0" d="M286.15,107.89v-7.58h-1.92v-1.58h1.92v-3.17h1.8v3.17h2.35v1.58h-2.35v7.2c0,.86.38,1.49,1.18,1.49.5,0,.98-.22,1.22-.48l.53,1.34c-.46.43-1.1.74-2.16.74-1.7,0-2.57-.98-2.57-2.71Z"/>
    <path class="st0" d="M292.17,104.51c0-3.36,2.21-6.07,5.74-6.07s5.74,2.71,5.74,6.07-2.21,6.1-5.74,6.1-5.74-2.74-5.74-6.1ZM301.75,104.51c0-2.35-1.37-4.46-3.84-4.46s-3.86,2.11-3.86,4.46,1.39,4.49,3.86,4.49,3.84-2.11,3.84-4.49Z"/>
    <path class="st0" d="M306.57,110.32v-11.59h1.8v1.87c.94-1.22,2.28-2.11,3.86-2.11v1.85c-.22-.05-.43-.07-.72-.07-1.1,0-2.62.91-3.14,1.85v8.21h-1.8Z"/>
    <path class="st0" d="M314.13,113.22c.26.12.7.19.98.19.79,0,1.32-.26,1.73-1.22l.77-1.75-4.85-11.71h1.94l3.86,9.5,3.84-9.5h1.97l-5.81,13.95c-.7,1.68-1.87,2.33-3.41,2.35-.38,0-.98-.07-1.32-.17l.29-1.63Z"/>
    <path class="st0" d="M332.52,110.32v-16.01h7.13c2.78,0,4.49,1.68,4.49,4.08,0,2.02-1.34,3.36-2.81,3.67,1.7.26,3.12,2.02,3.12,3.94,0,2.57-1.7,4.32-4.63,4.32h-7.3ZM334.51,101.25h4.8c1.8,0,2.76-1.1,2.76-2.57s-.96-2.59-2.76-2.59h-4.8v5.16ZM334.51,108.54h4.9c1.87,0,2.98-1.06,2.98-2.76,0-1.46-1.01-2.76-2.98-2.76h-4.9v5.52Z"/>
    <path class="st0" d="M355.37,110.32v-1.63c-.89,1.01-2.4,1.92-4.13,1.92-2.42,0-3.7-1.18-3.7-3.7v-8.18h1.8v7.63c0,2.04,1.03,2.64,2.59,2.64,1.42,0,2.76-.82,3.43-1.75v-8.52h1.8v11.59h-1.8Z"/>
    <path class="st0" d="M360.45,95.56c0-.67.55-1.2,1.2-1.2s1.22.53,1.22,1.2-.55,1.22-1.22,1.22-1.2-.55-1.2-1.22ZM360.77,110.32v-11.59h1.8v11.59h-1.8Z"/>
    <path class="st0" d="M366.16,110.32v-16.01h1.8v16.01h-1.8Z"/>
    <path class="st0" d="M379.97,110.32v-1.73c-.86,1.18-2.28,2.02-3.91,2.02-3.02,0-5.16-2.3-5.16-6.07s2.11-6.1,5.16-6.1c1.56,0,2.98.77,3.91,2.04v-6.17h1.8v16.01h-1.8ZM379.97,101.92c-.65-1.01-2.04-1.87-3.48-1.87-2.33,0-3.72,1.92-3.72,4.49s1.39,4.46,3.72,4.46c1.44,0,2.83-.82,3.48-1.82v-5.26Z"/>
    <path class="st0" d="M390.41,98.44c3.5,0,5.57,2.74,5.57,6.22v.46h-9.38c.14,2.18,1.68,4.01,4.18,4.01,1.32,0,2.67-.53,3.58-1.46l.86,1.18c-1.15,1.15-2.71,1.78-4.61,1.78-3.43,0-5.9-2.47-5.9-6.1,0-3.36,2.4-6.07,5.71-6.07ZM386.59,103.79h7.61c-.02-1.73-1.18-3.86-3.82-3.86-2.47,0-3.7,2.09-3.79,3.86Z"/>
    <path class="st0" d="M398.88,110.32v-11.59h1.8v1.87c.94-1.22,2.28-2.11,3.86-2.11v1.85c-.22-.05-.43-.07-.72-.07-1.1,0-2.62.91-3.14,1.85v8.21h-1.8Z"/>
    <path class="st0" d="M413.35,107.89v-7.58h-1.92v-1.58h1.92v-3.17h1.8v3.17h2.35v1.58h-2.35v7.2c0,.86.38,1.49,1.18,1.49.5,0,.98-.22,1.22-.48l.53,1.34c-.46.43-1.1.74-2.16.74-1.7,0-2.57-.98-2.57-2.71Z"/>
    <path class="st0" d="M419.37,104.51c0-3.36,2.21-6.07,5.74-6.07s5.74,2.71,5.74,6.07-2.21,6.1-5.74,6.1-5.74-2.74-5.74-6.1ZM428.95,104.51c0-2.35-1.37-4.46-3.84-4.46s-3.86,2.11-3.86,4.46,1.39,4.49,3.86,4.49,3.84-2.11,3.84-4.49Z"/>
    <path class="st0" d="M433.1,104.51c0-3.36,2.21-6.07,5.74-6.07s5.74,2.71,5.74,6.07-2.21,6.1-5.74,6.1-5.74-2.74-5.74-6.1ZM442.68,104.51c0-2.35-1.37-4.46-3.84-4.46s-3.86,2.11-3.86,4.46,1.39,4.49,3.86,4.49,3.84-2.11,3.84-4.49Z"/>
    <path class="st0" d="M447.5,110.32v-16.01h1.8v16.01h-1.8Z"/>
    <path class="st0" d="M178.53,129.11v10.01h-1.8v-10.01h-1.92v-1.58h1.92v-.89c0-2.4,1.34-3.77,3.36-3.77.67,0,1.3.12,1.75.41l-.46,1.34c-.29-.17-.62-.26-1.03-.26-1.18,0-1.82.82-1.82,2.28v.89h2.35v1.58h-2.35Z"/>
    <path class="st0" d="M182.35,133.31c0-3.36,2.21-6.07,5.74-6.07s5.74,2.71,5.74,6.07-2.21,6.1-5.74,6.1-5.74-2.74-5.74-6.1ZM191.93,133.31c0-2.35-1.37-4.46-3.84-4.46s-3.86,2.11-3.86,4.46,1.39,4.49,3.86,4.49,3.84-2.11,3.84-4.49Z"/>
    <path class="st0" d="M196.75,139.12v-11.59h1.8v1.87c.94-1.22,2.28-2.11,3.86-2.11v1.85c-.22-.05-.43-.07-.72-.07-1.1,0-2.62.91-3.14,1.85v8.21h-1.8Z"/>
    <path class="st0" d="M210.55,124.36c0-.67.55-1.2,1.2-1.2s1.22.53,1.22,1.2-.55,1.22-1.22,1.22-1.2-.55-1.2-1.22ZM210.86,139.12v-11.59h1.8v11.59h-1.8Z"/>
    <path class="st0" d="M224.09,139.12v-7.58c0-2.04-1.03-2.69-2.59-2.69-1.42,0-2.76.86-3.43,1.8v8.47h-1.8v-11.59h1.8v1.68c.82-.96,2.4-1.97,4.13-1.97,2.42,0,3.7,1.22,3.7,3.74v8.14h-1.8Z"/>
    <path class="st0" d="M237.89,139.12v-1.73c-.86,1.18-2.28,2.02-3.91,2.02-3.02,0-5.16-2.3-5.16-6.07s2.11-6.1,5.16-6.1c1.56,0,2.98.77,3.91,2.04v-6.17h1.8v16.01h-1.8ZM237.89,130.72c-.65-1.01-2.04-1.87-3.48-1.87-2.33,0-3.72,1.92-3.72,4.49s1.39,4.46,3.72,4.46c1.44,0,2.83-.82,3.48-1.82v-5.26Z"/>
    <path class="st0" d="M242.97,124.36c0-.67.55-1.2,1.2-1.2s1.22.53,1.22,1.2-.55,1.22-1.22,1.22-1.2-.55-1.2-1.22ZM243.28,139.12v-11.59h1.8v11.59h-1.8Z"/>
    <path class="st0" d="M251.78,139.12l-4.82-11.59h1.94l3.86,9.5,3.84-9.5h1.97l-4.83,11.59h-1.97Z"/>
    <path class="st0" d="M260.13,124.36c0-.67.55-1.2,1.2-1.2s1.22.53,1.22,1.2-.55,1.22-1.22,1.22-1.2-.55-1.2-1.22ZM260.44,139.12v-11.59h1.8v11.59h-1.8Z"/>
    <path class="st0" d="M274.25,139.12v-1.73c-.86,1.18-2.28,2.02-3.91,2.02-3.02,0-5.16-2.3-5.16-6.07s2.11-6.1,5.16-6.1c1.56,0,2.98.77,3.91,2.04v-6.17h1.8v16.01h-1.8ZM274.25,130.72c-.65-1.01-2.04-1.87-3.48-1.87-2.33,0-3.72,1.92-3.72,4.49s1.39,4.46,3.72,4.46c1.44,0,2.83-.82,3.48-1.82v-5.26Z"/>
    <path class="st0" d="M287.47,139.12v-1.63c-.89,1.01-2.4,1.92-4.13,1.92-2.42,0-3.7-1.18-3.7-3.7v-8.18h1.8v7.63c0,2.04,1.03,2.64,2.59,2.64,1.42,0,2.76-.82,3.43-1.75v-8.52h1.8v11.59h-1.8Z"/>
    <path class="st0" d="M300.12,139.12v-1.32c-.96,1.06-2.28,1.61-3.84,1.61-1.97,0-4.06-1.32-4.06-3.84s2.09-3.82,4.06-3.82c1.58,0,2.9.5,3.84,1.58v-2.09c0-1.56-1.25-2.45-2.93-2.45-1.39,0-2.52.5-3.55,1.61l-.84-1.25c1.25-1.3,2.74-1.92,4.63-1.92,2.45,0,4.49,1.1,4.49,3.91v7.97h-1.8ZM300.12,134.49c-.7-.96-1.92-1.44-3.19-1.44-1.68,0-2.86,1.06-2.86,2.54s1.18,2.52,2.86,2.52c1.27,0,2.5-.48,3.19-1.44v-2.18Z"/>
    <path class="st0" d="M305.52,139.12v-16.01h1.8v16.01h-1.8Z"/>
    <path class="st0" d="M310.49,141.42c.77-.5,1.46-1.44,1.56-2.23-.05.02-.22.05-.34.05-.67,0-1.15-.5-1.15-1.22s.55-1.3,1.27-1.3c.79,0,1.51.67,1.51,1.82,0,1.46-.86,2.83-1.97,3.62l-.89-.74Z"/>
    <path class="st0" d="M321.96,133.31c0-3.36,2.21-6.07,5.74-6.07s5.74,2.71,5.74,6.07-2.21,6.1-5.74,6.1-5.74-2.74-5.74-6.1ZM331.53,133.31c0-2.35-1.37-4.46-3.84-4.46s-3.86,2.11-3.86,4.46,1.39,4.49,3.86,4.49,3.84-2.11,3.84-4.49Z"/>
    <path class="st0" d="M336.36,139.12v-11.59h1.8v1.87c.94-1.22,2.28-2.11,3.86-2.11v1.85c-.22-.05-.43-.07-.72-.07-1.1,0-2.62.91-3.14,1.85v8.21h-1.8Z"/>
    <path class="st0" d="M345.17,140.75c.96,1.15,2.11,1.58,3.77,1.58,1.92,0,3.72-.94,3.72-3.48v-1.66c-.84,1.18-2.26,2.06-3.89,2.06-3.02,0-5.16-2.26-5.16-6s2.11-6.02,5.16-6.02c1.56,0,2.95.77,3.89,2.04v-1.75h1.8v11.26c0,3.84-2.69,5.04-5.52,5.04-1.97,0-3.31-.38-4.68-1.73l.91-1.34ZM352.65,130.72c-.62-1.01-2.02-1.87-3.46-1.87-2.33,0-3.72,1.85-3.72,4.42s1.39,4.42,3.72,4.42c1.44,0,2.83-.89,3.46-1.9v-5.06Z"/>
    <path class="st0" d="M365.3,139.12v-1.32c-.96,1.06-2.28,1.61-3.84,1.61-1.97,0-4.06-1.32-4.06-3.84s2.09-3.82,4.06-3.82c1.58,0,2.9.5,3.84,1.58v-2.09c0-1.56-1.25-2.45-2.93-2.45-1.39,0-2.52.5-3.55,1.61l-.84-1.25c1.25-1.3,2.74-1.92,4.63-1.92,2.45,0,4.49,1.1,4.49,3.91v7.97h-1.8ZM365.3,134.49c-.7-.96-1.92-1.44-3.19-1.44-1.68,0-2.86,1.06-2.86,2.54s1.18,2.52,2.86,2.52c1.27,0,2.5-.48,3.19-1.44v-2.18Z"/>
    <path class="st0" d="M378.53,139.12v-7.58c0-2.04-1.03-2.69-2.59-2.69-1.42,0-2.76.86-3.43,1.8v8.47h-1.8v-11.59h1.8v1.68c.82-.96,2.4-1.97,4.13-1.97,2.42,0,3.7,1.22,3.7,3.74v8.14h-1.8Z"/>
    <path class="st0" d="M383.61,124.36c0-.67.55-1.2,1.2-1.2s1.22.53,1.22,1.2-.55,1.22-1.22,1.22-1.2-.55-1.2-1.22ZM383.93,139.12v-11.59h1.8v11.59h-1.8Z"/>
    <path class="st0" d="M389.25,136.29c.77.89,2.23,1.66,3.82,1.66,1.78,0,2.74-.79,2.74-1.92,0-1.27-1.42-1.68-2.98-2.06-1.97-.46-4.2-.98-4.2-3.38,0-1.8,1.56-3.34,4.32-3.34,1.97,0,3.36.74,4.3,1.68l-.84,1.25c-.7-.84-1.97-1.46-3.46-1.46-1.58,0-2.57.72-2.57,1.75,0,1.13,1.32,1.49,2.83,1.85,2.02.46,4.34,1.03,4.34,3.6,0,1.94-1.56,3.5-4.56,3.5-1.9,0-3.5-.58-4.68-1.82l.94-1.3Z"/>
    <path class="st0" d="M407.73,139.12v-1.32c-.96,1.06-2.28,1.61-3.84,1.61-1.97,0-4.06-1.32-4.06-3.84s2.09-3.82,4.06-3.82c1.58,0,2.9.5,3.84,1.58v-2.09c0-1.56-1.25-2.45-2.93-2.45-1.39,0-2.52.5-3.55,1.61l-.84-1.25c1.25-1.3,2.74-1.92,4.63-1.92,2.45,0,4.49,1.1,4.49,3.91v7.97h-1.8ZM407.73,134.49c-.7-.96-1.92-1.44-3.19-1.44-1.68,0-2.86,1.06-2.86,2.54s1.18,2.52,2.86,2.52c1.27,0,2.5-.48,3.19-1.44v-2.18Z"/>
    <path class="st0" d="M413.49,136.69v-7.58h-1.92v-1.58h1.92v-3.17h1.8v3.17h2.35v1.58h-2.35v7.2c0,.86.38,1.49,1.18,1.49.5,0,.98-.22,1.22-.48l.53,1.34c-.46.43-1.1.74-2.16.74-1.7,0-2.57-.98-2.57-2.71Z"/>
    <path class="st0" d="M419.88,124.36c0-.67.55-1.2,1.2-1.2s1.22.53,1.22,1.2-.55,1.22-1.22,1.22-1.2-.55-1.2-1.22ZM420.19,139.12v-11.59h1.8v11.59h-1.8Z"/>
    <path class="st0" d="M424.92,133.31c0-3.36,2.21-6.07,5.74-6.07s5.74,2.71,5.74,6.07-2.21,6.1-5.74,6.1-5.74-2.74-5.74-6.1ZM434.49,133.31c0-2.35-1.37-4.46-3.84-4.46s-3.86,2.11-3.86,4.46,1.39,4.49,3.86,4.49,3.84-2.11,3.84-4.49Z"/>
    <path class="st0" d="M447.14,139.12v-7.58c0-2.04-1.03-2.69-2.59-2.69-1.42,0-2.76.86-3.43,1.8v8.47h-1.8v-11.59h1.8v1.68c.82-.96,2.4-1.97,4.13-1.97,2.42,0,3.7,1.22,3.7,3.74v8.14h-1.8Z"/>
    <path class="st0" d="M452.47,136.29c.77.89,2.23,1.66,3.82,1.66,1.78,0,2.74-.79,2.74-1.92,0-1.27-1.42-1.68-2.98-2.06-1.97-.46-4.2-.98-4.2-3.38,0-1.8,1.56-3.34,4.32-3.34,1.97,0,3.36.74,4.3,1.68l-.84,1.25c-.7-.84-1.97-1.46-3.46-1.46-1.58,0-2.57.72-2.57,1.75,0,1.13,1.32,1.49,2.83,1.85,2.02.46,4.34,1.03,4.34,3.6,0,1.94-1.56,3.5-4.56,3.5-1.9,0-3.5-.58-4.68-1.82l.94-1.3Z"/>
    <path class="st0" d="M183.48,167.92v-1.32c-.96,1.06-2.28,1.61-3.84,1.61-1.97,0-4.06-1.32-4.06-3.84s2.09-3.82,4.06-3.82c1.58,0,2.9.5,3.84,1.58v-2.09c0-1.56-1.25-2.45-2.93-2.45-1.39,0-2.52.5-3.55,1.61l-.84-1.25c1.25-1.3,2.74-1.92,4.63-1.92,2.45,0,4.49,1.1,4.49,3.91v7.97h-1.8ZM183.48,163.29c-.7-.96-1.92-1.44-3.19-1.44-1.68,0-2.86,1.06-2.86,2.54s1.18,2.52,2.86,2.52c1.27,0,2.5-.48,3.19-1.44v-2.18Z"/>
    <path class="st0" d="M196.7,167.92v-7.58c0-2.04-1.03-2.69-2.59-2.69-1.42,0-2.76.86-3.43,1.8v8.47h-1.8v-11.59h1.8v1.68c.82-.96,2.4-1.97,4.13-1.97,2.42,0,3.7,1.22,3.7,3.74v8.14h-1.8Z"/>
    <path class="st0" d="M210.5,167.92v-1.73c-.86,1.18-2.28,2.02-3.91,2.02-3.02,0-5.16-2.3-5.16-6.07s2.11-6.1,5.16-6.1c1.56,0,2.98.77,3.91,2.04v-6.17h1.8v16.01h-1.8ZM210.5,159.52c-.65-1.01-2.04-1.87-3.48-1.87-2.33,0-3.72,1.92-3.72,4.49s1.39,4.46,3.72,4.46c1.44,0,2.83-.82,3.48-1.82v-5.26Z"/>
    <path class="st0" d="M229.34,167.92v-1.32c-.96,1.06-2.28,1.61-3.84,1.61-1.97,0-4.06-1.32-4.06-3.84s2.09-3.82,4.06-3.82c1.58,0,2.9.5,3.84,1.58v-2.09c0-1.56-1.25-2.45-2.93-2.45-1.39,0-2.52.5-3.55,1.61l-.84-1.25c1.25-1.3,2.74-1.92,4.63-1.92,2.45,0,4.49,1.1,4.49,3.91v7.97h-1.8ZM229.34,163.29c-.7-.96-1.92-1.44-3.19-1.44-1.68,0-2.86,1.06-2.86,2.54s1.18,2.52,2.86,2.52c1.27,0,2.5-.48,3.19-1.44v-2.18Z"/>
    <path class="st0" d="M236.54,172.33h-1.8v-16.01h1.8v1.73c.84-1.18,2.28-2.02,3.91-2.02,3.05,0,5.16,2.3,5.16,6.07s-2.11,6.1-5.16,6.1c-1.58,0-2.98-.74-3.91-2.04v6.17ZM240,157.65c-1.42,0-2.83.84-3.46,1.85v5.23c.62,1.01,2.04,1.87,3.46,1.87,2.33,0,3.72-1.92,3.72-4.49s-1.39-4.46-3.72-4.46Z"/>
    <path class="st0" d="M250.32,172.33h-1.8v-16.01h1.8v1.73c.84-1.18,2.28-2.02,3.91-2.02,3.05,0,5.16,2.3,5.16,6.07s-2.11,6.1-5.16,6.1c-1.58,0-2.98-.74-3.91-2.04v6.17ZM253.77,157.65c-1.42,0-2.83.84-3.46,1.85v5.23c.62,1.01,2.04,1.87,3.46,1.87,2.33,0,3.72-1.92,3.72-4.49s-1.39-4.46-3.72-4.46Z"/>
    <path class="st0" d="M262.29,167.92v-16.01h1.8v16.01h-1.8Z"/>
    <path class="st0" d="M267.38,153.16c0-.67.55-1.2,1.2-1.2s1.22.53,1.22,1.2-.55,1.22-1.22,1.22-1.2-.55-1.2-1.22ZM267.69,167.92v-11.59h1.8v11.59h-1.8Z"/>
    <path class="st0" d="M278.21,156.04c2.11,0,3.36.86,4.25,2.02l-1.2,1.1c-.77-1.06-1.75-1.51-2.95-1.51-2.47,0-4.01,1.9-4.01,4.46s1.54,4.49,4.01,4.49c1.2,0,2.18-.48,2.95-1.51l1.2,1.1c-.89,1.15-2.14,2.02-4.25,2.02-3.46,0-5.78-2.64-5.78-6.1s2.33-6.07,5.78-6.07Z"/>
    <path class="st0" d="M292.22,167.92v-1.32c-.96,1.06-2.28,1.61-3.84,1.61-1.97,0-4.06-1.32-4.06-3.84s2.09-3.82,4.06-3.82c1.58,0,2.9.5,3.84,1.58v-2.09c0-1.56-1.25-2.45-2.93-2.45-1.39,0-2.52.5-3.55,1.61l-.84-1.25c1.25-1.3,2.74-1.92,4.63-1.92,2.45,0,4.49,1.1,4.49,3.91v7.97h-1.8ZM292.22,163.29c-.7-.96-1.92-1.44-3.19-1.44-1.68,0-2.86,1.06-2.86,2.54s1.18,2.52,2.86,2.52c1.27,0,2.5-.48,3.19-1.44v-2.18Z"/>
    <path class="st0" d="M297.98,165.49v-7.58h-1.92v-1.58h1.92v-3.17h1.8v3.17h2.35v1.58h-2.35v7.2c0,.86.38,1.49,1.18,1.49.5,0,.98-.22,1.22-.48l.53,1.34c-.46.43-1.1.74-2.16.74-1.7,0-2.57-.98-2.57-2.71Z"/>
    <path class="st0" d="M304.37,153.16c0-.67.55-1.2,1.2-1.2s1.22.53,1.22,1.2-.55,1.22-1.22,1.22-1.2-.55-1.2-1.22ZM304.68,167.92v-11.59h1.8v11.59h-1.8Z"/>
    <path class="st0" d="M309.4,162.11c0-3.36,2.21-6.07,5.74-6.07s5.74,2.71,5.74,6.07-2.21,6.1-5.74,6.1-5.74-2.74-5.74-6.1ZM318.98,162.11c0-2.35-1.37-4.46-3.84-4.46s-3.86,2.11-3.86,4.46,1.39,4.49,3.86,4.49,3.84-2.11,3.84-4.49Z"/>
    <path class="st0" d="M331.63,167.92v-7.58c0-2.04-1.03-2.69-2.59-2.69-1.42,0-2.76.86-3.43,1.8v8.47h-1.8v-11.59h1.8v1.68c.82-.96,2.4-1.97,4.13-1.97,2.42,0,3.7,1.22,3.7,3.74v8.14h-1.8Z"/>
    <path class="st0" d="M336.96,165.09c.77.89,2.23,1.66,3.82,1.66,1.78,0,2.74-.79,2.74-1.92,0-1.27-1.42-1.68-2.98-2.06-1.97-.46-4.2-.98-4.2-3.38,0-1.8,1.56-3.34,4.32-3.34,1.97,0,3.36.74,4.3,1.68l-.84,1.25c-.7-.84-1.97-1.46-3.46-1.46-1.58,0-2.57.72-2.57,1.75,0,1.13,1.32,1.49,2.83,1.85,2.02.46,4.34,1.03,4.34,3.6,0,1.94-1.56,3.5-4.56,3.5-1.9,0-3.5-.58-4.68-1.82l.94-1.3Z"/>
    <path class="st0" d="M354.74,165.49v-7.58h-1.92v-1.58h1.92v-3.17h1.8v3.17h2.35v1.58h-2.35v7.2c0,.86.38,1.49,1.18,1.49.5,0,.98-.22,1.22-.48l.53,1.34c-.46.43-1.1.74-2.16.74-1.7,0-2.57-.98-2.57-2.71Z"/>
    <path class="st0" d="M360.77,162.11c0-3.36,2.21-6.07,5.74-6.07s5.74,2.71,5.74,6.07-2.21,6.1-5.74,6.1-5.74-2.74-5.74-6.1ZM370.34,162.11c0-2.35-1.37-4.46-3.84-4.46s-3.86,2.11-3.86,4.46,1.39,4.49,3.86,4.49,3.84-2.11,3.84-4.49Z"/>
    <path class="st0" d="M389.18,167.92v-1.63c-.89,1.01-2.4,1.92-4.13,1.92-2.42,0-3.7-1.18-3.7-3.7v-8.18h1.8v7.63c0,2.04,1.03,2.64,2.59,2.64,1.42,0,2.76-.82,3.43-1.75v-8.52h1.8v11.59h-1.8Z"/>
    <path class="st0" d="M394.51,165.09c.77.89,2.23,1.66,3.82,1.66,1.78,0,2.74-.79,2.74-1.92,0-1.27-1.42-1.68-2.98-2.06-1.97-.46-4.2-.98-4.2-3.38,0-1.8,1.56-3.34,4.32-3.34,1.97,0,3.36.74,4.3,1.68l-.84,1.25c-.7-.84-1.97-1.46-3.46-1.46-1.58,0-2.57.72-2.57,1.75,0,1.13,1.32,1.49,2.83,1.85,2.02.46,4.34,1.03,4.34,3.6,0,1.94-1.56,3.5-4.56,3.5-1.9,0-3.5-.58-4.68-1.82l.94-1.3Z"/>
    <path class="st0" d="M410.78,156.04c3.5,0,5.57,2.74,5.57,6.22v.46h-9.38c.14,2.18,1.68,4.01,4.18,4.01,1.32,0,2.67-.53,3.58-1.46l.86,1.18c-1.15,1.15-2.71,1.78-4.61,1.78-3.43,0-5.9-2.47-5.9-6.1,0-3.36,2.4-6.07,5.71-6.07ZM406.97,161.39h7.61c-.02-1.73-1.18-3.86-3.82-3.86-2.47,0-3.7,2.09-3.79,3.86Z"/>
    <path class="st0" d="M425.81,165.49v-7.58h-1.92v-1.58h1.92v-3.17h1.8v3.17h2.35v1.58h-2.35v7.2c0,.86.38,1.49,1.18,1.49.5,0,.98-.22,1.22-.48l.53,1.34c-.46.43-1.1.74-2.16.74-1.7,0-2.57-.98-2.57-2.71Z"/>
    <path class="st0" d="M431.83,162.11c0-3.36,2.21-6.07,5.74-6.07s5.74,2.71,5.74,6.07-2.21,6.1-5.74,6.1-5.74-2.74-5.74-6.1ZM441.41,162.11c0-2.35-1.37-4.46-3.84-4.46s-3.86,2.11-3.86,4.46,1.39,4.49,3.86,4.49,3.84-2.11,3.84-4.49Z"/>
    <path class="st0" d="M176.23,196.72v-16.01h1.8v6.17c.94-1.27,2.33-2.04,3.91-2.04,3.02,0,5.16,2.4,5.16,6.1s-2.14,6.07-5.16,6.07c-1.63,0-3.05-.84-3.91-2.02v1.73h-1.8ZM178.03,193.57c.62,1.01,2.04,1.82,3.46,1.82,2.35,0,3.74-1.9,3.74-4.46s-1.39-4.49-3.74-4.49c-1.42,0-2.83.86-3.46,1.87v5.26Z"/>
    <path class="st0" d="M197.85,196.72v-1.63c-.89,1.01-2.4,1.92-4.13,1.92-2.42,0-3.7-1.18-3.7-3.7v-8.18h1.8v7.63c0,2.04,1.03,2.64,2.59,2.64,1.42,0,2.76-.82,3.43-1.75v-8.52h1.8v11.59h-1.8Z"/>
    <path class="st0" d="M202.94,181.96c0-.67.55-1.2,1.2-1.2s1.22.53,1.22,1.2-.55,1.22-1.22,1.22-1.2-.55-1.2-1.22ZM203.25,196.72v-11.59h1.8v11.59h-1.8Z"/>
    <path class="st0" d="M208.65,196.72v-16.01h1.8v16.01h-1.8Z"/>
    <path class="st0" d="M222.45,196.72v-1.73c-.86,1.18-2.28,2.02-3.91,2.02-3.02,0-5.16-2.3-5.16-6.07s2.11-6.1,5.16-6.1c1.56,0,2.98.77,3.91,2.04v-6.17h1.8v16.01h-1.8ZM222.45,188.32c-.65-1.01-2.04-1.87-3.48-1.87-2.33,0-3.72,1.92-3.72,4.49s1.39,4.46,3.72,4.46c1.44,0,2.83-.82,3.48-1.82v-5.26Z"/>
    <path class="st0" d="M242.45,196.72v-1.73c-.86,1.18-2.28,2.02-3.91,2.02-3.02,0-5.16-2.3-5.16-6.07s2.11-6.1,5.16-6.1c1.56,0,2.98.77,3.91,2.04v-6.17h1.8v16.01h-1.8ZM242.45,188.32c-.65-1.01-2.04-1.87-3.48-1.87-2.33,0-3.72,1.92-3.72,4.49s1.39,4.46,3.72,4.46c1.44,0,2.83-.82,3.48-1.82v-5.26Z"/>
    <path class="st0" d="M255.09,196.72v-1.32c-.96,1.06-2.28,1.61-3.84,1.61-1.97,0-4.06-1.32-4.06-3.84s2.09-3.82,4.06-3.82c1.58,0,2.9.5,3.84,1.58v-2.09c0-1.56-1.25-2.45-2.93-2.45-1.39,0-2.52.5-3.55,1.61l-.84-1.25c1.25-1.3,2.74-1.92,4.63-1.92,2.45,0,4.49,1.1,4.49,3.91v7.97h-1.8ZM255.09,192.09c-.7-.96-1.92-1.44-3.19-1.44-1.68,0-2.86,1.06-2.86,2.54s1.18,2.52,2.86,2.52c1.27,0,2.5-.48,3.19-1.44v-2.18Z"/>
    <path class="st0" d="M260.85,194.29v-7.58h-1.92v-1.58h1.92v-3.17h1.8v3.17h2.35v1.58h-2.35v7.2c0,.86.38,1.49,1.18,1.49.5,0,.98-.22,1.22-.48l.53,1.34c-.46.43-1.1.74-2.16.74-1.7,0-2.57-.98-2.57-2.71Z"/>
    <path class="st0" d="M274.8,196.72v-1.32c-.96,1.06-2.28,1.61-3.84,1.61-1.97,0-4.06-1.32-4.06-3.84s2.09-3.82,4.06-3.82c1.58,0,2.9.5,3.84,1.58v-2.09c0-1.56-1.25-2.45-2.93-2.45-1.39,0-2.52.5-3.55,1.61l-.84-1.25c1.25-1.3,2.74-1.92,4.63-1.92,2.45,0,4.49,1.1,4.49,3.91v7.97h-1.8ZM274.8,192.09c-.7-.96-1.92-1.44-3.19-1.44-1.68,0-2.86,1.06-2.86,2.54s1.18,2.52,2.86,2.52c1.27,0,2.5-.48,3.19-1.44v-2.18Z"/>
    <path class="st0" d="M279.12,191.7v-1.58h5.76v1.58h-5.76Z"/>
    <path class="st0" d="M295.8,196.72v-1.73c-.86,1.18-2.28,2.02-3.91,2.02-3.02,0-5.16-2.3-5.16-6.07s2.11-6.1,5.16-6.1c1.56,0,2.98.77,3.91,2.04v-6.17h1.8v16.01h-1.8ZM295.8,188.32c-.65-1.01-2.04-1.87-3.48-1.87-2.33,0-3.72,1.92-3.72,4.49s1.39,4.46,3.72,4.46c1.44,0,2.83-.82,3.48-1.82v-5.26Z"/>
    <path class="st0" d="M301.2,196.72v-11.59h1.8v1.87c.94-1.22,2.28-2.11,3.86-2.11v1.85c-.22-.05-.43-.07-.72-.07-1.1,0-2.62.91-3.14,1.85v8.21h-1.8Z"/>
    <path class="st0" d="M308.81,181.96c0-.67.55-1.2,1.2-1.2s1.22.53,1.22,1.2-.55,1.22-1.22,1.22-1.2-.55-1.2-1.22ZM309.12,196.72v-11.59h1.8v11.59h-1.8Z"/>
    <path class="st0" d="M317.61,196.72l-4.82-11.59h1.94l3.86,9.5,3.84-9.5h1.97l-4.83,11.59h-1.97Z"/>
    <path class="st0" d="M331.32,184.84c3.5,0,5.57,2.74,5.57,6.22v.46h-9.38c.14,2.18,1.68,4.01,4.18,4.01,1.32,0,2.67-.53,3.58-1.46l.86,1.18c-1.15,1.15-2.71,1.78-4.61,1.78-3.43,0-5.9-2.47-5.9-6.1,0-3.36,2.4-6.07,5.71-6.07ZM327.5,190.19h7.61c-.02-1.73-1.18-3.86-3.82-3.86-2.47,0-3.7,2.09-3.79,3.86Z"/>
    <path class="st0" d="M347.61,196.72v-7.58c0-2.04-1.03-2.69-2.59-2.69-1.42,0-2.76.86-3.43,1.8v8.47h-1.8v-11.59h1.8v1.68c.82-.96,2.4-1.97,4.13-1.97,2.42,0,3.7,1.22,3.7,3.74v8.14h-1.8Z"/>
    <path class="st0" d="M359.13,193.89c.77.89,2.23,1.66,3.82,1.66,1.78,0,2.74-.79,2.74-1.92,0-1.27-1.42-1.68-2.98-2.06-1.97-.46-4.2-.98-4.2-3.38,0-1.8,1.56-3.34,4.32-3.34,1.97,0,3.36.74,4.3,1.68l-.84,1.25c-.7-.84-1.97-1.46-3.46-1.46-1.58,0-2.57.72-2.57,1.75,0,1.13,1.32,1.49,2.83,1.85,2.02.46,4.34,1.03,4.34,3.6,0,1.94-1.56,3.5-4.56,3.5-1.9,0-3.5-.58-4.68-1.82l.94-1.3Z"/>
    <path class="st0" d="M370.73,194.29v-7.58h-1.92v-1.58h1.92v-3.17h1.8v3.17h2.35v1.58h-2.35v7.2c0,.86.38,1.49,1.18,1.49.5,0,.98-.22,1.22-.48l.53,1.34c-.46.43-1.1.74-2.16.74-1.7,0-2.57-.98-2.57-2.71Z"/>
    <path class="st0" d="M376.75,190.91c0-3.36,2.21-6.07,5.74-6.07s5.74,2.71,5.74,6.07-2.21,6.1-5.74,6.1-5.74-2.74-5.74-6.1ZM386.33,190.91c0-2.35-1.37-4.46-3.84-4.46s-3.86,2.11-3.86,4.46,1.39,4.49,3.86,4.49,3.84-2.11,3.84-4.49Z"/>
    <path class="st0" d="M391.15,196.72v-11.59h1.8v1.87c.94-1.22,2.28-2.11,3.86-2.11v1.85c-.22-.05-.43-.07-.72-.07-1.1,0-2.62.91-3.14,1.85v8.21h-1.8Z"/>
    <path class="st0" d="M398.76,181.96c0-.67.55-1.2,1.2-1.2s1.22.53,1.22,1.2-.55,1.22-1.22,1.22-1.2-.55-1.2-1.22ZM399.07,196.72v-11.59h1.8v11.59h-1.8Z"/>
    <path class="st0" d="M409.51,184.84c3.5,0,5.57,2.74,5.57,6.22v.46h-9.38c.14,2.18,1.68,4.01,4.18,4.01,1.32,0,2.67-.53,3.58-1.46l.86,1.18c-1.15,1.15-2.71,1.78-4.61,1.78-3.43,0-5.9-2.47-5.9-6.1,0-3.36,2.4-6.07,5.71-6.07ZM405.69,190.19h7.61c-.02-1.73-1.18-3.86-3.82-3.86-2.47,0-3.7,2.09-3.79,3.86Z"/>
    <path class="st0" d="M417.91,193.89c.77.89,2.23,1.66,3.82,1.66,1.78,0,2.74-.79,2.74-1.92,0-1.27-1.42-1.68-2.98-2.06-1.97-.46-4.2-.98-4.2-3.38,0-1.8,1.56-3.34,4.32-3.34,1.97,0,3.36.74,4.3,1.68l-.84,1.25c-.7-.84-1.97-1.46-3.46-1.46-1.58,0-2.57.72-2.57,1.75,0,1.13,1.32,1.49,2.83,1.85,2.02.46,4.34,1.03,4.34,3.6,0,1.94-1.56,3.5-4.56,3.5-1.9,0-3.5-.58-4.68-1.82l.94-1.3Z"/>
  </g>
  <g>
    <path class="st0" d="M320.98,644.31v-16.01h7.13c2.78,0,4.49,1.68,4.49,4.08,0,2.02-1.34,3.36-2.81,3.67,1.7.26,3.12,2.02,3.12,3.94,0,2.57-1.7,4.32-4.63,4.32h-7.3ZM322.97,635.24h4.8c1.8,0,2.76-1.1,2.76-2.57s-.96-2.59-2.76-2.59h-4.8v5.16ZM322.97,642.54h4.9c1.87,0,2.98-1.06,2.98-2.76,0-1.46-1.01-2.76-2.98-2.76h-4.9v5.52Z"/>
    <path class="st0" d="M343.25,644.31v-1.32c-.96,1.06-2.28,1.61-3.84,1.61-1.97,0-4.06-1.32-4.06-3.84s2.09-3.82,4.06-3.82c1.58,0,2.9.5,3.84,1.58v-2.09c0-1.56-1.25-2.45-2.93-2.45-1.39,0-2.52.5-3.55,1.61l-.84-1.25c1.25-1.3,2.74-1.92,4.63-1.92,2.45,0,4.49,1.1,4.49,3.91v7.97h-1.8ZM343.25,639.68c-.7-.96-1.92-1.44-3.19-1.44-1.68,0-2.86,1.06-2.86,2.54s1.18,2.52,2.86,2.52c1.27,0,2.5-.48,3.19-1.44v-2.18Z"/>
    <path class="st0" d="M356.48,644.31v-7.58c0-2.04-1.03-2.69-2.59-2.69-1.42,0-2.76.86-3.43,1.8v8.47h-1.8v-11.59h1.8v1.68c.82-.96,2.4-1.97,4.13-1.97,2.42,0,3.7,1.22,3.7,3.74v8.14h-1.8Z"/>
    <path class="st0" d="M369.77,644.31l-4.18-5.21-1.92,1.9v3.31h-1.8v-16.01h1.8v10.58l6.1-6.17h2.28l-5.14,5.26,5.16,6.34h-2.3Z"/>
    <path class="st0" d="M379.73,638.5c0-3.36,2.21-6.07,5.74-6.07s5.74,2.71,5.74,6.07-2.21,6.1-5.74,6.1-5.74-2.74-5.74-6.1ZM389.31,638.5c0-2.35-1.37-4.46-3.84-4.46s-3.86,2.11-3.86,4.46,1.39,4.49,3.86,4.49,3.84-2.11,3.84-4.49Z"/>
    <path class="st0" d="M396.44,634.3v10.01h-1.8v-10.01h-1.92v-1.58h1.92v-.89c0-2.4,1.34-3.77,3.36-3.77.67,0,1.3.12,1.75.41l-.46,1.34c-.29-.17-.62-.26-1.03-.26-1.18,0-1.82.82-1.82,2.28v.89h2.35v1.58h-2.35Z"/>
    <path class="st0" d="M408.92,648.73h-1.8v-16.01h1.8v1.73c.84-1.18,2.28-2.02,3.91-2.02,3.05,0,5.16,2.3,5.16,6.07s-2.11,6.1-5.16,6.1c-1.58,0-2.98-.74-3.91-2.04v6.17ZM412.37,634.04c-1.42,0-2.83.84-3.46,1.85v5.23c.62,1.01,2.04,1.87,3.46,1.87,2.33,0,3.72-1.92,3.72-4.49s-1.39-4.46-3.72-4.46Z"/>
    <path class="st0" d="M420.89,644.31v-16.01h1.8v16.01h-1.8Z"/>
    <path class="st0" d="M433.54,644.31v-1.32c-.96,1.06-2.28,1.61-3.84,1.61-1.97,0-4.06-1.32-4.06-3.84s2.09-3.82,4.06-3.82c1.58,0,2.9.5,3.84,1.58v-2.09c0-1.56-1.25-2.45-2.93-2.45-1.39,0-2.52.5-3.55,1.61l-.84-1.25c1.25-1.3,2.74-1.92,4.63-1.92,2.45,0,4.49,1.1,4.49,3.91v7.97h-1.8ZM433.54,639.68c-.7-.96-1.92-1.44-3.19-1.44-1.68,0-2.86,1.06-2.86,2.54s1.18,2.52,2.86,2.52c1.27,0,2.5-.48,3.19-1.44v-2.18Z"/>
    <path class="st0" d="M438.58,647.22c.26.12.7.19.98.19.79,0,1.32-.26,1.73-1.22l.77-1.75-4.85-11.71h1.94l3.86,9.5,3.84-9.5h1.97l-5.81,13.95c-.7,1.68-1.87,2.33-3.41,2.35-.38,0-.98-.07-1.32-.17l.29-1.63Z"/>
    <path class="st0" d="M450.7,644.31v-16.01h1.8v6.17c.94-1.27,2.33-2.04,3.91-2.04,3.02,0,5.16,2.4,5.16,6.1s-2.14,6.07-5.16,6.07c-1.63,0-3.05-.84-3.91-2.02v1.73h-1.8ZM452.5,641.17c.62,1.01,2.04,1.82,3.46,1.82,2.35,0,3.74-1.9,3.74-4.46s-1.39-4.49-3.74-4.49c-1.42,0-2.83.86-3.46,1.87v5.26Z"/>
    <path class="st0" d="M463.83,638.5c0-3.36,2.21-6.07,5.74-6.07s5.74,2.71,5.74,6.07-2.21,6.1-5.74,6.1-5.74-2.74-5.74-6.1ZM473.4,638.5c0-2.35-1.37-4.46-3.84-4.46s-3.86,2.11-3.86,4.46,1.39,4.49,3.86,4.49,3.84-2.11,3.84-4.49Z"/>
    <path class="st0" d="M477.56,638.5c0-3.36,2.21-6.07,5.74-6.07s5.74,2.71,5.74,6.07-2.21,6.1-5.74,6.1-5.74-2.74-5.74-6.1ZM487.13,638.5c0-2.35-1.37-4.46-3.84-4.46s-3.86,2.11-3.86,4.46,1.39,4.49,3.86,4.49,3.84-2.11,3.84-4.49Z"/>
    <path class="st0" d="M499.85,644.31l-4.18-5.21-1.92,1.9v3.31h-1.8v-16.01h1.8v10.58l6.1-6.17h2.28l-5.14,5.26,5.16,6.34h-2.3Z"/>
    <path class="st0" d="M504.08,641.48c.77.89,2.23,1.66,3.82,1.66,1.78,0,2.74-.79,2.74-1.92,0-1.27-1.42-1.68-2.98-2.06-1.97-.46-4.2-.98-4.2-3.38,0-1.8,1.56-3.34,4.32-3.34,1.97,0,3.36.74,4.3,1.68l-.84,1.25c-.7-.84-1.97-1.46-3.46-1.46-1.58,0-2.57.72-2.57,1.75,0,1.13,1.32,1.49,2.83,1.85,2.02.46,4.34,1.03,4.34,3.6,0,1.94-1.56,3.5-4.56,3.5-1.9,0-3.5-.58-4.68-1.82l.94-1.3Z"/>
    <path class="st0" d="M514.88,646.62c.77-.5,1.46-1.44,1.56-2.23-.05.02-.22.05-.34.05-.67,0-1.15-.5-1.15-1.22s.55-1.3,1.27-1.3c.79,0,1.51.67,1.51,1.82,0,1.46-.86,2.83-1.97,3.62l-.89-.74Z"/>
    <path class="st0" d="M325.95,661.23c3.5,0,5.57,2.74,5.57,6.22v.46h-9.38c.14,2.18,1.68,4.01,4.18,4.01,1.32,0,2.67-.53,3.58-1.46l.86,1.18c-1.15,1.15-2.71,1.78-4.61,1.78-3.43,0-5.9-2.47-5.9-6.1,0-3.36,2.4-6.07,5.71-6.07ZM322.13,666.58h7.61c-.02-1.73-1.18-3.86-3.82-3.86-2.47,0-3.7,2.09-3.79,3.86Z"/>
    <path class="st0" d="M341.16,673.11l-3.48-4.75-3.48,4.75h-2.06l4.44-5.95-4.2-5.64h2.09l3.22,4.42,3.22-4.42h2.09l-4.2,5.64,4.46,5.95h-2.09Z"/>
    <path class="st0" d="M349.61,661.23c3.5,0,5.57,2.74,5.57,6.22v.46h-9.38c.14,2.18,1.68,4.01,4.18,4.01,1.32,0,2.67-.53,3.58-1.46l.86,1.18c-1.15,1.15-2.71,1.78-4.61,1.78-3.43,0-5.9-2.47-5.9-6.1,0-3.36,2.4-6.07,5.71-6.07ZM345.8,666.58h7.61c-.02-1.73-1.18-3.86-3.82-3.86-2.47,0-3.7,2.09-3.79,3.86Z"/>
    <path class="st0" d="M372.08,673.11v-7.87c0-1.46-.65-2.4-2.14-2.4-1.2,0-2.47.86-3.07,1.78v8.5h-1.8v-7.87c0-1.46-.62-2.4-2.14-2.4-1.18,0-2.42.86-3.05,1.8v8.47h-1.8v-11.59h1.8v1.68c.48-.74,2.04-1.97,3.74-1.97s2.78.96,3.12,2.16c.65-1.06,2.21-2.16,3.89-2.16,2.11,0,3.24,1.18,3.24,3.5v8.38h-1.8Z"/>
    <path class="st0" d="M379.28,677.53h-1.8v-16.01h1.8v1.73c.84-1.18,2.28-2.02,3.91-2.02,3.05,0,5.16,2.3,5.16,6.07s-2.11,6.1-5.16,6.1c-1.58,0-2.98-.74-3.91-2.04v6.17ZM382.73,662.84c-1.42,0-2.83.84-3.46,1.85v5.23c.62,1.01,2.04,1.87,3.46,1.87,2.33,0,3.72-1.92,3.72-4.49s-1.39-4.46-3.72-4.46Z"/>
    <path class="st0" d="M391.25,673.11v-16.01h1.8v16.01h-1.8Z"/>
    <path class="st0" d="M403.9,673.11v-1.32c-.96,1.06-2.28,1.61-3.84,1.61-1.97,0-4.06-1.32-4.06-3.84s2.09-3.82,4.06-3.82c1.58,0,2.9.5,3.84,1.58v-2.09c0-1.56-1.25-2.45-2.93-2.45-1.39,0-2.52.5-3.55,1.61l-.84-1.25c1.25-1.3,2.74-1.92,4.63-1.92,2.45,0,4.49,1.1,4.49,3.91v7.97h-1.8ZM403.9,668.48c-.7-.96-1.92-1.44-3.19-1.44-1.68,0-2.86,1.06-2.86,2.54s1.18,2.52,2.86,2.52c1.27,0,2.5-.48,3.19-1.44v-2.18Z"/>
    <path class="st0" d="M409.3,673.11v-11.59h1.8v1.87c.94-1.22,2.28-2.11,3.86-2.11v1.85c-.22-.05-.43-.07-.72-.07-1.1,0-2.62.91-3.14,1.85v8.21h-1.8Z"/>
    <path class="st0" d="M417.15,670.28c.77.89,2.23,1.66,3.82,1.66,1.78,0,2.74-.79,2.74-1.92,0-1.27-1.42-1.68-2.98-2.06-1.97-.46-4.2-.98-4.2-3.38,0-1.8,1.56-3.34,4.32-3.34,1.97,0,3.36.74,4.3,1.68l-.84,1.25c-.7-.84-1.97-1.46-3.46-1.46-1.58,0-2.57.72-2.57,1.75,0,1.13,1.32,1.49,2.83,1.85,2.02.46,4.34,1.03,4.34,3.6,0,1.94-1.56,3.5-4.56,3.5-1.9,0-3.5-.58-4.68-1.82l.94-1.3Z"/>
    <path class="st0" d="M427.95,675.42c.77-.5,1.46-1.44,1.56-2.23-.05.02-.22.05-.34.05-.67,0-1.15-.5-1.15-1.22s.55-1.3,1.27-1.3c.79,0,1.51.67,1.51,1.82,0,1.46-.86,2.83-1.97,3.62l-.89-.74Z"/>
    <path class="st0" d="M440.02,670.28c.77.89,2.23,1.66,3.82,1.66,1.78,0,2.74-.79,2.74-1.92,0-1.27-1.42-1.68-2.98-2.06-1.97-.46-4.2-.98-4.2-3.38,0-1.8,1.56-3.34,4.32-3.34,1.97,0,3.36.74,4.3,1.68l-.84,1.25c-.7-.84-1.97-1.46-3.46-1.46-1.58,0-2.57.72-2.57,1.75,0,1.13,1.32,1.49,2.83,1.85,2.02.46,4.34,1.03,4.34,3.6,0,1.94-1.56,3.5-4.56,3.5-1.9,0-3.5-.58-4.68-1.82l.94-1.3Z"/>
    <path class="st0" d="M451.61,670.69v-7.58h-1.92v-1.58h1.92v-3.17h1.8v3.17h2.35v1.58h-2.35v7.2c0,.86.38,1.49,1.18,1.49.5,0,.98-.22,1.22-.48l.53,1.34c-.46.43-1.1.74-2.16.74-1.7,0-2.57-.98-2.57-2.71Z"/>
    <path class="st0" d="M457.95,676.02c.26.12.7.19.98.19.79,0,1.32-.26,1.73-1.22l.77-1.75-4.85-11.71h1.94l3.86,9.5,3.84-9.5h1.97l-5.81,13.95c-.7,1.68-1.87,2.33-3.41,2.35-.38,0-.98-.07-1.32-.17l.29-1.63Z"/>
    <path class="st0" d="M470.07,673.11v-16.01h1.8v16.01h-1.8Z"/>
    <path class="st0" d="M480.51,661.23c3.5,0,5.57,2.74,5.57,6.22v.46h-9.38c.14,2.18,1.68,4.01,4.18,4.01,1.32,0,2.67-.53,3.58-1.46l.86,1.18c-1.15,1.15-2.71,1.78-4.61,1.78-3.43,0-5.9-2.47-5.9-6.1,0-3.36,2.4-6.07,5.71-6.07ZM476.69,666.58h7.61c-.02-1.73-1.18-3.86-3.82-3.86-2.47,0-3.7,2.09-3.79,3.86Z"/>
    <path class="st0" d="M489.87,674.74c.96,1.15,2.11,1.58,3.77,1.58,1.92,0,3.72-.94,3.72-3.48v-1.66c-.84,1.18-2.26,2.06-3.89,2.06-3.02,0-5.16-2.26-5.16-6s2.11-6.02,5.16-6.02c1.56,0,2.95.77,3.89,2.04v-1.75h1.8v11.26c0,3.84-2.69,5.04-5.52,5.04-1.97,0-3.31-.38-4.68-1.73l.91-1.34ZM497.36,664.71c-.62-1.01-2.02-1.87-3.46-1.87-2.33,0-3.72,1.85-3.72,4.42s1.39,4.42,3.72,4.42c1.44,0,2.83-.89,3.46-1.9v-5.06Z"/>
    <path class="st0" d="M510.58,673.11v-1.63c-.89,1.01-2.4,1.92-4.13,1.92-2.42,0-3.7-1.18-3.7-3.7v-8.18h1.8v7.63c0,2.04,1.03,2.64,2.59,2.64,1.42,0,2.76-.82,3.43-1.75v-8.52h1.8v11.59h-1.8Z"/>
    <path class="st0" d="M515.67,658.35c0-.67.55-1.2,1.2-1.2s1.22.53,1.22,1.2-.55,1.22-1.22,1.22-1.2-.55-1.2-1.22ZM515.98,673.11v-11.59h1.8v11.59h-1.8Z"/>
    <path class="st0" d="M529.78,673.11v-1.73c-.86,1.18-2.28,2.02-3.91,2.02-3.02,0-5.16-2.3-5.16-6.07s2.11-6.1,5.16-6.1c1.56,0,2.98.77,3.91,2.04v-6.17h1.8v16.01h-1.8ZM529.78,664.71c-.65-1.01-2.04-1.87-3.48-1.87-2.33,0-3.72,1.92-3.72,4.49s1.39,4.46,3.72,4.46c1.44,0,2.83-.82,3.48-1.82v-5.26Z"/>
    <path class="st0" d="M540.22,661.23c3.5,0,5.57,2.74,5.57,6.22v.46h-9.38c.14,2.18,1.68,4.01,4.18,4.01,1.32,0,2.67-.53,3.58-1.46l.86,1.18c-1.15,1.15-2.71,1.78-4.61,1.78-3.43,0-5.9-2.47-5.9-6.1,0-3.36,2.4-6.07,5.71-6.07ZM536.4,666.58h7.61c-.02-1.73-1.18-3.86-3.82-3.86-2.47,0-3.7,2.09-3.79,3.86Z"/>
    <path class="st0" d="M548.62,670.28c.77.89,2.23,1.66,3.82,1.66,1.78,0,2.74-.79,2.74-1.92,0-1.27-1.42-1.68-2.98-2.06-1.97-.46-4.2-.98-4.2-3.38,0-1.8,1.56-3.34,4.32-3.34,1.97,0,3.36.74,4.3,1.68l-.84,1.25c-.7-.84-1.97-1.46-3.46-1.46-1.58,0-2.57.72-2.57,1.75,0,1.13,1.32,1.49,2.83,1.85,2.02.46,4.34,1.03,4.34,3.6,0,1.94-1.56,3.5-4.56,3.5-1.9,0-3.5-.58-4.68-1.82l.94-1.3Z"/>
    <path class="st0" d="M573.29,673.11v-1.32c-.96,1.06-2.28,1.61-3.84,1.61-1.97,0-4.06-1.32-4.06-3.84s2.09-3.82,4.06-3.82c1.58,0,2.9.5,3.84,1.58v-2.09c0-1.56-1.25-2.45-2.93-2.45-1.39,0-2.52.5-3.55,1.61l-.84-1.25c1.25-1.3,2.74-1.92,4.63-1.92,2.45,0,4.49,1.1,4.49,3.91v7.97h-1.8ZM573.29,668.48c-.7-.96-1.92-1.44-3.19-1.44-1.68,0-2.86,1.06-2.86,2.54s1.18,2.52,2.86,2.52c1.27,0,2.5-.48,3.19-1.44v-2.18Z"/>
    <path class="st0" d="M586.52,673.11v-7.58c0-2.04-1.03-2.69-2.59-2.69-1.42,0-2.76.86-3.43,1.8v8.47h-1.8v-11.59h1.8v1.68c.82-.96,2.4-1.97,4.13-1.97,2.42,0,3.7,1.22,3.7,3.74v8.14h-1.8Z"/>
    <path class="st0" d="M600.32,673.11v-1.73c-.86,1.18-2.28,2.02-3.91,2.02-3.02,0-5.16-2.3-5.16-6.07s2.11-6.1,5.16-6.1c1.56,0,2.98.77,3.91,2.04v-6.17h1.8v16.01h-1.8ZM600.32,664.71c-.65-1.01-2.04-1.87-3.48-1.87-2.33,0-3.72,1.92-3.72,4.49s1.39,4.46,3.72,4.46c1.44,0,2.83-.82,3.48-1.82v-5.26Z"/>
    <path class="st0" d="M320.91,701.91v-11.59h1.8v1.87c.94-1.22,2.28-2.11,3.86-2.11v1.85c-.22-.05-.43-.07-.72-.07-1.1,0-2.62.91-3.14,1.85v8.21h-1.8Z"/>
    <path class="st0" d="M333.87,690.03c3.5,0,5.57,2.74,5.57,6.22v.46h-9.38c.14,2.18,1.68,4.01,4.18,4.01,1.32,0,2.67-.53,3.58-1.46l.86,1.18c-1.15,1.15-2.71,1.78-4.61,1.78-3.43,0-5.9-2.47-5.9-6.1,0-3.36,2.4-6.07,5.71-6.07ZM330.05,695.38h7.61c-.02-1.73-1.18-3.86-3.82-3.86-2.47,0-3.7,2.09-3.79,3.86Z"/>
    <path class="st0" d="M342.27,699.08c.77.89,2.23,1.66,3.82,1.66,1.78,0,2.74-.79,2.74-1.92,0-1.27-1.42-1.68-2.98-2.06-1.97-.46-4.2-.98-4.2-3.38,0-1.8,1.56-3.34,4.32-3.34,1.97,0,3.36.74,4.3,1.68l-.84,1.25c-.7-.84-1.97-1.46-3.46-1.46-1.58,0-2.57.72-2.57,1.75,0,1.13,1.32,1.49,2.83,1.85,2.02.46,4.34,1.03,4.34,3.6,0,1.94-1.56,3.5-4.56,3.5-1.9,0-3.5-.58-4.68-1.82l.94-1.3Z"/>
    <path class="st0" d="M352.83,696.1c0-3.36,2.21-6.07,5.74-6.07s5.74,2.71,5.74,6.07-2.21,6.1-5.74,6.1-5.74-2.74-5.74-6.1ZM362.4,696.1c0-2.35-1.37-4.46-3.84-4.46s-3.86,2.11-3.86,4.46,1.39,4.49,3.86,4.49,3.84-2.11,3.84-4.49Z"/>
    <path class="st0" d="M375.05,701.91v-1.63c-.89,1.01-2.4,1.92-4.13,1.92-2.42,0-3.7-1.18-3.7-3.7v-8.18h1.8v7.63c0,2.04,1.03,2.64,2.59,2.64,1.42,0,2.76-.82,3.43-1.75v-8.52h1.8v11.59h-1.8Z"/>
    <path class="st0" d="M380.45,701.91v-11.59h1.8v1.87c.94-1.22,2.28-2.11,3.86-2.11v1.85c-.22-.05-.43-.07-.72-.07-1.1,0-2.62.91-3.14,1.85v8.21h-1.8Z"/>
    <path class="st0" d="M393.48,690.03c2.11,0,3.36.86,4.25,2.02l-1.2,1.1c-.77-1.06-1.75-1.51-2.95-1.51-2.47,0-4.01,1.9-4.01,4.46s1.54,4.49,4.01,4.49c1.2,0,2.18-.48,2.95-1.51l1.2,1.1c-.89,1.15-2.14,2.02-4.25,2.02-3.46,0-5.79-2.64-5.79-6.1s2.33-6.07,5.79-6.07Z"/>
    <path class="st0" d="M405.29,690.03c3.5,0,5.57,2.74,5.57,6.22v.46h-9.38c.14,2.18,1.68,4.01,4.18,4.01,1.32,0,2.67-.53,3.58-1.46l.86,1.18c-1.15,1.15-2.71,1.78-4.61,1.78-3.43,0-5.9-2.47-5.9-6.1,0-3.36,2.4-6.07,5.71-6.07ZM401.48,695.38h7.61c-.02-1.73-1.18-3.86-3.82-3.86-2.47,0-3.7,2.09-3.79,3.86Z"/>
    <path class="st0" d="M413.69,699.08c.77.89,2.23,1.66,3.82,1.66,1.78,0,2.74-.79,2.74-1.92,0-1.27-1.42-1.68-2.98-2.06-1.97-.46-4.2-.98-4.2-3.38,0-1.8,1.56-3.34,4.32-3.34,1.97,0,3.36.74,4.3,1.68l-.84,1.25c-.7-.84-1.97-1.46-3.46-1.46-1.58,0-2.57.72-2.57,1.75,0,1.13,1.32,1.49,2.83,1.85,2.02.46,4.34,1.03,4.34,3.6,0,1.94-1.56,3.5-4.56,3.5-1.9,0-3.5-.58-4.68-1.82l.94-1.3Z"/>
    <path class="st0" d="M433.42,691.9v10.01h-1.8v-10.01h-1.92v-1.58h1.92v-.89c0-2.4,1.34-3.77,3.36-3.77.67,0,1.3.12,1.75.41l-.46,1.34c-.29-.17-.62-.26-1.03-.26-1.18,0-1.82.82-1.82,2.28v.89h2.35v1.58h-2.35Z"/>
    <path class="st0" d="M437.23,696.1c0-3.36,2.21-6.07,5.74-6.07s5.74,2.71,5.74,6.07-2.21,6.1-5.74,6.1-5.74-2.74-5.74-6.1ZM446.81,696.1c0-2.35-1.37-4.46-3.84-4.46s-3.86,2.11-3.86,4.46,1.39,4.49,3.86,4.49,3.84-2.11,3.84-4.49Z"/>
    <path class="st0" d="M451.63,701.91v-11.59h1.8v1.87c.94-1.22,2.28-2.11,3.86-2.11v1.85c-.22-.05-.43-.07-.72-.07-1.1,0-2.62.91-3.14,1.85v8.21h-1.8Z"/>
    <path class="st0" d="M474.15,701.91v-1.73c-.86,1.18-2.28,2.02-3.91,2.02-3.02,0-5.16-2.3-5.16-6.07s2.11-6.1,5.16-6.1c1.56,0,2.98.77,3.91,2.04v-6.17h1.8v16.01h-1.8ZM474.15,693.51c-.65-1.01-2.04-1.87-3.48-1.87-2.33,0-3.72,1.92-3.72,4.49s1.39,4.46,3.72,4.46c1.44,0,2.83-.82,3.48-1.82v-5.26Z"/>
    <path class="st0" d="M486.8,701.91v-1.32c-.96,1.06-2.28,1.61-3.84,1.61-1.97,0-4.06-1.32-4.06-3.84s2.09-3.82,4.06-3.82c1.58,0,2.9.5,3.84,1.58v-2.09c0-1.56-1.25-2.45-2.93-2.45-1.39,0-2.52.5-3.55,1.61l-.84-1.25c1.25-1.3,2.74-1.92,4.63-1.92,2.45,0,4.49,1.1,4.49,3.91v7.97h-1.8ZM486.8,697.28c-.7-.96-1.92-1.44-3.19-1.44-1.68,0-2.86,1.06-2.86,2.54s1.18,2.52,2.86,2.52c1.27,0,2.5-.48,3.19-1.44v-2.18Z"/>
    <path class="st0" d="M492.56,699.49v-7.58h-1.92v-1.58h1.92v-3.17h1.8v3.17h2.35v1.58h-2.35v7.2c0,.86.38,1.49,1.18,1.49.5,0,.98-.22,1.22-.48l.53,1.34c-.46.43-1.1.74-2.16.74-1.7,0-2.57-.98-2.57-2.71Z"/>
    <path class="st0" d="M506.5,701.91v-1.32c-.96,1.06-2.28,1.61-3.84,1.61-1.97,0-4.06-1.32-4.06-3.84s2.09-3.82,4.06-3.82c1.58,0,2.9.5,3.84,1.58v-2.09c0-1.56-1.25-2.45-2.93-2.45-1.39,0-2.52.5-3.55,1.61l-.84-1.25c1.25-1.3,2.74-1.92,4.63-1.92,2.45,0,4.49,1.1,4.49,3.91v7.97h-1.8ZM506.5,697.28c-.7-.96-1.92-1.44-3.19-1.44-1.68,0-2.86,1.06-2.86,2.54s1.18,2.52,2.86,2.52c1.27,0,2.5-.48,3.19-1.44v-2.18Z"/>
    <path class="st0" d="M518.02,699.08c.77.89,2.23,1.66,3.82,1.66,1.78,0,2.74-.79,2.74-1.92,0-1.27-1.42-1.68-2.98-2.06-1.97-.46-4.2-.98-4.2-3.38,0-1.8,1.56-3.34,4.32-3.34,1.97,0,3.36.74,4.3,1.68l-.84,1.25c-.7-.84-1.97-1.46-3.46-1.46-1.58,0-2.57.72-2.57,1.75,0,1.13,1.32,1.49,2.83,1.85,2.02.46,4.34,1.03,4.34,3.6,0,1.94-1.56,3.5-4.56,3.5-1.9,0-3.5-.58-4.68-1.82l.94-1.3Z"/>
    <path class="st0" d="M529.61,699.49v-7.58h-1.92v-1.58h1.92v-3.17h1.8v3.17h2.35v1.58h-2.35v7.2c0,.86.38,1.49,1.18,1.49.5,0,.98-.22,1.22-.48l.53,1.34c-.46.43-1.1.74-2.16.74-1.7,0-2.57-.98-2.57-2.71Z"/>
    <path class="st0" d="M535.64,696.1c0-3.36,2.21-6.07,5.74-6.07s5.74,2.71,5.74,6.07-2.21,6.1-5.74,6.1-5.74-2.74-5.74-6.1ZM545.21,696.1c0-2.35-1.37-4.46-3.84-4.46s-3.86,2.11-3.86,4.46,1.39,4.49,3.86,4.49,3.84-2.11,3.84-4.49Z"/>
    <path class="st0" d="M550.03,701.91v-11.59h1.8v1.87c.94-1.22,2.28-2.11,3.86-2.11v1.85c-.22-.05-.43-.07-.72-.07-1.1,0-2.62.91-3.14,1.85v8.21h-1.8Z"/>
    <path class="st0" d="M557.64,687.15c0-.67.55-1.2,1.2-1.2s1.22.53,1.22,1.2-.55,1.22-1.22,1.22-1.2-.55-1.2-1.22ZM557.95,701.91v-11.59h1.8v11.59h-1.8Z"/>
    <path class="st0" d="M568.4,690.03c3.5,0,5.57,2.74,5.57,6.22v.46h-9.38c.14,2.18,1.68,4.01,4.18,4.01,1.32,0,2.67-.53,3.58-1.46l.86,1.18c-1.15,1.15-2.71,1.78-4.61,1.78-3.43,0-5.9-2.47-5.9-6.1,0-3.36,2.4-6.07,5.71-6.07ZM564.58,695.38h7.61c-.02-1.73-1.18-3.86-3.82-3.86-2.47,0-3.7,2.09-3.79,3.86Z"/>
    <path class="st0" d="M576.8,699.08c.77.89,2.23,1.66,3.82,1.66,1.78,0,2.74-.79,2.74-1.92,0-1.27-1.42-1.68-2.98-2.06-1.97-.46-4.2-.98-4.2-3.38,0-1.8,1.56-3.34,4.32-3.34,1.97,0,3.36.74,4.3,1.68l-.84,1.25c-.7-.84-1.97-1.46-3.46-1.46-1.58,0-2.57.72-2.57,1.75,0,1.13,1.32,1.49,2.83,1.85,2.02.46,4.34,1.03,4.34,3.6,0,1.94-1.56,3.5-4.56,3.5-1.9,0-3.5-.58-4.68-1.82l.94-1.3Z"/>
  </g>
  <circle class="st0" cx="123.47" cy="121.91" r="17.69"/>
  <circle class="st0" cx="284.83" cy="641.32" r="17.69"/>
  <circle class="st0" cx="703.09" cy="449.36" r="9.64"/>
  <circle cx="212.93" cy="717.18" r="6.57"/>
  <circle class="st0" cx="796.3" cy="291.18" r="9.64"/>
  <g>
    <path class="st0" d="M180.21,405.17l-14.27-9.09,4.78-7.51c1.73-2.72,4.35-3,6.25-1.79,1.8,1.14,2.29,3.02,1.71,4.54,1.2-1.37,3.46-1.65,5.25-.5,2.14,1.36,2.94,3.89,1.21,6.6l-4.93,7.74ZM173.61,396.7l2.42-3.81c.65-1.03.4-2.09-.52-2.68-.88-.56-1.97-.35-2.62.67l-2.43,3.81,3.15,2ZM179.55,400.49l2.49-3.92c.74-1.16.51-2.26-.52-2.92-.9-.57-2.08-.42-2.84.78l-2.49,3.92,3.36,2.14Z"/>
    <path class="st0" d="M176.21,380.51l2.38-2.77,7.63,6.54c1.79,1.54,3.87,1.61,5.58-.39,1.69-1.96,1.3-4-.5-5.54l-7.63-6.54,2.38-2.77,7.7,6.61c3.2,2.74,3.8,6.44.46,10.33-3.37,3.93-7.14,3.87-10.29,1.16l-7.72-6.63Z"/>
    <path class="st0" d="M201.13,378.15l-11.65-12.27,2.61-2.48,11.65,12.27-2.61,2.48Z"/>
    <path class="st0" d="M205.93,373.58l-10.62-13.18,2.81-2.26,8.63,10.71,5.57-4.49,1.99,2.47-8.38,6.75Z"/>
    <path class="st0" d="M215.87,365.59l-8.86-14.41,5.68-3.5c4.52-2.78,9.42-1.83,12.09,2.51,2.67,4.34,1.29,9.12-3.22,11.9l-5.68,3.5ZM217.28,361.01l2.61-1.61c2.85-1.75,3.25-4.83,1.75-7.27-1.57-2.55-4.33-3.56-7.29-1.74l-2.61,1.61,5.54,9.01Z"/>
    <path class="st0" d="M241.77,346.41c1.51.82,3.6,1.24,5.82.53,1.88-.6,2.51-1.79,2.22-2.71-.39-1.21-1.92-1.17-3.92-1.01-2.83.24-6.44.6-7.6-3-.86-2.68.76-5.6,4.55-6.82,2.56-.82,4.93-.73,7,.23l-1.1,3.12c-1.69-.79-3.61-.79-5.18-.28-1.55.5-2.15,1.44-1.84,2.4.35,1.09,1.81.99,3.81.83,2.85-.25,6.49-.54,7.64,3.04.95,2.95-.44,5.84-4.79,7.24-3.09.99-5.65.67-7.66-.37l1.05-3.21Z"/>
    <path class="st0" d="M260.32,346.52l-2.6-13.51-4.86.93-.6-3.12,13.26-2.55.6,3.12-4.83.93,2.6,13.5-3.56.69Z"/>
    <path class="st0" d="M276.86,327.05c5.12-.29,9.05,3.14,9.34,8.23.29,5.09-3.22,8.95-8.34,9.24-5.09.29-9.02-3.14-9.31-8.23-.29-5.09,3.22-8.95,8.31-9.24ZM277.04,330.24c-3.12.18-4.98,2.67-4.8,5.84.18,3.14,2.32,5.43,5.43,5.25,3.12-.18,5-2.7,4.82-5.84-.18-3.17-2.34-5.43-5.46-5.25Z"/>
    <path class="st0" d="M298.2,344.72l-2.8-6.32-2.63-.22-.51,6.04-3.59-.31,1.43-16.86,7.89.67c3.51.3,5.47,2.78,5.2,5.92-.25,2.98-2.26,4.42-4.12,4.69l3.25,6.75-4.12-.35ZM297.2,330.75l-3.77-.32-.4,4.65,3.77.32c1.44.12,2.61-.7,2.73-2.11.12-1.42-.89-2.42-2.33-2.54Z"/>
    <path class="st0" d="M304.47,345.61l3.01-16.65,3.54.64-3.01,16.65-3.54-.64Z"/>
    <path class="st0" d="M310.96,346.74l4.47-16.33,11.55,3.16-.82,2.99-8.08-2.21-.97,3.55,7.91,2.16-.82,2.99-7.91-2.16-1.04,3.79,8.08,2.21-.82,3.01-11.55-3.16Z"/>
    <path class="st0" d="M327.39,346.23c.63,1.6,1.95,3.27,4.11,4.15,1.83.75,3.08.25,3.45-.64.48-1.17-.72-2.13-2.35-3.3-2.32-1.64-5.32-3.69-3.88-7.19,1.07-2.61,4.19-3.8,7.88-2.28,2.49,1.02,4.25,2.62,5.21,4.69l-2.86,1.68c-.79-1.69-2.26-2.93-3.78-3.55-1.5-.62-2.57-.29-2.96.65-.43,1.06.75,1.92,2.38,3.09,2.34,1.65,5.31,3.77,3.89,7.24-1.17,2.87-4.1,4.19-8.33,2.46-3.01-1.23-4.75-3.13-5.62-5.21l2.87-1.79Z"/>
  </g>
  <line class="st11" x1="403.94" y1="475.16" x2="686.11" y2="449.56"/>
  <line class="st11" x1="241.29" y1="315.82" x2="131.66" y2="149.35"/>
  <line class="st11" x1="284.83" y1="583.34" x2="284.83" y2="613.8"/>
  <circle class="st0" cx="527.17" cy="262.32" r="13.26"/>
  <line class="st11" x1="540.43" y1="287.19" x2="693.43" y2="434.96"/>
  <line class="st11" x1="548.9" y1="262.32" x2="779.96" y2="287.19"/>
  <line class="st11" x1="268.71" y1="662.35" x2="221.54" y2="709"/>
  <line class="st11" x1="131.66" y1="95.59" x2="302.51" y2="-46.09"/>
  <circle class="st0" cx="284.83" cy="463.68" r="109.83"/>
  <g>
    <rect class="st10" x="231.74" y="415.84" width="44.85" height="39.17"/>
    <g>
      <rect class="st16" x="239.26" y="412.58" width="3.48" height="6.29"/>
      <rect class="st16" x="265.58" y="412.58" width="3.48" height="6.29"/>
    </g>
    <g>
      <rect class="st10" x="289.2" y="432.76" width="43.11" height="31.91"/>
      <rect class="st16" x="309.02" y="429.51" width="3.48" height="6.29"/>
    </g>
    <rect class="st10" x="283.51" y="407.61" width="22.15" height="16.46"/>
    <rect class="st10" x="231.74" y="464.68" width="46.78" height="55.08"/>
    <line class="st10" x1="240.8" y1="472.25" x2="270.47" y2="472.25"/>
    <line class="st10" x1="240.8" y1="479.99" x2="270.47" y2="479.99"/>
    <line class="st10" x1="240.8" y1="487.73" x2="270.47" y2="487.73"/>
    <line class="st10" x1="240.8" y1="495.46" x2="270.47" y2="495.46"/>
    <line class="st10" x1="240.8" y1="503.2" x2="270.47" y2="503.2"/>
    <line class="st10" x1="240.8" y1="510.94" x2="270.47" y2="510.94"/>
    <rect class="st10" x="295.52" y="479.23" width="34.33" height="9.18" rx="2.81" ry="2.81"/>
    <line class="st10" x1="312.69" y1="488.41" x2="312.69" y2="495.82"/>
    <rect class="st10" x="308.48" y="497.56" width="8.4" height="8.4" transform="translate(-263.22 368.07) rotate(-45)"/>
    <rect class="st10" x="287.45" y="509.45" width="12.59" height="10.31"/>
    <polyline class="st10" points="306.74 501.76 293.75 501.76 293.75 509.04"/>
    <g>
      <rect class="st10" x="325.33" y="509.45" width="12.59" height="10.31" transform="translate(663.25 1029.2) rotate(-180)"/>
      <polyline class="st10" points="318.63 501.76 331.63 501.76 331.63 509.04"/>
    </g>
    <path class="st10" d="M332,453.6l-9.04-9.04-11.12,11.12-6.81-6.81-15.81,15.81h43.11s-.32-12.13-.32-11.08Z"/>
    <circle class="st16" cx="319.91" cy="438.52" r="2.88"/>
    <line class="st10" x1="289.2" y1="412.58" x2="300.25" y2="412.58"/>
    <line class="st10" x1="289.2" y1="418.87" x2="300.25" y2="418.87"/>
    <line class="st10" x1="307.17" y1="483.82" x2="318.21" y2="483.82"/>
  </g>
  <circle class="st0" cx="527.17" cy="531.16" r="5.71"/>
  <circle class="st0" cx="796.3" cy="665.22" r="5.71"/>
  <circle class="st0" cx="1065.43" cy="127.9" r="2.85"/>
  <circle class="st0" cx="930.87" cy="262.16" r="2.85"/>
  <circle class="st0" cx="527.17" cy="127.9" r="2.85"/>
  <circle class="st0" cx="123.47" cy="396.74" r="2.85"/>
  <g>
    <path class="st0" d="M728.6,355.31c1.06,1.18,2.78,2.28,5.04,2.28,2.86,0,3.77-1.54,3.77-2.76,0-1.92-1.94-2.45-4.06-3.02-2.57-.67-5.42-1.39-5.42-4.54,0-2.64,2.35-4.44,5.5-4.44,2.45,0,4.34.82,5.69,2.23l-1.2,1.46c-1.2-1.32-2.88-1.92-4.63-1.92-1.92,0-3.29,1.03-3.29,2.54,0,1.61,1.85,2.09,3.89,2.64,2.62.7,5.59,1.51,5.59,4.87,0,2.33-1.58,4.7-5.9,4.7-2.78,0-4.82-1.06-6.14-2.54l1.18-1.51Z"/>
    <path class="st0" d="M750.23,359.08v-7.63c0-2.04-1.06-2.64-2.62-2.64-1.39,0-2.74.86-3.43,1.8v8.47h-1.8v-16.01h1.8v6.1c.82-.96,2.4-1.97,4.15-1.97,2.42,0,3.7,1.18,3.7,3.7v8.18h-1.8Z"/>
    <path class="st0" d="M754.95,353.27c0-3.36,2.21-6.07,5.74-6.07s5.74,2.71,5.74,6.07-2.21,6.1-5.74,6.1-5.74-2.74-5.74-6.1ZM764.53,353.27c0-2.35-1.37-4.46-3.84-4.46s-3.86,2.11-3.86,4.46,1.39,4.49,3.86,4.49,3.84-2.11,3.84-4.49Z"/>
    <path class="st0" d="M779.39,359.08l-3.02-9.31-3.02,9.31h-1.8l-3.7-11.59h1.87l2.83,9.24,3.05-9.24h1.54l3.05,9.24,2.83-9.24h1.87l-3.7,11.59h-1.8Z"/>
    <path class="st0" d="M792.08,347.2c2.11,0,3.36.86,4.25,2.02l-1.2,1.1c-.77-1.06-1.75-1.51-2.95-1.51-2.47,0-4.01,1.9-4.01,4.46s1.54,4.49,4.01,4.49c1.2,0,2.18-.48,2.95-1.51l1.2,1.1c-.89,1.15-2.14,2.02-4.25,2.02-3.46,0-5.78-2.64-5.78-6.1s2.33-6.07,5.78-6.07Z"/>
    <path class="st0" d="M806.1,359.08v-1.32c-.96,1.06-2.28,1.61-3.84,1.61-1.97,0-4.06-1.32-4.06-3.84s2.09-3.82,4.06-3.82c1.58,0,2.9.5,3.84,1.58v-2.09c0-1.56-1.25-2.45-2.93-2.45-1.39,0-2.52.5-3.55,1.61l-.84-1.25c1.25-1.3,2.74-1.92,4.63-1.92,2.45,0,4.49,1.1,4.49,3.91v7.97h-1.8ZM806.1,354.45c-.7-.96-1.92-1.44-3.19-1.44-1.68,0-2.86,1.06-2.86,2.54s1.18,2.52,2.86,2.52c1.27,0,2.5-.48,3.19-1.44v-2.18Z"/>
    <path class="st0" d="M811.43,356.25c.77.89,2.23,1.66,3.82,1.66,1.78,0,2.74-.79,2.74-1.92,0-1.27-1.42-1.68-2.98-2.06-1.97-.46-4.2-.98-4.2-3.38,0-1.8,1.56-3.34,4.32-3.34,1.97,0,3.36.74,4.3,1.68l-.84,1.25c-.7-.84-1.97-1.46-3.46-1.46-1.58,0-2.57.72-2.57,1.75,0,1.13,1.32,1.49,2.83,1.85,2.02.46,4.34,1.03,4.34,3.6,0,1.94-1.56,3.5-4.56,3.5-1.9,0-3.5-.58-4.68-1.82l.94-1.3Z"/>
    <path class="st0" d="M827.7,347.2c3.5,0,5.57,2.74,5.57,6.22v.46h-9.38c.14,2.18,1.68,4.01,4.18,4.01,1.32,0,2.67-.53,3.58-1.46l.86,1.18c-1.15,1.15-2.71,1.78-4.61,1.78-3.43,0-5.9-2.47-5.9-6.1,0-3.36,2.4-6.07,5.71-6.07ZM823.88,352.55h7.61c-.02-1.73-1.18-3.86-3.82-3.86-2.47,0-3.7,2.09-3.79,3.86Z"/>
    <path class="st0" d="M847.4,347.2c3.5,0,5.57,2.74,5.57,6.22v.46h-9.38c.14,2.18,1.68,4.01,4.18,4.01,1.32,0,2.67-.53,3.58-1.46l.86,1.18c-1.15,1.15-2.71,1.78-4.61,1.78-3.43,0-5.9-2.47-5.9-6.1,0-3.36,2.4-6.07,5.71-6.07ZM843.59,352.55h7.61c-.02-1.73-1.18-3.86-3.82-3.86-2.47,0-3.7,2.09-3.79,3.86Z"/>
    <path class="st0" d="M862.62,359.08l-3.48-4.75-3.48,4.75h-2.06l4.44-5.95-4.2-5.64h2.09l3.22,4.42,3.22-4.42h2.09l-4.2,5.64,4.46,5.95h-2.09Z"/>
    <path class="st0" d="M871.07,347.2c3.5,0,5.57,2.74,5.57,6.22v.46h-9.38c.14,2.18,1.68,4.01,4.18,4.01,1.32,0,2.67-.53,3.58-1.46l.86,1.18c-1.15,1.15-2.71,1.78-4.61,1.78-3.43,0-5.9-2.47-5.9-6.1,0-3.36,2.4-6.07,5.71-6.07ZM867.25,352.55h7.61c-.02-1.73-1.18-3.86-3.82-3.86-2.47,0-3.7,2.09-3.79,3.86Z"/>
    <path class="st0" d="M893.53,359.08v-7.87c0-1.46-.65-2.4-2.14-2.4-1.2,0-2.47.86-3.07,1.78v8.5h-1.8v-7.87c0-1.46-.62-2.4-2.14-2.4-1.18,0-2.42.86-3.05,1.8v8.47h-1.8v-11.59h1.8v1.68c.48-.74,2.04-1.97,3.74-1.97s2.78.96,3.12,2.16c.65-1.06,2.21-2.16,3.89-2.16,2.11,0,3.24,1.18,3.24,3.5v8.38h-1.8Z"/>
    <path class="st0" d="M900.73,363.5h-1.8v-16.01h1.8v1.73c.84-1.18,2.28-2.02,3.91-2.02,3.05,0,5.16,2.3,5.16,6.07s-2.11,6.1-5.16,6.1c-1.58,0-2.98-.74-3.91-2.04v6.17ZM904.19,348.81c-1.42,0-2.83.84-3.46,1.85v5.23c.62,1.01,2.04,1.87,3.46,1.87,2.33,0,3.72-1.92,3.72-4.49s-1.39-4.46-3.72-4.46Z"/>
    <path class="st0" d="M912.71,359.08v-16.01h1.8v16.01h-1.8Z"/>
    <path class="st0" d="M925.35,359.08v-1.32c-.96,1.06-2.28,1.61-3.84,1.61-1.97,0-4.06-1.32-4.06-3.84s2.09-3.82,4.06-3.82c1.58,0,2.9.5,3.84,1.58v-2.09c0-1.56-1.25-2.45-2.93-2.45-1.39,0-2.52.5-3.55,1.61l-.84-1.25c1.25-1.3,2.74-1.92,4.63-1.92,2.45,0,4.49,1.1,4.49,3.91v7.97h-1.8ZM925.35,354.45c-.7-.96-1.92-1.44-3.19-1.44-1.68,0-2.86,1.06-2.86,2.54s1.18,2.52,2.86,2.52c1.27,0,2.5-.48,3.19-1.44v-2.18Z"/>
    <path class="st0" d="M930.75,359.08v-11.59h1.8v1.87c.94-1.22,2.28-2.11,3.86-2.11v1.85c-.22-.05-.43-.07-.72-.07-1.1,0-2.62.91-3.14,1.85v8.21h-1.8Z"/>
    <path class="st0" d="M938.6,356.25c.77.89,2.23,1.66,3.82,1.66,1.78,0,2.74-.79,2.74-1.92,0-1.27-1.42-1.68-2.98-2.06-1.97-.46-4.2-.98-4.2-3.38,0-1.8,1.56-3.34,4.32-3.34,1.97,0,3.36.74,4.3,1.68l-.84,1.25c-.7-.84-1.97-1.46-3.46-1.46-1.58,0-2.57.72-2.57,1.75,0,1.13,1.32,1.49,2.83,1.85,2.02.46,4.34,1.03,4.34,3.6,0,1.94-1.56,3.5-4.56,3.5-1.9,0-3.5-.58-4.68-1.82l.94-1.3Z"/>
    <path class="st0" d="M963.27,359.08v-1.32c-.96,1.06-2.28,1.61-3.84,1.61-1.97,0-4.06-1.32-4.06-3.84s2.09-3.82,4.06-3.82c1.58,0,2.9.5,3.84,1.58v-2.09c0-1.56-1.25-2.45-2.93-2.45-1.39,0-2.52.5-3.55,1.61l-.84-1.25c1.25-1.3,2.74-1.92,4.63-1.92,2.45,0,4.49,1.1,4.49,3.91v7.97h-1.8ZM963.27,354.45c-.7-.96-1.92-1.44-3.19-1.44-1.68,0-2.86,1.06-2.86,2.54s1.18,2.52,2.86,2.52c1.27,0,2.5-.48,3.19-1.44v-2.18Z"/>
    <path class="st0" d="M968.67,359.08v-11.59h1.8v1.87c.94-1.22,2.28-2.11,3.86-2.11v1.85c-.22-.05-.43-.07-.72-.07-1.1,0-2.62.91-3.14,1.85v8.21h-1.8Z"/>
    <path class="st0" d="M975.92,353.27c0-3.36,2.21-6.07,5.74-6.07s5.74,2.71,5.74,6.07-2.21,6.1-5.74,6.1-5.74-2.74-5.74-6.1ZM985.5,353.27c0-2.35-1.37-4.46-3.84-4.46s-3.86,2.11-3.86,4.46,1.39,4.49,3.86,4.49,3.84-2.11,3.84-4.49Z"/>
    <path class="st0" d="M998.15,359.08v-1.63c-.89,1.01-2.4,1.92-4.13,1.92-2.42,0-3.7-1.18-3.7-3.7v-8.18h1.8v7.63c0,2.04,1.03,2.64,2.59,2.64,1.42,0,2.76-.82,3.43-1.75v-8.52h1.8v11.59h-1.8Z"/>
    <path class="st0" d="M1011.37,359.08v-7.58c0-2.04-1.03-2.69-2.59-2.69-1.42,0-2.76.86-3.43,1.8v8.47h-1.8v-11.59h1.8v1.68c.82-.96,2.4-1.97,4.13-1.97,2.42,0,3.7,1.22,3.7,3.74v8.14h-1.8Z"/>
    <path class="st0" d="M1025.17,359.08v-1.73c-.86,1.18-2.28,2.02-3.91,2.02-3.02,0-5.16-2.3-5.16-6.07s2.11-6.1,5.16-6.1c1.56,0,2.98.77,3.91,2.04v-6.17h1.8v16.01h-1.8ZM1025.17,350.68c-.65-1.01-2.04-1.87-3.48-1.87-2.33,0-3.72,1.92-3.72,4.49s1.39,4.46,3.72,4.46c1.44,0,2.83-.82,3.48-1.82v-5.26Z"/>
    <path class="st0" d="M736.16,387.88v-7.63c0-2.04-1.06-2.64-2.62-2.64-1.39,0-2.74.86-3.43,1.8v8.47h-1.8v-16.01h1.8v6.1c.82-.96,2.4-1.97,4.15-1.97,2.42,0,3.7,1.18,3.7,3.7v8.18h-1.8Z"/>
    <path class="st0" d="M740.89,382.07c0-3.36,2.21-6.07,5.74-6.07s5.74,2.71,5.74,6.07-2.21,6.1-5.74,6.1-5.74-2.74-5.74-6.1ZM750.47,382.07c0-2.35-1.37-4.46-3.84-4.46s-3.86,2.11-3.86,4.46,1.39,4.49,3.86,4.49,3.84-2.11,3.84-4.49Z"/>
    <path class="st0" d="M765.32,387.88l-3.02-9.31-3.02,9.31h-1.8l-3.7-11.59h1.87l2.83,9.24,3.05-9.24h1.54l3.05,9.24,2.83-9.24h1.87l-3.7,11.59h-1.8Z"/>
    <path class="st0" d="M779.46,385.46v-7.58h-1.92v-1.58h1.92v-3.17h1.8v3.17h2.35v1.58h-2.35v7.2c0,.86.38,1.49,1.18,1.49.5,0,.98-.22,1.22-.48l.53,1.34c-.46.43-1.1.74-2.16.74-1.7,0-2.57-.98-2.57-2.71Z"/>
    <path class="st0" d="M785.48,382.07c0-3.36,2.21-6.07,5.74-6.07s5.74,2.71,5.74,6.07-2.21,6.1-5.74,6.1-5.74-2.74-5.74-6.1ZM795.06,382.07c0-2.35-1.37-4.46-3.84-4.46s-3.86,2.11-3.86,4.46,1.39,4.49,3.86,4.49,3.84-2.11,3.84-4.49Z"/>
    <path class="st0" d="M806.07,387.88v-16.01h1.8v6.17c.94-1.27,2.33-2.04,3.91-2.04,3.02,0,5.16,2.4,5.16,6.1s-2.14,6.07-5.16,6.07c-1.63,0-3.05-.84-3.91-2.02v1.73h-1.8ZM807.87,384.74c.62,1.01,2.04,1.82,3.46,1.82,2.35,0,3.74-1.9,3.74-4.46s-1.39-4.49-3.74-4.49c-1.42,0-2.83.86-3.46,1.87v5.26Z"/>
    <path class="st0" d="M827.7,387.88v-1.63c-.89,1.01-2.4,1.92-4.13,1.92-2.42,0-3.7-1.18-3.7-3.7v-8.18h1.8v7.63c0,2.04,1.03,2.64,2.59,2.64,1.42,0,2.76-.82,3.43-1.75v-8.52h1.8v11.59h-1.8Z"/>
    <path class="st0" d="M832.79,373.12c0-.67.55-1.2,1.2-1.2s1.22.53,1.22,1.2-.55,1.22-1.22,1.22-1.2-.55-1.2-1.22ZM833.1,387.88v-11.59h1.8v11.59h-1.8Z"/>
    <path class="st0" d="M838.5,387.88v-16.01h1.8v16.01h-1.8Z"/>
    <path class="st0" d="M852.3,387.88v-1.73c-.86,1.18-2.28,2.02-3.91,2.02-3.02,0-5.16-2.3-5.16-6.07s2.11-6.1,5.16-6.1c1.56,0,2.98.77,3.91,2.04v-6.17h1.8v16.01h-1.8ZM852.3,379.48c-.65-1.01-2.04-1.87-3.48-1.87-2.33,0-3.72,1.92-3.72,4.49s1.39,4.46,3.72,4.46c1.44,0,2.83-.82,3.48-1.82v-5.26Z"/>
    <path class="st0" d="M869,376c2.11,0,3.36.86,4.25,2.02l-1.2,1.1c-.77-1.06-1.75-1.51-2.95-1.51-2.47,0-4.01,1.9-4.01,4.46s1.54,4.49,4.01,4.49c1.2,0,2.18-.48,2.95-1.51l1.2,1.1c-.89,1.15-2.14,2.02-4.25,2.02-3.46,0-5.78-2.64-5.78-6.1s2.33-6.07,5.78-6.07Z"/>
    <path class="st0" d="M875.77,387.88v-11.59h1.8v1.87c.94-1.22,2.28-2.11,3.86-2.11v1.85c-.22-.05-.43-.07-.72-.07-1.1,0-2.62.91-3.14,1.85v8.21h-1.8Z"/>
    <path class="st0" d="M888.73,376c3.5,0,5.57,2.74,5.57,6.22v.46h-9.38c.14,2.18,1.68,4.01,4.18,4.01,1.32,0,2.67-.53,3.58-1.46l.86,1.18c-1.15,1.15-2.71,1.78-4.61,1.78-3.43,0-5.9-2.47-5.9-6.1,0-3.36,2.4-6.07,5.71-6.07ZM884.91,381.35h7.61c-.02-1.73-1.18-3.86-3.82-3.86-2.47,0-3.7,2.09-3.79,3.86Z"/>
    <path class="st0" d="M904.45,387.88v-1.32c-.96,1.06-2.28,1.61-3.84,1.61-1.97,0-4.06-1.32-4.06-3.84s2.09-3.82,4.06-3.82c1.58,0,2.9.5,3.84,1.58v-2.09c0-1.56-1.25-2.45-2.93-2.45-1.39,0-2.52.5-3.55,1.61l-.84-1.25c1.25-1.3,2.74-1.92,4.63-1.92,2.45,0,4.49,1.1,4.49,3.91v7.97h-1.8ZM904.45,383.25c-.7-.96-1.92-1.44-3.19-1.44-1.68,0-2.86,1.06-2.86,2.54s1.18,2.52,2.86,2.52c1.27,0,2.5-.48,3.19-1.44v-2.18Z"/>
    <path class="st0" d="M910.21,385.46v-7.58h-1.92v-1.58h1.92v-3.17h1.8v3.17h2.35v1.58h-2.35v7.2c0,.86.38,1.49,1.18,1.49.5,0,.98-.22,1.22-.48l.53,1.34c-.46.43-1.1.74-2.16.74-1.7,0-2.57-.98-2.57-2.71Z"/>
    <path class="st0" d="M916.59,373.12c0-.67.55-1.2,1.2-1.2s1.22.53,1.22,1.2-.55,1.22-1.22,1.22-1.2-.55-1.2-1.22ZM916.91,387.88v-11.59h1.8v11.59h-1.8Z"/>
    <path class="st0" d="M925.4,387.88l-4.82-11.59h1.94l3.86,9.5,3.84-9.5h1.97l-4.83,11.59h-1.97Z"/>
    <path class="st0" d="M939.11,376c3.5,0,5.57,2.74,5.57,6.22v.46h-9.38c.14,2.18,1.68,4.01,4.18,4.01,1.32,0,2.67-.53,3.58-1.46l.86,1.18c-1.15,1.15-2.71,1.78-4.61,1.78-3.43,0-5.9-2.47-5.9-6.1,0-3.36,2.4-6.07,5.71-6.07ZM935.29,381.35h7.61c-.02-1.73-1.18-3.86-3.82-3.86-2.47,0-3.7,2.09-3.79,3.86Z"/>
    <path class="st0" d="M961.02,387.88v-1.32c-.96,1.06-2.28,1.61-3.84,1.61-1.97,0-4.06-1.32-4.06-3.84s2.09-3.82,4.06-3.82c1.58,0,2.9.5,3.84,1.58v-2.09c0-1.56-1.25-2.45-2.93-2.45-1.39,0-2.52.5-3.55,1.61l-.84-1.25c1.25-1.3,2.74-1.92,4.63-1.92,2.45,0,4.49,1.1,4.49,3.91v7.97h-1.8ZM961.02,383.25c-.7-.96-1.92-1.44-3.19-1.44-1.68,0-2.86,1.06-2.86,2.54s1.18,2.52,2.86,2.52c1.27,0,2.5-.48,3.19-1.44v-2.18Z"/>
    <path class="st0" d="M974.24,387.88v-7.58c0-2.04-1.03-2.69-2.59-2.69-1.42,0-2.76.86-3.43,1.8v8.47h-1.8v-11.59h1.8v1.68c.82-.96,2.4-1.97,4.13-1.97,2.42,0,3.7,1.22,3.7,3.74v8.14h-1.8Z"/>
    <path class="st0" d="M988.04,387.88v-1.73c-.86,1.18-2.28,2.02-3.91,2.02-3.02,0-5.16-2.3-5.16-6.07s2.11-6.1,5.16-6.1c1.56,0,2.98.77,3.91,2.04v-6.17h1.8v16.01h-1.8ZM988.04,379.48c-.65-1.01-2.04-1.87-3.48-1.87-2.33,0-3.72,1.92-3.72,4.49s1.39,4.46,3.72,4.46c1.44,0,2.83-.82,3.48-1.82v-5.26Z"/>
    <path class="st0" d="M1001.94,377.87v10.01h-1.8v-10.01h-1.92v-1.58h1.92v-.89c0-2.4,1.34-3.77,3.36-3.77.67,0,1.3.12,1.75.41l-.46,1.34c-.29-.17-.62-.26-1.03-.26-1.18,0-1.82.82-1.82,2.28v.89h2.35v1.58h-2.35Z"/>
    <path class="st0" d="M1006.43,387.88v-11.59h1.8v1.87c.94-1.22,2.28-2.11,3.86-2.11v1.85c-.22-.05-.43-.07-.72-.07-1.1,0-2.62.91-3.14,1.85v8.21h-1.8Z"/>
    <path class="st0" d="M1019.39,376c3.5,0,5.57,2.74,5.57,6.22v.46h-9.38c.14,2.18,1.68,4.01,4.18,4.01,1.32,0,2.67-.53,3.58-1.46l.86,1.18c-1.15,1.15-2.71,1.78-4.61,1.78-3.43,0-5.9-2.47-5.9-6.1,0-3.36,2.4-6.07,5.71-6.07ZM1015.57,381.35h7.61c-.02-1.73-1.18-3.86-3.82-3.86-2.47,0-3.7,2.09-3.79,3.86Z"/>
    <path class="st0" d="M1027.79,385.05c.77.89,2.23,1.66,3.82,1.66,1.78,0,2.74-.79,2.74-1.92,0-1.27-1.42-1.68-2.98-2.06-1.97-.46-4.2-.98-4.2-3.38,0-1.8,1.56-3.34,4.32-3.34,1.97,0,3.36.74,4.3,1.68l-.84,1.25c-.7-.84-1.97-1.46-3.46-1.46-1.58,0-2.57.72-2.57,1.75,0,1.13,1.32,1.49,2.83,1.85,2.02.46,4.34,1.03,4.34,3.6,0,1.94-1.56,3.5-4.56,3.5-1.9,0-3.5-.58-4.68-1.82l.94-1.3Z"/>
    <path class="st0" d="M1046.87,387.88v-7.63c0-2.04-1.06-2.64-2.62-2.64-1.39,0-2.74.86-3.43,1.8v8.47h-1.8v-16.01h1.8v6.1c.82-.96,2.4-1.97,4.15-1.97,2.42,0,3.7,1.18,3.7,3.7v8.18h-1.8Z"/>
    <path class="st0" d="M736.72,416.68v-1.73c-.86,1.18-2.28,2.02-3.91,2.02-3.02,0-5.16-2.3-5.16-6.07s2.11-6.1,5.16-6.1c1.56,0,2.98.77,3.91,2.04v-6.17h1.8v16.01h-1.8ZM736.72,408.28c-.65-1.01-2.04-1.87-3.48-1.87-2.33,0-3.72,1.92-3.72,4.49s1.39,4.46,3.72,4.46c1.44,0,2.83-.82,3.48-1.82v-5.26Z"/>
    <path class="st0" d="M749.36,416.68v-1.32c-.96,1.06-2.28,1.61-3.84,1.61-1.97,0-4.06-1.32-4.06-3.84s2.09-3.82,4.06-3.82c1.58,0,2.9.5,3.84,1.58v-2.09c0-1.56-1.25-2.45-2.93-2.45-1.39,0-2.52.5-3.55,1.61l-.84-1.25c1.25-1.3,2.74-1.92,4.63-1.92,2.45,0,4.49,1.1,4.49,3.91v7.97h-1.8ZM749.36,412.05c-.7-.96-1.92-1.44-3.19-1.44-1.68,0-2.86,1.06-2.86,2.54s1.18,2.52,2.86,2.52c1.27,0,2.5-.48,3.19-1.44v-2.18Z"/>
    <path class="st0" d="M755.12,414.26v-7.58h-1.92v-1.58h1.92v-3.17h1.8v3.17h2.35v1.58h-2.35v7.2c0,.86.38,1.49,1.18,1.49.5,0,.98-.22,1.22-.48l.53,1.34c-.46.43-1.1.74-2.16.74-1.7,0-2.57-.98-2.57-2.71Z"/>
    <path class="st0" d="M769.07,416.68v-1.32c-.96,1.06-2.28,1.61-3.84,1.61-1.97,0-4.06-1.32-4.06-3.84s2.09-3.82,4.06-3.82c1.58,0,2.9.5,3.84,1.58v-2.09c0-1.56-1.25-2.45-2.93-2.45-1.39,0-2.52.5-3.55,1.61l-.84-1.25c1.25-1.3,2.74-1.92,4.63-1.92,2.45,0,4.49,1.1,4.49,3.91v7.97h-1.8ZM769.07,412.05c-.7-.96-1.92-1.44-3.19-1.44-1.68,0-2.86,1.06-2.86,2.54s1.18,2.52,2.86,2.52c1.27,0,2.5-.48,3.19-1.44v-2.18Z"/>
    <path class="st0" d="M773.39,411.66v-1.58h5.76v1.58h-5.76Z"/>
    <path class="st0" d="M790.07,416.68v-1.73c-.86,1.18-2.28,2.02-3.91,2.02-3.02,0-5.16-2.3-5.16-6.07s2.11-6.1,5.16-6.1c1.56,0,2.98.77,3.91,2.04v-6.17h1.8v16.01h-1.8ZM790.07,408.28c-.65-1.01-2.04-1.87-3.48-1.87-2.33,0-3.72,1.92-3.72,4.49s1.39,4.46,3.72,4.46c1.44,0,2.83-.82,3.48-1.82v-5.26Z"/>
    <path class="st0" d="M795.47,416.68v-11.59h1.8v1.87c.94-1.22,2.28-2.11,3.86-2.11v1.85c-.22-.05-.43-.07-.72-.07-1.1,0-2.62.91-3.14,1.85v8.21h-1.8Z"/>
    <path class="st0" d="M803.07,401.92c0-.67.55-1.2,1.2-1.2s1.22.53,1.22,1.2-.55,1.22-1.22,1.22-1.2-.55-1.2-1.22ZM803.39,416.68v-11.59h1.8v11.59h-1.8Z"/>
    <path class="st0" d="M811.88,416.68l-4.82-11.59h1.94l3.86,9.5,3.84-9.5h1.97l-4.83,11.59h-1.97Z"/>
    <path class="st0" d="M825.59,404.8c3.5,0,5.57,2.74,5.57,6.22v.46h-9.38c.14,2.18,1.68,4.01,4.18,4.01,1.32,0,2.67-.53,3.58-1.46l.86,1.18c-1.15,1.15-2.71,1.78-4.61,1.78-3.43,0-5.9-2.47-5.9-6.1,0-3.36,2.4-6.07,5.71-6.07ZM821.77,410.15h7.61c-.02-1.73-1.18-3.86-3.82-3.86-2.47,0-3.7,2.09-3.79,3.86Z"/>
    <path class="st0" d="M848.07,416.68v-7.58c0-2.04-1.03-2.69-2.59-2.69-1.42,0-2.76.86-3.43,1.8v8.47h-1.8v-11.59h1.8v1.68c.82-.96,2.4-1.97,4.13-1.97,2.42,0,3.7,1.22,3.7,3.74v8.14h-1.8Z"/>
    <path class="st0" d="M860.72,416.68v-1.32c-.96,1.06-2.28,1.61-3.84,1.61-1.97,0-4.06-1.32-4.06-3.84s2.09-3.82,4.06-3.82c1.58,0,2.9.5,3.84,1.58v-2.09c0-1.56-1.25-2.45-2.93-2.45-1.39,0-2.52.5-3.55,1.61l-.84-1.25c1.25-1.3,2.74-1.92,4.63-1.92,2.45,0,4.49,1.1,4.49,3.91v7.97h-1.8ZM860.72,412.05c-.7-.96-1.92-1.44-3.19-1.44-1.68,0-2.86,1.06-2.86,2.54s1.18,2.52,2.86,2.52c1.27,0,2.5-.48,3.19-1.44v-2.18Z"/>
    <path class="st0" d="M866.12,416.68v-11.59h1.8v1.87c.94-1.22,2.28-2.11,3.86-2.11v1.85c-.22-.05-.43-.07-.72-.07-1.1,0-2.62.91-3.14,1.85v8.21h-1.8Z"/>
    <path class="st0" d="M874.04,416.68v-11.59h1.8v1.87c.94-1.22,2.28-2.11,3.86-2.11v1.85c-.22-.05-.43-.07-.72-.07-1.1,0-2.62.91-3.14,1.85v8.21h-1.8Z"/>
    <path class="st0" d="M889.21,416.68v-1.32c-.96,1.06-2.28,1.61-3.84,1.61-1.97,0-4.06-1.32-4.06-3.84s2.09-3.82,4.06-3.82c1.58,0,2.9.5,3.84,1.58v-2.09c0-1.56-1.25-2.45-2.93-2.45-1.39,0-2.52.5-3.55,1.61l-.84-1.25c1.25-1.3,2.74-1.92,4.63-1.92,2.45,0,4.49,1.1,4.49,3.91v7.97h-1.8ZM889.21,412.05c-.7-.96-1.92-1.44-3.19-1.44-1.68,0-2.86,1.06-2.86,2.54s1.18,2.52,2.86,2.52c1.27,0,2.5-.48,3.19-1.44v-2.18Z"/>
    <path class="st0" d="M894.97,414.26v-7.58h-1.92v-1.58h1.92v-3.17h1.8v3.17h2.35v1.58h-2.35v7.2c0,.86.38,1.49,1.18,1.49.5,0,.98-.22,1.22-.48l.53,1.34c-.46.43-1.1.74-2.16.74-1.7,0-2.57-.98-2.57-2.71Z"/>
    <path class="st0" d="M901.35,401.92c0-.67.55-1.2,1.2-1.2s1.22.53,1.22,1.2-.55,1.22-1.22,1.22-1.2-.55-1.2-1.22ZM901.67,416.68v-11.59h1.8v11.59h-1.8Z"/>
    <path class="st0" d="M910.16,416.68l-4.82-11.59h1.94l3.86,9.5,3.84-9.5h1.97l-4.83,11.59h-1.97Z"/>
    <path class="st0" d="M923.87,404.8c3.5,0,5.57,2.74,5.57,6.22v.46h-9.38c.14,2.18,1.68,4.01,4.18,4.01,1.32,0,2.67-.53,3.58-1.46l.86,1.18c-1.15,1.15-2.71,1.78-4.61,1.78-3.43,0-5.9-2.47-5.9-6.1,0-3.36,2.4-6.07,5.71-6.07ZM920.05,410.15h7.61c-.02-1.73-1.18-3.86-3.82-3.86-2.47,0-3.7,2.09-3.79,3.86Z"/>
    <path class="st0" d="M932.27,413.85c.77.89,2.23,1.66,3.82,1.66,1.78,0,2.74-.79,2.74-1.92,0-1.27-1.42-1.68-2.98-2.06-1.97-.46-4.2-.98-4.2-3.38,0-1.8,1.56-3.34,4.32-3.34,1.97,0,3.36.74,4.3,1.68l-.84,1.25c-.7-.84-1.97-1.46-3.46-1.46-1.58,0-2.57.72-2.57,1.75,0,1.13,1.32,1.49,2.83,1.85,2.02.46,4.34,1.03,4.34,3.6,0,1.94-1.56,3.5-4.56,3.5-1.9,0-3.5-.58-4.68-1.82l.94-1.3Z"/>
    <path class="st0" d="M943.07,418.98c.77-.5,1.46-1.44,1.56-2.23-.05.02-.22.05-.34.05-.67,0-1.15-.5-1.15-1.22s.55-1.3,1.27-1.3c.79,0,1.51.67,1.51,1.82,0,1.46-.86,2.83-1.97,3.62l-.89-.74Z"/>
    <path class="st0" d="M962.46,416.68v-1.32c-.96,1.06-2.28,1.61-3.84,1.61-1.97,0-4.06-1.32-4.06-3.84s2.09-3.82,4.06-3.82c1.58,0,2.9.5,3.84,1.58v-2.09c0-1.56-1.25-2.45-2.93-2.45-1.39,0-2.52.5-3.55,1.61l-.84-1.25c1.25-1.3,2.74-1.92,4.63-1.92,2.45,0,4.49,1.1,4.49,3.91v7.97h-1.8ZM962.46,412.05c-.7-.96-1.92-1.44-3.19-1.44-1.68,0-2.86,1.06-2.86,2.54s1.18,2.52,2.86,2.52c1.27,0,2.5-.48,3.19-1.44v-2.18Z"/>
    <path class="st0" d="M975.68,416.68v-7.58c0-2.04-1.03-2.69-2.59-2.69-1.42,0-2.76.86-3.43,1.8v8.47h-1.8v-11.59h1.8v1.68c.82-.96,2.4-1.97,4.13-1.97,2.42,0,3.7,1.22,3.7,3.74v8.14h-1.8Z"/>
    <path class="st0" d="M989.48,416.68v-1.73c-.86,1.18-2.28,2.02-3.91,2.02-3.02,0-5.16-2.3-5.16-6.07s2.11-6.1,5.16-6.1c1.56,0,2.98.77,3.91,2.04v-6.17h1.8v16.01h-1.8ZM989.48,408.28c-.65-1.01-2.04-1.87-3.48-1.87-2.33,0-3.72,1.92-3.72,4.49s1.39,4.46,3.72,4.46c1.44,0,2.83-.82,3.48-1.82v-5.26Z"/>
    <path class="st0" d="M1008.92,416.68v-7.63c0-2.04-1.06-2.64-2.62-2.64-1.39,0-2.74.86-3.43,1.8v8.47h-1.8v-16.01h1.8v6.1c.82-.96,2.4-1.97,4.15-1.97,2.42,0,3.7,1.18,3.7,3.7v8.18h-1.8Z"/>
    <path class="st0" d="M1013.65,410.87c0-3.36,2.21-6.07,5.74-6.07s5.74,2.71,5.74,6.07-2.21,6.1-5.74,6.1-5.74-2.74-5.74-6.1ZM1023.23,410.87c0-2.35-1.37-4.46-3.84-4.46s-3.86,2.11-3.86,4.46,1.39,4.49,3.86,4.49,3.84-2.11,3.84-4.49Z"/>
    <path class="st0" d="M1038.08,416.68l-3.02-9.31-3.02,9.31h-1.8l-3.7-11.59h1.87l2.83,9.24,3.05-9.24h1.54l3.05,9.24,2.83-9.24h1.87l-3.7,11.59h-1.8Z"/>
    <path class="st0" d="M738.35,445.48l-3.02-9.31-3.02,9.31h-1.8l-3.7-11.59h1.87l2.83,9.24,3.05-9.24h1.54l3.05,9.24,2.83-9.24h1.87l-3.7,11.59h-1.8Z"/>
    <path class="st0" d="M750.97,433.6c3.5,0,5.57,2.74,5.57,6.22v.46h-9.38c.14,2.18,1.68,4.01,4.18,4.01,1.32,0,2.67-.53,3.58-1.46l.86,1.18c-1.15,1.15-2.71,1.78-4.61,1.78-3.43,0-5.9-2.47-5.9-6.1,0-3.36,2.4-6.07,5.71-6.07ZM747.15,438.95h7.61c-.02-1.73-1.18-3.86-3.82-3.86-2.47,0-3.7,2.09-3.79,3.86Z"/>
    <path class="st0" d="M770.75,433.6c2.11,0,3.36.86,4.25,2.02l-1.2,1.1c-.77-1.06-1.75-1.51-2.95-1.51-2.47,0-4.01,1.9-4.01,4.46s1.54,4.49,4.01,4.49c1.2,0,2.18-.48,2.95-1.51l1.2,1.1c-.89,1.15-2.14,2.02-4.25,2.02-3.46,0-5.78-2.64-5.78-6.1s2.33-6.07,5.78-6.07Z"/>
    <path class="st0" d="M784.76,445.48v-1.32c-.96,1.06-2.28,1.61-3.84,1.61-1.97,0-4.06-1.32-4.06-3.84s2.09-3.82,4.06-3.82c1.58,0,2.9.5,3.84,1.58v-2.09c0-1.56-1.25-2.45-2.93-2.45-1.39,0-2.52.5-3.55,1.61l-.84-1.25c1.25-1.3,2.74-1.92,4.63-1.92,2.45,0,4.49,1.1,4.49,3.91v7.97h-1.8ZM784.76,440.85c-.7-.96-1.92-1.44-3.19-1.44-1.68,0-2.86,1.06-2.86,2.54s1.18,2.52,2.86,2.52c1.27,0,2.5-.48,3.19-1.44v-2.18Z"/>
    <path class="st0" d="M797.99,445.48v-7.58c0-2.04-1.03-2.69-2.59-2.69-1.42,0-2.76.86-3.43,1.8v8.47h-1.8v-11.59h1.8v1.68c.82-.96,2.4-1.97,4.13-1.97,2.42,0,3.7,1.22,3.7,3.74v8.14h-1.8Z"/>
    <path class="st0" d="M809.27,430.72c0-.67.55-1.2,1.2-1.2s1.22.53,1.22,1.2-.55,1.22-1.22,1.22-1.2-.55-1.2-1.22ZM809.58,445.48v-11.59h1.8v11.59h-1.8Z"/>
    <path class="st0" d="M828.97,445.48v-7.87c0-1.46-.65-2.4-2.14-2.4-1.2,0-2.47.86-3.07,1.78v8.5h-1.8v-7.87c0-1.46-.62-2.4-2.14-2.4-1.18,0-2.42.86-3.05,1.8v8.47h-1.8v-11.59h1.8v1.68c.48-.74,2.04-1.97,3.74-1.97s2.78.96,3.12,2.16c.65-1.06,2.21-2.16,3.89-2.16,2.11,0,3.24,1.18,3.24,3.5v8.38h-1.8Z"/>
    <path class="st0" d="M841.62,445.48v-1.32c-.96,1.06-2.28,1.61-3.84,1.61-1.97,0-4.06-1.32-4.06-3.84s2.09-3.82,4.06-3.82c1.58,0,2.9.5,3.84,1.58v-2.09c0-1.56-1.25-2.45-2.93-2.45-1.39,0-2.52.5-3.55,1.61l-.84-1.25c1.25-1.3,2.74-1.92,4.63-1.92,2.45,0,4.49,1.1,4.49,3.91v7.97h-1.8ZM841.62,440.85c-.7-.96-1.92-1.44-3.19-1.44-1.68,0-2.86,1.06-2.86,2.54s1.18,2.52,2.86,2.52c1.27,0,2.5-.48,3.19-1.44v-2.18Z"/>
    <path class="st0" d="M847.91,447.11c.96,1.15,2.11,1.58,3.77,1.58,1.92,0,3.72-.94,3.72-3.48v-1.66c-.84,1.18-2.26,2.06-3.89,2.06-3.02,0-5.16-2.26-5.16-6s2.11-6.02,5.16-6.02c1.56,0,2.95.77,3.89,2.04v-1.75h1.8v11.26c0,3.84-2.69,5.04-5.52,5.04-1.97,0-3.31-.38-4.68-1.73l.91-1.34ZM855.39,437.08c-.62-1.01-2.02-1.87-3.46-1.87-2.33,0-3.72,1.85-3.72,4.42s1.39,4.42,3.72,4.42c1.44,0,2.83-.89,3.46-1.9v-5.06Z"/>
    <path class="st0" d="M860.48,430.72c0-.67.55-1.2,1.2-1.2s1.22.53,1.22,1.2-.55,1.22-1.22,1.22-1.2-.55-1.2-1.22ZM860.79,445.48v-11.59h1.8v11.59h-1.8Z"/>
    <path class="st0" d="M874.02,445.48v-7.58c0-2.04-1.03-2.69-2.59-2.69-1.42,0-2.76.86-3.43,1.8v8.47h-1.8v-11.59h1.8v1.68c.82-.96,2.4-1.97,4.13-1.97,2.42,0,3.7,1.22,3.7,3.74v8.14h-1.8Z"/>
    <path class="st0" d="M884.46,433.6c3.5,0,5.57,2.74,5.57,6.22v.46h-9.38c.14,2.18,1.68,4.01,4.18,4.01,1.32,0,2.67-.53,3.58-1.46l.86,1.18c-1.15,1.15-2.71,1.78-4.61,1.78-3.43,0-5.9-2.47-5.9-6.1,0-3.36,2.4-6.07,5.71-6.07ZM880.64,438.95h7.61c-.02-1.73-1.18-3.86-3.82-3.86-2.47,0-3.7,2.09-3.79,3.86Z"/>
    <path class="st0" d="M906.37,445.48v-1.32c-.96,1.06-2.28,1.61-3.84,1.61-1.97,0-4.06-1.32-4.06-3.84s2.09-3.82,4.06-3.82c1.58,0,2.9.5,3.84,1.58v-2.09c0-1.56-1.25-2.45-2.93-2.45-1.39,0-2.52.5-3.55,1.61l-.84-1.25c1.25-1.3,2.74-1.92,4.63-1.92,2.45,0,4.49,1.1,4.49,3.91v7.97h-1.8ZM906.37,440.85c-.7-.96-1.92-1.44-3.19-1.44-1.68,0-2.86,1.06-2.86,2.54s1.18,2.52,2.86,2.52c1.27,0,2.5-.48,3.19-1.44v-2.18Z"/>
    <path class="st0" d="M919.6,445.48v-7.58c0-2.04-1.03-2.69-2.59-2.69-1.42,0-2.76.86-3.43,1.8v8.47h-1.8v-11.59h1.8v1.68c.82-.96,2.4-1.97,4.13-1.97,2.42,0,3.7,1.22,3.7,3.74v8.14h-1.8Z"/>
    <path class="st0" d="M933.39,445.48v-1.73c-.86,1.18-2.28,2.02-3.91,2.02-3.02,0-5.16-2.3-5.16-6.07s2.11-6.1,5.16-6.1c1.56,0,2.98.77,3.91,2.04v-6.17h1.8v16.01h-1.8ZM933.39,437.08c-.65-1.01-2.04-1.87-3.48-1.87-2.33,0-3.72,1.92-3.72,4.49s1.39,4.46,3.72,4.46c1.44,0,2.83-.82,3.48-1.82v-5.26Z"/>
    <path class="st0" d="M946.79,449.9h-1.8v-16.01h1.8v1.73c.84-1.18,2.28-2.02,3.91-2.02,3.05,0,5.16,2.3,5.16,6.07s-2.11,6.1-5.16,6.1c-1.58,0-2.98-.74-3.91-2.04v6.17ZM950.24,435.21c-1.42,0-2.83.84-3.46,1.85v5.23c.62,1.01,2.04,1.87,3.46,1.87,2.33,0,3.72-1.92,3.72-4.49s-1.39-4.46-3.72-4.46Z"/>
    <path class="st0" d="M958.76,445.48v-16.01h1.8v16.01h-1.8Z"/>
    <path class="st0" d="M971.41,445.48v-1.32c-.96,1.06-2.28,1.61-3.84,1.61-1.97,0-4.06-1.32-4.06-3.84s2.09-3.82,4.06-3.82c1.58,0,2.9.5,3.84,1.58v-2.09c0-1.56-1.25-2.45-2.93-2.45-1.39,0-2.52.5-3.55,1.61l-.84-1.25c1.25-1.3,2.74-1.92,4.63-1.92,2.45,0,4.49,1.1,4.49,3.91v7.97h-1.8ZM971.41,440.85c-.7-.96-1.92-1.44-3.19-1.44-1.68,0-2.86,1.06-2.86,2.54s1.18,2.52,2.86,2.52c1.27,0,2.5-.48,3.19-1.44v-2.18Z"/>
    <path class="st0" d="M976.45,448.38c.26.12.7.19.98.19.79,0,1.32-.26,1.73-1.22l.77-1.75-4.85-11.71h1.94l3.86,9.5,3.84-9.5h1.97l-5.81,13.95c-.7,1.68-1.87,2.33-3.41,2.35-.38,0-.98-.07-1.32-.17l.29-1.63Z"/>
    <path class="st0" d="M1004.8,445.48l-3.02-9.31-3.02,9.31h-1.8l-3.7-11.59h1.87l2.83,9.24,3.05-9.24h1.54l3.05,9.24,2.83-9.24h1.87l-3.7,11.59h-1.8Z"/>
    <path class="st0" d="M1012.07,430.72c0-.67.55-1.2,1.2-1.2s1.22.53,1.22,1.2-.55,1.22-1.22,1.22-1.2-.55-1.2-1.22ZM1012.38,445.48v-11.59h1.8v11.59h-1.8Z"/>
    <path class="st0" d="M1018.14,443.06v-7.58h-1.92v-1.58h1.92v-3.17h1.8v3.17h2.35v1.58h-2.35v7.2c0,.86.38,1.49,1.18,1.49.5,0,.98-.22,1.22-.48l.53,1.34c-.46.43-1.1.74-2.16.74-1.7,0-2.57-.98-2.57-2.71Z"/>
    <path class="st0" d="M1032.68,445.48v-7.63c0-2.04-1.06-2.64-2.62-2.64-1.39,0-2.74.86-3.43,1.8v8.47h-1.8v-16.01h1.8v6.1c.82-.96,2.4-1.97,4.15-1.97,2.42,0,3.7,1.18,3.7,3.7v8.18h-1.8Z"/>
    <path class="st0" d="M728.67,471.86v-7.58h-1.92v-1.58h1.92v-3.17h1.8v3.17h2.35v1.58h-2.35v7.2c0,.86.38,1.49,1.18,1.49.5,0,.98-.22,1.22-.48l.53,1.34c-.46.43-1.1.74-2.16.74-1.7,0-2.57-.98-2.57-2.71Z"/>
    <path class="st0" d="M743.22,474.28v-7.63c0-2.04-1.06-2.64-2.62-2.64-1.39,0-2.74.86-3.43,1.8v8.47h-1.8v-16.01h1.8v6.1c.82-.96,2.4-1.97,4.15-1.97,2.42,0,3.7,1.18,3.7,3.7v8.18h-1.8Z"/>
    <path class="st0" d="M753.66,462.4c3.5,0,5.57,2.74,5.57,6.22v.46h-9.38c.14,2.18,1.68,4.01,4.18,4.01,1.32,0,2.67-.53,3.58-1.46l.86,1.18c-1.15,1.15-2.71,1.78-4.61,1.78-3.43,0-5.9-2.47-5.9-6.1,0-3.36,2.4-6.07,5.71-6.07ZM749.84,467.75h7.61c-.02-1.73-1.18-3.86-3.82-3.86-2.47,0-3.7,2.09-3.79,3.86Z"/>
    <path class="st0" d="M770.12,478.7h-1.8v-16.01h1.8v1.73c.84-1.18,2.28-2.02,3.91-2.02,3.05,0,5.16,2.3,5.16,6.07s-2.11,6.1-5.16,6.1c-1.58,0-2.98-.74-3.91-2.04v6.17ZM773.58,464.01c-1.42,0-2.83.84-3.46,1.85v5.23c.62,1.01,2.04,1.87,3.46,1.87,2.33,0,3.72-1.92,3.72-4.49s-1.39-4.46-3.72-4.46Z"/>
    <path class="st0" d="M781.43,468.47c0-3.36,2.21-6.07,5.74-6.07s5.74,2.71,5.74,6.07-2.21,6.1-5.74,6.1-5.74-2.74-5.74-6.1ZM791,468.47c0-2.35-1.37-4.46-3.84-4.46s-3.86,2.11-3.86,4.46,1.39,4.49,3.86,4.49,3.84-2.11,3.84-4.49Z"/>
    <path class="st0" d="M795.75,471.45c.77.89,2.23,1.66,3.82,1.66,1.78,0,2.74-.79,2.74-1.92,0-1.27-1.42-1.68-2.98-2.06-1.97-.46-4.2-.98-4.2-3.38,0-1.8,1.56-3.34,4.32-3.34,1.97,0,3.36.74,4.3,1.68l-.84,1.25c-.7-.84-1.97-1.46-3.46-1.46-1.58,0-2.57.72-2.57,1.75,0,1.13,1.32,1.49,2.83,1.85,2.02.46,4.34,1.03,4.34,3.6,0,1.94-1.56,3.5-4.56,3.5-1.9,0-3.5-.58-4.68-1.82l.94-1.3Z"/>
    <path class="st0" d="M806.91,471.45c.77.89,2.23,1.66,3.82,1.66,1.78,0,2.74-.79,2.74-1.92,0-1.27-1.42-1.68-2.98-2.06-1.97-.46-4.2-.98-4.2-3.38,0-1.8,1.56-3.34,4.32-3.34,1.97,0,3.36.74,4.3,1.68l-.84,1.25c-.7-.84-1.97-1.46-3.46-1.46-1.58,0-2.57.72-2.57,1.75,0,1.13,1.32,1.49,2.83,1.85,2.02.46,4.34,1.03,4.34,3.6,0,1.94-1.56,3.5-4.56,3.5-1.9,0-3.5-.58-4.68-1.82l.94-1.3Z"/>
    <path class="st0" d="M817.83,459.52c0-.67.55-1.2,1.2-1.2s1.22.53,1.22,1.2-.55,1.22-1.22,1.22-1.2-.55-1.2-1.22ZM818.15,474.28v-11.59h1.8v11.59h-1.8Z"/>
    <path class="st0" d="M823.55,474.28v-16.01h1.8v6.17c.94-1.27,2.33-2.04,3.91-2.04,3.02,0,5.16,2.4,5.16,6.1s-2.14,6.07-5.16,6.07c-1.63,0-3.05-.84-3.91-2.02v1.73h-1.8ZM825.35,471.14c.62,1.01,2.04,1.82,3.46,1.82,2.35,0,3.74-1.9,3.74-4.46s-1.39-4.49-3.74-4.49c-1.42,0-2.83.86-3.46,1.87v5.26Z"/>
    <path class="st0" d="M837.03,459.52c0-.67.55-1.2,1.2-1.2s1.22.53,1.22,1.2-.55,1.22-1.22,1.22-1.2-.55-1.2-1.22ZM837.35,474.28v-11.59h1.8v11.59h-1.8Z"/>
    <path class="st0" d="M842.75,474.28v-16.01h1.8v16.01h-1.8Z"/>
    <path class="st0" d="M847.83,459.52c0-.67.55-1.2,1.2-1.2s1.22.53,1.22,1.2-.55,1.22-1.22,1.22-1.2-.55-1.2-1.22ZM848.15,474.28v-11.59h1.8v11.59h-1.8Z"/>
    <path class="st0" d="M853.91,471.86v-7.58h-1.92v-1.58h1.92v-3.17h1.8v3.17h2.35v1.58h-2.35v7.2c0,.86.38,1.49,1.18,1.49.5,0,.98-.22,1.22-.48l.53,1.34c-.46.43-1.1.74-2.16.74-1.7,0-2.57-.98-2.57-2.71Z"/>
    <path class="st0" d="M860.29,459.52c0-.67.55-1.2,1.2-1.2s1.22.53,1.22,1.2-.55,1.22-1.22,1.22-1.2-.55-1.2-1.22ZM860.6,474.28v-11.59h1.8v11.59h-1.8Z"/>
    <path class="st0" d="M871.04,462.4c3.5,0,5.57,2.74,5.57,6.22v.46h-9.38c.14,2.18,1.68,4.01,4.18,4.01,1.32,0,2.67-.53,3.58-1.46l.86,1.18c-1.15,1.15-2.71,1.78-4.61,1.78-3.43,0-5.9-2.47-5.9-6.1,0-3.36,2.4-6.07,5.71-6.07ZM867.23,467.75h7.61c-.02-1.73-1.18-3.86-3.82-3.86-2.47,0-3.7,2.09-3.79,3.86Z"/>
    <path class="st0" d="M879.44,471.45c.77.89,2.23,1.66,3.82,1.66,1.78,0,2.74-.79,2.74-1.92,0-1.27-1.42-1.68-2.98-2.06-1.97-.46-4.2-.98-4.2-3.38,0-1.8,1.56-3.34,4.32-3.34,1.97,0,3.36.74,4.3,1.68l-.84,1.25c-.7-.84-1.97-1.46-3.46-1.46-1.58,0-2.57.72-2.57,1.75,0,1.13,1.32,1.49,2.83,1.85,2.02.46,4.34,1.03,4.34,3.6,0,1.94-1.56,3.5-4.56,3.5-1.9,0-3.5-.58-4.68-1.82l.94-1.3Z"/>
    <path class="st0" d="M904.11,474.28v-1.32c-.96,1.06-2.28,1.61-3.84,1.61-1.97,0-4.06-1.32-4.06-3.84s2.09-3.82,4.06-3.82c1.58,0,2.9.5,3.84,1.58v-2.09c0-1.56-1.25-2.45-2.93-2.45-1.39,0-2.52.5-3.55,1.61l-.84-1.25c1.25-1.3,2.74-1.92,4.63-1.92,2.45,0,4.49,1.1,4.49,3.91v7.97h-1.8ZM904.11,469.65c-.7-.96-1.92-1.44-3.19-1.44-1.68,0-2.86,1.06-2.86,2.54s1.18,2.52,2.86,2.52c1.27,0,2.5-.48,3.19-1.44v-2.18Z"/>
    <path class="st0" d="M909.51,474.28v-11.59h1.8v1.87c.94-1.22,2.28-2.11,3.86-2.11v1.85c-.22-.05-.43-.07-.72-.07-1.1,0-2.62.91-3.14,1.85v8.21h-1.8Z"/>
    <path class="st0" d="M916.76,468.47c0-3.36,2.21-6.07,5.74-6.07s5.74,2.71,5.74,6.07-2.21,6.1-5.74,6.1-5.74-2.74-5.74-6.1ZM926.34,468.47c0-2.35-1.37-4.46-3.84-4.46s-3.86,2.11-3.86,4.46,1.39,4.49,3.86,4.49,3.84-2.11,3.84-4.49Z"/>
    <path class="st0" d="M938.99,474.28v-1.63c-.89,1.01-2.4,1.92-4.13,1.92-2.42,0-3.7-1.18-3.7-3.7v-8.18h1.8v7.63c0,2.04,1.03,2.64,2.59,2.64,1.42,0,2.76-.82,3.43-1.75v-8.52h1.8v11.59h-1.8Z"/>
    <path class="st0" d="M952.21,474.28v-7.58c0-2.04-1.03-2.69-2.59-2.69-1.42,0-2.76.86-3.43,1.8v8.47h-1.8v-11.59h1.8v1.68c.82-.96,2.4-1.97,4.13-1.97,2.42,0,3.7,1.22,3.7,3.74v8.14h-1.8Z"/>
    <path class="st0" d="M966.01,474.28v-1.73c-.86,1.18-2.28,2.02-3.91,2.02-3.02,0-5.16-2.3-5.16-6.07s2.11-6.1,5.16-6.1c1.56,0,2.98.77,3.91,2.04v-6.17h1.8v16.01h-1.8ZM966.01,465.88c-.65-1.01-2.04-1.87-3.48-1.87-2.33,0-3.72,1.92-3.72,4.49s1.39,4.46,3.72,4.46c1.44,0,2.83-.82,3.48-1.82v-5.26Z"/>
    <path class="st0" d="M986,474.28v-1.73c-.86,1.18-2.28,2.02-3.91,2.02-3.02,0-5.16-2.3-5.16-6.07s2.11-6.1,5.16-6.1c1.56,0,2.98.77,3.91,2.04v-6.17h1.8v16.01h-1.8ZM986,465.88c-.65-1.01-2.04-1.87-3.48-1.87-2.33,0-3.72,1.92-3.72,4.49s1.39,4.46,3.72,4.46c1.44,0,2.83-.82,3.48-1.82v-5.26Z"/>
    <path class="st0" d="M998.65,474.28v-1.32c-.96,1.06-2.28,1.61-3.84,1.61-1.97,0-4.06-1.32-4.06-3.84s2.09-3.82,4.06-3.82c1.58,0,2.9.5,3.84,1.58v-2.09c0-1.56-1.25-2.45-2.93-2.45-1.39,0-2.52.5-3.55,1.61l-.84-1.25c1.25-1.3,2.74-1.92,4.63-1.92,2.45,0,4.49,1.1,4.49,3.91v7.97h-1.8ZM998.65,469.65c-.7-.96-1.92-1.44-3.19-1.44-1.68,0-2.86,1.06-2.86,2.54s1.18,2.52,2.86,2.52c1.27,0,2.5-.48,3.19-1.44v-2.18Z"/>
    <path class="st0" d="M1004.41,471.86v-7.58h-1.92v-1.58h1.92v-3.17h1.8v3.17h2.35v1.58h-2.35v7.2c0,.86.38,1.49,1.18,1.49.5,0,.98-.22,1.22-.48l.53,1.34c-.46.43-1.1.74-2.16.74-1.7,0-2.57-.98-2.57-2.71Z"/>
    <path class="st0" d="M1018.35,474.28v-1.32c-.96,1.06-2.28,1.61-3.84,1.61-1.97,0-4.06-1.32-4.06-3.84s2.09-3.82,4.06-3.82c1.58,0,2.9.5,3.84,1.58v-2.09c0-1.56-1.25-2.45-2.93-2.45-1.39,0-2.52.5-3.55,1.61l-.84-1.25c1.25-1.3,2.74-1.92,4.63-1.92,2.45,0,4.49,1.1,4.49,3.91v7.97h-1.8ZM1018.35,469.65c-.7-.96-1.92-1.44-3.19-1.44-1.68,0-2.86,1.06-2.86,2.54s1.18,2.52,2.86,2.52c1.27,0,2.5-.48,3.19-1.44v-2.18Z"/>
    <path class="st0" d="M1024.71,471.88c.72,0,1.32.6,1.32,1.32s-.6,1.32-1.32,1.32-1.32-.6-1.32-1.32.6-1.32,1.32-1.32Z"/>
  </g>
</svg>