<?xml version="1.0" encoding="UTF-8"?>
<svg id="Layer_1" xmlns="http://www.w3.org/2000/svg" xmlns:xlink="http://www.w3.org/1999/xlink" version="1.1" viewBox="0 0 1200 800">
  <!-- Generator: Adobe Illustrator 30.1.0, SVG Export Plug-In . SVG Version: 2.1.1 Build 136)  -->
  <defs>
    <style>
      .st0 {
        fill: #4c2165;
      }

      .st1 {
        stroke: url(#linear-gradient9);
      }

      .st1, .st2, .st3, .st4, .st5, .st6, .st7, .st8, .st9, .st10, .st11, .st12, .st13, .st14, .st15, .st16 {
        fill: none;
      }

      .st1, .st2, .st3, .st4, .st5, .st6, .st7, .st8, .st9, .st13, .st14, .st15, .st16 {
        stroke-miterlimit: 10;
      }

      .st1, .st2, .st14, .st15, .st16 {
        stroke-width: .66px;
      }

      .st2 {
        stroke: url(#linear-gradient8);
      }

      .st3 {
        stroke: url(#linear-gradient2);
      }

      .st3, .st4, .st5, .st6, .st7, .st8, .st9, .st13 {
        stroke-width: .5px;
      }

      .st4 {
        stroke: url(#linear-gradient1);
      }

      .st5 {
        stroke: url(#linear-gradient7);
      }

      .st6 {
        stroke: url(#linear-gradient3);
      }

      .st7 {
        stroke: url(#linear-gradient5);
      }

      .st8 {
        stroke: url(#linear-gradient4);
      }

      .st9 {
        stroke: url(#linear-gradient6);
      }

      .st10 {
        stroke-width: 1.43px;
      }

      .st10, .st11 {
        stroke: #e9e9e9;
      }

      .st10, .st11, .st12 {
        stroke-linecap: round;
        stroke-linejoin: round;
      }

      .st11 {
        stroke-width: 1.43px;
      }

      .st12 {
        stroke: #4c2165;
      }

      .st17 {
        isolation: isolate;
      }

      .st18 {
        fill: #e9e9e9;
      }

      .st13 {
        stroke: url(#linear-gradient);
      }

      .st14 {
        stroke: url(#linear-gradient10);
      }

      .st15 {
        stroke: url(#linear-gradient12);
      }

      .st16 {
        stroke: url(#linear-gradient11);
      }
    </style>
    <linearGradient id="linear-gradient" x1="123.47" y1="596" x2="123.47" y2="-204" gradientTransform="translate(0 204)" gradientUnits="userSpaceOnUse">
      <stop offset=".07" stop-color="#706f70" stop-opacity="0"/>
      <stop offset=".52" stop-color="#706f70"/>
      <stop offset=".94" stop-color="#706f70" stop-opacity="0"/>
    </linearGradient>
    <linearGradient id="linear-gradient1" x1="258.04" y1="596" x2="258.04" y2="-204" gradientTransform="translate(0 204)" gradientUnits="userSpaceOnUse">
      <stop offset=".07" stop-color="#706f70" stop-opacity="0"/>
      <stop offset=".52" stop-color="#706f70"/>
      <stop offset=".94" stop-color="#706f70" stop-opacity="0"/>
    </linearGradient>
    <linearGradient id="linear-gradient2" x1="392.6" y1="596" x2="392.6" y2="-204" gradientTransform="translate(0 204)" gradientUnits="userSpaceOnUse">
      <stop offset=".07" stop-color="#706f70" stop-opacity="0"/>
      <stop offset=".52" stop-color="#706f70"/>
      <stop offset=".94" stop-color="#706f70" stop-opacity="0"/>
    </linearGradient>
    <linearGradient id="linear-gradient3" x1="527.17" y1="596" x2="527.17" y2="-204" gradientTransform="translate(0 204)" gradientUnits="userSpaceOnUse">
      <stop offset=".07" stop-color="#706f70" stop-opacity="0"/>
      <stop offset=".52" stop-color="#706f70"/>
      <stop offset=".94" stop-color="#706f70" stop-opacity="0"/>
    </linearGradient>
    <linearGradient id="linear-gradient4" x1="661.73" y1="596" x2="661.73" y2="-204" gradientTransform="translate(0 204)" gradientUnits="userSpaceOnUse">
      <stop offset=".07" stop-color="#706f70" stop-opacity="0"/>
      <stop offset=".52" stop-color="#706f70"/>
      <stop offset=".94" stop-color="#706f70" stop-opacity="0"/>
    </linearGradient>
    <linearGradient id="linear-gradient5" x1="796.3" y1="596" x2="796.3" y2="-204" gradientTransform="translate(0 204)" gradientUnits="userSpaceOnUse">
      <stop offset=".07" stop-color="#706f70" stop-opacity="0"/>
      <stop offset=".52" stop-color="#706f70"/>
      <stop offset=".94" stop-color="#706f70" stop-opacity="0"/>
    </linearGradient>
    <linearGradient id="linear-gradient6" x1="930.87" y1="596" x2="930.87" y2="-204" gradientTransform="translate(0 204)" gradientUnits="userSpaceOnUse">
      <stop offset=".07" stop-color="#706f70" stop-opacity="0"/>
      <stop offset=".52" stop-color="#706f70"/>
      <stop offset=".94" stop-color="#706f70" stop-opacity="0"/>
    </linearGradient>
    <linearGradient id="linear-gradient7" x1="1065.43" y1="596" x2="1065.43" y2="-204" gradientTransform="translate(0 204)" gradientUnits="userSpaceOnUse">
      <stop offset=".07" stop-color="#706f70" stop-opacity="0"/>
      <stop offset=".52" stop-color="#706f70"/>
      <stop offset=".94" stop-color="#706f70" stop-opacity="0"/>
    </linearGradient>
    <linearGradient id="linear-gradient8" x1="-2562.69" y1="-1687.39" x2="-2562.69" y2="-2886.59" gradientTransform="translate(-1686.59 2690.59) rotate(90)" gradientUnits="userSpaceOnUse">
      <stop offset=".07" stop-color="#706f70" stop-opacity="0"/>
      <stop offset=".52" stop-color="#706f70"/>
      <stop offset=".96" stop-color="#706f70" stop-opacity="0"/>
    </linearGradient>
    <linearGradient id="linear-gradient9" x1="-2428.27" y1="-1687.39" x2="-2428.27" y2="-2886.59" gradientTransform="translate(-1686.59 2690.59) rotate(90)" gradientUnits="userSpaceOnUse">
      <stop offset=".07" stop-color="#706f70" stop-opacity="0"/>
      <stop offset=".52" stop-color="#706f70"/>
      <stop offset=".96" stop-color="#706f70" stop-opacity="0"/>
    </linearGradient>
    <linearGradient id="linear-gradient10" x1="-2293.85" y1="-1687.39" x2="-2293.85" y2="-2886.59" gradientTransform="translate(-1686.59 2690.59) rotate(90)" gradientUnits="userSpaceOnUse">
      <stop offset=".07" stop-color="#706f70" stop-opacity="0"/>
      <stop offset=".52" stop-color="#706f70"/>
      <stop offset=".96" stop-color="#706f70" stop-opacity="0"/>
    </linearGradient>
    <linearGradient id="linear-gradient11" x1="-2159.43" y1="-1687.39" x2="-2159.43" y2="-2886.59" gradientTransform="translate(-1686.59 2690.59) rotate(90)" gradientUnits="userSpaceOnUse">
      <stop offset=".07" stop-color="#706f70" stop-opacity="0"/>
      <stop offset=".52" stop-color="#706f70"/>
      <stop offset=".96" stop-color="#706f70" stop-opacity="0"/>
    </linearGradient>
    <linearGradient id="linear-gradient12" x1="-2025.01" y1="-1687.39" x2="-2025.01" y2="-2886.59" gradientTransform="translate(-1686.59 2690.59) rotate(90)" gradientUnits="userSpaceOnUse">
      <stop offset=".07" stop-color="#706f70" stop-opacity="0"/>
      <stop offset=".52" stop-color="#706f70"/>
      <stop offset=".96" stop-color="#706f70" stop-opacity="0"/>
    </linearGradient>
  </defs>
  <g>
    <line class="st13" x1="123.47" y1="0" x2="123.47" y2="800"/>
    <line class="st4" x1="258.04" y1="0" x2="258.04" y2="800"/>
    <line class="st3" x1="392.6" y1="0" x2="392.6" y2="800"/>
    <line class="st6" x1="527.17" y1="0" x2="527.17" y2="800"/>
    <line class="st8" x1="661.73" y1="0" x2="661.73" y2="800"/>
    <line class="st7" x1="796.3" y1="0" x2="796.3" y2="800"/>
    <line class="st9" x1="930.87" y1="0" x2="930.87" y2="800"/>
    <line class="st5" x1="1065.43" y1="0" x2="1065.43" y2="800"/>
  </g>
  <g>
    <line class="st2" x1="1200" y1="127.9" x2=".8" y2="127.9"/>
    <line class="st1" x1="1200" y1="262.32" x2=".8" y2="262.32"/>
    <line class="st14" x1="1200" y1="396.74" x2=".8" y2="396.74"/>
    <line class="st16" x1="1200" y1="531.16" x2=".8" y2="531.16"/>
    <line class="st15" x1="1200" y1="665.58" x2=".8" y2="665.58"/>
  </g>
  <g>
    <path class="st0" d="M320.98,644.31v-16.01h7.13c2.78,0,4.49,1.68,4.49,4.08,0,2.02-1.34,3.36-2.81,3.67,1.7.26,3.12,2.02,3.12,3.94,0,2.57-1.7,4.32-4.63,4.32h-7.3ZM322.97,635.24h4.8c1.8,0,2.76-1.1,2.76-2.57s-.96-2.59-2.76-2.59h-4.8v5.16h0ZM322.97,642.54h4.9c1.87,0,2.98-1.06,2.98-2.76,0-1.46-1.01-2.76-2.98-2.76h-4.9v5.52Z"/>
    <path class="st0" d="M343.25,644.31v-1.32c-.96,1.06-2.28,1.61-3.84,1.61-1.97,0-4.06-1.32-4.06-3.84s2.09-3.82,4.06-3.82c1.58,0,2.9.5,3.84,1.58v-2.09c0-1.56-1.25-2.45-2.93-2.45-1.39,0-2.52.5-3.55,1.61l-.84-1.25c1.25-1.3,2.74-1.92,4.63-1.92,2.45,0,4.49,1.1,4.49,3.91v7.97h-1.8ZM343.25,639.68c-.7-.96-1.92-1.44-3.19-1.44-1.68,0-2.86,1.06-2.86,2.54s1.18,2.52,2.86,2.52c1.27,0,2.5-.48,3.19-1.44v-2.18Z"/>
    <path class="st0" d="M356.48,644.31v-7.58c0-2.04-1.03-2.69-2.59-2.69-1.42,0-2.76.86-3.43,1.8v8.47h-1.8v-11.59h1.8v1.68c.82-.96,2.4-1.97,4.13-1.97,2.42,0,3.7,1.22,3.7,3.74v8.14h-1.81Z"/>
    <path class="st0" d="M369.77,644.31l-4.18-5.21-1.92,1.9v3.31h-1.8v-16.01h1.8v10.58l6.1-6.17h2.28l-5.14,5.26,5.16,6.34h-2.3Z"/>
    <path class="st0" d="M379.73,638.5c0-3.36,2.21-6.07,5.74-6.07s5.74,2.71,5.74,6.07-2.21,6.1-5.74,6.1-5.74-2.74-5.74-6.1ZM389.31,638.5c0-2.35-1.37-4.46-3.84-4.46s-3.86,2.11-3.86,4.46,1.39,4.49,3.86,4.49,3.84-2.11,3.84-4.49Z"/>
    <path class="st0" d="M396.44,634.3v10.01h-1.8v-10.01h-1.92v-1.58h1.92v-.89c0-2.4,1.34-3.77,3.36-3.77.67,0,1.3.12,1.75.41l-.46,1.34c-.29-.17-.62-.26-1.03-.26-1.18,0-1.82.82-1.82,2.28v.89h2.35v1.58h-2.35Z"/>
    <path class="st0" d="M408.92,648.73h-1.8v-16.01h1.8v1.73c.84-1.18,2.28-2.02,3.91-2.02,3.05,0,5.16,2.3,5.16,6.07s-2.11,6.1-5.16,6.1c-1.58,0-2.98-.74-3.91-2.04v6.17h0ZM412.37,634.04c-1.42,0-2.83.84-3.46,1.85v5.23c.62,1.01,2.04,1.87,3.46,1.87,2.33,0,3.72-1.92,3.72-4.49s-1.39-4.46-3.72-4.46h0Z"/>
    <path class="st0" d="M420.89,644.31v-16.01h1.8v16.01h-1.8Z"/>
    <path class="st0" d="M433.54,644.31v-1.32c-.96,1.06-2.28,1.61-3.84,1.61-1.97,0-4.06-1.32-4.06-3.84s2.09-3.82,4.06-3.82c1.58,0,2.9.5,3.84,1.58v-2.09c0-1.56-1.25-2.45-2.93-2.45-1.39,0-2.52.5-3.55,1.61l-.84-1.25c1.25-1.3,2.74-1.92,4.63-1.92,2.45,0,4.49,1.1,4.49,3.91v7.97h-1.8ZM433.54,639.68c-.7-.96-1.92-1.44-3.19-1.44-1.68,0-2.86,1.06-2.86,2.54s1.18,2.52,2.86,2.52c1.27,0,2.5-.48,3.19-1.44v-2.18Z"/>
    <path class="st0" d="M438.58,647.22c.26.12.7.19.98.19.79,0,1.32-.26,1.73-1.22l.77-1.75-4.85-11.71h1.94l3.86,9.5,3.84-9.5h1.97l-5.81,13.95c-.7,1.68-1.87,2.33-3.41,2.35-.38,0-.98-.07-1.32-.17l.29-1.63h.01Z"/>
    <path class="st0" d="M450.7,644.31v-16.01h1.8v6.17c.94-1.27,2.33-2.04,3.91-2.04,3.02,0,5.16,2.4,5.16,6.1s-2.14,6.07-5.16,6.07c-1.63,0-3.05-.84-3.91-2.02v1.73h-1.8ZM452.5,641.17c.62,1.01,2.04,1.82,3.46,1.82,2.35,0,3.74-1.9,3.74-4.46s-1.39-4.49-3.74-4.49c-1.42,0-2.83.86-3.46,1.87v5.26Z"/>
    <path class="st0" d="M463.83,638.5c0-3.36,2.21-6.07,5.74-6.07s5.74,2.71,5.74,6.07-2.21,6.1-5.74,6.1-5.74-2.74-5.74-6.1ZM473.4,638.5c0-2.35-1.37-4.46-3.84-4.46s-3.86,2.11-3.86,4.46,1.39,4.49,3.86,4.49,3.84-2.11,3.84-4.49Z"/>
    <path class="st0" d="M477.56,638.5c0-3.36,2.21-6.07,5.74-6.07s5.74,2.71,5.74,6.07-2.21,6.1-5.74,6.1-5.74-2.74-5.74-6.1ZM487.13,638.5c0-2.35-1.37-4.46-3.84-4.46s-3.86,2.11-3.86,4.46,1.39,4.49,3.86,4.49,3.84-2.11,3.84-4.49Z"/>
    <path class="st0" d="M499.85,644.31l-4.18-5.21-1.92,1.9v3.31h-1.8v-16.01h1.8v10.58l6.1-6.17h2.28l-5.14,5.26,5.16,6.34h-2.3Z"/>
    <path class="st0" d="M504.08,641.48c.77.89,2.23,1.66,3.82,1.66,1.78,0,2.74-.79,2.74-1.92,0-1.27-1.42-1.68-2.98-2.06-1.97-.46-4.2-.98-4.2-3.38,0-1.8,1.56-3.34,4.32-3.34,1.97,0,3.36.74,4.3,1.68l-.84,1.25c-.7-.84-1.97-1.46-3.46-1.46-1.58,0-2.57.72-2.57,1.75,0,1.13,1.32,1.49,2.83,1.85,2.02.46,4.34,1.03,4.34,3.6,0,1.94-1.56,3.5-4.56,3.5-1.9,0-3.5-.58-4.68-1.82l.94-1.3h0Z"/>
    <path class="st0" d="M514.88,646.62c.77-.5,1.46-1.44,1.56-2.23-.05.02-.22.05-.34.05-.67,0-1.15-.5-1.15-1.22s.55-1.3,1.27-1.3c.79,0,1.51.67,1.51,1.82,0,1.46-.86,2.83-1.97,3.62l-.89-.74h.01Z"/>
    <path class="st0" d="M325.95,661.23c3.5,0,5.57,2.74,5.57,6.22v.46h-9.38c.14,2.18,1.68,4.01,4.18,4.01,1.32,0,2.67-.53,3.58-1.46l.86,1.18c-1.15,1.15-2.71,1.78-4.61,1.78-3.43,0-5.9-2.47-5.9-6.1,0-3.36,2.4-6.07,5.71-6.07v-.02h0ZM322.13,666.58h7.61c-.02-1.73-1.18-3.86-3.82-3.86-2.47,0-3.7,2.09-3.79,3.86h0Z"/>
    <path class="st0" d="M341.16,673.11l-3.48-4.75-3.48,4.75h-2.06l4.44-5.95-4.2-5.64h2.09l3.22,4.42,3.22-4.42h2.09l-4.2,5.64,4.46,5.95h-2.1,0Z"/>
    <path class="st0" d="M349.61,661.23c3.5,0,5.57,2.74,5.57,6.22v.46h-9.38c.14,2.18,1.68,4.01,4.18,4.01,1.32,0,2.67-.53,3.58-1.46l.86,1.18c-1.15,1.15-2.71,1.78-4.61,1.78-3.43,0-5.9-2.47-5.9-6.1,0-3.36,2.4-6.07,5.71-6.07v-.02h0ZM345.8,666.58h7.61c-.02-1.73-1.18-3.86-3.82-3.86-2.47,0-3.7,2.09-3.79,3.86h0Z"/>
    <path class="st0" d="M372.08,673.11v-7.87c0-1.46-.65-2.4-2.14-2.4-1.2,0-2.47.86-3.07,1.78v8.5h-1.8v-7.87c0-1.46-.62-2.4-2.14-2.4-1.18,0-2.42.86-3.05,1.8v8.47h-1.8v-11.59h1.8v1.68c.48-.74,2.04-1.97,3.74-1.97s2.78.96,3.12,2.16c.65-1.06,2.21-2.16,3.89-2.16,2.11,0,3.24,1.18,3.24,3.5v8.38h-1.8.01Z"/>
    <path class="st0" d="M379.28,677.53h-1.8v-16.01h1.8v1.73c.84-1.18,2.28-2.02,3.91-2.02,3.05,0,5.16,2.3,5.16,6.07s-2.11,6.1-5.16,6.1c-1.58,0-2.98-.74-3.91-2.04v6.17h0ZM382.73,662.84c-1.42,0-2.83.84-3.46,1.85v5.23c.62,1.01,2.04,1.87,3.46,1.87,2.33,0,3.72-1.92,3.72-4.49s-1.39-4.46-3.72-4.46h0Z"/>
    <path class="st0" d="M391.25,673.11v-16.01h1.8v16.01h-1.8Z"/>
    <path class="st0" d="M403.9,673.11v-1.32c-.96,1.06-2.28,1.61-3.84,1.61-1.97,0-4.06-1.32-4.06-3.84s2.09-3.82,4.06-3.82c1.58,0,2.9.5,3.84,1.58v-2.09c0-1.56-1.25-2.45-2.93-2.45-1.39,0-2.52.5-3.55,1.61l-.84-1.25c1.25-1.3,2.74-1.92,4.63-1.92,2.45,0,4.49,1.1,4.49,3.91v7.97h-1.8ZM403.9,668.48c-.7-.96-1.92-1.44-3.19-1.44-1.68,0-2.86,1.06-2.86,2.54s1.18,2.52,2.86,2.52c1.27,0,2.5-.48,3.19-1.44v-2.18Z"/>
    <path class="st0" d="M409.3,673.11v-11.59h1.8v1.87c.94-1.22,2.28-2.11,3.86-2.11v1.85c-.22-.05-.43-.07-.72-.07-1.1,0-2.62.91-3.14,1.85v8.21h-1.8,0Z"/>
    <path class="st0" d="M417.15,670.28c.77.89,2.23,1.66,3.82,1.66,1.78,0,2.74-.79,2.74-1.92,0-1.27-1.42-1.68-2.98-2.06-1.97-.46-4.2-.98-4.2-3.38,0-1.8,1.56-3.34,4.32-3.34,1.97,0,3.36.74,4.3,1.68l-.84,1.25c-.7-.84-1.97-1.46-3.46-1.46-1.58,0-2.57.72-2.57,1.75,0,1.13,1.32,1.49,2.83,1.85,2.02.46,4.34,1.03,4.34,3.6,0,1.94-1.56,3.5-4.56,3.5-1.9,0-3.5-.58-4.68-1.82l.94-1.3h0Z"/>
    <path class="st0" d="M427.95,675.42c.77-.5,1.46-1.44,1.56-2.23-.05.02-.22.05-.34.05-.67,0-1.15-.5-1.15-1.22s.55-1.3,1.27-1.3c.79,0,1.51.67,1.51,1.82,0,1.46-.86,2.83-1.97,3.62l-.89-.74h.01Z"/>
    <path class="st0" d="M440.02,670.28c.77.89,2.23,1.66,3.82,1.66,1.78,0,2.74-.79,2.74-1.92,0-1.27-1.42-1.68-2.98-2.06-1.97-.46-4.2-.98-4.2-3.38,0-1.8,1.56-3.34,4.32-3.34,1.97,0,3.36.74,4.3,1.68l-.84,1.25c-.7-.84-1.97-1.46-3.46-1.46-1.58,0-2.57.72-2.57,1.75,0,1.13,1.32,1.49,2.83,1.85,2.02.46,4.34,1.03,4.34,3.6,0,1.94-1.56,3.5-4.56,3.5-1.9,0-3.5-.58-4.68-1.82l.94-1.3h0Z"/>
    <path class="st0" d="M451.61,670.69v-7.58h-1.92v-1.58h1.92v-3.17h1.8v3.17h2.35v1.58h-2.35v7.2c0,.86.38,1.49,1.18,1.49.5,0,.98-.22,1.22-.48l.53,1.34c-.46.43-1.1.74-2.16.74-1.7,0-2.57-.98-2.57-2.71h0Z"/>
    <path class="st0" d="M457.95,676.02c.26.12.7.19.98.19.79,0,1.32-.26,1.73-1.22l.77-1.75-4.85-11.71h1.94l3.86,9.5,3.84-9.5h1.97l-5.81,13.95c-.7,1.68-1.87,2.33-3.41,2.35-.38,0-.98-.07-1.32-.17l.29-1.63h.01Z"/>
    <path class="st0" d="M470.07,673.11v-16.01h1.8v16.01h-1.8Z"/>
    <path class="st0" d="M480.51,661.23c3.5,0,5.57,2.74,5.57,6.22v.46h-9.38c.14,2.18,1.68,4.01,4.18,4.01,1.32,0,2.67-.53,3.58-1.46l.86,1.18c-1.15,1.15-2.71,1.78-4.61,1.78-3.43,0-5.9-2.47-5.9-6.1,0-3.36,2.4-6.07,5.71-6.07v-.02h0ZM476.69,666.58h7.61c-.02-1.73-1.18-3.86-3.82-3.86-2.47,0-3.7,2.09-3.79,3.86h0Z"/>
    <path class="st0" d="M489.87,674.74c.96,1.15,2.11,1.58,3.77,1.58,1.92,0,3.72-.94,3.72-3.48v-1.66c-.84,1.18-2.26,2.06-3.89,2.06-3.02,0-5.16-2.26-5.16-6s2.11-6.02,5.16-6.02c1.56,0,2.95.77,3.89,2.04v-1.75h1.8v11.26c0,3.84-2.69,5.04-5.52,5.04-1.97,0-3.31-.38-4.68-1.73l.91-1.34ZM497.36,664.71c-.62-1.01-2.02-1.87-3.46-1.87-2.33,0-3.72,1.85-3.72,4.42s1.39,4.42,3.72,4.42c1.44,0,2.83-.89,3.46-1.9v-5.06h0Z"/>
    <path class="st0" d="M510.58,673.11v-1.63c-.89,1.01-2.4,1.92-4.13,1.92-2.42,0-3.7-1.18-3.7-3.7v-8.18h1.8v7.63c0,2.04,1.03,2.64,2.59,2.64,1.42,0,2.76-.82,3.43-1.75v-8.52h1.8v11.59h-1.8.01Z"/>
    <path class="st0" d="M515.67,658.35c0-.67.55-1.2,1.2-1.2s1.22.53,1.22,1.2-.55,1.22-1.22,1.22-1.2-.55-1.2-1.22ZM515.98,673.11v-11.59h1.8v11.59h-1.8Z"/>
    <path class="st0" d="M529.78,673.11v-1.73c-.86,1.18-2.28,2.02-3.91,2.02-3.02,0-5.16-2.3-5.16-6.07s2.11-6.1,5.16-6.1c1.56,0,2.98.77,3.91,2.04v-6.17h1.8v16.01h-1.8ZM529.78,664.71c-.65-1.01-2.04-1.87-3.48-1.87-2.33,0-3.72,1.92-3.72,4.49s1.39,4.46,3.72,4.46c1.44,0,2.83-.82,3.48-1.82v-5.26Z"/>
    <path class="st0" d="M540.22,661.23c3.5,0,5.57,2.74,5.57,6.22v.46h-9.38c.14,2.18,1.68,4.01,4.18,4.01,1.32,0,2.67-.53,3.58-1.46l.86,1.18c-1.15,1.15-2.71,1.78-4.61,1.78-3.43,0-5.9-2.47-5.9-6.1,0-3.36,2.4-6.07,5.71-6.07v-.02h-.01ZM536.4,666.58h7.61c-.02-1.73-1.18-3.86-3.82-3.86-2.47,0-3.7,2.09-3.79,3.86Z"/>
    <path class="st0" d="M548.62,670.28c.77.89,2.23,1.66,3.82,1.66,1.78,0,2.74-.79,2.74-1.92,0-1.27-1.42-1.68-2.98-2.06-1.97-.46-4.2-.98-4.2-3.38,0-1.8,1.56-3.34,4.32-3.34,1.97,0,3.36.74,4.3,1.68l-.84,1.25c-.7-.84-1.97-1.46-3.46-1.46-1.58,0-2.57.72-2.57,1.75,0,1.13,1.32,1.49,2.83,1.85,2.02.46,4.34,1.03,4.34,3.6,0,1.94-1.56,3.5-4.56,3.5-1.9,0-3.5-.58-4.68-1.82l.94-1.3h0Z"/>
    <path class="st0" d="M573.29,673.11v-1.32c-.96,1.06-2.28,1.61-3.84,1.61-1.97,0-4.06-1.32-4.06-3.84s2.09-3.82,4.06-3.82c1.58,0,2.9.5,3.84,1.58v-2.09c0-1.56-1.25-2.45-2.93-2.45-1.39,0-2.52.5-3.55,1.61l-.84-1.25c1.25-1.3,2.74-1.92,4.63-1.92,2.45,0,4.49,1.1,4.49,3.91v7.97h-1.8ZM573.29,668.48c-.7-.96-1.92-1.44-3.19-1.44-1.68,0-2.86,1.06-2.86,2.54s1.18,2.52,2.86,2.52c1.27,0,2.5-.48,3.19-1.44v-2.18Z"/>
    <path class="st0" d="M586.52,673.11v-7.58c0-2.04-1.03-2.69-2.59-2.69-1.42,0-2.76.86-3.43,1.8v8.47h-1.8v-11.59h1.8v1.68c.82-.96,2.4-1.97,4.13-1.97,2.42,0,3.7,1.22,3.7,3.74v8.14h-1.81Z"/>
    <path class="st0" d="M600.32,673.11v-1.73c-.86,1.18-2.28,2.02-3.91,2.02-3.02,0-5.16-2.3-5.16-6.07s2.11-6.1,5.16-6.1c1.56,0,2.98.77,3.91,2.04v-6.17h1.8v16.01h-1.8ZM600.32,664.71c-.65-1.01-2.04-1.87-3.48-1.87-2.33,0-3.72,1.92-3.72,4.49s1.39,4.46,3.72,4.46c1.44,0,2.83-.82,3.48-1.82v-5.26Z"/>
    <path class="st0" d="M320.91,701.91v-11.59h1.8v1.87c.94-1.22,2.28-2.11,3.86-2.11v1.85c-.22-.05-.43-.07-.72-.07-1.1,0-2.62.91-3.14,1.85v8.21h-1.8,0Z"/>
    <path class="st0" d="M333.87,690.03c3.5,0,5.57,2.74,5.57,6.22v.46h-9.38c.14,2.18,1.68,4.01,4.18,4.01,1.32,0,2.67-.53,3.58-1.46l.86,1.18c-1.15,1.15-2.71,1.78-4.61,1.78-3.43,0-5.9-2.47-5.9-6.1,0-3.36,2.4-6.07,5.71-6.07v-.02h0ZM330.05,695.38h7.61c-.02-1.73-1.18-3.86-3.82-3.86-2.47,0-3.7,2.09-3.79,3.86h0Z"/>
    <path class="st0" d="M342.27,699.08c.77.89,2.23,1.66,3.82,1.66,1.78,0,2.74-.79,2.74-1.92,0-1.27-1.42-1.68-2.98-2.06-1.97-.46-4.2-.98-4.2-3.38,0-1.8,1.56-3.34,4.32-3.34,1.97,0,3.36.74,4.3,1.68l-.84,1.25c-.7-.84-1.97-1.46-3.46-1.46-1.58,0-2.57.72-2.57,1.75,0,1.13,1.32,1.49,2.83,1.85,2.02.46,4.34,1.03,4.34,3.6,0,1.94-1.56,3.5-4.56,3.5-1.9,0-3.5-.58-4.68-1.82l.94-1.3h0Z"/>
    <path class="st0" d="M352.83,696.1c0-3.36,2.21-6.07,5.74-6.07s5.74,2.71,5.74,6.07-2.21,6.1-5.74,6.1-5.74-2.74-5.74-6.1ZM362.4,696.1c0-2.35-1.37-4.46-3.84-4.46s-3.86,2.11-3.86,4.46,1.39,4.49,3.86,4.49,3.84-2.11,3.84-4.49Z"/>
    <path class="st0" d="M375.05,701.91v-1.63c-.89,1.01-2.4,1.92-4.13,1.92-2.42,0-3.7-1.18-3.7-3.7v-8.18h1.8v7.63c0,2.04,1.03,2.64,2.59,2.64,1.42,0,2.76-.82,3.43-1.75v-8.52h1.8v11.59h-1.8.01Z"/>
    <path class="st0" d="M380.45,701.91v-11.59h1.8v1.87c.94-1.22,2.28-2.11,3.86-2.11v1.85c-.22-.05-.43-.07-.72-.07-1.1,0-2.62.91-3.14,1.85v8.21h-1.8,0Z"/>
    <path class="st0" d="M393.48,690.03c2.11,0,3.36.86,4.25,2.02l-1.2,1.1c-.77-1.06-1.75-1.51-2.95-1.51-2.47,0-4.01,1.9-4.01,4.46s1.54,4.49,4.01,4.49c1.2,0,2.18-.48,2.95-1.51l1.2,1.1c-.89,1.15-2.14,2.02-4.25,2.02-3.46,0-5.79-2.64-5.79-6.1s2.33-6.07,5.79-6.07Z"/>
    <path class="st0" d="M405.29,690.03c3.5,0,5.57,2.74,5.57,6.22v.46h-9.38c.14,2.18,1.68,4.01,4.18,4.01,1.32,0,2.67-.53,3.58-1.46l.86,1.18c-1.15,1.15-2.71,1.78-4.61,1.78-3.43,0-5.9-2.47-5.9-6.1,0-3.36,2.4-6.07,5.71-6.07v-.02h0ZM401.48,695.38h7.61c-.02-1.73-1.18-3.86-3.82-3.86-2.47,0-3.7,2.09-3.79,3.86h0Z"/>
    <path class="st0" d="M413.69,699.08c.77.89,2.23,1.66,3.82,1.66,1.78,0,2.74-.79,2.74-1.92,0-1.27-1.42-1.68-2.98-2.06-1.97-.46-4.2-.98-4.2-3.38,0-1.8,1.56-3.34,4.32-3.34,1.97,0,3.36.74,4.3,1.68l-.84,1.25c-.7-.84-1.97-1.46-3.46-1.46-1.58,0-2.57.72-2.57,1.75,0,1.13,1.32,1.49,2.83,1.85,2.02.46,4.34,1.03,4.34,3.6,0,1.94-1.56,3.5-4.56,3.5-1.9,0-3.5-.58-4.68-1.82l.94-1.3h0Z"/>
    <path class="st0" d="M433.42,691.9v10.01h-1.8v-10.01h-1.92v-1.58h1.92v-.89c0-2.4,1.34-3.77,3.36-3.77.67,0,1.3.12,1.75.41l-.46,1.34c-.29-.17-.62-.26-1.03-.26-1.18,0-1.82.82-1.82,2.28v.89h2.35v1.58h-2.35Z"/>
    <path class="st0" d="M437.23,696.1c0-3.36,2.21-6.07,5.74-6.07s5.74,2.71,5.74,6.07-2.21,6.1-5.74,6.1-5.74-2.74-5.74-6.1ZM446.81,696.1c0-2.35-1.37-4.46-3.84-4.46s-3.86,2.11-3.86,4.46,1.39,4.49,3.86,4.49,3.84-2.11,3.84-4.49Z"/>
    <path class="st0" d="M451.63,701.91v-11.59h1.8v1.87c.94-1.22,2.28-2.11,3.86-2.11v1.85c-.22-.05-.43-.07-.72-.07-1.1,0-2.62.91-3.14,1.85v8.21h-1.8,0Z"/>
    <path class="st0" d="M474.15,701.91v-1.73c-.86,1.18-2.28,2.02-3.91,2.02-3.02,0-5.16-2.3-5.16-6.07s2.11-6.1,5.16-6.1c1.56,0,2.98.77,3.91,2.04v-6.17h1.8v16.01h-1.8ZM474.15,693.51c-.65-1.01-2.04-1.87-3.48-1.87-2.33,0-3.72,1.92-3.72,4.49s1.39,4.46,3.72,4.46c1.44,0,2.83-.82,3.48-1.82v-5.26Z"/>
    <path class="st0" d="M486.8,701.91v-1.32c-.96,1.06-2.28,1.61-3.84,1.61-1.97,0-4.06-1.32-4.06-3.84s2.09-3.82,4.06-3.82c1.58,0,2.9.5,3.84,1.58v-2.09c0-1.56-1.25-2.45-2.93-2.45-1.39,0-2.52.5-3.55,1.61l-.84-1.25c1.25-1.3,2.74-1.92,4.63-1.92,2.45,0,4.49,1.1,4.49,3.91v7.97h-1.8ZM486.8,697.28c-.7-.96-1.92-1.44-3.19-1.44-1.68,0-2.86,1.06-2.86,2.54s1.18,2.52,2.86,2.52c1.27,0,2.5-.48,3.19-1.44v-2.18Z"/>
    <path class="st0" d="M492.56,699.49v-7.58h-1.92v-1.58h1.92v-3.17h1.8v3.17h2.35v1.58h-2.35v7.2c0,.86.38,1.49,1.18,1.49.5,0,.98-.22,1.22-.48l.53,1.34c-.46.43-1.1.74-2.16.74-1.7,0-2.57-.98-2.57-2.71h0Z"/>
    <path class="st0" d="M506.5,701.91v-1.32c-.96,1.06-2.28,1.61-3.84,1.61-1.97,0-4.06-1.32-4.06-3.84s2.09-3.82,4.06-3.82c1.58,0,2.9.5,3.84,1.58v-2.09c0-1.56-1.25-2.45-2.93-2.45-1.39,0-2.52.5-3.55,1.61l-.84-1.25c1.25-1.3,2.74-1.92,4.63-1.92,2.45,0,4.49,1.1,4.49,3.91v7.97h-1.8ZM506.5,697.28c-.7-.96-1.92-1.44-3.19-1.44-1.68,0-2.86,1.06-2.86,2.54s1.18,2.52,2.86,2.52c1.27,0,2.5-.48,3.19-1.44v-2.18Z"/>
    <path class="st0" d="M518.02,699.08c.77.89,2.23,1.66,3.82,1.66,1.78,0,2.74-.79,2.74-1.92,0-1.27-1.42-1.68-2.98-2.06-1.97-.46-4.2-.98-4.2-3.38,0-1.8,1.56-3.34,4.32-3.34,1.97,0,3.36.74,4.3,1.68l-.84,1.25c-.7-.84-1.97-1.46-3.46-1.46-1.58,0-2.57.72-2.57,1.75,0,1.13,1.32,1.49,2.83,1.85,2.02.46,4.34,1.03,4.34,3.6,0,1.94-1.56,3.5-4.56,3.5-1.9,0-3.5-.58-4.68-1.82l.94-1.3h0Z"/>
    <path class="st0" d="M529.61,699.49v-7.58h-1.92v-1.58h1.92v-3.17h1.8v3.17h2.35v1.58h-2.35v7.2c0,.86.38,1.49,1.18,1.49.5,0,.98-.22,1.22-.48l.53,1.34c-.46.43-1.1.74-2.16.74-1.7,0-2.57-.98-2.57-2.71Z"/>
    <path class="st0" d="M535.64,696.1c0-3.36,2.21-6.07,5.74-6.07s5.74,2.71,5.74,6.07-2.21,6.1-5.74,6.1-5.74-2.74-5.74-6.1ZM545.21,696.1c0-2.35-1.37-4.46-3.84-4.46s-3.86,2.11-3.86,4.46,1.39,4.49,3.86,4.49,3.84-2.11,3.84-4.49Z"/>
    <path class="st0" d="M550.03,701.91v-11.59h1.8v1.87c.94-1.22,2.28-2.11,3.86-2.11v1.85c-.22-.05-.43-.07-.72-.07-1.1,0-2.62.91-3.14,1.85v8.21h-1.8Z"/>
    <path class="st0" d="M557.64,687.15c0-.67.55-1.2,1.2-1.2s1.22.53,1.22,1.2-.55,1.22-1.22,1.22-1.2-.55-1.2-1.22ZM557.95,701.91v-11.59h1.8v11.59h-1.8Z"/>
    <path class="st0" d="M568.4,690.03c3.5,0,5.57,2.74,5.57,6.22v.46h-9.38c.14,2.18,1.68,4.01,4.18,4.01,1.32,0,2.67-.53,3.58-1.46l.86,1.18c-1.15,1.15-2.71,1.78-4.61,1.78-3.43,0-5.9-2.47-5.9-6.1,0-3.36,2.4-6.07,5.71-6.07v-.02h-.01ZM564.58,695.38h7.61c-.02-1.73-1.18-3.86-3.82-3.86-2.47,0-3.7,2.09-3.79,3.86Z"/>
    <path class="st0" d="M576.8,699.08c.77.89,2.23,1.66,3.82,1.66,1.78,0,2.74-.79,2.74-1.92,0-1.27-1.42-1.68-2.98-2.06-1.97-.46-4.2-.98-4.2-3.38,0-1.8,1.56-3.34,4.32-3.34,1.97,0,3.36.74,4.3,1.68l-.84,1.25c-.7-.84-1.97-1.46-3.46-1.46-1.58,0-2.57.72-2.57,1.75,0,1.13,1.32,1.49,2.83,1.85,2.02.46,4.34,1.03,4.34,3.6,0,1.94-1.56,3.5-4.56,3.5-1.9,0-3.5-.58-4.68-1.82l.94-1.3h0Z"/>
  </g>
  <circle class="st0" cx="123.47" cy="121.91" r="17.69"/>
  <circle class="st0" cx="284.83" cy="641.32" r="17.69"/>
  <circle class="st0" cx="703.09" cy="449.36" r="9.64"/>
  <circle cx="212.93" cy="717.18" r="6.57"/>
  <circle class="st0" cx="796.3" cy="291.18" r="9.64"/>
  <line class="st12" x1="403.94" y1="475.16" x2="686.11" y2="449.56"/>
  <line class="st12" x1="241.29" y1="315.82" x2="131.66" y2="149.35"/>
  <line class="st12" x1="284.83" y1="583.34" x2="284.83" y2="613.8"/>
  <circle class="st0" cx="527.17" cy="262.32" r="13.26"/>
  <line class="st12" x1="540.43" y1="287.19" x2="693.43" y2="434.96"/>
  <line class="st12" x1="548.9" y1="262.32" x2="779.96" y2="287.19"/>
  <line class="st12" x1="268.71" y1="662.35" x2="221.54" y2="709"/>
  <line class="st12" x1="131.66" y1="95.59" x2="302.51" y2="-46.09"/>
  <circle class="st0" cx="284.83" cy="463.68" r="109.83"/>
  <g>
    <path class="st0" d="M171.55,424.43l-15.65-6.43,3.38-8.24c1.22-2.98,3.75-3.72,5.84-2.87,1.97.81,2.78,2.57,2.48,4.18.94-1.56,3.11-2.23,5.08-1.42,2.35.96,3.58,3.31,2.35,6.29l-3.49,8.5ZM163.56,417.24l1.72-4.18c.46-1.13.03-2.13-.98-2.54-.96-.39-2,0-2.46,1.13l-1.72,4.18,3.45,1.42ZM170.08,419.93l1.76-4.29c.52-1.27.1-2.32-1.02-2.78-.99-.41-2.12-.05-2.66,1.27l-1.76,4.29,3.68,1.51Z"/>
    <path class="st0" d="M163.29,400.86l1.86-3.15,8.65,5.1c2.03,1.2,4.09.91,5.43-1.36,1.32-2.23.57-4.17-1.46-5.37l-8.65-5.11,1.86-3.15,8.74,5.16c3.63,2.14,4.87,5.67,2.27,10.09-2.63,4.46-6.35,5.06-9.93,2.95l-8.76-5.17Z"/>
    <path class="st0" d="M187.42,394.15l-13.62-10.04,2.14-2.9,13.62,10.05-2.14,2.9Z"/>
    <path class="st0" d="M191.32,388.84l-12.76-11.11,2.37-2.72,10.37,9.03,4.7-5.4,2.39,2.08-7.07,8.11Z"/>
    <path class="st0" d="M199.74,379.22l-11.26-12.64,4.98-4.44c3.96-3.53,8.95-3.45,12.35.36,3.39,3.81,2.87,8.76-1.09,12.28l-4.98,4.44ZM200.32,374.46l2.29-2.04c2.5-2.23,2.36-5.33.45-7.47-1.99-2.24-4.89-2.75-7.49-.43l-2.29,2.04,7.04,7.9Z"/>
    <path class="st0" d="M213.3,367.73l-9.92-13.71,2.92-2.11,9.92,13.71-2.92,2.11Z"/>
    <path class="st0" d="M228.62,357.93l-12.67-5.81,5.69,9.84-3.12,1.8-8.47-14.66,3.21-1.85,12.27,5.57-5.48-9.49,3.12-1.8,8.47,14.66-3.01,1.74Z"/>
    <path class="st0" d="M235.42,336.01c3.26-1.28,5.93-.51,7.87.88l-2.19,2.61c-1.17-.82-2.86-1.17-4.51-.51-2.86,1.12-4.07,4.14-2.9,7.11s4.11,4.35,6.97,3.23c1.44-.57,2.48-1.66,2.93-2.54l-.75-1.91-4.2,1.65-1.13-2.88,7.51-2.96,2.37,6.02c-.9,2.43-2.68,4.49-5.53,5.61-4.6,1.81-9.64.09-11.6-4.87-1.96-4.98.57-9.63,5.17-11.44Z"/>
    <path class="st0" d="M263.03,340.69c1.35,1.07,3.32,1.86,5.63,1.55,1.96-.26,2.79-1.32,2.66-2.28-.17-1.26-1.68-1.49-3.68-1.68-2.83-.26-6.45-.54-6.95-4.29-.37-2.79,1.74-5.38,5.68-5.91,2.67-.36,4.99.15,6.85,1.46l-1.64,2.88c-1.53-1.08-3.42-1.41-5.05-1.19-1.61.22-2.37,1.04-2.24,2.04.15,1.13,1.61,1.29,3.6,1.49,2.85.26,6.48.62,6.98,4.34.41,3.07-1.47,5.67-5.99,6.28-3.22.43-5.68-.34-7.47-1.71l1.6-2.98Z"/>
    <path class="st0" d="M281.29,344.06l-.22-13.75-4.95.08-.05-3.17,13.5-.22.05,3.17-4.92.08.22,13.75-3.63.06Z"/>
    <path class="st0" d="M300.94,327.76c5.09.6,8.37,4.66,7.77,9.72-.59,5.06-4.72,8.26-9.81,7.66-5.06-.59-8.34-4.66-7.75-9.72.59-5.06,4.72-8.26,9.79-7.66ZM300.56,330.94c-3.1-.36-5.37,1.77-5.74,4.92-.37,3.12,1.34,5.75,4.44,6.12s5.4-1.79,5.76-4.92c.37-3.15-1.37-5.75-4.47-6.12Z"/>
    <path class="st0" d="M318.87,348.89l-1.64-6.72-2.55-.68-1.57,5.86-3.48-.93,4.39-16.34,7.65,2.05c3.41.91,4.89,3.7,4.08,6.74-.78,2.89-3,3.95-4.88,3.89l2.01,7.21-3.99-1.07ZM320.35,334.97l-3.65-.98-1.21,4.51,3.65.98c1.4.38,2.69-.22,3.06-1.6.37-1.37-.45-2.54-1.85-2.91Z"/>
    <path class="st0" d="M324.88,350.87l5.9-15.86,3.38,1.26-5.9,15.86-3.38-1.26Z"/>
    <path class="st0" d="M331.09,353.14l7.29-15.28,10.81,5.16-1.33,2.79-7.56-3.61-1.58,3.32,7.4,3.53-1.33,2.79-7.4-3.53-1.69,3.55,7.56,3.61-1.34,2.82-10.81-5.16Z"/>
    <path class="st0" d="M347.35,355.54c.34,1.69,1.34,3.56,3.31,4.81,1.67,1.06,2.99.79,3.5-.03.68-1.07-.33-2.22-1.73-3.66-1.99-2.02-4.58-4.57-2.55-7.76,1.51-2.38,4.79-3,8.15-.86,2.27,1.44,3.72,3.33,4.3,5.53l-3.11,1.15c-.48-1.81-1.7-3.28-3.1-4.16-1.37-.87-2.48-.73-3.02.12-.61.96.4,2.03,1.8,3.46,2.01,2.03,4.56,4.64,2.55,7.81-1.66,2.61-4.78,3.4-8.63.95-2.74-1.74-4.12-3.92-4.62-6.12l3.14-1.25Z"/>
  </g>
  <g>
    <rect class="st10" x="231.74" y="415.84" width="44.85" height="39.17"/>
    <g>
      <rect class="st18" x="239.26" y="412.58" width="3.48" height="6.29"/>
      <rect class="st18" x="265.58" y="412.58" width="3.48" height="6.29"/>
    </g>
    <g>
      <rect class="st10" x="289.2" y="432.76" width="43.11" height="31.91"/>
      <rect class="st18" x="309.02" y="429.51" width="3.48" height="6.29"/>
    </g>
    <rect class="st10" x="283.51" y="407.61" width="22.15" height="16.46"/>
    <rect class="st10" x="231.74" y="464.68" width="46.78" height="55.08"/>
    <line class="st10" x1="240.8" y1="472.25" x2="270.47" y2="472.25"/>
    <line class="st10" x1="240.8" y1="479.99" x2="270.47" y2="479.99"/>
    <line class="st10" x1="240.8" y1="487.73" x2="270.47" y2="487.73"/>
    <line class="st10" x1="240.8" y1="495.46" x2="270.47" y2="495.46"/>
    <line class="st10" x1="240.8" y1="503.2" x2="270.47" y2="503.2"/>
    <line class="st10" x1="240.8" y1="510.94" x2="270.47" y2="510.94"/>
    <rect class="st10" x="295.52" y="479.23" width="34.33" height="9.18" rx="2.81" ry="2.81"/>
    <line class="st10" x1="312.69" y1="488.41" x2="312.69" y2="495.82"/>
    <rect class="st11" x="308.48" y="497.57" width="8.4" height="8.4" transform="translate(-263.22 368.06) rotate(-45)"/>
    <rect class="st10" x="287.45" y="509.45" width="12.59" height="10.31"/>
    <polyline class="st10" points="306.74 501.76 293.75 501.76 293.75 509.04"/>
    <g>
      <rect class="st10" x="325.33" y="509.44" width="12.59" height="10.31"/>
      <polyline class="st10" points="318.63 501.76 331.63 501.76 331.63 509.04"/>
    </g>
    <path class="st10" d="M332,453.6l-9.04-9.04-11.12,11.12-6.81-6.81-15.81,15.81h43.11s-.32-12.13-.32-11.08h-.01Z"/>
    <circle class="st18" cx="319.91" cy="438.52" r="2.88"/>
    <line class="st10" x1="289.2" y1="412.58" x2="300.25" y2="412.58"/>
    <line class="st10" x1="289.2" y1="418.87" x2="300.25" y2="418.87"/>
    <line class="st10" x1="307.17" y1="483.82" x2="318.21" y2="483.82"/>
  </g>
  <circle class="st0" cx="527.17" cy="531.16" r="5.71"/>
  <circle class="st0" cx="796.3" cy="665.22" r="5.71"/>
  <circle class="st0" cx="1065.43" cy="127.9" r="2.85"/>
  <circle class="st0" cx="930.87" cy="262.16" r="2.85"/>
  <circle class="st0" cx="527.17" cy="127.9" r="2.85"/>
  <circle class="st0" cx="123.47" cy="396.74" r="2.85"/>
  <g class="st17">
    <g class="st17">
      <path class="st0" d="M200.16,112.24c0-4.92,3.62-8.28,8.16-8.28,2.9,0,4.87,1.37,6.14,3.17l-1.68.94c-.91-1.34-2.57-2.33-4.46-2.33-3.43,0-6.1,2.69-6.1,6.5s2.66,6.5,6.1,6.5c1.9,0,3.55-.96,4.46-2.33l1.7.94c-1.34,1.82-3.26,3.17-6.17,3.17-4.54,0-8.16-3.36-8.16-8.28Z"/>
      <path class="st0" d="M216.96,120.23v-11.59h1.8v1.87c.94-1.22,2.28-2.11,3.86-2.11v1.85c-.22-.05-.43-.07-.72-.07-1.1,0-2.62.91-3.14,1.85v8.21h-1.8Z"/>
      <path class="st0" d="M229.92,108.35c3.5,0,5.57,2.74,5.57,6.22v.46h-9.38c.14,2.18,1.68,4.01,4.18,4.01,1.32,0,2.66-.53,3.58-1.46l.86,1.18c-1.15,1.15-2.71,1.78-4.61,1.78-3.43,0-5.9-2.47-5.9-6.1,0-3.36,2.4-6.07,5.71-6.07ZM226.11,113.7h7.61c-.02-1.73-1.18-3.86-3.82-3.86-2.47,0-3.7,2.09-3.79,3.86Z"/>
      <path class="st0" d="M245.64,120.23v-1.32c-.96,1.06-2.28,1.61-3.84,1.61-1.97,0-4.06-1.32-4.06-3.84s2.09-3.82,4.06-3.82c1.58,0,2.9.5,3.84,1.58v-2.09c0-1.56-1.25-2.45-2.93-2.45-1.39,0-2.52.5-3.55,1.61l-.84-1.25c1.25-1.3,2.74-1.92,4.63-1.92,2.45,0,4.49,1.1,4.49,3.91v7.97h-1.8ZM245.64,115.6c-.7-.96-1.92-1.44-3.19-1.44-1.68,0-2.86,1.06-2.86,2.54s1.18,2.52,2.86,2.52c1.27,0,2.5-.48,3.19-1.44v-2.18Z"/>
      <path class="st0" d="M251.4,117.81v-7.58h-1.92v-1.58h1.92v-3.17h1.8v3.17h2.35v1.58h-2.35v7.2c0,.86.38,1.49,1.18,1.49.5,0,.98-.22,1.22-.48l.53,1.34c-.46.43-1.1.74-2.16.74-1.7,0-2.57-.98-2.57-2.71Z"/>
      <path class="st0" d="M263.14,108.35c3.5,0,5.57,2.74,5.57,6.22v.46h-9.38c.14,2.18,1.68,4.01,4.18,4.01,1.32,0,2.66-.53,3.58-1.46l.86,1.18c-1.15,1.15-2.71,1.78-4.61,1.78-3.43,0-5.9-2.47-5.9-6.1,0-3.36,2.4-6.07,5.71-6.07ZM259.32,113.7h7.61c-.02-1.73-1.18-3.86-3.82-3.86-2.47,0-3.7,2.09-3.79,3.86Z"/>
      <path class="st0" d="M285.05,120.23v-1.32c-.96,1.06-2.28,1.61-3.84,1.61-1.97,0-4.06-1.32-4.06-3.84s2.09-3.82,4.06-3.82c1.58,0,2.9.5,3.84,1.58v-2.09c0-1.56-1.25-2.45-2.93-2.45-1.39,0-2.52.5-3.55,1.61l-.84-1.25c1.25-1.3,2.74-1.92,4.63-1.92,2.45,0,4.49,1.1,4.49,3.91v7.97h-1.8ZM285.05,115.6c-.7-.96-1.92-1.44-3.19-1.44-1.68,0-2.86,1.06-2.86,2.54s1.18,2.52,2.86,2.52c1.27,0,2.5-.48,3.19-1.44v-2.18Z"/>
      <path class="st0" d="M296.93,116.46c1.06,1.18,2.78,2.28,5.04,2.28,2.86,0,3.77-1.54,3.77-2.76,0-1.92-1.94-2.45-4.06-3.02-2.57-.67-5.42-1.39-5.42-4.54,0-2.64,2.35-4.44,5.5-4.44,2.45,0,4.34.82,5.69,2.23l-1.2,1.46c-1.2-1.32-2.88-1.92-4.63-1.92-1.92,0-3.29,1.03-3.29,2.54,0,1.61,1.85,2.09,3.89,2.64,2.62.7,5.59,1.51,5.59,4.87,0,2.33-1.58,4.7-5.9,4.7-2.78,0-4.82-1.06-6.14-2.54l1.18-1.51Z"/>
      <path class="st0" d="M310.66,117.81v-7.58h-1.92v-1.58h1.92v-3.17h1.8v3.17h2.35v1.58h-2.35v7.2c0,.86.38,1.49,1.18,1.49.5,0,.98-.22,1.22-.48l.53,1.34c-.46.43-1.1.74-2.16.74-1.7,0-2.57-.98-2.57-2.71Z"/>
      <path class="st0" d="M316.68,114.42c0-3.36,2.21-6.07,5.74-6.07s5.74,2.71,5.74,6.07-2.21,6.1-5.74,6.1-5.74-2.74-5.74-6.1ZM326.26,114.42c0-2.35-1.37-4.46-3.84-4.46s-3.86,2.11-3.86,4.46,1.39,4.49,3.86,4.49,3.84-2.11,3.84-4.49Z"/>
      <path class="st0" d="M331.08,120.23v-11.59h1.8v1.87c.94-1.22,2.28-2.11,3.86-2.11v1.85c-.22-.05-.43-.07-.72-.07-1.1,0-2.62.91-3.14,1.85v8.21h-1.8Z"/>
      <path class="st0" d="M338.64,123.13c.26.12.7.19.98.19.79,0,1.32-.26,1.73-1.22l.77-1.75-4.85-11.71h1.94l3.86,9.5,3.84-9.5h1.97l-5.81,13.95c-.7,1.68-1.87,2.33-3.41,2.35-.38,0-.98-.07-1.32-.17l.29-1.63Z"/>
      <path class="st0" d="M357.02,120.23v-16.01h7.13c2.78,0,4.49,1.68,4.49,4.08,0,2.02-1.34,3.36-2.81,3.67,1.7.26,3.12,2.02,3.12,3.94,0,2.57-1.7,4.32-4.63,4.32h-7.3ZM359.02,111.16h4.8c1.8,0,2.76-1.1,2.76-2.57s-.96-2.59-2.76-2.59h-4.8v5.16ZM359.02,118.45h4.9c1.87,0,2.98-1.06,2.98-2.76,0-1.46-1.01-2.76-2.98-2.76h-4.9v5.52Z"/>
      <path class="st0" d="M379.87,120.23v-1.63c-.89,1.01-2.4,1.92-4.13,1.92-2.42,0-3.7-1.18-3.7-3.7v-8.18h1.8v7.63c0,2.04,1.03,2.64,2.59,2.64,1.42,0,2.76-.82,3.43-1.75v-8.52h1.8v11.59h-1.8Z"/>
      <path class="st0" d="M384.96,105.47c0-.67.55-1.2,1.2-1.2s1.22.53,1.22,1.2-.55,1.22-1.22,1.22-1.2-.55-1.2-1.22ZM385.27,120.23v-11.59h1.8v11.59h-1.8Z"/>
      <path class="st0" d="M390.67,120.23v-16.01h1.8v16.01h-1.8Z"/>
      <path class="st0" d="M404.47,120.23v-1.73c-.86,1.18-2.28,2.02-3.91,2.02-3.02,0-5.16-2.3-5.16-6.07s2.11-6.1,5.16-6.1c1.56,0,2.98.77,3.91,2.04v-6.17h1.8v16.01h-1.8ZM404.47,111.83c-.65-1.01-2.04-1.87-3.48-1.87-2.33,0-3.72,1.92-3.72,4.49s1.39,4.46,3.72,4.46c1.44,0,2.83-.82,3.48-1.82v-5.26Z"/>
      <path class="st0" d="M414.91,108.35c3.5,0,5.57,2.74,5.57,6.22v.46h-9.38c.14,2.18,1.68,4.01,4.18,4.01,1.32,0,2.66-.53,3.58-1.46l.86,1.18c-1.15,1.15-2.71,1.78-4.61,1.78-3.43,0-5.9-2.47-5.9-6.1,0-3.36,2.4-6.07,5.71-6.07ZM411.1,113.7h7.61c-.02-1.73-1.18-3.86-3.82-3.86-2.47,0-3.7,2.09-3.79,3.86Z"/>
      <path class="st0" d="M423.38,120.23v-11.59h1.8v1.87c.94-1.22,2.28-2.11,3.86-2.11v1.85c-.22-.05-.43-.07-.72-.07-1.1,0-2.62.91-3.14,1.85v8.21h-1.8Z"/>
      <path class="st0" d="M437.86,117.81v-7.58h-1.92v-1.58h1.92v-3.17h1.8v3.17h2.35v1.58h-2.35v7.2c0,.86.38,1.49,1.18,1.49.5,0,.98-.22,1.22-.48l.53,1.34c-.46.43-1.1.74-2.16.74-1.7,0-2.57-.98-2.57-2.71Z"/>
      <path class="st0" d="M443.88,114.42c0-3.36,2.21-6.07,5.74-6.07s5.74,2.71,5.74,6.07-2.21,6.1-5.74,6.1-5.74-2.74-5.74-6.1ZM453.46,114.42c0-2.35-1.37-4.46-3.84-4.46s-3.86,2.11-3.86,4.46,1.39,4.49,3.86,4.49,3.84-2.11,3.84-4.49Z"/>
      <path class="st0" d="M457.61,114.42c0-3.36,2.21-6.07,5.74-6.07s5.74,2.71,5.74,6.07-2.21,6.1-5.74,6.1-5.74-2.74-5.74-6.1ZM467.18,114.42c0-2.35-1.37-4.46-3.84-4.46s-3.86,2.11-3.86,4.46,1.39,4.49,3.86,4.49,3.84-2.11,3.84-4.49Z"/>
      <path class="st0" d="M472.01,120.23v-16.01h1.8v16.01h-1.8Z"/>
    </g>
    <g class="st17">
      <path class="st0" d="M203.04,139.02v10.01h-1.8v-10.01h-1.92v-1.58h1.92v-.89c0-2.4,1.34-3.77,3.36-3.77.67,0,1.3.12,1.75.41l-.46,1.34c-.29-.17-.62-.26-1.03-.26-1.18,0-1.82.82-1.82,2.28v.89h2.35v1.58h-2.35Z"/>
      <path class="st0" d="M206.86,143.22c0-3.36,2.21-6.07,5.74-6.07s5.74,2.71,5.74,6.07-2.21,6.1-5.74,6.1-5.74-2.74-5.74-6.1ZM216.44,143.22c0-2.35-1.37-4.46-3.84-4.46s-3.86,2.11-3.86,4.46,1.39,4.49,3.86,4.49,3.84-2.11,3.84-4.49Z"/>
      <path class="st0" d="M221.26,149.03v-11.59h1.8v1.87c.94-1.22,2.28-2.11,3.86-2.11v1.85c-.22-.05-.43-.07-.72-.07-1.1,0-2.62.91-3.14,1.85v8.21h-1.8Z"/>
      <path class="st0" d="M235.06,134.27c0-.67.55-1.2,1.2-1.2s1.22.53,1.22,1.2-.55,1.22-1.22,1.22-1.2-.55-1.2-1.22ZM235.37,149.03v-11.59h1.8v11.59h-1.8Z"/>
      <path class="st0" d="M248.6,149.03v-7.58c0-2.04-1.03-2.69-2.59-2.69-1.42,0-2.76.86-3.43,1.8v8.47h-1.8v-11.59h1.8v1.68c.82-.96,2.4-1.97,4.13-1.97,2.42,0,3.7,1.22,3.7,3.74v8.14h-1.8Z"/>
      <path class="st0" d="M262.4,149.03v-1.73c-.86,1.18-2.28,2.02-3.91,2.02-3.02,0-5.16-2.3-5.16-6.07s2.11-6.1,5.16-6.1c1.56,0,2.98.77,3.91,2.04v-6.17h1.8v16.01h-1.8ZM262.4,140.63c-.65-1.01-2.04-1.87-3.48-1.87-2.33,0-3.72,1.92-3.72,4.49s1.39,4.46,3.72,4.46c1.44,0,2.83-.82,3.48-1.82v-5.26Z"/>
      <path class="st0" d="M267.48,134.27c0-.67.55-1.2,1.2-1.2s1.22.53,1.22,1.2-.55,1.22-1.22,1.22-1.2-.55-1.2-1.22ZM267.79,149.03v-11.59h1.8v11.59h-1.8Z"/>
      <path class="st0" d="M276.29,149.03l-4.82-11.59h1.94l3.86,9.5,3.84-9.5h1.97l-4.82,11.59h-1.97Z"/>
      <path class="st0" d="M284.64,134.27c0-.67.55-1.2,1.2-1.2s1.22.53,1.22,1.2-.55,1.22-1.22,1.22-1.2-.55-1.2-1.22ZM284.95,149.03v-11.59h1.8v11.59h-1.8Z"/>
      <path class="st0" d="M298.75,149.03v-1.73c-.86,1.18-2.28,2.02-3.91,2.02-3.02,0-5.16-2.3-5.16-6.07s2.11-6.1,5.16-6.1c1.56,0,2.98.77,3.91,2.04v-6.17h1.8v16.01h-1.8ZM298.75,140.63c-.65-1.01-2.04-1.87-3.48-1.87-2.33,0-3.72,1.92-3.72,4.49s1.39,4.46,3.72,4.46c1.44,0,2.83-.82,3.48-1.82v-5.26Z"/>
      <path class="st0" d="M311.98,149.03v-1.63c-.89,1.01-2.4,1.92-4.13,1.92-2.42,0-3.7-1.18-3.7-3.7v-8.18h1.8v7.63c0,2.04,1.03,2.64,2.59,2.64,1.42,0,2.76-.82,3.43-1.75v-8.52h1.8v11.59h-1.8Z"/>
      <path class="st0" d="M324.63,149.03v-1.32c-.96,1.06-2.28,1.61-3.84,1.61-1.97,0-4.06-1.32-4.06-3.84s2.09-3.82,4.06-3.82c1.58,0,2.9.5,3.84,1.58v-2.09c0-1.56-1.25-2.45-2.93-2.45-1.39,0-2.52.5-3.55,1.61l-.84-1.25c1.25-1.3,2.74-1.92,4.63-1.92,2.45,0,4.49,1.1,4.49,3.91v7.97h-1.8ZM324.63,144.4c-.7-.96-1.92-1.44-3.19-1.44-1.68,0-2.86,1.06-2.86,2.54s1.18,2.52,2.86,2.52c1.27,0,2.5-.48,3.19-1.44v-2.18Z"/>
      <path class="st0" d="M330.03,149.03v-16.01h1.8v16.01h-1.8Z"/>
      <path class="st0" d="M335.35,146.2c.77.89,2.23,1.66,3.82,1.66,1.78,0,2.74-.79,2.74-1.92,0-1.27-1.42-1.68-2.98-2.06-1.97-.46-4.2-.98-4.2-3.38,0-1.8,1.56-3.34,4.32-3.34,1.97,0,3.36.74,4.3,1.68l-.84,1.25c-.7-.84-1.97-1.46-3.46-1.46-1.58,0-2.57.72-2.57,1.75,0,1.13,1.32,1.49,2.83,1.85,2.02.46,4.34,1.03,4.34,3.6,0,1.94-1.56,3.5-4.56,3.5-1.9,0-3.5-.58-4.68-1.82l.94-1.3Z"/>
      <path class="st0" d="M346.15,151.33c.77-.5,1.46-1.44,1.56-2.23-.05.02-.22.05-.34.05-.67,0-1.15-.5-1.15-1.22s.55-1.3,1.27-1.3c.79,0,1.51.67,1.51,1.82,0,1.46-.86,2.83-1.97,3.62l-.89-.74Z"/>
      <path class="st0" d="M357.62,143.22c0-3.36,2.21-6.07,5.74-6.07s5.74,2.71,5.74,6.07-2.21,6.1-5.74,6.1-5.74-2.74-5.74-6.1ZM367.2,143.22c0-2.35-1.37-4.46-3.84-4.46s-3.86,2.11-3.86,4.46,1.39,4.49,3.86,4.49,3.84-2.11,3.84-4.49Z"/>
      <path class="st0" d="M372.03,149.03v-11.59h1.8v1.87c.94-1.22,2.28-2.11,3.86-2.11v1.85c-.22-.05-.43-.07-.72-.07-1.1,0-2.62.91-3.14,1.85v8.21h-1.8Z"/>
      <path class="st0" d="M380.83,150.66c.96,1.15,2.11,1.58,3.77,1.58,1.92,0,3.72-.94,3.72-3.48v-1.66c-.84,1.18-2.26,2.06-3.89,2.06-3.02,0-5.16-2.26-5.16-6s2.11-6.02,5.16-6.02c1.56,0,2.95.77,3.89,2.04v-1.75h1.8v11.26c0,3.84-2.69,5.04-5.52,5.04-1.97,0-3.31-.38-4.68-1.73l.91-1.34ZM388.32,140.63c-.62-1.01-2.02-1.87-3.46-1.87-2.33,0-3.72,1.85-3.72,4.42s1.39,4.42,3.72,4.42c1.44,0,2.83-.89,3.46-1.9v-5.06Z"/>
      <path class="st0" d="M400.97,149.03v-1.32c-.96,1.06-2.28,1.61-3.84,1.61-1.97,0-4.06-1.32-4.06-3.84s2.09-3.82,4.06-3.82c1.58,0,2.9.5,3.84,1.58v-2.09c0-1.56-1.25-2.45-2.93-2.45-1.39,0-2.52.5-3.55,1.61l-.84-1.25c1.25-1.3,2.74-1.92,4.63-1.92,2.45,0,4.49,1.1,4.49,3.91v7.97h-1.8ZM400.97,144.4c-.7-.96-1.92-1.44-3.19-1.44-1.68,0-2.86,1.06-2.86,2.54s1.18,2.52,2.86,2.52c1.27,0,2.5-.48,3.19-1.44v-2.18Z"/>
      <path class="st0" d="M414.19,149.03v-7.58c0-2.04-1.03-2.69-2.59-2.69-1.42,0-2.76.86-3.43,1.8v8.47h-1.8v-11.59h1.8v1.68c.82-.96,2.4-1.97,4.13-1.97,2.42,0,3.7,1.22,3.7,3.74v8.14h-1.8Z"/>
      <path class="st0" d="M419.28,134.27c0-.67.55-1.2,1.2-1.2s1.22.53,1.22,1.2-.55,1.22-1.22,1.22-1.2-.55-1.2-1.22ZM419.59,149.03v-11.59h1.8v11.59h-1.8Z"/>
      <path class="st0" d="M424.92,146.2c.77.89,2.23,1.66,3.82,1.66,1.78,0,2.74-.79,2.74-1.92,0-1.27-1.42-1.68-2.98-2.06-1.97-.46-4.2-.98-4.2-3.38,0-1.8,1.56-3.34,4.32-3.34,1.97,0,3.36.74,4.3,1.68l-.84,1.25c-.7-.84-1.97-1.46-3.46-1.46-1.58,0-2.57.72-2.57,1.75,0,1.13,1.32,1.49,2.83,1.85,2.02.46,4.34,1.03,4.34,3.6,0,1.94-1.56,3.5-4.56,3.5-1.9,0-3.5-.58-4.68-1.82l.94-1.3Z"/>
      <path class="st0" d="M443.4,149.03v-1.32c-.96,1.06-2.28,1.61-3.84,1.61-1.97,0-4.06-1.32-4.06-3.84s2.09-3.82,4.06-3.82c1.58,0,2.9.5,3.84,1.58v-2.09c0-1.56-1.25-2.45-2.93-2.45-1.39,0-2.52.5-3.55,1.61l-.84-1.25c1.25-1.3,2.74-1.92,4.63-1.92,2.45,0,4.49,1.1,4.49,3.91v7.97h-1.8ZM443.4,144.4c-.7-.96-1.92-1.44-3.19-1.44-1.68,0-2.86,1.06-2.86,2.54s1.18,2.52,2.86,2.52c1.27,0,2.5-.48,3.19-1.44v-2.18Z"/>
      <path class="st0" d="M449.16,146.61v-7.58h-1.92v-1.58h1.92v-3.17h1.8v3.17h2.35v1.58h-2.35v7.2c0,.86.38,1.49,1.18,1.49.5,0,.98-.22,1.22-.48l.53,1.34c-.46.43-1.1.74-2.16.74-1.7,0-2.57-.98-2.57-2.71Z"/>
      <path class="st0" d="M455.54,134.27c0-.67.55-1.2,1.2-1.2s1.22.53,1.22,1.2-.55,1.22-1.22,1.22-1.2-.55-1.2-1.22ZM455.86,149.03v-11.59h1.8v11.59h-1.8Z"/>
      <path class="st0" d="M460.58,143.22c0-3.36,2.21-6.07,5.74-6.07s5.74,2.71,5.74,6.07-2.21,6.1-5.74,6.1-5.74-2.74-5.74-6.1ZM470.16,143.22c0-2.35-1.37-4.46-3.84-4.46s-3.86,2.11-3.86,4.46,1.39,4.49,3.86,4.49,3.84-2.11,3.84-4.49Z"/>
      <path class="st0" d="M482.81,149.03v-7.58c0-2.04-1.03-2.69-2.59-2.69-1.42,0-2.76.86-3.43,1.8v8.47h-1.8v-11.59h1.8v1.68c.82-.96,2.4-1.97,4.13-1.97,2.42,0,3.7,1.22,3.7,3.74v8.14h-1.8Z"/>
      <path class="st0" d="M488.13,146.2c.77.89,2.23,1.66,3.82,1.66,1.78,0,2.74-.79,2.74-1.92,0-1.27-1.42-1.68-2.98-2.06-1.97-.46-4.2-.98-4.2-3.38,0-1.8,1.56-3.34,4.32-3.34,1.97,0,3.36.74,4.3,1.68l-.84,1.25c-.7-.84-1.97-1.46-3.46-1.46-1.58,0-2.57.72-2.57,1.75,0,1.13,1.32,1.49,2.83,1.85,2.02.46,4.34,1.03,4.34,3.6,0,1.94-1.56,3.5-4.56,3.5-1.9,0-3.5-.58-4.68-1.82l.94-1.3Z"/>
    </g>
    <g class="st17">
      <path class="st0" d="M207.99,177.83v-1.32c-.96,1.06-2.28,1.61-3.84,1.61-1.97,0-4.06-1.32-4.06-3.84s2.09-3.82,4.06-3.82c1.58,0,2.9.5,3.84,1.58v-2.09c0-1.56-1.25-2.45-2.93-2.45-1.39,0-2.52.5-3.55,1.61l-.84-1.25c1.25-1.3,2.74-1.92,4.63-1.92,2.45,0,4.49,1.1,4.49,3.91v7.97h-1.8ZM207.99,173.2c-.7-.96-1.92-1.44-3.19-1.44-1.68,0-2.86,1.06-2.86,2.54s1.18,2.52,2.86,2.52c1.27,0,2.5-.48,3.19-1.44v-2.18Z"/>
      <path class="st0" d="M221.21,177.83v-7.58c0-2.04-1.03-2.69-2.59-2.69-1.42,0-2.76.86-3.43,1.8v8.47h-1.8v-11.59h1.8v1.68c.82-.96,2.4-1.97,4.13-1.97,2.42,0,3.7,1.22,3.7,3.74v8.14h-1.8Z"/>
      <path class="st0" d="M235.01,177.83v-1.73c-.86,1.18-2.28,2.02-3.91,2.02-3.02,0-5.16-2.3-5.16-6.07s2.11-6.1,5.16-6.1c1.56,0,2.98.77,3.91,2.04v-6.17h1.8v16.01h-1.8ZM235.01,169.43c-.65-1.01-2.04-1.87-3.48-1.87-2.33,0-3.72,1.92-3.72,4.49s1.39,4.46,3.72,4.46c1.44,0,2.83-.82,3.48-1.82v-5.26Z"/>
      <path class="st0" d="M253.85,177.83v-1.32c-.96,1.06-2.28,1.61-3.84,1.61-1.97,0-4.06-1.32-4.06-3.84s2.09-3.82,4.06-3.82c1.58,0,2.9.5,3.84,1.58v-2.09c0-1.56-1.25-2.45-2.93-2.45-1.39,0-2.52.5-3.55,1.61l-.84-1.25c1.25-1.3,2.74-1.92,4.63-1.92,2.45,0,4.49,1.1,4.49,3.91v7.97h-1.8ZM253.85,173.2c-.7-.96-1.92-1.44-3.19-1.44-1.68,0-2.86,1.06-2.86,2.54s1.18,2.52,2.86,2.52c1.27,0,2.5-.48,3.19-1.44v-2.18Z"/>
      <path class="st0" d="M261.05,182.25h-1.8v-16.01h1.8v1.73c.84-1.18,2.28-2.02,3.91-2.02,3.05,0,5.16,2.3,5.16,6.07s-2.11,6.1-5.16,6.1c-1.58,0-2.98-.74-3.91-2.04v6.17ZM264.51,167.56c-1.42,0-2.83.84-3.46,1.85v5.23c.62,1.01,2.04,1.87,3.46,1.87,2.33,0,3.72-1.92,3.72-4.49s-1.39-4.46-3.72-4.46Z"/>
      <path class="st0" d="M274.83,182.25h-1.8v-16.01h1.8v1.73c.84-1.18,2.28-2.02,3.91-2.02,3.05,0,5.16,2.3,5.16,6.07s-2.11,6.1-5.16,6.1c-1.58,0-2.98-.74-3.91-2.04v6.17ZM278.28,167.56c-1.42,0-2.83.84-3.46,1.85v5.23c.62,1.01,2.04,1.87,3.46,1.87,2.33,0,3.72-1.92,3.72-4.49s-1.39-4.46-3.72-4.46Z"/>
      <path class="st0" d="M286.8,177.83v-16.01h1.8v16.01h-1.8Z"/>
      <path class="st0" d="M291.89,163.07c0-.67.55-1.2,1.2-1.2s1.22.53,1.22,1.2-.55,1.22-1.22,1.22-1.2-.55-1.2-1.22ZM292.2,177.83v-11.59h1.8v11.59h-1.8Z"/>
      <path class="st0" d="M302.71,165.95c2.11,0,3.36.86,4.25,2.02l-1.2,1.1c-.77-1.06-1.75-1.51-2.95-1.51-2.47,0-4.01,1.9-4.01,4.46s1.54,4.49,4.01,4.49c1.2,0,2.18-.48,2.95-1.51l1.2,1.1c-.89,1.15-2.14,2.02-4.25,2.02-3.46,0-5.78-2.64-5.78-6.1s2.33-6.07,5.78-6.07Z"/>
      <path class="st0" d="M316.73,177.83v-1.32c-.96,1.06-2.28,1.61-3.84,1.61-1.97,0-4.06-1.32-4.06-3.84s2.09-3.82,4.06-3.82c1.58,0,2.9.5,3.84,1.58v-2.09c0-1.56-1.25-2.45-2.93-2.45-1.39,0-2.52.5-3.55,1.61l-.84-1.25c1.25-1.3,2.74-1.92,4.63-1.92,2.45,0,4.49,1.1,4.49,3.91v7.97h-1.8ZM316.73,173.2c-.7-.96-1.92-1.44-3.19-1.44-1.68,0-2.86,1.06-2.86,2.54s1.18,2.52,2.86,2.52c1.27,0,2.5-.48,3.19-1.44v-2.18Z"/>
      <path class="st0" d="M322.49,175.41v-7.58h-1.92v-1.58h1.92v-3.17h1.8v3.17h2.35v1.58h-2.35v7.2c0,.86.38,1.49,1.18,1.49.5,0,.98-.22,1.22-.48l.53,1.34c-.46.43-1.1.74-2.16.74-1.7,0-2.57-.98-2.57-2.71Z"/>
      <path class="st0" d="M328.87,163.07c0-.67.55-1.2,1.2-1.2s1.22.53,1.22,1.2-.55,1.22-1.22,1.22-1.2-.55-1.2-1.22ZM329.19,177.83v-11.59h1.8v11.59h-1.8Z"/>
      <path class="st0" d="M333.91,172.02c0-3.36,2.21-6.07,5.74-6.07s5.74,2.71,5.74,6.07-2.21,6.1-5.74,6.1-5.74-2.74-5.74-6.1ZM343.49,172.02c0-2.35-1.37-4.46-3.84-4.46s-3.86,2.11-3.86,4.46,1.39,4.49,3.86,4.49,3.84-2.11,3.84-4.49Z"/>
      <path class="st0" d="M356.14,177.83v-7.58c0-2.04-1.03-2.69-2.59-2.69-1.42,0-2.76.86-3.43,1.8v8.47h-1.8v-11.59h1.8v1.68c.82-.96,2.4-1.97,4.13-1.97,2.42,0,3.7,1.22,3.7,3.74v8.14h-1.8Z"/>
      <path class="st0" d="M361.47,175c.77.89,2.23,1.66,3.82,1.66,1.78,0,2.74-.79,2.74-1.92,0-1.27-1.42-1.68-2.98-2.06-1.97-.46-4.2-.98-4.2-3.38,0-1.8,1.56-3.34,4.32-3.34,1.97,0,3.36.74,4.3,1.68l-.84,1.25c-.7-.84-1.97-1.46-3.46-1.46-1.58,0-2.57.72-2.57,1.75,0,1.13,1.32,1.49,2.83,1.85,2.02.46,4.34,1.03,4.34,3.6,0,1.94-1.56,3.5-4.56,3.5-1.9,0-3.5-.58-4.68-1.82l.94-1.3Z"/>
      <path class="st0" d="M379.25,175.41v-7.58h-1.92v-1.58h1.92v-3.17h1.8v3.17h2.35v1.58h-2.35v7.2c0,.86.38,1.49,1.18,1.49.5,0,.98-.22,1.22-.48l.53,1.34c-.46.43-1.1.74-2.16.74-1.7,0-2.57-.98-2.57-2.71Z"/>
      <path class="st0" d="M385.27,172.02c0-3.36,2.21-6.07,5.74-6.07s5.74,2.71,5.74,6.07-2.21,6.1-5.74,6.1-5.74-2.74-5.74-6.1ZM394.85,172.02c0-2.35-1.37-4.46-3.84-4.46s-3.86,2.11-3.86,4.46,1.39,4.49,3.86,4.49,3.84-2.11,3.84-4.49Z"/>
      <path class="st0" d="M413.69,177.83v-1.63c-.89,1.01-2.4,1.92-4.13,1.92-2.42,0-3.7-1.18-3.7-3.7v-8.18h1.8v7.63c0,2.04,1.03,2.64,2.59,2.64,1.42,0,2.76-.82,3.43-1.75v-8.52h1.8v11.59h-1.8Z"/>
      <path class="st0" d="M419.02,175c.77.89,2.23,1.66,3.82,1.66,1.78,0,2.74-.79,2.74-1.92,0-1.27-1.42-1.68-2.98-2.06-1.97-.46-4.2-.98-4.2-3.38,0-1.8,1.56-3.34,4.32-3.34,1.97,0,3.36.74,4.3,1.68l-.84,1.25c-.7-.84-1.97-1.46-3.46-1.46-1.58,0-2.57.72-2.57,1.75,0,1.13,1.32,1.49,2.83,1.85,2.02.46,4.34,1.03,4.34,3.6,0,1.94-1.56,3.5-4.56,3.5-1.9,0-3.5-.58-4.68-1.82l.94-1.3Z"/>
      <path class="st0" d="M435.29,165.95c3.5,0,5.57,2.74,5.57,6.22v.46h-9.38c.14,2.18,1.68,4.01,4.18,4.01,1.32,0,2.66-.53,3.58-1.46l.86,1.18c-1.15,1.15-2.71,1.78-4.61,1.78-3.43,0-5.9-2.47-5.9-6.1,0-3.36,2.4-6.07,5.71-6.07ZM431.47,171.3h7.61c-.02-1.73-1.18-3.86-3.82-3.86-2.47,0-3.7,2.09-3.79,3.86Z"/>
      <path class="st0" d="M450.31,175.41v-7.58h-1.92v-1.58h1.92v-3.17h1.8v3.17h2.35v1.58h-2.35v7.2c0,.86.38,1.49,1.18,1.49.5,0,.98-.22,1.22-.48l.53,1.34c-.46.43-1.1.74-2.16.74-1.7,0-2.57-.98-2.57-2.71Z"/>
      <path class="st0" d="M456.34,172.02c0-3.36,2.21-6.07,5.74-6.07s5.74,2.71,5.74,6.07-2.21,6.1-5.74,6.1-5.74-2.74-5.74-6.1ZM465.91,172.02c0-2.35-1.37-4.46-3.84-4.46s-3.86,2.11-3.86,4.46,1.39,4.49,3.86,4.49,3.84-2.11,3.84-4.49Z"/>
    </g>
    <g class="st17">
      <path class="st0" d="M200.74,206.63v-16.01h1.8v6.17c.94-1.27,2.33-2.04,3.91-2.04,3.02,0,5.16,2.4,5.16,6.1s-2.14,6.07-5.16,6.07c-1.63,0-3.05-.84-3.91-2.02v1.73h-1.8ZM202.54,203.49c.62,1.01,2.04,1.82,3.46,1.82,2.35,0,3.74-1.9,3.74-4.46s-1.39-4.49-3.74-4.49c-1.42,0-2.83.86-3.46,1.87v5.26Z"/>
      <path class="st0" d="M222.36,206.63v-1.63c-.89,1.01-2.4,1.92-4.13,1.92-2.42,0-3.7-1.18-3.7-3.7v-8.18h1.8v7.63c0,2.04,1.03,2.64,2.59,2.64,1.42,0,2.76-.82,3.43-1.75v-8.52h1.8v11.59h-1.8Z"/>
      <path class="st0" d="M227.45,191.87c0-.67.55-1.2,1.2-1.2s1.22.53,1.22,1.2-.55,1.22-1.22,1.22-1.2-.55-1.2-1.22ZM227.76,206.63v-11.59h1.8v11.59h-1.8Z"/>
      <path class="st0" d="M233.16,206.63v-16.01h1.8v16.01h-1.8Z"/>
      <path class="st0" d="M246.96,206.63v-1.73c-.86,1.18-2.28,2.02-3.91,2.02-3.02,0-5.16-2.3-5.16-6.07s2.11-6.1,5.16-6.1c1.56,0,2.98.77,3.91,2.04v-6.17h1.8v16.01h-1.8ZM246.96,198.23c-.65-1.01-2.04-1.87-3.48-1.87-2.33,0-3.72,1.92-3.72,4.49s1.39,4.46,3.72,4.46c1.44,0,2.83-.82,3.48-1.82v-5.26Z"/>
      <path class="st0" d="M266.96,206.63v-1.73c-.86,1.18-2.28,2.02-3.91,2.02-3.02,0-5.16-2.3-5.16-6.07s2.11-6.1,5.16-6.1c1.56,0,2.98.77,3.91,2.04v-6.17h1.8v16.01h-1.8ZM266.96,198.23c-.65-1.01-2.04-1.87-3.48-1.87-2.33,0-3.72,1.92-3.72,4.49s1.39,4.46,3.72,4.46c1.44,0,2.83-.82,3.48-1.82v-5.26Z"/>
      <path class="st0" d="M279.6,206.63v-1.32c-.96,1.06-2.28,1.61-3.84,1.61-1.97,0-4.06-1.32-4.06-3.84s2.09-3.82,4.06-3.82c1.58,0,2.9.5,3.84,1.58v-2.09c0-1.56-1.25-2.45-2.93-2.45-1.39,0-2.52.5-3.55,1.61l-.84-1.25c1.25-1.3,2.74-1.92,4.63-1.92,2.45,0,4.49,1.1,4.49,3.91v7.97h-1.8ZM279.6,202c-.7-.96-1.92-1.44-3.19-1.44-1.68,0-2.86,1.06-2.86,2.54s1.18,2.52,2.86,2.52c1.27,0,2.5-.48,3.19-1.44v-2.18Z"/>
      <path class="st0" d="M285.36,204.21v-7.58h-1.92v-1.58h1.92v-3.17h1.8v3.17h2.35v1.58h-2.35v7.2c0,.86.38,1.49,1.18,1.49.5,0,.98-.22,1.22-.48l.53,1.34c-.46.43-1.1.74-2.16.74-1.7,0-2.57-.98-2.57-2.71Z"/>
      <path class="st0" d="M299.31,206.63v-1.32c-.96,1.06-2.28,1.61-3.84,1.61-1.97,0-4.06-1.32-4.06-3.84s2.09-3.82,4.06-3.82c1.58,0,2.9.5,3.84,1.58v-2.09c0-1.56-1.25-2.45-2.93-2.45-1.39,0-2.52.5-3.55,1.61l-.84-1.25c1.25-1.3,2.74-1.92,4.63-1.92,2.45,0,4.49,1.1,4.49,3.91v7.97h-1.8ZM299.31,202c-.7-.96-1.92-1.44-3.19-1.44-1.68,0-2.86,1.06-2.86,2.54s1.18,2.52,2.86,2.52c1.27,0,2.5-.48,3.19-1.44v-2.18Z"/>
      <path class="st0" d="M303.63,201.61v-1.58h5.76v1.58h-5.76Z"/>
      <path class="st0" d="M320.31,206.63v-1.73c-.86,1.18-2.28,2.02-3.91,2.02-3.02,0-5.16-2.3-5.16-6.07s2.11-6.1,5.16-6.1c1.56,0,2.98.77,3.91,2.04v-6.17h1.8v16.01h-1.8ZM320.31,198.23c-.65-1.01-2.04-1.87-3.48-1.87-2.33,0-3.72,1.92-3.72,4.49s1.39,4.46,3.72,4.46c1.44,0,2.83-.82,3.48-1.82v-5.26Z"/>
      <path class="st0" d="M325.71,206.63v-11.59h1.8v1.87c.94-1.22,2.28-2.11,3.86-2.11v1.85c-.22-.05-.43-.07-.72-.07-1.1,0-2.62.91-3.14,1.85v8.21h-1.8Z"/>
      <path class="st0" d="M333.31,191.87c0-.67.55-1.2,1.2-1.2s1.22.53,1.22,1.2-.55,1.22-1.22,1.22-1.2-.55-1.2-1.22ZM333.63,206.63v-11.59h1.8v11.59h-1.8Z"/>
      <path class="st0" d="M342.12,206.63l-4.82-11.59h1.94l3.86,9.5,3.84-9.5h1.97l-4.82,11.59h-1.97Z"/>
      <path class="st0" d="M355.83,194.75c3.5,0,5.57,2.74,5.57,6.22v.46h-9.38c.14,2.18,1.68,4.01,4.18,4.01,1.32,0,2.66-.53,3.58-1.46l.86,1.18c-1.15,1.15-2.71,1.78-4.61,1.78-3.43,0-5.9-2.47-5.9-6.1,0-3.36,2.4-6.07,5.71-6.07ZM352.01,200.1h7.61c-.02-1.73-1.18-3.86-3.82-3.86-2.47,0-3.7,2.09-3.79,3.86Z"/>
      <path class="st0" d="M372.12,206.63v-7.58c0-2.04-1.03-2.69-2.59-2.69-1.42,0-2.76.86-3.43,1.8v8.47h-1.8v-11.59h1.8v1.68c.82-.96,2.4-1.97,4.13-1.97,2.42,0,3.7,1.22,3.7,3.74v8.14h-1.8Z"/>
      <path class="st0" d="M383.64,203.8c.77.89,2.23,1.66,3.82,1.66,1.78,0,2.74-.79,2.74-1.92,0-1.27-1.42-1.68-2.98-2.06-1.97-.46-4.2-.98-4.2-3.38,0-1.8,1.56-3.34,4.32-3.34,1.97,0,3.36.74,4.3,1.68l-.84,1.25c-.7-.84-1.97-1.46-3.46-1.46-1.58,0-2.57.72-2.57,1.75,0,1.13,1.32,1.49,2.83,1.85,2.02.46,4.34,1.03,4.34,3.6,0,1.94-1.56,3.5-4.56,3.5-1.9,0-3.5-.58-4.68-1.82l.94-1.3Z"/>
      <path class="st0" d="M395.23,204.21v-7.58h-1.92v-1.58h1.92v-3.17h1.8v3.17h2.35v1.58h-2.35v7.2c0,.86.38,1.49,1.18,1.49.5,0,.98-.22,1.22-.48l.53,1.34c-.46.43-1.1.74-2.16.74-1.7,0-2.57-.98-2.57-2.71Z"/>
      <path class="st0" d="M401.26,200.82c0-3.36,2.21-6.07,5.74-6.07s5.74,2.71,5.74,6.07-2.21,6.1-5.74,6.1-5.74-2.74-5.74-6.1ZM410.83,200.82c0-2.35-1.37-4.46-3.84-4.46s-3.86,2.11-3.86,4.46,1.39,4.49,3.86,4.49,3.84-2.11,3.84-4.49Z"/>
      <path class="st0" d="M415.66,206.63v-11.59h1.8v1.87c.94-1.22,2.28-2.11,3.86-2.11v1.85c-.22-.05-.43-.07-.72-.07-1.1,0-2.62.91-3.14,1.85v8.21h-1.8Z"/>
      <path class="st0" d="M423.26,191.87c0-.67.55-1.2,1.2-1.2s1.22.53,1.22,1.2-.55,1.22-1.22,1.22-1.2-.55-1.2-1.22ZM423.58,206.63v-11.59h1.8v11.59h-1.8Z"/>
      <path class="st0" d="M434.02,194.75c3.5,0,5.57,2.74,5.57,6.22v.46h-9.38c.14,2.18,1.68,4.01,4.18,4.01,1.32,0,2.66-.53,3.58-1.46l.86,1.18c-1.15,1.15-2.71,1.78-4.61,1.78-3.43,0-5.9-2.47-5.9-6.1,0-3.36,2.4-6.07,5.71-6.07ZM430.2,200.1h7.61c-.02-1.73-1.18-3.86-3.82-3.86-2.47,0-3.7,2.09-3.79,3.86Z"/>
      <path class="st0" d="M442.42,203.8c.77.89,2.23,1.66,3.82,1.66,1.78,0,2.74-.79,2.74-1.92,0-1.27-1.42-1.68-2.98-2.06-1.97-.46-4.2-.98-4.2-3.38,0-1.8,1.56-3.34,4.32-3.34,1.97,0,3.36.74,4.3,1.68l-.84,1.25c-.7-.84-1.97-1.46-3.46-1.46-1.58,0-2.57.72-2.57,1.75,0,1.13,1.32,1.49,2.83,1.85,2.02.46,4.34,1.03,4.34,3.6,0,1.94-1.56,3.5-4.56,3.5-1.9,0-3.5-.58-4.68-1.82l.94-1.3Z"/>
    </g>
  </g>
  <g class="st17">
    <g class="st17">
      <path class="st0" d="M728.6,381.82c1.06,1.18,2.78,2.28,5.04,2.28,2.86,0,3.77-1.54,3.77-2.76,0-1.92-1.94-2.45-4.06-3.02-2.57-.67-5.42-1.39-5.42-4.54,0-2.64,2.35-4.44,5.5-4.44,2.45,0,4.34.82,5.69,2.23l-1.2,1.46c-1.2-1.32-2.88-1.92-4.63-1.92-1.92,0-3.29,1.03-3.29,2.54,0,1.61,1.85,2.09,3.89,2.64,2.62.7,5.59,1.51,5.59,4.87,0,2.33-1.58,4.7-5.9,4.7-2.78,0-4.82-1.06-6.14-2.54l1.18-1.51Z"/>
      <path class="st0" d="M750.22,385.59v-7.63c0-2.04-1.06-2.64-2.62-2.64-1.39,0-2.74.86-3.43,1.8v8.47h-1.8v-16.01h1.8v6.1c.82-.96,2.4-1.97,4.15-1.97,2.42,0,3.7,1.18,3.7,3.7v8.18h-1.8Z"/>
      <path class="st0" d="M754.95,379.78c0-3.36,2.21-6.07,5.74-6.07s5.74,2.71,5.74,6.07-2.21,6.1-5.74,6.1-5.74-2.74-5.74-6.1ZM764.53,379.78c0-2.35-1.37-4.46-3.84-4.46s-3.86,2.11-3.86,4.46,1.39,4.49,3.86,4.49,3.84-2.11,3.84-4.49Z"/>
      <path class="st0" d="M779.38,385.59l-3.02-9.31-3.02,9.31h-1.8l-3.7-11.59h1.87l2.83,9.24,3.05-9.24h1.54l3.05,9.24,2.83-9.24h1.87l-3.7,11.59h-1.8Z"/>
      <path class="st0" d="M792.08,373.71c2.11,0,3.36.86,4.25,2.02l-1.2,1.1c-.77-1.06-1.75-1.51-2.95-1.51-2.47,0-4.01,1.9-4.01,4.46s1.54,4.49,4.01,4.49c1.2,0,2.18-.48,2.95-1.51l1.2,1.1c-.89,1.15-2.14,2.02-4.25,2.02-3.46,0-5.79-2.64-5.79-6.1s2.33-6.07,5.79-6.07Z"/>
      <path class="st0" d="M806.09,385.59v-1.32c-.96,1.06-2.28,1.61-3.84,1.61-1.97,0-4.06-1.32-4.06-3.84s2.09-3.82,4.06-3.82c1.58,0,2.9.5,3.84,1.58v-2.09c0-1.56-1.25-2.45-2.93-2.45-1.39,0-2.52.5-3.55,1.61l-.84-1.25c1.25-1.3,2.74-1.92,4.63-1.92,2.45,0,4.49,1.1,4.49,3.91v7.97h-1.8ZM806.09,380.96c-.7-.96-1.92-1.44-3.19-1.44-1.68,0-2.86,1.06-2.86,2.54s1.18,2.52,2.86,2.52c1.27,0,2.5-.48,3.19-1.44v-2.18Z"/>
      <path class="st0" d="M811.42,382.76c.77.89,2.23,1.66,3.82,1.66,1.78,0,2.74-.79,2.74-1.92,0-1.27-1.42-1.68-2.98-2.06-1.97-.46-4.2-.98-4.2-3.38,0-1.8,1.56-3.34,4.32-3.34,1.97,0,3.36.74,4.3,1.68l-.84,1.25c-.7-.84-1.97-1.46-3.46-1.46-1.58,0-2.57.72-2.57,1.75,0,1.13,1.32,1.49,2.83,1.85,2.02.46,4.34,1.03,4.34,3.6,0,1.94-1.56,3.5-4.56,3.5-1.9,0-3.5-.58-4.68-1.82l.94-1.3Z"/>
      <path class="st0" d="M827.69,373.71c3.5,0,5.57,2.74,5.57,6.22v.46h-9.38c.14,2.18,1.68,4.01,4.18,4.01,1.32,0,2.66-.53,3.58-1.46l.86,1.18c-1.15,1.15-2.71,1.78-4.61,1.78-3.43,0-5.91-2.47-5.91-6.1,0-3.36,2.4-6.07,5.71-6.07ZM823.88,379.06h7.61c-.02-1.73-1.18-3.86-3.82-3.86-2.47,0-3.7,2.09-3.79,3.86Z"/>
      <path class="st0" d="M847.4,373.71c3.5,0,5.57,2.74,5.57,6.22v.46h-9.38c.14,2.18,1.68,4.01,4.18,4.01,1.32,0,2.66-.53,3.58-1.46l.86,1.18c-1.15,1.15-2.71,1.78-4.61,1.78-3.43,0-5.9-2.47-5.9-6.1,0-3.36,2.4-6.07,5.71-6.07ZM843.58,379.06h7.61c-.02-1.73-1.18-3.86-3.82-3.86-2.47,0-3.7,2.09-3.79,3.86Z"/>
      <path class="st0" d="M862.61,385.59l-3.48-4.75-3.48,4.75h-2.06l4.44-5.95-4.2-5.64h2.09l3.22,4.42,3.22-4.42h2.09l-4.2,5.64,4.46,5.95h-2.09Z"/>
      <path class="st0" d="M871.06,373.71c3.5,0,5.57,2.74,5.57,6.22v.46h-9.38c.14,2.18,1.68,4.01,4.18,4.01,1.32,0,2.66-.53,3.58-1.46l.86,1.18c-1.15,1.15-2.71,1.78-4.61,1.78-3.43,0-5.9-2.47-5.9-6.1,0-3.36,2.4-6.07,5.71-6.07ZM867.25,379.06h7.61c-.02-1.73-1.18-3.86-3.82-3.86-2.47,0-3.7,2.09-3.79,3.86Z"/>
      <path class="st0" d="M893.53,385.59v-7.87c0-1.46-.65-2.4-2.14-2.4-1.2,0-2.47.86-3.07,1.78v8.5h-1.8v-7.87c0-1.46-.62-2.4-2.14-2.4-1.18,0-2.42.86-3.05,1.8v8.47h-1.8v-11.59h1.8v1.68c.48-.74,2.04-1.97,3.75-1.97s2.78.96,3.12,2.16c.65-1.06,2.21-2.16,3.89-2.16,2.11,0,3.24,1.18,3.24,3.5v8.38h-1.8Z"/>
      <path class="st0" d="M900.72,390.01h-1.8v-16.01h1.8v1.73c.84-1.18,2.28-2.02,3.91-2.02,3.05,0,5.16,2.3,5.16,6.07s-2.11,6.1-5.16,6.1c-1.58,0-2.98-.74-3.91-2.04v6.17ZM904.18,375.32c-1.42,0-2.83.84-3.46,1.85v5.23c.62,1.01,2.04,1.87,3.46,1.87,2.33,0,3.72-1.92,3.72-4.49s-1.39-4.46-3.72-4.46Z"/>
      <path class="st0" d="M912.7,385.59v-16.01h1.8v16.01h-1.8Z"/>
      <path class="st0" d="M925.35,385.59v-1.32c-.96,1.06-2.28,1.61-3.84,1.61-1.97,0-4.06-1.32-4.06-3.84s2.09-3.82,4.06-3.82c1.58,0,2.9.5,3.84,1.58v-2.09c0-1.56-1.25-2.45-2.93-2.45-1.39,0-2.52.5-3.55,1.61l-.84-1.25c1.25-1.3,2.74-1.92,4.63-1.92,2.45,0,4.49,1.1,4.49,3.91v7.97h-1.8ZM925.35,380.96c-.7-.96-1.92-1.44-3.19-1.44-1.68,0-2.86,1.06-2.86,2.54s1.18,2.52,2.86,2.52c1.27,0,2.5-.48,3.19-1.44v-2.18Z"/>
      <path class="st0" d="M930.75,385.59v-11.59h1.8v1.87c.94-1.22,2.28-2.11,3.86-2.11v1.85c-.22-.05-.43-.07-.72-.07-1.1,0-2.62.91-3.14,1.85v8.21h-1.8Z"/>
      <path class="st0" d="M938.59,382.76c.77.89,2.23,1.66,3.82,1.66,1.78,0,2.74-.79,2.74-1.92,0-1.27-1.42-1.68-2.98-2.06-1.97-.46-4.2-.98-4.2-3.38,0-1.8,1.56-3.34,4.32-3.34,1.97,0,3.36.74,4.3,1.68l-.84,1.25c-.7-.84-1.97-1.46-3.46-1.46-1.58,0-2.57.72-2.57,1.75,0,1.13,1.32,1.49,2.83,1.85,2.02.46,4.34,1.03,4.34,3.6,0,1.94-1.56,3.5-4.56,3.5-1.9,0-3.5-.58-4.68-1.82l.94-1.3Z"/>
      <path class="st0" d="M963.27,385.59v-1.32c-.96,1.06-2.28,1.61-3.84,1.61-1.97,0-4.06-1.32-4.06-3.84s2.09-3.82,4.06-3.82c1.58,0,2.9.5,3.84,1.58v-2.09c0-1.56-1.25-2.45-2.93-2.45-1.39,0-2.52.5-3.55,1.61l-.84-1.25c1.25-1.3,2.74-1.92,4.63-1.92,2.45,0,4.49,1.1,4.49,3.91v7.97h-1.8ZM963.27,380.96c-.7-.96-1.92-1.44-3.19-1.44-1.68,0-2.86,1.06-2.86,2.54s1.18,2.52,2.86,2.52c1.27,0,2.5-.48,3.19-1.44v-2.18Z"/>
      <path class="st0" d="M968.67,385.59v-11.59h1.8v1.87c.94-1.22,2.28-2.11,3.86-2.11v1.85c-.22-.05-.43-.07-.72-.07-1.1,0-2.62.91-3.14,1.85v8.21h-1.8Z"/>
      <path class="st0" d="M975.91,379.78c0-3.36,2.21-6.07,5.74-6.07s5.74,2.71,5.74,6.07-2.21,6.1-5.74,6.1-5.74-2.74-5.74-6.1ZM985.49,379.78c0-2.35-1.37-4.46-3.84-4.46s-3.86,2.11-3.86,4.46,1.39,4.49,3.86,4.49,3.84-2.11,3.84-4.49Z"/>
      <path class="st0" d="M998.14,385.59v-1.63c-.89,1.01-2.4,1.92-4.13,1.92-2.42,0-3.7-1.18-3.7-3.7v-8.18h1.8v7.63c0,2.04,1.03,2.64,2.59,2.64,1.42,0,2.76-.82,3.43-1.75v-8.52h1.8v11.59h-1.8Z"/>
      <path class="st0" d="M1011.36,385.59v-7.58c0-2.04-1.03-2.69-2.59-2.69-1.42,0-2.76.86-3.43,1.8v8.47h-1.8v-11.59h1.8v1.68c.82-.96,2.4-1.97,4.13-1.97,2.42,0,3.7,1.22,3.7,3.74v8.14h-1.8Z"/>
      <path class="st0" d="M1025.16,385.59v-1.73c-.86,1.18-2.28,2.02-3.91,2.02-3.02,0-5.16-2.3-5.16-6.07s2.11-6.1,5.16-6.1c1.56,0,2.98.77,3.91,2.04v-6.17h1.8v16.01h-1.8ZM1025.16,377.19c-.65-1.01-2.04-1.87-3.48-1.87-2.33,0-3.72,1.92-3.72,4.49s1.39,4.46,3.72,4.46c1.44,0,2.83-.82,3.48-1.82v-5.26Z"/>
    </g>
    <g class="st17">
      <path class="st0" d="M736.16,414.39v-7.63c0-2.04-1.06-2.64-2.62-2.64-1.39,0-2.74.86-3.43,1.8v8.47h-1.8v-16.01h1.8v6.1c.82-.96,2.4-1.97,4.15-1.97,2.42,0,3.7,1.18,3.7,3.7v8.18h-1.8Z"/>
      <path class="st0" d="M740.89,408.58c0-3.36,2.21-6.07,5.74-6.07s5.74,2.71,5.74,6.07-2.21,6.1-5.74,6.1-5.74-2.74-5.74-6.1ZM750.46,408.58c0-2.35-1.37-4.46-3.84-4.46s-3.86,2.11-3.86,4.46,1.39,4.49,3.86,4.49,3.84-2.11,3.84-4.49Z"/>
      <path class="st0" d="M765.32,414.39l-3.02-9.31-3.02,9.31h-1.8l-3.7-11.59h1.87l2.83,9.24,3.05-9.24h1.54l3.05,9.24,2.83-9.24h1.87l-3.7,11.59h-1.8Z"/>
      <path class="st0" d="M779.45,411.97v-7.58h-1.92v-1.58h1.92v-3.17h1.8v3.17h2.35v1.58h-2.35v7.2c0,.86.38,1.49,1.18,1.49.5,0,.98-.22,1.22-.48l.53,1.34c-.46.43-1.1.74-2.16.74-1.7,0-2.57-.98-2.57-2.71Z"/>
      <path class="st0" d="M785.48,408.58c0-3.36,2.21-6.07,5.74-6.07s5.74,2.71,5.74,6.07-2.21,6.1-5.74,6.1-5.74-2.74-5.74-6.1ZM795.05,408.58c0-2.35-1.37-4.46-3.84-4.46s-3.86,2.11-3.86,4.46,1.39,4.49,3.86,4.49,3.84-2.11,3.84-4.49Z"/>
      <path class="st0" d="M806.07,414.39v-16.01h1.8v6.17c.94-1.27,2.33-2.04,3.91-2.04,3.02,0,5.16,2.4,5.16,6.1s-2.14,6.07-5.16,6.07c-1.63,0-3.05-.84-3.91-2.02v1.73h-1.8ZM807.87,411.25c.62,1.01,2.04,1.82,3.46,1.82,2.35,0,3.74-1.9,3.74-4.46s-1.39-4.49-3.74-4.49c-1.42,0-2.83.86-3.46,1.87v5.26Z"/>
      <path class="st0" d="M827.69,414.39v-1.63c-.89,1.01-2.4,1.92-4.13,1.92-2.42,0-3.7-1.18-3.7-3.7v-8.18h1.8v7.63c0,2.04,1.03,2.64,2.59,2.64,1.42,0,2.76-.82,3.43-1.75v-8.52h1.8v11.59h-1.8Z"/>
      <path class="st0" d="M832.78,399.63c0-.67.55-1.2,1.2-1.2s1.22.53,1.22,1.2-.55,1.22-1.22,1.22-1.2-.55-1.2-1.22ZM833.09,414.39v-11.59h1.8v11.59h-1.8Z"/>
      <path class="st0" d="M838.49,414.39v-16.01h1.8v16.01h-1.8Z"/>
      <path class="st0" d="M852.29,414.39v-1.73c-.86,1.18-2.28,2.02-3.91,2.02-3.02,0-5.16-2.3-5.16-6.07s2.11-6.1,5.16-6.1c1.56,0,2.98.77,3.91,2.04v-6.17h1.8v16.01h-1.8ZM852.29,405.99c-.65-1.01-2.04-1.87-3.48-1.87-2.33,0-3.72,1.92-3.72,4.49s1.39,4.46,3.72,4.46c1.44,0,2.83-.82,3.48-1.82v-5.26Z"/>
      <path class="st0" d="M869,402.51c2.11,0,3.36.86,4.25,2.02l-1.2,1.1c-.77-1.06-1.75-1.51-2.95-1.51-2.47,0-4.01,1.9-4.01,4.46s1.54,4.49,4.01,4.49c1.2,0,2.18-.48,2.95-1.51l1.2,1.1c-.89,1.15-2.14,2.02-4.25,2.02-3.46,0-5.78-2.64-5.78-6.1s2.33-6.07,5.78-6.07Z"/>
      <path class="st0" d="M875.76,414.39v-11.59h1.8v1.87c.94-1.22,2.28-2.11,3.87-2.11v1.85c-.22-.05-.43-.07-.72-.07-1.1,0-2.62.91-3.14,1.85v8.21h-1.8Z"/>
      <path class="st0" d="M888.72,402.51c3.5,0,5.57,2.74,5.57,6.22v.46h-9.38c.14,2.18,1.68,4.01,4.18,4.01,1.32,0,2.66-.53,3.58-1.46l.86,1.18c-1.15,1.15-2.71,1.78-4.61,1.78-3.43,0-5.9-2.47-5.9-6.1,0-3.36,2.4-6.07,5.71-6.07ZM884.91,407.86h7.61c-.02-1.73-1.18-3.86-3.82-3.86-2.47,0-3.7,2.09-3.79,3.86Z"/>
      <path class="st0" d="M904.44,414.39v-1.32c-.96,1.06-2.28,1.61-3.84,1.61-1.97,0-4.06-1.32-4.06-3.84s2.09-3.82,4.06-3.82c1.58,0,2.9.5,3.84,1.58v-2.09c0-1.56-1.25-2.45-2.93-2.45-1.39,0-2.52.5-3.55,1.61l-.84-1.25c1.25-1.3,2.74-1.92,4.63-1.92,2.45,0,4.49,1.1,4.49,3.91v7.97h-1.8ZM904.44,409.76c-.7-.96-1.92-1.44-3.19-1.44-1.68,0-2.86,1.06-2.86,2.54s1.18,2.52,2.86,2.52c1.27,0,2.5-.48,3.19-1.44v-2.18Z"/>
      <path class="st0" d="M910.2,411.97v-7.58h-1.92v-1.58h1.92v-3.17h1.8v3.17h2.35v1.58h-2.35v7.2c0,.86.38,1.49,1.18,1.49.5,0,.98-.22,1.22-.48l.53,1.34c-.46.43-1.1.74-2.16.74-1.7,0-2.57-.98-2.57-2.71Z"/>
      <path class="st0" d="M916.59,399.63c0-.67.55-1.2,1.2-1.2s1.22.53,1.22,1.2-.55,1.22-1.22,1.22-1.2-.55-1.2-1.22ZM916.9,414.39v-11.59h1.8v11.59h-1.8Z"/>
      <path class="st0" d="M925.39,414.39l-4.82-11.59h1.94l3.86,9.5,3.84-9.5h1.97l-4.82,11.59h-1.97Z"/>
      <path class="st0" d="M939.1,402.51c3.5,0,5.57,2.74,5.57,6.22v.46h-9.38c.14,2.18,1.68,4.01,4.18,4.01,1.32,0,2.66-.53,3.58-1.46l.86,1.18c-1.15,1.15-2.71,1.78-4.61,1.78-3.43,0-5.91-2.47-5.91-6.1,0-3.36,2.4-6.07,5.71-6.07ZM935.28,407.86h7.61c-.02-1.73-1.18-3.86-3.82-3.86-2.47,0-3.7,2.09-3.79,3.86Z"/>
      <path class="st0" d="M961.01,414.39v-1.32c-.96,1.06-2.28,1.61-3.84,1.61-1.97,0-4.06-1.32-4.06-3.84s2.09-3.82,4.06-3.82c1.58,0,2.9.5,3.84,1.58v-2.09c0-1.56-1.25-2.45-2.93-2.45-1.39,0-2.52.5-3.55,1.61l-.84-1.25c1.25-1.3,2.74-1.92,4.63-1.92,2.45,0,4.49,1.1,4.49,3.91v7.97h-1.8ZM961.01,409.76c-.7-.96-1.92-1.44-3.19-1.44-1.68,0-2.86,1.06-2.86,2.54s1.18,2.52,2.86,2.52c1.27,0,2.5-.48,3.19-1.44v-2.18Z"/>
      <path class="st0" d="M974.23,414.39v-7.58c0-2.04-1.03-2.69-2.59-2.69-1.42,0-2.76.86-3.43,1.8v8.47h-1.8v-11.59h1.8v1.68c.82-.96,2.4-1.97,4.13-1.97,2.42,0,3.7,1.22,3.7,3.74v8.14h-1.8Z"/>
      <path class="st0" d="M988.03,414.39v-1.73c-.86,1.18-2.28,2.02-3.91,2.02-3.02,0-5.16-2.3-5.16-6.07s2.11-6.1,5.16-6.1c1.56,0,2.98.77,3.91,2.04v-6.17h1.8v16.01h-1.8ZM988.03,405.99c-.65-1.01-2.04-1.87-3.48-1.87-2.33,0-3.72,1.92-3.72,4.49s1.39,4.46,3.72,4.46c1.44,0,2.83-.82,3.48-1.82v-5.26Z"/>
      <path class="st0" d="M1001.93,404.38v10.01h-1.8v-10.01h-1.92v-1.58h1.92v-.89c0-2.4,1.34-3.77,3.36-3.77.67,0,1.3.12,1.75.41l-.46,1.34c-.29-.17-.62-.26-1.03-.26-1.18,0-1.82.82-1.82,2.28v.89h2.35v1.58h-2.35Z"/>
      <path class="st0" d="M1006.42,414.39v-11.59h1.8v1.87c.94-1.22,2.28-2.11,3.86-2.11v1.85c-.22-.05-.43-.07-.72-.07-1.1,0-2.62.91-3.14,1.85v8.21h-1.8Z"/>
      <path class="st0" d="M1019.38,402.51c3.5,0,5.57,2.74,5.57,6.22v.46h-9.38c.14,2.18,1.68,4.01,4.18,4.01,1.32,0,2.66-.53,3.58-1.46l.86,1.18c-1.15,1.15-2.71,1.78-4.61,1.78-3.43,0-5.9-2.47-5.9-6.1,0-3.36,2.4-6.07,5.71-6.07ZM1015.56,407.86h7.61c-.02-1.73-1.18-3.86-3.82-3.86-2.47,0-3.7,2.09-3.79,3.86Z"/>
      <path class="st0" d="M1027.78,411.56c.77.89,2.23,1.66,3.82,1.66,1.78,0,2.74-.79,2.74-1.92,0-1.27-1.42-1.68-2.98-2.06-1.97-.46-4.2-.98-4.2-3.38,0-1.8,1.56-3.34,4.32-3.34,1.97,0,3.36.74,4.3,1.68l-.84,1.25c-.7-.84-1.97-1.46-3.46-1.46-1.58,0-2.57.72-2.57,1.75,0,1.13,1.32,1.49,2.83,1.85,2.02.46,4.34,1.03,4.34,3.6,0,1.94-1.56,3.5-4.56,3.5-1.9,0-3.5-.58-4.68-1.82l.94-1.3Z"/>
      <path class="st0" d="M1046.86,414.39v-7.63c0-2.04-1.06-2.64-2.62-2.64-1.39,0-2.74.86-3.43,1.8v8.47h-1.8v-16.01h1.8v6.1c.82-.96,2.4-1.97,4.15-1.97,2.42,0,3.7,1.18,3.7,3.7v8.18h-1.8Z"/>
    </g>
    <g class="st17">
      <path class="st0" d="M736.71,443.19v-1.73c-.86,1.18-2.28,2.02-3.91,2.02-3.02,0-5.16-2.3-5.16-6.07s2.11-6.1,5.16-6.1c1.56,0,2.98.77,3.91,2.04v-6.17h1.8v16.01h-1.8ZM736.71,434.79c-.65-1.01-2.04-1.87-3.48-1.87-2.33,0-3.72,1.92-3.72,4.49s1.39,4.46,3.72,4.46c1.44,0,2.83-.82,3.48-1.82v-5.26Z"/>
      <path class="st0" d="M749.36,443.19v-1.32c-.96,1.06-2.28,1.61-3.84,1.61-1.97,0-4.06-1.32-4.06-3.84s2.09-3.82,4.06-3.82c1.58,0,2.9.5,3.84,1.58v-2.09c0-1.56-1.25-2.45-2.93-2.45-1.39,0-2.52.5-3.55,1.61l-.84-1.25c1.25-1.3,2.74-1.92,4.63-1.92,2.45,0,4.49,1.1,4.49,3.91v7.97h-1.8ZM749.36,438.56c-.7-.96-1.92-1.44-3.19-1.44-1.68,0-2.86,1.06-2.86,2.54s1.18,2.52,2.86,2.52c1.27,0,2.5-.48,3.19-1.44v-2.18Z"/>
      <path class="st0" d="M755.12,440.77v-7.58h-1.92v-1.58h1.92v-3.17h1.8v3.17h2.35v1.58h-2.35v7.2c0,.86.38,1.49,1.18,1.49.5,0,.98-.22,1.22-.48l.53,1.34c-.46.43-1.1.74-2.16.74-1.7,0-2.57-.98-2.57-2.71Z"/>
      <path class="st0" d="M769.06,443.19v-1.32c-.96,1.06-2.28,1.61-3.84,1.61-1.97,0-4.06-1.32-4.06-3.84s2.09-3.82,4.06-3.82c1.58,0,2.9.5,3.84,1.58v-2.09c0-1.56-1.25-2.45-2.93-2.45-1.39,0-2.52.5-3.55,1.61l-.84-1.25c1.25-1.3,2.74-1.92,4.63-1.92,2.45,0,4.49,1.1,4.49,3.91v7.97h-1.8ZM769.06,438.56c-.7-.96-1.92-1.44-3.19-1.44-1.68,0-2.86,1.06-2.86,2.54s1.18,2.52,2.86,2.52c1.27,0,2.5-.48,3.19-1.44v-2.18Z"/>
      <path class="st0" d="M773.38,438.17v-1.58h5.76v1.58h-5.76Z"/>
      <path class="st0" d="M790.06,443.19v-1.73c-.86,1.18-2.28,2.02-3.91,2.02-3.02,0-5.16-2.3-5.16-6.07s2.11-6.1,5.16-6.1c1.56,0,2.98.77,3.91,2.04v-6.17h1.8v16.01h-1.8ZM790.06,434.79c-.65-1.01-2.04-1.87-3.48-1.87-2.33,0-3.72,1.92-3.72,4.49s1.39,4.46,3.72,4.46c1.44,0,2.83-.82,3.48-1.82v-5.26Z"/>
      <path class="st0" d="M795.46,443.19v-11.59h1.8v1.87c.94-1.22,2.28-2.11,3.87-2.11v1.85c-.22-.05-.43-.07-.72-.07-1.1,0-2.62.91-3.14,1.85v8.21h-1.8Z"/>
      <path class="st0" d="M803.07,428.43c0-.67.55-1.2,1.2-1.2s1.22.53,1.22,1.2-.55,1.22-1.22,1.22-1.2-.55-1.2-1.22ZM803.38,443.19v-11.59h1.8v11.59h-1.8Z"/>
      <path class="st0" d="M811.88,443.19l-4.82-11.59h1.94l3.86,9.5,3.84-9.5h1.97l-4.82,11.59h-1.97Z"/>
      <path class="st0" d="M825.58,431.31c3.5,0,5.57,2.74,5.57,6.22v.46h-9.38c.14,2.18,1.68,4.01,4.18,4.01,1.32,0,2.66-.53,3.58-1.46l.86,1.18c-1.15,1.15-2.71,1.78-4.61,1.78-3.43,0-5.91-2.47-5.91-6.1,0-3.36,2.4-6.07,5.71-6.07ZM821.76,436.66h7.61c-.02-1.73-1.18-3.86-3.82-3.86-2.47,0-3.7,2.09-3.79,3.86Z"/>
      <path class="st0" d="M841.88,443.19v-7.58c0-2.04-1.03-2.69-2.59-2.69-1.42,0-2.76.86-3.43,1.8v8.47h-1.8v-11.59h1.8v1.68c.82-.96,2.4-1.97,4.13-1.97,2.42,0,3.7,1.22,3.7,3.74v8.14h-1.8Z"/>
      <path class="st0" d="M861.29,443.19v-7.58c0-2.04-1.03-2.69-2.59-2.69-1.42,0-2.76.86-3.43,1.8v8.47h-1.8v-11.59h1.8v1.68c.82-.96,2.4-1.97,4.13-1.97,2.42,0,3.7,1.22,3.7,3.74v8.14h-1.8Z"/>
      <path class="st0" d="M873.94,443.19v-1.32c-.96,1.06-2.28,1.61-3.84,1.61-1.97,0-4.06-1.32-4.06-3.84s2.09-3.82,4.06-3.82c1.58,0,2.9.5,3.84,1.58v-2.09c0-1.56-1.25-2.45-2.93-2.45-1.39,0-2.52.5-3.55,1.61l-.84-1.25c1.25-1.3,2.74-1.92,4.63-1.92,2.45,0,4.49,1.1,4.49,3.91v7.97h-1.8ZM873.94,438.56c-.7-.96-1.92-1.44-3.19-1.44-1.68,0-2.86,1.06-2.86,2.54s1.18,2.52,2.86,2.52c1.27,0,2.5-.48,3.19-1.44v-2.18Z"/>
      <path class="st0" d="M879.34,443.19v-11.59h1.8v1.87c.94-1.22,2.28-2.11,3.86-2.11v1.85c-.22-.05-.43-.07-.72-.07-1.1,0-2.62.91-3.14,1.85v8.21h-1.8Z"/>
      <path class="st0" d="M887.26,443.19v-11.59h1.8v1.87c.94-1.22,2.28-2.11,3.86-2.11v1.85c-.22-.05-.43-.07-.72-.07-1.1,0-2.62.91-3.14,1.85v8.21h-1.8Z"/>
      <path class="st0" d="M902.43,443.19v-1.32c-.96,1.06-2.28,1.61-3.84,1.61-1.97,0-4.06-1.32-4.06-3.84s2.09-3.82,4.06-3.82c1.58,0,2.9.5,3.84,1.58v-2.09c0-1.56-1.25-2.45-2.93-2.45-1.39,0-2.52.5-3.55,1.61l-.84-1.25c1.25-1.3,2.74-1.92,4.63-1.92,2.45,0,4.49,1.1,4.49,3.91v7.97h-1.8ZM902.43,438.56c-.7-.96-1.92-1.44-3.19-1.44-1.68,0-2.86,1.06-2.86,2.54s1.18,2.52,2.86,2.52c1.27,0,2.5-.48,3.19-1.44v-2.18Z"/>
      <path class="st0" d="M908.19,440.77v-7.58h-1.92v-1.58h1.92v-3.17h1.8v3.17h2.35v1.58h-2.35v7.2c0,.86.38,1.49,1.18,1.49.5,0,.98-.22,1.22-.48l.53,1.34c-.46.43-1.1.74-2.16.74-1.7,0-2.57-.98-2.57-2.71Z"/>
      <path class="st0" d="M914.57,428.43c0-.67.55-1.2,1.2-1.2s1.22.53,1.22,1.2-.55,1.22-1.22,1.22-1.2-.55-1.2-1.22ZM914.88,443.19v-11.59h1.8v11.59h-1.8Z"/>
      <path class="st0" d="M923.38,443.19l-4.83-11.59h1.94l3.86,9.5,3.84-9.5h1.97l-4.82,11.59h-1.97Z"/>
      <path class="st0" d="M937.08,431.31c3.5,0,5.57,2.74,5.57,6.22v.46h-9.38c.14,2.18,1.68,4.01,4.18,4.01,1.32,0,2.66-.53,3.58-1.46l.86,1.18c-1.15,1.15-2.71,1.78-4.61,1.78-3.43,0-5.9-2.47-5.9-6.1,0-3.36,2.4-6.07,5.71-6.07ZM933.27,436.66h7.61c-.02-1.73-1.18-3.86-3.82-3.86-2.47,0-3.7,2.09-3.79,3.86Z"/>
      <path class="st0" d="M945.48,440.36c.77.89,2.23,1.66,3.82,1.66,1.78,0,2.74-.79,2.74-1.92,0-1.27-1.42-1.68-2.98-2.06-1.97-.46-4.2-.98-4.2-3.38,0-1.8,1.56-3.34,4.32-3.34,1.97,0,3.36.74,4.3,1.68l-.84,1.25c-.7-.84-1.97-1.46-3.46-1.46-1.58,0-2.57.72-2.57,1.75,0,1.13,1.32,1.49,2.83,1.85,2.02.46,4.34,1.03,4.34,3.6,0,1.94-1.56,3.5-4.56,3.5-1.9,0-3.5-.58-4.68-1.82l.94-1.3Z"/>
      <path class="st0" d="M956.28,445.49c.77-.5,1.46-1.44,1.56-2.23-.05.02-.22.05-.34.05-.67,0-1.15-.5-1.15-1.22s.55-1.3,1.27-1.3c.79,0,1.51.67,1.51,1.82,0,1.46-.86,2.83-1.97,3.62l-.89-.74Z"/>
      <path class="st0" d="M975.67,443.19v-1.32c-.96,1.06-2.28,1.61-3.84,1.61-1.97,0-4.06-1.32-4.06-3.84s2.09-3.82,4.06-3.82c1.58,0,2.9.5,3.84,1.58v-2.09c0-1.56-1.25-2.45-2.93-2.45-1.39,0-2.52.5-3.55,1.61l-.84-1.25c1.25-1.3,2.74-1.92,4.63-1.92,2.45,0,4.49,1.1,4.49,3.91v7.97h-1.8ZM975.67,438.56c-.7-.96-1.92-1.44-3.19-1.44-1.68,0-2.86,1.06-2.86,2.54s1.18,2.52,2.86,2.52c1.27,0,2.5-.48,3.19-1.44v-2.18Z"/>
      <path class="st0" d="M988.9,443.19v-7.58c0-2.04-1.03-2.69-2.59-2.69-1.42,0-2.76.86-3.43,1.8v8.47h-1.8v-11.59h1.8v1.68c.82-.96,2.4-1.97,4.13-1.97,2.42,0,3.7,1.22,3.7,3.74v8.14h-1.8Z"/>
      <path class="st0" d="M1002.7,443.19v-1.73c-.86,1.18-2.28,2.02-3.91,2.02-3.02,0-5.16-2.3-5.16-6.07s2.11-6.1,5.16-6.1c1.56,0,2.98.77,3.91,2.04v-6.17h1.8v16.01h-1.8ZM1002.7,434.79c-.65-1.01-2.04-1.87-3.48-1.87-2.33,0-3.72,1.92-3.72,4.49s1.39,4.46,3.72,4.46c1.44,0,2.83-.82,3.48-1.82v-5.26Z"/>
      <path class="st0" d="M1022.14,443.19v-7.63c0-2.04-1.06-2.64-2.62-2.64-1.39,0-2.74.86-3.43,1.8v8.47h-1.8v-16.01h1.8v6.1c.82-.96,2.4-1.97,4.15-1.97,2.42,0,3.7,1.18,3.7,3.7v8.18h-1.8Z"/>
      <path class="st0" d="M1026.86,437.38c0-3.36,2.21-6.07,5.74-6.07s5.74,2.71,5.74,6.07-2.21,6.1-5.74,6.1-5.74-2.74-5.74-6.1ZM1036.44,437.38c0-2.35-1.37-4.46-3.84-4.46s-3.86,2.11-3.86,4.46,1.39,4.49,3.86,4.49,3.84-2.11,3.84-4.49Z"/>
      <path class="st0" d="M1051.3,443.19l-3.02-9.31-3.02,9.31h-1.8l-3.7-11.59h1.87l2.83,9.24,3.05-9.24h1.54l3.05,9.24,2.83-9.24h1.87l-3.7,11.59h-1.8Z"/>
    </g>
    <g class="st17">
      <path class="st0" d="M738.34,471.99l-3.02-9.31-3.02,9.31h-1.8l-3.7-11.59h1.87l2.83,9.24,3.05-9.24h1.54l3.05,9.24,2.83-9.24h1.87l-3.7,11.59h-1.8Z"/>
      <path class="st0" d="M750.97,460.11c3.5,0,5.57,2.74,5.57,6.22v.46h-9.38c.14,2.18,1.68,4.01,4.18,4.01,1.32,0,2.66-.53,3.58-1.46l.86,1.18c-1.15,1.15-2.71,1.78-4.61,1.78-3.43,0-5.9-2.47-5.9-6.1,0-3.36,2.4-6.07,5.71-6.07ZM747.15,465.46h7.61c-.02-1.73-1.18-3.86-3.82-3.86-2.47,0-3.7,2.09-3.79,3.86Z"/>
      <path class="st0" d="M770.74,460.11c2.11,0,3.36.86,4.25,2.02l-1.2,1.1c-.77-1.06-1.75-1.51-2.95-1.51-2.47,0-4.01,1.9-4.01,4.46s1.54,4.49,4.01,4.49c1.2,0,2.18-.48,2.95-1.51l1.2,1.1c-.89,1.15-2.14,2.02-4.25,2.02-3.46,0-5.79-2.64-5.79-6.1s2.33-6.07,5.79-6.07Z"/>
      <path class="st0" d="M784.76,471.99v-1.32c-.96,1.06-2.28,1.61-3.84,1.61-1.97,0-4.06-1.32-4.06-3.84s2.09-3.82,4.06-3.82c1.58,0,2.9.5,3.84,1.58v-2.09c0-1.56-1.25-2.45-2.93-2.45-1.39,0-2.52.5-3.55,1.61l-.84-1.25c1.25-1.3,2.74-1.92,4.63-1.92,2.45,0,4.49,1.1,4.49,3.91v7.97h-1.8ZM784.76,467.36c-.7-.96-1.92-1.44-3.19-1.44-1.68,0-2.86,1.06-2.86,2.54s1.18,2.52,2.86,2.52c1.27,0,2.5-.48,3.19-1.44v-2.18Z"/>
      <path class="st0" d="M797.98,471.99v-7.58c0-2.04-1.03-2.69-2.59-2.69-1.42,0-2.76.86-3.43,1.8v8.47h-1.8v-11.59h1.8v1.68c.82-.96,2.4-1.97,4.13-1.97,2.42,0,3.7,1.22,3.7,3.74v8.14h-1.8Z"/>
      <path class="st0" d="M809.26,457.23c0-.67.55-1.2,1.2-1.2s1.22.53,1.22,1.2-.55,1.22-1.22,1.22-1.2-.55-1.2-1.22ZM809.57,471.99v-11.59h1.8v11.59h-1.8Z"/>
      <path class="st0" d="M828.97,471.99v-7.87c0-1.46-.65-2.4-2.14-2.4-1.2,0-2.47.86-3.07,1.78v8.5h-1.8v-7.87c0-1.46-.62-2.4-2.14-2.4-1.18,0-2.42.86-3.05,1.8v8.47h-1.8v-11.59h1.8v1.68c.48-.74,2.04-1.97,3.75-1.97s2.78.96,3.12,2.16c.65-1.06,2.21-2.16,3.89-2.16,2.11,0,3.24,1.18,3.24,3.5v8.38h-1.8Z"/>
      <path class="st0" d="M841.61,471.99v-1.32c-.96,1.06-2.28,1.61-3.84,1.61-1.97,0-4.06-1.32-4.06-3.84s2.09-3.82,4.06-3.82c1.58,0,2.9.5,3.84,1.58v-2.09c0-1.56-1.25-2.45-2.93-2.45-1.39,0-2.52.5-3.55,1.61l-.84-1.25c1.25-1.3,2.74-1.92,4.63-1.92,2.45,0,4.49,1.1,4.49,3.91v7.97h-1.8ZM841.61,467.36c-.7-.96-1.92-1.44-3.19-1.44-1.68,0-2.86,1.06-2.86,2.54s1.18,2.52,2.86,2.52c1.27,0,2.5-.48,3.19-1.44v-2.18Z"/>
      <path class="st0" d="M847.9,473.62c.96,1.15,2.11,1.58,3.77,1.58,1.92,0,3.72-.94,3.72-3.48v-1.66c-.84,1.18-2.26,2.06-3.89,2.06-3.02,0-5.16-2.26-5.16-6s2.11-6.02,5.16-6.02c1.56,0,2.95.77,3.89,2.04v-1.75h1.8v11.26c0,3.84-2.69,5.04-5.52,5.04-1.97,0-3.31-.38-4.68-1.73l.91-1.34ZM855.39,463.59c-.62-1.01-2.02-1.87-3.46-1.87-2.33,0-3.72,1.85-3.72,4.42s1.39,4.42,3.72,4.42c1.44,0,2.83-.89,3.46-1.9v-5.06Z"/>
      <path class="st0" d="M860.48,457.23c0-.67.55-1.2,1.2-1.2s1.22.53,1.22,1.2-.55,1.22-1.22,1.22-1.2-.55-1.2-1.22ZM860.79,471.99v-11.59h1.8v11.59h-1.8Z"/>
      <path class="st0" d="M874.01,471.99v-7.58c0-2.04-1.03-2.69-2.59-2.69-1.42,0-2.76.86-3.43,1.8v8.47h-1.8v-11.59h1.8v1.68c.82-.96,2.4-1.97,4.13-1.97,2.42,0,3.7,1.22,3.7,3.74v8.14h-1.8Z"/>
      <path class="st0" d="M884.45,460.11c3.5,0,5.57,2.74,5.57,6.22v.46h-9.38c.14,2.18,1.68,4.01,4.18,4.01,1.32,0,2.66-.53,3.58-1.46l.86,1.18c-1.15,1.15-2.71,1.78-4.61,1.78-3.43,0-5.9-2.47-5.9-6.1,0-3.36,2.4-6.07,5.71-6.07ZM880.64,465.46h7.61c-.02-1.73-1.18-3.86-3.82-3.86-2.47,0-3.7,2.09-3.79,3.86Z"/>
      <path class="st0" d="M906.36,471.99v-1.32c-.96,1.06-2.28,1.61-3.84,1.61-1.97,0-4.06-1.32-4.06-3.84s2.09-3.82,4.06-3.82c1.58,0,2.9.5,3.84,1.58v-2.09c0-1.56-1.25-2.45-2.93-2.45-1.39,0-2.52.5-3.55,1.61l-.84-1.25c1.25-1.3,2.74-1.92,4.63-1.92,2.45,0,4.49,1.1,4.49,3.91v7.97h-1.8ZM906.36,467.36c-.7-.96-1.92-1.44-3.19-1.44-1.68,0-2.86,1.06-2.86,2.54s1.18,2.52,2.86,2.52c1.27,0,2.5-.48,3.19-1.44v-2.18Z"/>
      <path class="st0" d="M919.59,471.99v-7.58c0-2.04-1.03-2.69-2.59-2.69-1.42,0-2.76.86-3.43,1.8v8.47h-1.8v-11.59h1.8v1.68c.82-.96,2.4-1.97,4.13-1.97,2.42,0,3.7,1.22,3.7,3.74v8.14h-1.8Z"/>
      <path class="st0" d="M933.39,471.99v-1.73c-.86,1.18-2.28,2.02-3.91,2.02-3.02,0-5.16-2.3-5.16-6.07s2.11-6.1,5.16-6.1c1.56,0,2.98.77,3.91,2.04v-6.17h1.8v16.01h-1.8ZM933.39,463.59c-.65-1.01-2.04-1.87-3.48-1.87-2.33,0-3.72,1.92-3.72,4.49s1.39,4.46,3.72,4.46c1.44,0,2.83-.82,3.48-1.82v-5.26Z"/>
      <path class="st0" d="M946.78,476.41h-1.8v-16.01h1.8v1.73c.84-1.18,2.28-2.02,3.91-2.02,3.05,0,5.16,2.3,5.16,6.07s-2.11,6.1-5.16,6.1c-1.58,0-2.98-.74-3.91-2.04v6.17ZM950.24,461.72c-1.42,0-2.83.84-3.46,1.85v5.23c.62,1.01,2.04,1.87,3.46,1.87,2.33,0,3.72-1.92,3.72-4.49s-1.39-4.46-3.72-4.46Z"/>
      <path class="st0" d="M958.75,471.99v-16.01h1.8v16.01h-1.8Z"/>
      <path class="st0" d="M971.4,471.99v-1.32c-.96,1.06-2.28,1.61-3.84,1.61-1.97,0-4.06-1.32-4.06-3.84s2.09-3.82,4.06-3.82c1.58,0,2.9.5,3.84,1.58v-2.09c0-1.56-1.25-2.45-2.93-2.45-1.39,0-2.52.5-3.55,1.61l-.84-1.25c1.25-1.3,2.74-1.92,4.63-1.92,2.45,0,4.49,1.1,4.49,3.91v7.97h-1.8ZM971.4,467.36c-.7-.96-1.92-1.44-3.19-1.44-1.68,0-2.86,1.06-2.86,2.54s1.18,2.52,2.86,2.52c1.27,0,2.5-.48,3.19-1.44v-2.18Z"/>
      <path class="st0" d="M976.44,474.89c.26.12.7.19.98.19.79,0,1.32-.26,1.73-1.22l.77-1.75-4.85-11.71h1.94l3.86,9.5,3.84-9.5h1.97l-5.81,13.95c-.7,1.68-1.87,2.33-3.41,2.35-.38,0-.98-.07-1.32-.17l.29-1.63Z"/>
      <path class="st0" d="M1004.79,471.99l-3.02-9.31-3.02,9.31h-1.8l-3.7-11.59h1.87l2.83,9.24,3.05-9.24h1.54l3.05,9.24,2.83-9.24h1.87l-3.7,11.59h-1.8Z"/>
      <path class="st0" d="M1012.06,457.23c0-.67.55-1.2,1.2-1.2s1.22.53,1.22,1.2-.55,1.22-1.22,1.22-1.2-.55-1.2-1.22ZM1012.37,471.99v-11.59h1.8v11.59h-1.8Z"/>
      <path class="st0" d="M1018.13,469.57v-7.58h-1.92v-1.58h1.92v-3.17h1.8v3.17h2.35v1.58h-2.35v7.2c0,.86.38,1.49,1.18,1.49.5,0,.98-.22,1.22-.48l.53,1.34c-.46.43-1.1.74-2.16.74-1.7,0-2.57-.98-2.57-2.71Z"/>
      <path class="st0" d="M1032.67,471.99v-7.63c0-2.04-1.06-2.64-2.62-2.64-1.39,0-2.74.86-3.43,1.8v8.47h-1.8v-16.01h1.8v6.1c.82-.96,2.4-1.97,4.15-1.97,2.42,0,3.7,1.18,3.7,3.7v8.18h-1.8Z"/>
    </g>
    <g class="st17">
      <path class="st0" d="M728.67,498.37v-7.58h-1.92v-1.58h1.92v-3.17h1.8v3.17h2.35v1.58h-2.35v7.2c0,.86.38,1.49,1.18,1.49.5,0,.98-.22,1.22-.48l.53,1.34c-.46.43-1.1.74-2.16.74-1.7,0-2.57-.98-2.57-2.71Z"/>
      <path class="st0" d="M743.21,500.79v-7.63c0-2.04-1.06-2.64-2.62-2.64-1.39,0-2.74.86-3.43,1.8v8.47h-1.8v-16.01h1.8v6.1c.82-.96,2.4-1.97,4.15-1.97,2.42,0,3.7,1.18,3.7,3.7v8.18h-1.8Z"/>
      <path class="st0" d="M753.65,488.91c3.5,0,5.57,2.74,5.57,6.22v.46h-9.38c.14,2.18,1.68,4.01,4.18,4.01,1.32,0,2.66-.53,3.58-1.46l.86,1.18c-1.15,1.15-2.71,1.78-4.61,1.78-3.43,0-5.91-2.47-5.91-6.1,0-3.36,2.4-6.07,5.71-6.07ZM749.84,494.26h7.61c-.02-1.73-1.18-3.86-3.82-3.86-2.47,0-3.7,2.09-3.79,3.86Z"/>
      <path class="st0" d="M770.12,505.21h-1.8v-16.01h1.8v1.73c.84-1.18,2.28-2.02,3.91-2.02,3.05,0,5.16,2.3,5.16,6.07s-2.11,6.1-5.16,6.1c-1.58,0-2.98-.74-3.91-2.04v6.17ZM773.57,490.52c-1.42,0-2.83.84-3.46,1.85v5.23c.62,1.01,2.04,1.87,3.46,1.87,2.33,0,3.72-1.92,3.72-4.49s-1.39-4.46-3.72-4.46Z"/>
      <path class="st0" d="M781.42,494.98c0-3.36,2.21-6.07,5.74-6.07s5.74,2.71,5.74,6.07-2.21,6.1-5.74,6.1-5.74-2.74-5.74-6.1ZM791,494.98c0-2.35-1.37-4.46-3.84-4.46s-3.86,2.11-3.86,4.46,1.39,4.49,3.86,4.49,3.84-2.11,3.84-4.49Z"/>
      <path class="st0" d="M795.75,497.96c.77.89,2.23,1.66,3.82,1.66,1.78,0,2.74-.79,2.74-1.92,0-1.27-1.42-1.68-2.98-2.06-1.97-.46-4.2-.98-4.2-3.38,0-1.8,1.56-3.34,4.32-3.34,1.97,0,3.36.74,4.3,1.68l-.84,1.25c-.7-.84-1.97-1.46-3.46-1.46-1.58,0-2.57.72-2.57,1.75,0,1.13,1.32,1.49,2.83,1.85,2.02.46,4.34,1.03,4.34,3.6,0,1.94-1.56,3.5-4.56,3.5-1.9,0-3.5-.58-4.68-1.82l.94-1.3Z"/>
      <path class="st0" d="M806.91,497.96c.77.89,2.23,1.66,3.82,1.66,1.78,0,2.74-.79,2.74-1.92,0-1.27-1.42-1.68-2.98-2.06-1.97-.46-4.2-.98-4.2-3.38,0-1.8,1.56-3.34,4.32-3.34,1.97,0,3.36.74,4.3,1.68l-.84,1.25c-.7-.84-1.97-1.46-3.46-1.46-1.58,0-2.57.72-2.57,1.75,0,1.13,1.32,1.49,2.83,1.85,2.02.46,4.34,1.03,4.34,3.6,0,1.94-1.56,3.5-4.56,3.5-1.9,0-3.5-.58-4.68-1.82l.94-1.3Z"/>
      <path class="st0" d="M817.83,486.03c0-.67.55-1.2,1.2-1.2s1.22.53,1.22,1.2-.55,1.22-1.22,1.22-1.2-.55-1.2-1.22ZM818.14,500.79v-11.59h1.8v11.59h-1.8Z"/>
      <path class="st0" d="M823.54,500.79v-16.01h1.8v6.17c.94-1.27,2.33-2.04,3.91-2.04,3.02,0,5.16,2.4,5.16,6.1s-2.14,6.07-5.16,6.07c-1.63,0-3.05-.84-3.91-2.02v1.73h-1.8ZM825.34,497.65c.62,1.01,2.04,1.82,3.46,1.82,2.35,0,3.74-1.9,3.74-4.46s-1.39-4.49-3.74-4.49c-1.42,0-2.83.86-3.46,1.87v5.26Z"/>
      <path class="st0" d="M837.03,486.03c0-.67.55-1.2,1.2-1.2s1.22.53,1.22,1.2-.55,1.22-1.22,1.22-1.2-.55-1.2-1.22ZM837.34,500.79v-11.59h1.8v11.59h-1.8Z"/>
      <path class="st0" d="M842.74,500.79v-16.01h1.8v16.01h-1.8Z"/>
      <path class="st0" d="M847.83,486.03c0-.67.55-1.2,1.2-1.2s1.22.53,1.22,1.2-.55,1.22-1.22,1.22-1.2-.55-1.2-1.22ZM848.14,500.79v-11.59h1.8v11.59h-1.8Z"/>
      <path class="st0" d="M853.9,498.37v-7.58h-1.92v-1.58h1.92v-3.17h1.8v3.17h2.35v1.58h-2.35v7.2c0,.86.38,1.49,1.18,1.49.5,0,.98-.22,1.22-.48l.53,1.34c-.46.43-1.1.74-2.16.74-1.7,0-2.57-.98-2.57-2.71Z"/>
      <path class="st0" d="M860.28,486.03c0-.67.55-1.2,1.2-1.2s1.22.53,1.22,1.2-.55,1.22-1.22,1.22-1.2-.55-1.2-1.22ZM860.6,500.79v-11.59h1.8v11.59h-1.8Z"/>
      <path class="st0" d="M871.04,488.91c3.5,0,5.57,2.74,5.57,6.22v.46h-9.38c.14,2.18,1.68,4.01,4.18,4.01,1.32,0,2.66-.53,3.58-1.46l.86,1.18c-1.15,1.15-2.71,1.78-4.61,1.78-3.43,0-5.9-2.47-5.9-6.1,0-3.36,2.4-6.07,5.71-6.07ZM867.22,494.26h7.61c-.02-1.73-1.18-3.86-3.82-3.86-2.47,0-3.7,2.09-3.79,3.86Z"/>
      <path class="st0" d="M879.43,497.96c.77.89,2.23,1.66,3.82,1.66,1.78,0,2.74-.79,2.74-1.92,0-1.27-1.42-1.68-2.98-2.06-1.97-.46-4.2-.98-4.2-3.38,0-1.8,1.56-3.34,4.32-3.34,1.97,0,3.36.74,4.3,1.68l-.84,1.25c-.7-.84-1.97-1.46-3.46-1.46-1.58,0-2.57.72-2.57,1.75,0,1.13,1.32,1.49,2.83,1.85,2.02.46,4.34,1.03,4.34,3.6,0,1.94-1.56,3.5-4.56,3.5-1.9,0-3.5-.58-4.68-1.82l.94-1.3Z"/>
      <path class="st0" d="M904.11,500.79v-1.32c-.96,1.06-2.28,1.61-3.84,1.61-1.97,0-4.06-1.32-4.06-3.84s2.09-3.82,4.06-3.82c1.58,0,2.9.5,3.84,1.58v-2.09c0-1.56-1.25-2.45-2.93-2.45-1.39,0-2.52.5-3.55,1.61l-.84-1.25c1.25-1.3,2.74-1.92,4.63-1.92,2.45,0,4.49,1.1,4.49,3.91v7.97h-1.8ZM904.11,496.16c-.7-.96-1.92-1.44-3.19-1.44-1.68,0-2.86,1.06-2.86,2.54s1.18,2.52,2.86,2.52c1.27,0,2.5-.48,3.19-1.44v-2.18Z"/>
      <path class="st0" d="M909.51,500.79v-11.59h1.8v1.87c.94-1.22,2.28-2.11,3.86-2.11v1.85c-.22-.05-.43-.07-.72-.07-1.1,0-2.62.91-3.14,1.85v8.21h-1.8Z"/>
      <path class="st0" d="M916.75,494.98c0-3.36,2.21-6.07,5.74-6.07s5.74,2.71,5.74,6.07-2.21,6.1-5.74,6.1-5.74-2.74-5.74-6.1ZM926.33,494.98c0-2.35-1.37-4.46-3.84-4.46s-3.86,2.11-3.86,4.46,1.39,4.49,3.86,4.49,3.84-2.11,3.84-4.49Z"/>
      <path class="st0" d="M938.98,500.79v-1.63c-.89,1.01-2.4,1.92-4.13,1.92-2.42,0-3.7-1.18-3.7-3.7v-8.18h1.8v7.63c0,2.04,1.03,2.64,2.59,2.64,1.42,0,2.76-.82,3.43-1.75v-8.52h1.8v11.59h-1.8Z"/>
      <path class="st0" d="M952.2,500.79v-7.58c0-2.04-1.03-2.69-2.59-2.69-1.42,0-2.76.86-3.43,1.8v8.47h-1.8v-11.59h1.8v1.68c.82-.96,2.4-1.97,4.13-1.97,2.42,0,3.7,1.22,3.7,3.74v8.14h-1.8Z"/>
      <path class="st0" d="M966,500.79v-1.73c-.86,1.18-2.28,2.02-3.91,2.02-3.02,0-5.16-2.3-5.16-6.07s2.11-6.1,5.16-6.1c1.56,0,2.98.77,3.91,2.04v-6.17h1.8v16.01h-1.8ZM966,492.39c-.65-1.01-2.04-1.87-3.48-1.87-2.33,0-3.72,1.92-3.72,4.49s1.39,4.46,3.72,4.46c1.44,0,2.83-.82,3.48-1.82v-5.26Z"/>
      <path class="st0" d="M985.99,500.79v-1.73c-.86,1.18-2.28,2.02-3.91,2.02-3.02,0-5.16-2.3-5.16-6.07s2.11-6.1,5.16-6.1c1.56,0,2.98.77,3.91,2.04v-6.17h1.8v16.01h-1.8ZM985.99,492.39c-.65-1.01-2.04-1.87-3.48-1.87-2.33,0-3.72,1.92-3.72,4.49s1.39,4.46,3.72,4.46c1.44,0,2.83-.82,3.48-1.82v-5.26Z"/>
      <path class="st0" d="M998.64,500.79v-1.32c-.96,1.06-2.28,1.61-3.84,1.61-1.97,0-4.06-1.32-4.06-3.84s2.09-3.82,4.06-3.82c1.58,0,2.9.5,3.84,1.58v-2.09c0-1.56-1.25-2.45-2.93-2.45-1.39,0-2.52.5-3.55,1.61l-.84-1.25c1.25-1.3,2.74-1.92,4.63-1.92,2.45,0,4.49,1.1,4.49,3.91v7.97h-1.8ZM998.64,496.16c-.7-.96-1.92-1.44-3.19-1.44-1.68,0-2.86,1.06-2.86,2.54s1.18,2.52,2.86,2.52c1.27,0,2.5-.48,3.19-1.44v-2.18Z"/>
      <path class="st0" d="M1004.4,498.37v-7.58h-1.92v-1.58h1.92v-3.17h1.8v3.17h2.35v1.58h-2.35v7.2c0,.86.38,1.49,1.18,1.49.5,0,.98-.22,1.22-.48l.53,1.34c-.46.43-1.1.74-2.16.74-1.7,0-2.57-.98-2.57-2.71Z"/>
      <path class="st0" d="M1018.35,500.79v-1.32c-.96,1.06-2.28,1.61-3.84,1.61-1.97,0-4.06-1.32-4.06-3.84s2.09-3.82,4.06-3.82c1.58,0,2.9.5,3.84,1.58v-2.09c0-1.56-1.25-2.45-2.93-2.45-1.39,0-2.52.5-3.55,1.61l-.84-1.25c1.25-1.3,2.74-1.92,4.63-1.92,2.45,0,4.49,1.1,4.49,3.91v7.97h-1.8ZM1018.35,496.16c-.7-.96-1.92-1.44-3.19-1.44-1.68,0-2.86,1.06-2.86,2.54s1.18,2.52,2.86,2.52c1.27,0,2.5-.48,3.19-1.44v-2.18Z"/>
      <path class="st0" d="M1024.71,498.39c.72,0,1.32.6,1.32,1.32s-.6,1.32-1.32,1.32-1.32-.6-1.32-1.32.6-1.32,1.32-1.32Z"/>
    </g>
  </g>
</svg>