<?xml version="1.0" encoding="UTF-8"?>
<svg id="Layer_1" xmlns="http://www.w3.org/2000/svg" xmlns:xlink="http://www.w3.org/1999/xlink" version="1.1" viewBox="0 0 1200 800">
  <!-- Generator: Adobe Illustrator 30.1.0, SVG Export Plug-In . SVG Version: 2.1.1 Build 136)  -->
  <defs>
    <style>
      .st0 {
        fill: #4c2165;
      }

      .st1 {
        stroke: url(#linear-gradient9);
      }

      .st1, .st2, .st3, .st4, .st5, .st6, .st7, .st8, .st9, .st10, .st11, .st12, .st13, .st14, .st15 {
        fill: none;
      }

      .st1, .st2, .st3, .st4, .st5, .st6, .st7, .st8, .st9, .st12, .st13, .st14, .st15 {
        stroke-miterlimit: 10;
      }

      .st1, .st2, .st13, .st14, .st15 {
        stroke-width: .66px;
      }

      .st2 {
        stroke: url(#linear-gradient8);
      }

      .st3 {
        stroke: url(#linear-gradient2);
      }

      .st3, .st4, .st5, .st6, .st7, .st8, .st9, .st12 {
        stroke-width: .5px;
      }

      .st4 {
        stroke: url(#linear-gradient1);
      }

      .st5 {
        stroke: url(#linear-gradient7);
      }

      .st6 {
        stroke: url(#linear-gradient3);
      }

      .st7 {
        stroke: url(#linear-gradient5);
      }

      .st8 {
        stroke: url(#linear-gradient4);
      }

      .st9 {
        stroke: url(#linear-gradient6);
      }

      .st10 {
        stroke: #4c2165;
      }

      .st10, .st11 {
        stroke-linecap: round;
        stroke-linejoin: round;
      }

      .st11 {
        stroke: #e9e9e9;
        stroke-width: 1.27px;
      }

      .st16 {
        fill: #e9e9e9;
      }

      .st12 {
        stroke: url(#linear-gradient);
      }

      .st13 {
        stroke: url(#linear-gradient10);
      }

      .st14 {
        stroke: url(#linear-gradient12);
      }

      .st15 {
        stroke: url(#linear-gradient11);
      }
    </style>
    <linearGradient id="linear-gradient" x1="123.47" y1="596" x2="123.47" y2="-204" gradientTransform="translate(0 204)" gradientUnits="userSpaceOnUse">
      <stop offset=".07" stop-color="#706f70" stop-opacity="0"/>
      <stop offset=".52" stop-color="#706f70"/>
      <stop offset=".94" stop-color="#706f70" stop-opacity="0"/>
    </linearGradient>
    <linearGradient id="linear-gradient1" x1="258.04" y1="596" x2="258.04" y2="-204" gradientTransform="translate(0 204)" gradientUnits="userSpaceOnUse">
      <stop offset=".07" stop-color="#706f70" stop-opacity="0"/>
      <stop offset=".52" stop-color="#706f70"/>
      <stop offset=".94" stop-color="#706f70" stop-opacity="0"/>
    </linearGradient>
    <linearGradient id="linear-gradient2" x1="392.6" y1="596" x2="392.6" y2="-204" gradientTransform="translate(0 204)" gradientUnits="userSpaceOnUse">
      <stop offset=".07" stop-color="#706f70" stop-opacity="0"/>
      <stop offset=".52" stop-color="#706f70"/>
      <stop offset=".94" stop-color="#706f70" stop-opacity="0"/>
    </linearGradient>
    <linearGradient id="linear-gradient3" x1="527.17" y1="596" x2="527.17" y2="-204" gradientTransform="translate(0 204)" gradientUnits="userSpaceOnUse">
      <stop offset=".07" stop-color="#706f70" stop-opacity="0"/>
      <stop offset=".52" stop-color="#706f70"/>
      <stop offset=".94" stop-color="#706f70" stop-opacity="0"/>
    </linearGradient>
    <linearGradient id="linear-gradient4" x1="661.73" y1="596" x2="661.73" y2="-204" gradientTransform="translate(0 204)" gradientUnits="userSpaceOnUse">
      <stop offset=".07" stop-color="#706f70" stop-opacity="0"/>
      <stop offset=".52" stop-color="#706f70"/>
      <stop offset=".94" stop-color="#706f70" stop-opacity="0"/>
    </linearGradient>
    <linearGradient id="linear-gradient5" x1="796.3" y1="596" x2="796.3" y2="-204" gradientTransform="translate(0 204)" gradientUnits="userSpaceOnUse">
      <stop offset=".07" stop-color="#706f70" stop-opacity="0"/>
      <stop offset=".52" stop-color="#706f70"/>
      <stop offset=".94" stop-color="#706f70" stop-opacity="0"/>
    </linearGradient>
    <linearGradient id="linear-gradient6" x1="930.87" y1="596" x2="930.87" y2="-204" gradientTransform="translate(0 204)" gradientUnits="userSpaceOnUse">
      <stop offset=".07" stop-color="#706f70" stop-opacity="0"/>
      <stop offset=".52" stop-color="#706f70"/>
      <stop offset=".94" stop-color="#706f70" stop-opacity="0"/>
    </linearGradient>
    <linearGradient id="linear-gradient7" x1="1065.43" y1="596" x2="1065.43" y2="-204" gradientTransform="translate(0 204)" gradientUnits="userSpaceOnUse">
      <stop offset=".07" stop-color="#706f70" stop-opacity="0"/>
      <stop offset=".52" stop-color="#706f70"/>
      <stop offset=".94" stop-color="#706f70" stop-opacity="0"/>
    </linearGradient>
    <linearGradient id="linear-gradient8" x1="-1294.54" y1="-419.24" x2="-1294.54" y2="-1618.44" gradientTransform="translate(-418.44 1422.44) rotate(90)" gradientUnits="userSpaceOnUse">
      <stop offset=".07" stop-color="#706f70" stop-opacity="0"/>
      <stop offset=".52" stop-color="#706f70"/>
      <stop offset=".96" stop-color="#706f70" stop-opacity="0"/>
    </linearGradient>
    <linearGradient id="linear-gradient9" x1="-1160.12" y1="-419.24" x2="-1160.12" y2="-1618.44" gradientTransform="translate(-418.44 1422.44) rotate(90)" gradientUnits="userSpaceOnUse">
      <stop offset=".07" stop-color="#706f70" stop-opacity="0"/>
      <stop offset=".52" stop-color="#706f70"/>
      <stop offset=".96" stop-color="#706f70" stop-opacity="0"/>
    </linearGradient>
    <linearGradient id="linear-gradient10" x1="-1025.7" y1="-419.24" x2="-1025.7" y2="-1618.44" gradientTransform="translate(-418.44 1422.44) rotate(90)" gradientUnits="userSpaceOnUse">
      <stop offset=".07" stop-color="#706f70" stop-opacity="0"/>
      <stop offset=".52" stop-color="#706f70"/>
      <stop offset=".96" stop-color="#706f70" stop-opacity="0"/>
    </linearGradient>
    <linearGradient id="linear-gradient11" x1="-891.28" y1="-419.24" x2="-891.28" y2="-1618.44" gradientTransform="translate(-418.44 1422.44) rotate(90)" gradientUnits="userSpaceOnUse">
      <stop offset=".07" stop-color="#706f70" stop-opacity="0"/>
      <stop offset=".52" stop-color="#706f70"/>
      <stop offset=".96" stop-color="#706f70" stop-opacity="0"/>
    </linearGradient>
    <linearGradient id="linear-gradient12" x1="-756.86" y1="-419.24" x2="-756.86" y2="-1618.44" gradientTransform="translate(-418.44 1422.44) rotate(90)" gradientUnits="userSpaceOnUse">
      <stop offset=".07" stop-color="#706f70" stop-opacity="0"/>
      <stop offset=".52" stop-color="#706f70"/>
      <stop offset=".96" stop-color="#706f70" stop-opacity="0"/>
    </linearGradient>
  </defs>
  <g>
    <line class="st12" x1="123.47" y1="0" x2="123.47" y2="800"/>
    <line class="st4" x1="258.04" y1="0" x2="258.04" y2="800"/>
    <line class="st3" x1="392.6" y1="0" x2="392.6" y2="800"/>
    <line class="st6" x1="527.17" y1="0" x2="527.17" y2="800"/>
    <line class="st8" x1="661.73" y1="0" x2="661.73" y2="800"/>
    <line class="st7" x1="796.3" y1="0" x2="796.3" y2="800"/>
    <line class="st9" x1="930.87" y1="0" x2="930.87" y2="800"/>
    <line class="st5" x1="1065.43" y1="0" x2="1065.43" y2="800"/>
  </g>
  <g>
    <line class="st2" x1="1200" y1="127.9" x2=".8" y2="127.9"/>
    <line class="st1" x1="1200" y1="262.32" x2=".8" y2="262.32"/>
    <line class="st13" x1="1200" y1="396.74" x2=".8" y2="396.74"/>
    <line class="st15" x1="1200" y1="531.16" x2=".8" y2="531.16"/>
    <line class="st14" x1="1200" y1="665.58" x2=".8" y2="665.58"/>
  </g>
  <circle class="st0" cx="258.06" cy="665.64" r="5.71" transform="translate(-437.4 826.91) rotate(-81.86)"/>
  <circle class="st0" cx="661.15" cy="127.9" r="2.85"/>
  <circle class="st0" cx="796.3" cy="396.74" r="2.85"/>
  <circle class="st0" cx="930.53" cy="665.58" r="2.85"/>
  <circle class="st0" cx="123.47" cy="127.9" r="2.85"/>
  <g>
    <path class="st0" d="M114.43,492.02v-16.01h5.47c4.97,0,8.21,3.48,8.21,8.02s-3.24,7.99-8.21,7.99h-5.47ZM116.42,490.24h3.48c3.89,0,6.14-2.78,6.14-6.22s-2.18-6.24-6.14-6.24h-3.48v12.46Z"/>
    <path class="st0" d="M136.2,480.14c3.5,0,5.57,2.74,5.57,6.22v.46h-9.38c.14,2.18,1.68,4.01,4.18,4.01,1.32,0,2.67-.53,3.58-1.46l.86,1.18c-1.15,1.15-2.71,1.78-4.61,1.78-3.43,0-5.9-2.47-5.9-6.1,0-3.36,2.4-6.07,5.71-6.07v-.02h-.01ZM132.38,485.49h7.61c-.02-1.73-1.18-3.86-3.82-3.86-2.47,0-3.7,2.09-3.79,3.86Z"/>
    <path class="st0" d="M144.59,489.19c.77.89,2.23,1.66,3.82,1.66,1.78,0,2.74-.79,2.74-1.92,0-1.27-1.42-1.68-2.98-2.06-1.97-.46-4.2-.98-4.2-3.38,0-1.8,1.56-3.34,4.32-3.34,1.97,0,3.36.74,4.3,1.68l-.84,1.25c-.7-.84-1.97-1.46-3.46-1.46-1.58,0-2.57.72-2.57,1.75,0,1.13,1.32,1.49,2.83,1.85,2.02.46,4.34,1.03,4.34,3.6,0,1.94-1.56,3.5-4.56,3.5-1.9,0-3.5-.58-4.68-1.82l.94-1.3h0Z"/>
    <path class="st0" d="M155.51,477.26c0-.67.55-1.2,1.2-1.2s1.22.53,1.22,1.2-.55,1.22-1.22,1.22-1.2-.55-1.2-1.22ZM155.83,492.02v-11.59h1.8v11.59h-1.8Z"/>
    <path class="st0" d="M162.12,493.65c.96,1.15,2.11,1.58,3.77,1.58,1.92,0,3.72-.94,3.72-3.48v-1.66c-.84,1.18-2.26,2.06-3.89,2.06-3.02,0-5.16-2.26-5.16-6s2.11-6.02,5.16-6.02c1.56,0,2.95.77,3.89,2.04v-1.75h1.8v11.26c0,3.84-2.69,5.04-5.52,5.04-1.97,0-3.31-.38-4.68-1.73l.91-1.34h0ZM169.6,483.62c-.62-1.01-2.02-1.87-3.46-1.87-2.33,0-3.72,1.85-3.72,4.42s1.39,4.42,3.72,4.42c1.44,0,2.83-.89,3.46-1.9v-5.06h0Z"/>
    <path class="st0" d="M182.83,492.02v-7.58c0-2.04-1.03-2.69-2.59-2.69-1.42,0-2.76.86-3.43,1.8v8.47h-1.8v-11.59h1.8v1.68c.82-.96,2.4-1.97,4.13-1.97,2.42,0,3.7,1.22,3.7,3.74v8.14h-1.81Z"/>
    <path class="st0" d="M193.27,480.14c3.5,0,5.57,2.74,5.57,6.22v.46h-9.38c.14,2.18,1.68,4.01,4.18,4.01,1.32,0,2.67-.53,3.58-1.46l.86,1.18c-1.15,1.15-2.71,1.78-4.61,1.78-3.43,0-5.9-2.47-5.9-6.1,0-3.36,2.4-6.07,5.71-6.07v-.02h-.01ZM189.45,485.49h7.61c-.02-1.73-1.18-3.86-3.82-3.86-2.47,0-3.7,2.09-3.79,3.86Z"/>
    <path class="st0" d="M210.14,492.02v-1.73c-.86,1.18-2.28,2.02-3.91,2.02-3.02,0-5.16-2.3-5.16-6.07s2.11-6.1,5.16-6.1c1.56,0,2.98.77,3.91,2.04v-6.17h1.8v16.01h-1.8ZM210.14,483.62c-.65-1.01-2.04-1.87-3.48-1.87-2.33,0-3.72,1.92-3.72,4.49s1.39,4.46,3.72,4.46c1.44,0,2.83-.82,3.48-1.82v-5.26h0Z"/>
    <path class="st0" d="M224.04,482.01v10.01h-1.8v-10.01h-1.92v-1.58h1.92v-.89c0-2.4,1.34-3.77,3.36-3.77.67,0,1.3.12,1.75.41l-.46,1.34c-.29-.17-.62-.26-1.03-.26-1.18,0-1.82.82-1.82,2.28v.89h2.35v1.58h-2.35,0Z"/>
    <path class="st0" d="M227.85,486.21c0-3.36,2.21-6.07,5.74-6.07s5.74,2.71,5.74,6.07-2.21,6.1-5.74,6.1-5.74-2.74-5.74-6.1ZM237.43,486.21c0-2.35-1.37-4.46-3.84-4.46s-3.86,2.11-3.86,4.46,1.39,4.49,3.86,4.49,3.84-2.11,3.84-4.49Z"/>
    <path class="st0" d="M242.25,492.02v-11.59h1.8v1.87c.94-1.22,2.28-2.11,3.86-2.11v1.85c-.22-.05-.43-.07-.72-.07-1.1,0-2.62.91-3.14,1.85v8.21h-1.8Z"/>
    <path class="st0" d="M261.48,480.14c2.11,0,3.36.86,4.25,2.02l-1.2,1.1c-.77-1.06-1.75-1.51-2.95-1.51-2.47,0-4.01,1.9-4.01,4.46s1.54,4.49,4.01,4.49c1.2,0,2.18-.48,2.95-1.51l1.2,1.1c-.89,1.15-2.14,2.02-4.25,2.02-3.46,0-5.79-2.64-5.79-6.1s2.33-6.07,5.79-6.07h0Z"/>
    <path class="st0" d="M267.57,486.21c0-3.36,2.21-6.07,5.74-6.07s5.74,2.71,5.74,6.07-2.21,6.1-5.74,6.1-5.74-2.74-5.74-6.1ZM277.15,486.21c0-2.35-1.37-4.46-3.84-4.46s-3.86,2.11-3.86,4.46,1.39,4.49,3.86,4.49,3.84-2.11,3.84-4.49Z"/>
    <path class="st0" d="M281.97,492.02v-16.01h1.8v16.01h-1.8Z"/>
    <path class="st0" d="M287.37,492.02v-16.01h1.8v16.01h-1.8Z"/>
    <path class="st0" d="M300.02,492.02v-1.32c-.96,1.06-2.28,1.61-3.84,1.61-1.97,0-4.06-1.32-4.06-3.84s2.09-3.82,4.06-3.82c1.58,0,2.9.5,3.84,1.58v-2.09c0-1.56-1.25-2.45-2.93-2.45-1.39,0-2.52.5-3.55,1.61l-.84-1.25c1.25-1.3,2.74-1.92,4.63-1.92,2.45,0,4.49,1.1,4.49,3.91v7.97h-1.8ZM300.02,487.38c-.7-.96-1.92-1.44-3.19-1.44-1.68,0-2.86,1.06-2.86,2.54s1.18,2.52,2.86,2.52c1.27,0,2.5-.48,3.19-1.44v-2.18Z"/>
    <path class="st0" d="M305.42,492.02v-16.01h1.8v6.17c.94-1.27,2.33-2.04,3.91-2.04,3.02,0,5.16,2.4,5.16,6.1s-2.14,6.07-5.16,6.07c-1.63,0-3.05-.84-3.91-2.02v1.73h-1.8ZM307.22,488.87c.62,1.01,2.04,1.82,3.46,1.82,2.35,0,3.74-1.9,3.74-4.46s-1.39-4.49-3.74-4.49c-1.42,0-2.83.86-3.46,1.87v5.26h0Z"/>
    <path class="st0" d="M318.55,486.21c0-3.36,2.21-6.07,5.74-6.07s5.74,2.71,5.74,6.07-2.21,6.1-5.74,6.1-5.74-2.74-5.74-6.1ZM328.12,486.21c0-2.35-1.37-4.46-3.84-4.46s-3.86,2.11-3.86,4.46,1.39,4.49,3.86,4.49,3.84-2.11,3.84-4.49Z"/>
    <path class="st0" d="M332.95,492.02v-11.59h1.8v1.87c.94-1.22,2.28-2.11,3.86-2.11v1.85c-.22-.05-.43-.07-.72-.07-1.1,0-2.62.91-3.14,1.85v8.21h-1.8,0Z"/>
    <path class="st0" d="M348.12,492.02v-1.32c-.96,1.06-2.28,1.61-3.84,1.61-1.97,0-4.06-1.32-4.06-3.84s2.09-3.82,4.06-3.82c1.58,0,2.9.5,3.84,1.58v-2.09c0-1.56-1.25-2.45-2.93-2.45-1.39,0-2.52.5-3.55,1.61l-.84-1.25c1.25-1.3,2.74-1.92,4.63-1.92,2.45,0,4.49,1.1,4.49,3.91v7.97h-1.8ZM348.12,487.38c-.7-.96-1.92-1.44-3.19-1.44-1.68,0-2.86,1.06-2.86,2.54s1.18,2.52,2.86,2.52c1.27,0,2.5-.48,3.19-1.44v-2.18Z"/>
    <path class="st0" d="M353.88,489.59v-7.58h-1.92v-1.58h1.92v-3.17h1.8v3.17h2.35v1.58h-2.35v7.2c0,.86.38,1.49,1.18,1.49.5,0,.98-.22,1.22-.48l.53,1.34c-.46.43-1.1.74-2.16.74-1.7,0-2.57-.98-2.57-2.71h0Z"/>
    <path class="st0" d="M360.26,477.26c0-.67.55-1.2,1.2-1.2s1.22.53,1.22,1.2-.55,1.22-1.22,1.22-1.2-.55-1.2-1.22ZM360.57,492.02v-11.59h1.8v11.59h-1.8Z"/>
    <path class="st0" d="M365.3,486.21c0-3.36,2.21-6.07,5.74-6.07s5.74,2.71,5.74,6.07-2.21,6.1-5.74,6.1-5.74-2.74-5.74-6.1ZM374.88,486.21c0-2.35-1.37-4.46-3.84-4.46s-3.86,2.11-3.86,4.46,1.39,4.49,3.86,4.49,3.84-2.11,3.84-4.49Z"/>
    <path class="st0" d="M387.52,492.02v-7.58c0-2.04-1.03-2.69-2.59-2.69-1.42,0-2.76.86-3.43,1.8v8.47h-1.8v-11.59h1.8v1.68c.82-.96,2.4-1.97,4.13-1.97,2.42,0,3.7,1.22,3.7,3.74v8.14h-1.81Z"/>
    <path class="st0" d="M114.43,520.82v-16.01h6.43c3.22,0,5.02,2.21,5.02,4.83s-1.85,4.82-5.02,4.82h-4.44v6.36h-1.99ZM120.62,506.58h-4.2v6.1h4.2c1.9,0,3.19-1.25,3.19-3.05s-1.3-3.05-3.19-3.05h0Z"/>
    <path class="st0" d="M128.44,520.82v-11.59h1.8v1.87c.94-1.22,2.28-2.11,3.86-2.11v1.85c-.22-.05-.43-.07-.72-.07-1.1,0-2.62.91-3.14,1.85v8.21h-1.8Z"/>
    <path class="st0" d="M135.69,515.01c0-3.36,2.21-6.07,5.74-6.07s5.74,2.71,5.74,6.07-2.21,6.1-5.74,6.1-5.74-2.74-5.74-6.1ZM145.27,515.01c0-2.35-1.37-4.46-3.84-4.46s-3.86,2.11-3.86,4.46,1.39,4.49,3.86,4.49,3.84-2.11,3.84-4.49Z"/>
    <path class="st0" d="M150.45,518.39v-7.58h-1.92v-1.58h1.92v-3.17h1.8v3.17h2.35v1.58h-2.35v7.2c0,.86.38,1.49,1.18,1.49.5,0,.98-.22,1.22-.48l.53,1.34c-.46.43-1.1.74-2.16.74-1.7,0-2.57-.98-2.57-2.71h0Z"/>
    <path class="st0" d="M156.47,515.01c0-3.36,2.21-6.07,5.74-6.07s5.74,2.71,5.74,6.07-2.21,6.1-5.74,6.1-5.74-2.74-5.74-6.1ZM166.05,515.01c0-2.35-1.37-4.46-3.84-4.46s-3.86,2.11-3.86,4.46,1.39,4.49,3.86,4.49,3.84-2.11,3.84-4.49Z"/>
    <path class="st0" d="M175.99,508.94c2.11,0,3.36.86,4.25,2.02l-1.2,1.1c-.77-1.06-1.75-1.51-2.95-1.51-2.47,0-4.01,1.9-4.01,4.46s1.54,4.49,4.01,4.49c1.2,0,2.18-.48,2.95-1.51l1.2,1.1c-.89,1.15-2.14,2.02-4.25,2.02-3.46,0-5.79-2.64-5.79-6.1s2.33-6.07,5.79-6.07Z"/>
    <path class="st0" d="M182.08,515.01c0-3.36,2.21-6.07,5.74-6.07s5.74,2.71,5.74,6.07-2.21,6.1-5.74,6.1-5.74-2.74-5.74-6.1ZM191.66,515.01c0-2.35-1.37-4.46-3.84-4.46s-3.86,2.11-3.86,4.46,1.39,4.49,3.86,4.49,3.84-2.11,3.84-4.49Z"/>
    <path class="st0" d="M196.48,520.82v-16.01h1.8v16.01h-1.8Z"/>
    <path class="st0" d="M201.81,517.99c.77.89,2.23,1.66,3.82,1.66,1.78,0,2.74-.79,2.74-1.92,0-1.27-1.42-1.68-2.98-2.06-1.97-.46-4.2-.98-4.2-3.38,0-1.8,1.56-3.34,4.32-3.34,1.97,0,3.36.74,4.3,1.68l-.84,1.25c-.7-.84-1.97-1.46-3.46-1.46-1.58,0-2.57.72-2.57,1.75,0,1.13,1.32,1.49,2.83,1.85,2.02.46,4.34,1.03,4.34,3.6,0,1.94-1.56,3.5-4.56,3.5-1.9,0-3.5-.58-4.68-1.82l.94-1.3h0Z"/>
    <path class="st0" d="M221.54,510.81v10.01h-1.8v-10.01h-1.92v-1.58h1.92v-.89c0-2.4,1.34-3.77,3.36-3.77.67,0,1.3.12,1.75.41l-.46,1.34c-.29-.17-.62-.26-1.03-.26-1.18,0-1.82.82-1.82,2.28v.89h2.35v1.58h-2.35,0Z"/>
    <path class="st0" d="M225.35,515.01c0-3.36,2.21-6.07,5.74-6.07s5.74,2.71,5.74,6.07-2.21,6.1-5.74,6.1-5.74-2.74-5.74-6.1ZM234.93,515.01c0-2.35-1.37-4.46-3.84-4.46s-3.86,2.11-3.86,4.46,1.39,4.49,3.86,4.49,3.84-2.11,3.84-4.49Z"/>
    <path class="st0" d="M239.75,520.82v-11.59h1.8v1.87c.94-1.22,2.28-2.11,3.86-2.11v1.85c-.22-.05-.43-.07-.72-.07-1.1,0-2.62.91-3.14,1.85v8.21h-1.8Z"/>
    <path class="st0" d="M253.55,506.06c0-.67.55-1.2,1.2-1.2s1.22.53,1.22,1.2-.55,1.22-1.22,1.22-1.2-.55-1.2-1.22ZM253.87,520.82v-11.59h1.8v11.59h-1.8Z"/>
    <path class="st0" d="M267.09,520.82v-7.58c0-2.04-1.03-2.69-2.59-2.69-1.42,0-2.76.86-3.43,1.8v8.47h-1.8v-11.59h1.8v1.68c.82-.96,2.4-1.97,4.13-1.97,2.42,0,3.7,1.22,3.7,3.74v8.14h-1.81Z"/>
    <path class="st0" d="M272.85,518.39v-7.58h-1.92v-1.58h1.92v-3.17h1.8v3.17h2.35v1.58h-2.35v7.2c0,.86.38,1.49,1.18,1.49.5,0,.98-.22,1.22-.48l.53,1.34c-.46.43-1.1.74-2.16.74-1.7,0-2.57-.98-2.57-2.71h0Z"/>
    <path class="st0" d="M284.59,508.94c3.5,0,5.57,2.74,5.57,6.22v.46h-9.38c.14,2.18,1.68,4.01,4.18,4.01,1.32,0,2.67-.53,3.58-1.46l.86,1.18c-1.15,1.15-2.71,1.78-4.61,1.78-3.43,0-5.9-2.47-5.9-6.1,0-3.36,2.4-6.07,5.71-6.07v-.02h0ZM280.77,514.29h7.61c-.02-1.73-1.18-3.86-3.82-3.86-2.47,0-3.7,2.09-3.79,3.86h0Z"/>
    <path class="st0" d="M293.06,520.82v-11.59h1.8v1.87c.94-1.22,2.28-2.11,3.86-2.11v1.85c-.22-.05-.43-.07-.72-.07-1.1,0-2.62.91-3.14,1.85v8.21h-1.8,0Z"/>
    <path class="st0" d="M308.23,520.82v-1.32c-.96,1.06-2.28,1.61-3.84,1.61-1.97,0-4.06-1.32-4.06-3.84s2.09-3.82,4.06-3.82c1.58,0,2.9.5,3.84,1.58v-2.09c0-1.56-1.25-2.45-2.93-2.45-1.39,0-2.52.5-3.55,1.61l-.84-1.25c1.25-1.3,2.74-1.92,4.63-1.92,2.45,0,4.49,1.1,4.49,3.91v7.97h-1.8ZM308.23,516.18c-.7-.96-1.92-1.44-3.19-1.44-1.68,0-2.86,1.06-2.86,2.54s1.18,2.52,2.86,2.52c1.27,0,2.5-.48,3.19-1.44v-2.18Z"/>
    <path class="st0" d="M318.74,508.94c2.11,0,3.36.86,4.25,2.02l-1.2,1.1c-.77-1.06-1.75-1.51-2.95-1.51-2.47,0-4.01,1.9-4.01,4.46s1.54,4.49,4.01,4.49c1.2,0,2.18-.48,2.95-1.51l1.2,1.1c-.89,1.15-2.14,2.02-4.25,2.02-3.46,0-5.78-2.64-5.78-6.1s2.33-6.07,5.78-6.07Z"/>
    <path class="st0" d="M325.87,518.39v-7.58h-1.92v-1.58h1.92v-3.17h1.8v3.17h2.35v1.58h-2.35v7.2c0,.86.38,1.49,1.18,1.49.5,0,.98-.22,1.22-.48l.53,1.34c-.46.43-1.1.74-2.16.74-1.7,0-2.57-.98-2.57-2.71h0Z"/>
    <path class="st0" d="M332.25,506.06c0-.67.55-1.2,1.2-1.2s1.22.53,1.22,1.2-.55,1.22-1.22,1.22-1.2-.55-1.2-1.22ZM332.56,520.82v-11.59h1.8v11.59h-1.8Z"/>
    <path class="st0" d="M337.29,515.01c0-3.36,2.21-6.07,5.74-6.07s5.74,2.71,5.74,6.07-2.21,6.1-5.74,6.1-5.74-2.74-5.74-6.1ZM346.87,515.01c0-2.35-1.37-4.46-3.84-4.46s-3.86,2.11-3.86,4.46,1.39,4.49,3.86,4.49,3.84-2.11,3.84-4.49Z"/>
    <path class="st0" d="M359.52,520.82v-7.58c0-2.04-1.03-2.69-2.59-2.69-1.42,0-2.76.86-3.43,1.8v8.47h-1.8v-11.59h1.8v1.68c.82-.96,2.4-1.97,4.13-1.97,2.42,0,3.7,1.22,3.7,3.74v8.14h-1.81Z"/>
    <path class="st0" d="M122.01,533.34c2.83,0,4.8,1.25,6.22,3l-1.58.98c-1.01-1.3-2.71-2.21-4.63-2.21-3.5,0-6.17,2.69-6.17,6.5s2.66,6.53,6.17,6.53c1.92,0,3.5-.94,4.3-1.73v-3.26h-5.5v-1.78h7.49v5.78c-1.49,1.66-3.67,2.76-6.29,2.76-4.56,0-8.23-3.34-8.23-8.31s3.67-8.28,8.23-8.28v.02h0Z"/>
    <path class="st0" d="M130.79,543.81c0-3.36,2.21-6.07,5.74-6.07s5.74,2.71,5.74,6.07-2.21,6.1-5.74,6.1-5.74-2.74-5.74-6.1ZM140.37,543.81c0-2.35-1.37-4.46-3.84-4.46s-3.86,2.11-3.86,4.46,1.39,4.49,3.86,4.49,3.84-2.11,3.84-4.49Z"/>
    <path class="st0" d="M148.29,549.62l-4.82-11.59h1.94l3.86,9.5,3.84-9.5h1.97l-4.83,11.59h-1.97.01Z"/>
    <path class="st0" d="M162,537.74c3.5,0,5.57,2.74,5.57,6.22v.46h-9.38c.14,2.18,1.68,4.01,4.18,4.01,1.32,0,2.67-.53,3.58-1.46l.86,1.18c-1.15,1.15-2.71,1.78-4.61,1.78-3.43,0-5.9-2.47-5.9-6.1,0-3.36,2.4-6.07,5.71-6.07v-.02h-.01ZM158.18,543.09h7.61c-.02-1.73-1.18-3.86-3.82-3.86-2.47,0-3.7,2.09-3.79,3.86Z"/>
    <path class="st0" d="M170.47,549.62v-11.59h1.8v1.87c.94-1.22,2.28-2.11,3.86-2.11v1.85c-.22-.05-.43-.07-.72-.07-1.1,0-2.62.91-3.14,1.85v8.21h-1.8Z"/>
    <path class="st0" d="M186.21,549.62v-7.58c0-2.04-1.03-2.69-2.59-2.69-1.42,0-2.76.86-3.43,1.8v8.47h-1.8v-11.59h1.8v1.68c.82-.96,2.4-1.97,4.13-1.97,2.42,0,3.7,1.22,3.7,3.74v8.14h-1.81Z"/>
    <path class="st0" d="M198.86,549.62v-1.32c-.96,1.06-2.28,1.61-3.84,1.61-1.97,0-4.06-1.32-4.06-3.84s2.09-3.82,4.06-3.82c1.58,0,2.9.5,3.84,1.58v-2.09c0-1.56-1.25-2.45-2.93-2.45-1.39,0-2.52.5-3.55,1.61l-.84-1.25c1.25-1.3,2.74-1.92,4.63-1.92,2.45,0,4.49,1.1,4.49,3.91v7.97h-1.8ZM198.86,544.98c-.7-.96-1.92-1.44-3.19-1.44-1.68,0-2.86,1.06-2.86,2.54s1.18,2.52,2.86,2.52c1.27,0,2.5-.48,3.19-1.44v-2.18Z"/>
    <path class="st0" d="M212.08,549.62v-7.58c0-2.04-1.03-2.69-2.59-2.69-1.42,0-2.76.86-3.43,1.8v8.47h-1.8v-11.59h1.8v1.68c.82-.96,2.4-1.97,4.13-1.97,2.42,0,3.7,1.22,3.7,3.74v8.14h-1.81Z"/>
    <path class="st0" d="M222.59,537.74c2.11,0,3.36.86,4.25,2.02l-1.2,1.1c-.77-1.06-1.75-1.51-2.95-1.51-2.47,0-4.01,1.9-4.01,4.46s1.54,4.49,4.01,4.49c1.2,0,2.18-.48,2.95-1.51l1.2,1.1c-.89,1.15-2.14,2.02-4.25,2.02-3.46,0-5.78-2.64-5.78-6.1s2.33-6.07,5.78-6.07Z"/>
    <path class="st0" d="M234.4,537.74c3.5,0,5.57,2.74,5.57,6.22v.46h-9.38c.14,2.18,1.68,4.01,4.18,4.01,1.32,0,2.67-.53,3.58-1.46l.86,1.18c-1.15,1.15-2.71,1.78-4.61,1.78-3.43,0-5.9-2.47-5.9-6.1,0-3.36,2.4-6.07,5.71-6.07v-.02h-.01ZM230.59,543.09h7.61c-.02-1.73-1.18-3.86-3.82-3.86-2.47,0-3.7,2.09-3.79,3.86Z"/>
    <path class="st0" d="M263.06,549.62v-7.87c0-1.46-.65-2.4-2.14-2.4-1.2,0-2.47.86-3.07,1.78v8.5h-1.8v-7.87c0-1.46-.62-2.4-2.14-2.4-1.18,0-2.42.86-3.05,1.8v8.47h-1.8v-11.59h1.8v1.68c.48-.74,2.04-1.97,3.74-1.97s2.78.96,3.12,2.16c.65-1.06,2.21-2.16,3.89-2.16,2.11,0,3.24,1.18,3.24,3.5v8.38h-1.8,0Z"/>
    <path class="st0" d="M273.5,537.74c3.5,0,5.57,2.74,5.57,6.22v.46h-9.38c.14,2.18,1.68,4.01,4.18,4.01,1.32,0,2.67-.53,3.58-1.46l.86,1.18c-1.15,1.15-2.71,1.78-4.61,1.78-3.43,0-5.9-2.47-5.9-6.1,0-3.36,2.4-6.07,5.71-6.07v-.02h0ZM269.68,543.09h7.61c-.02-1.73-1.18-3.86-3.82-3.86-2.47,0-3.7,2.09-3.79,3.86h0Z"/>
    <path class="st0" d="M287.08,537.74c2.11,0,3.36.86,4.25,2.02l-1.2,1.1c-.77-1.06-1.75-1.51-2.95-1.51-2.47,0-4.01,1.9-4.01,4.46s1.54,4.49,4.01,4.49c1.2,0,2.18-.48,2.95-1.51l1.2,1.1c-.89,1.15-2.14,2.02-4.25,2.02-3.46,0-5.78-2.64-5.78-6.1s2.33-6.07,5.78-6.07Z"/>
    <path class="st0" d="M301.7,549.62v-7.63c0-2.04-1.06-2.64-2.62-2.64-1.39,0-2.74.86-3.43,1.8v8.47h-1.8v-16.01h1.8v6.1c.82-.96,2.4-1.97,4.15-1.97,2.42,0,3.7,1.18,3.7,3.7v8.18h-1.8Z"/>
    <path class="st0" d="M314.35,549.62v-1.32c-.96,1.06-2.28,1.61-3.84,1.61-1.97,0-4.06-1.32-4.06-3.84s2.09-3.82,4.06-3.82c1.58,0,2.9.5,3.84,1.58v-2.09c0-1.56-1.25-2.45-2.93-2.45-1.39,0-2.52.5-3.55,1.61l-.84-1.25c1.25-1.3,2.74-1.92,4.63-1.92,2.45,0,4.49,1.1,4.49,3.91v7.97h-1.8ZM314.35,544.98c-.7-.96-1.92-1.44-3.19-1.44-1.68,0-2.86,1.06-2.86,2.54s1.18,2.52,2.86,2.52c1.27,0,2.5-.48,3.19-1.44v-2.18Z"/>
    <path class="st0" d="M327.57,549.62v-7.58c0-2.04-1.03-2.69-2.59-2.69-1.42,0-2.76.86-3.43,1.8v8.47h-1.8v-11.59h1.8v1.68c.82-.96,2.4-1.97,4.13-1.97,2.42,0,3.7,1.22,3.7,3.74v8.14h-1.81Z"/>
    <path class="st0" d="M332.66,534.86c0-.67.55-1.2,1.2-1.2s1.22.53,1.22,1.2-.55,1.22-1.22,1.22-1.2-.55-1.2-1.22ZM332.97,549.62v-11.59h1.8v11.59h-1.8Z"/>
    <path class="st0" d="M338.3,546.79c.77.89,2.23,1.66,3.82,1.66,1.78,0,2.74-.79,2.74-1.92,0-1.27-1.42-1.68-2.98-2.06-1.97-.46-4.2-.98-4.2-3.38,0-1.8,1.56-3.34,4.32-3.34,1.97,0,3.36.74,4.3,1.68l-.84,1.25c-.7-.84-1.97-1.46-3.46-1.46-1.58,0-2.57.72-2.57,1.75,0,1.13,1.32,1.49,2.83,1.85,2.02.46,4.34,1.03,4.34,3.6,0,1.94-1.56,3.5-4.56,3.5-1.9,0-3.5-.58-4.68-1.82l.94-1.3h0Z"/>
    <path class="st0" d="M363.52,549.62v-7.87c0-1.46-.65-2.4-2.14-2.4-1.2,0-2.47.86-3.07,1.78v8.5h-1.8v-7.87c0-1.46-.62-2.4-2.14-2.4-1.18,0-2.42.86-3.05,1.8v8.47h-1.8v-11.59h1.8v1.68c.48-.74,2.04-1.97,3.74-1.97s2.78.96,3.12,2.16c.65-1.06,2.21-2.16,3.89-2.16,2.11,0,3.24,1.18,3.24,3.5v8.38h-1.8.01Z"/>
  </g>
  <g>
    <path class="st0" d="M788.94,175.59v-16.01h7.13c2.78,0,4.49,1.68,4.49,4.08,0,2.02-1.34,3.36-2.81,3.67,1.7.26,3.12,2.02,3.12,3.94,0,2.57-1.7,4.32-4.63,4.32h-7.3ZM790.93,166.52h4.8c1.8,0,2.76-1.1,2.76-2.57s-.96-2.59-2.76-2.59h-4.8v5.16ZM790.93,173.81h4.9c1.87,0,2.98-1.06,2.98-2.76,0-1.46-1.01-2.76-2.98-2.76h-4.9v5.52h0Z"/>
    <path class="st0" d="M811.21,175.59v-1.32c-.96,1.06-2.28,1.61-3.84,1.61-1.97,0-4.06-1.32-4.06-3.84s2.09-3.82,4.06-3.82c1.58,0,2.9.5,3.84,1.58v-2.09c0-1.56-1.25-2.45-2.93-2.45-1.39,0-2.52.5-3.55,1.61l-.84-1.25c1.25-1.3,2.74-1.92,4.63-1.92,2.45,0,4.49,1.1,4.49,3.91v7.97h-1.8ZM811.21,170.96c-.7-.96-1.92-1.44-3.19-1.44-1.68,0-2.86,1.06-2.86,2.54s1.18,2.52,2.86,2.52c1.27,0,2.5-.48,3.19-1.44v-2.18Z"/>
    <path class="st0" d="M824.44,175.59v-7.58c0-2.04-1.03-2.69-2.59-2.69-1.42,0-2.76.86-3.43,1.8v8.47h-1.8v-11.59h1.8v1.68c.82-.96,2.4-1.97,4.13-1.97,2.42,0,3.7,1.22,3.7,3.74v8.14h-1.81Z"/>
    <path class="st0" d="M837.73,175.59l-4.18-5.21-1.92,1.9v3.31h-1.8v-16.01h1.8v10.58l6.1-6.17h2.28l-5.14,5.26,5.16,6.34h-2.3Z"/>
    <path class="st0" d="M847.69,169.78c0-3.36,2.21-6.07,5.74-6.07s5.74,2.71,5.74,6.07-2.21,6.1-5.74,6.1-5.74-2.74-5.74-6.1ZM857.27,169.78c0-2.35-1.37-4.46-3.84-4.46s-3.86,2.11-3.86,4.46,1.39,4.49,3.86,4.49,3.84-2.11,3.84-4.49Z"/>
    <path class="st0" d="M864.4,165.58v10.01h-1.8v-10.01h-1.92v-1.58h1.92v-.89c0-2.4,1.34-3.77,3.36-3.77.67,0,1.3.12,1.75.41l-.46,1.34c-.29-.17-.62-.26-1.03-.26-1.18,0-1.82.82-1.82,2.28v.89h2.35v1.58h-2.35,0Z"/>
    <path class="st0" d="M875.44,173.16v-7.58h-1.92v-1.58h1.92v-3.17h1.8v3.17h2.35v1.58h-2.35v7.2c0,.86.38,1.49,1.18,1.49.5,0,.98-.22,1.22-.48l.53,1.34c-.46.43-1.1.74-2.16.74-1.7,0-2.57-.98-2.57-2.71Z"/>
    <path class="st0" d="M881.46,169.78c0-3.36,2.21-6.07,5.74-6.07s5.74,2.71,5.74,6.07-2.21,6.1-5.74,6.1-5.74-2.74-5.74-6.1ZM891.04,169.78c0-2.35-1.37-4.46-3.84-4.46s-3.86,2.11-3.86,4.46,1.39,4.49,3.86,4.49,3.84-2.11,3.84-4.49Z"/>
    <path class="st0" d="M895.19,169.78c0-3.36,2.21-6.07,5.74-6.07s5.74,2.71,5.74,6.07-2.21,6.1-5.74,6.1-5.74-2.74-5.74-6.1ZM904.77,169.78c0-2.35-1.37-4.46-3.84-4.46s-3.86,2.11-3.86,4.46,1.39,4.49,3.86,4.49,3.84-2.11,3.84-4.49Z"/>
    <path class="st0" d="M909.59,175.59v-16.01h1.8v16.01h-1.8Z"/>
    <path class="st0" d="M914.92,172.76c.77.89,2.23,1.66,3.82,1.66,1.78,0,2.74-.79,2.74-1.92,0-1.27-1.42-1.68-2.98-2.06-1.97-.46-4.2-.98-4.2-3.38,0-1.8,1.56-3.34,4.32-3.34,1.97,0,3.36.74,4.3,1.68l-.84,1.25c-.7-.84-1.97-1.46-3.46-1.46-1.58,0-2.57.72-2.57,1.75,0,1.13,1.32,1.49,2.83,1.85,2.02.46,4.34,1.03,4.34,3.6,0,1.94-1.56,3.5-4.56,3.5-1.9,0-3.5-.58-4.68-1.82l.94-1.3h0Z"/>
    <path class="st0" d="M925.72,177.89c.77-.5,1.46-1.44,1.56-2.23-.05.02-.22.05-.34.05-.67,0-1.15-.5-1.15-1.22s.55-1.3,1.27-1.3c.79,0,1.51.67,1.51,1.82,0,1.46-.86,2.83-1.97,3.62l-.89-.74h.01Z"/>
    <path class="st0" d="M788.8,201.56c.77.89,2.23,1.66,3.82,1.66,1.78,0,2.74-.79,2.74-1.92,0-1.27-1.42-1.68-2.98-2.06-1.97-.46-4.2-.98-4.2-3.38,0-1.8,1.56-3.34,4.32-3.34,1.97,0,3.36.74,4.3,1.68l-.84,1.25c-.7-.84-1.97-1.46-3.46-1.46-1.58,0-2.57.72-2.57,1.75,0,1.13,1.32,1.49,2.83,1.85,2.02.46,4.34,1.03,4.34,3.6,0,1.94-1.56,3.5-4.56,3.5-1.9,0-3.5-.58-4.68-1.82l.94-1.3h0Z"/>
    <path class="st0" d="M800.39,201.96v-7.58h-1.92v-1.58h1.92v-3.17h1.8v3.17h2.35v1.58h-2.35v7.2c0,.86.38,1.49,1.18,1.49.5,0,.98-.22,1.22-.48l.53,1.34c-.46.43-1.1.74-2.16.74-1.7,0-2.57-.98-2.57-2.71Z"/>
    <path class="st0" d="M806.41,198.58c0-3.36,2.21-6.07,5.74-6.07s5.74,2.71,5.74,6.07-2.21,6.1-5.74,6.1-5.74-2.74-5.74-6.1ZM815.99,198.58c0-2.35-1.37-4.46-3.84-4.46s-3.86,2.11-3.86,4.46,1.39,4.49,3.86,4.49,3.84-2.11,3.84-4.49Z"/>
    <path class="st0" d="M820.81,204.39v-11.59h1.8v1.87c.94-1.22,2.28-2.11,3.86-2.11v1.85c-.22-.05-.43-.07-.72-.07-1.1,0-2.62.91-3.14,1.85v8.21h-1.8Z"/>
    <path class="st0" d="M828.37,207.29c.26.12.7.19.98.19.79,0,1.32-.26,1.73-1.22l.77-1.75-4.85-11.71h1.94l3.86,9.5,3.84-9.5h1.97l-5.81,13.95c-.7,1.68-1.87,2.33-3.41,2.35-.38,0-.98-.07-1.32-.17l.29-1.63h.01Z"/>
    <path class="st0" d="M851.73,192.51c3.5,0,5.57,2.74,5.57,6.22v.46h-9.38c.14,2.18,1.68,4.01,4.18,4.01,1.32,0,2.67-.53,3.58-1.46l.86,1.18c-1.15,1.15-2.71,1.78-4.61,1.78-3.43,0-5.9-2.47-5.9-6.1,0-3.36,2.4-6.07,5.71-6.07v-.02h-.01ZM847.91,197.86h7.61c-.02-1.73-1.18-3.86-3.82-3.86-2.47,0-3.7,2.09-3.79,3.86Z"/>
    <path class="st0" d="M866.94,204.39l-3.48-4.75-3.48,4.75h-2.06l4.44-5.95-4.2-5.64h2.09l3.22,4.42,3.22-4.42h2.09l-4.2,5.64,4.46,5.95h-2.1Z"/>
    <path class="st0" d="M875.39,192.51c3.5,0,5.57,2.74,5.57,6.22v.46h-9.38c.14,2.18,1.68,4.01,4.18,4.01,1.32,0,2.67-.53,3.58-1.46l.86,1.18c-1.15,1.15-2.71,1.78-4.61,1.78-3.43,0-5.9-2.47-5.9-6.1,0-3.36,2.4-6.07,5.71-6.07v-.02h-.01ZM871.57,197.86h7.61c-.02-1.73-1.18-3.86-3.82-3.86-2.47,0-3.7,2.09-3.79,3.86Z"/>
    <path class="st0" d="M897.85,204.39v-7.87c0-1.46-.65-2.4-2.14-2.4-1.2,0-2.47.86-3.07,1.78v8.5h-1.8v-7.87c0-1.46-.62-2.4-2.14-2.4-1.18,0-2.42.86-3.05,1.8v8.47h-1.8v-11.59h1.8v1.68c.48-.74,2.04-1.97,3.74-1.97s2.78.96,3.12,2.16c.65-1.06,2.21-2.16,3.89-2.16,2.11,0,3.24,1.18,3.24,3.5v8.38h-1.8.01Z"/>
    <path class="st0" d="M905.05,208.8h-1.8v-16.01h1.8v1.73c.84-1.18,2.28-2.02,3.91-2.02,3.05,0,5.16,2.3,5.16,6.07s-2.11,6.1-5.16,6.1c-1.58,0-2.98-.74-3.91-2.04v6.17h0ZM908.51,194.12c-1.42,0-2.83.84-3.46,1.85v5.23c.62,1.01,2.04,1.87,3.46,1.87,2.33,0,3.72-1.92,3.72-4.49s-1.39-4.46-3.72-4.46h0Z"/>
    <path class="st0" d="M917.03,204.39v-16.01h1.8v16.01h-1.8Z"/>
    <path class="st0" d="M929.68,204.39v-1.32c-.96,1.06-2.28,1.61-3.84,1.61-1.97,0-4.06-1.32-4.06-3.84s2.09-3.82,4.06-3.82c1.58,0,2.9.5,3.84,1.58v-2.09c0-1.56-1.25-2.45-2.93-2.45-1.39,0-2.52.5-3.55,1.61l-.84-1.25c1.25-1.3,2.74-1.92,4.63-1.92,2.45,0,4.49,1.1,4.49,3.91v7.97h-1.8ZM929.68,199.76c-.7-.96-1.92-1.44-3.19-1.44-1.68,0-2.86,1.06-2.86,2.54s1.18,2.52,2.86,2.52c1.27,0,2.5-.48,3.19-1.44v-2.18Z"/>
    <path class="st0" d="M935.08,204.39v-11.59h1.8v1.87c.94-1.22,2.28-2.11,3.86-2.11v1.85c-.22-.05-.43-.07-.72-.07-1.1,0-2.62.91-3.14,1.85v8.21h-1.8Z"/>
    <path class="st0" d="M942.93,201.56c.77.89,2.23,1.66,3.82,1.66,1.78,0,2.74-.79,2.74-1.92,0-1.27-1.42-1.68-2.98-2.06-1.97-.46-4.2-.98-4.2-3.38,0-1.8,1.56-3.34,4.32-3.34,1.97,0,3.36.74,4.3,1.68l-.84,1.25c-.7-.84-1.97-1.46-3.46-1.46-1.58,0-2.57.72-2.57,1.75,0,1.13,1.32,1.49,2.83,1.85,2.02.46,4.34,1.03,4.34,3.6,0,1.94-1.56,3.5-4.56,3.5-1.9,0-3.5-.58-4.68-1.82l.94-1.3h0Z"/>
  </g>
  <circle class="st0" cx="753.37" cy="187.18" r="17.69"/>
  <circle class="st0" cx="586.44" cy="499.27" r="17.69"/>
  <circle class="st0" cx="328.7" cy="447.7" r="9.64"/>
  <circle class="st0" cx="476.33" cy="599.27" r="9.64"/>
  <circle class="st0" cx="258.04" cy="396.74" r="6.57"/>
  <circle cx="695.5" cy="50.35" r="9.64"/>
  <circle class="st0" cx="123.47" cy="262.32" r="17.69"/>
  <line class="st10" x1="280.51" y1="268.79" x2="149.12" y2="263.42"/>
  <circle class="st0" cx="388.55" cy="211.9" r="109.83"/>
  <line class="st10" x1="379.74" y1="330.34" x2="336.34" y2="434.48"/>
  <line class="st10" x1="505.32" y1="238.1" x2="724.32" y2="192.63"/>
  <line class="st10" x1="483.9" y1="284.2" x2="573.79" y2="476.62"/>
  <line class="st10" x1="312.28" y1="443.64" x2="268.89" y2="407.39"/>
  <line class="st10" x1="747.59" y1="162.72" x2="703.49" y2="63.96"/>
  <line class="st10" x1="705.14" y1="38.06" x2="764.42" y2="-3.88"/>
  <line class="st10" x1="560.98" y1="516.96" x2="489.64" y2="590.94"/>
  <g>
    <g>
      <rect class="st11" x="332.22" y="207.88" width="51.15" height="60.22"/>
      <line class="st11" x1="342.14" y1="216.16" x2="374.57" y2="216.16"/>
      <line class="st11" x1="342.14" y1="224.62" x2="374.57" y2="224.62"/>
      <line class="st11" x1="342.14" y1="233.08" x2="374.57" y2="233.08"/>
      <line class="st11" x1="342.14" y1="241.54" x2="374.57" y2="241.54"/>
      <line class="st11" x1="342.14" y1="250" x2="374.57" y2="250"/>
      <line class="st11" x1="342.14" y1="258.46" x2="374.57" y2="258.46"/>
    </g>
    <g>
      <path class="st16" d="M428.24,212.83c-3.02-.88-7.02-1.36-11.27-1.36s-8.25.48-11.27,1.36c-3.24.95-4.96,2.22-4.96,3.7v29.47c0,1.48,1.72,2.76,4.96,3.7,3.02.88,7.01,1.36,11.27,1.36s8.25-.48,11.27-1.36c3.24-.95,4.96-2.22,4.96-3.7v-29.47c0-1.48-1.71-2.75-4.96-3.7ZM405.98,213.75c2.93-.86,6.84-1.32,11-1.32s8.07.47,11,1.32c2.67.77,4.26,1.81,4.26,2.78s-1.6,2-4.26,2.78c-2.93.85-6.84,1.32-11,1.32s-8.07-.47-11-1.32c-2.67-.78-4.26-1.81-4.26-2.78s1.6-2,4.26-2.78ZM427.97,248.77c-2.93.85-6.84,1.32-11,1.32s-8.07-.47-11-1.32c-2.67-.78-4.26-1.81-4.26-2.78v-8c.83.72,2.16,1.36,4,1.89,3.02.88,7.01,1.36,11.27,1.36s8.25-.48,11.27-1.36c1.83-.53,3.17-1.17,4-1.89v8c0,.96-1.6,2-4.26,2.77h-.02,0ZM427.97,238.95c-2.93.85-6.84,1.32-11,1.32s-8.07-.47-11-1.32c-2.67-.78-4.26-1.81-4.26-2.78v-8.01c.83.72,2.16,1.36,4,1.89,3.02.88,7.01,1.36,11.27,1.36s8.25-.48,11.27-1.36c1.83-.53,3.17-1.17,4-1.89v8.01c0,.96-1.6,2-4.26,2.78h-.02,0ZM427.97,229.13c-2.93.86-6.84,1.32-11,1.32s-8.07-.47-11-1.32c-2.67-.78-4.26-1.81-4.26-2.78v-8.01c.83.72,2.16,1.36,4,1.89,3.02.88,7.01,1.36,11.27,1.36s8.25-.48,11.27-1.36c1.83-.53,3.17-1.17,4-1.89v8.01c0,.96-1.6,2-4.26,2.77h-.02,0ZM408.43,223.23c-1.13,0-2.06.92-2.06,2.06s.92,2.06,2.06,2.06,2.06-.92,2.06-2.06-.92-2.06-2.06-2.06ZM408.43,226.38c-.6,0-1.09-.49-1.09-1.09s.49-1.09,1.09-1.09,1.09.49,1.09,1.09-.49,1.09-1.09,1.09ZM408.43,232.95c-1.13,0-2.06.92-2.06,2.06s.92,2.06,2.06,2.06,2.06-.92,2.06-2.06-.92-2.06-2.06-2.06ZM408.43,236.1c-.6,0-1.09-.49-1.09-1.09s.49-1.09,1.09-1.09,1.09.49,1.09,1.09-.49,1.09-1.09,1.09ZM408.43,242.67c-1.13,0-2.06.92-2.06,2.06s.92,2.06,2.06,2.06,2.06-.92,2.06-2.06-.92-2.06-2.06-2.06ZM408.43,245.82c-.6,0-1.09-.49-1.09-1.09s.49-1.09,1.09-1.09,1.09.49,1.09,1.09-.49,1.09-1.09,1.09Z"/>
      <line class="st11" x1="417.29" y1="250.89" x2="417.29" y2="259"/>
      <rect class="st11" x="389.7" y="267.84" width="13.76" height="11.27"/>
      <g>
        <rect class="st11" x="431.12" y="267.85" width="13.76" height="11.27"/>
        <polyline class="st11" points="437.99 267.4 437.99 259.44 396.58 259.44 396.58 267.4"/>
      </g>
    </g>
    <polygon class="st11" points="428.8 199.84 395.79 199.84 395.79 172.98 406.83 172.98 412.3 179.56 428.8 179.56 428.8 199.84"/>
    <g>
      <g>
        <rect class="st11" x="370.81" y="186.09" width="11.27" height="13.76"/>
        <rect class="st11" x="370.82" y="144.68" width="11.27" height="13.76"/>
        <polyline class="st11" points="370.37 151.56 362.41 151.56 362.41 192.97 370.37 192.97"/>
        <rect class="st11" x="342.33" y="165.38" width="11.27" height="13.76"/>
        <line class="st11" x1="362.41" y1="172.26" x2="353.6" y2="172.26"/>
      </g>
      <rect class="st11" x="370.81" y="165.39" width="11.27" height="13.76"/>
    </g>
  </g>
  <circle class="st0" cx="1065.43" cy="262.32" r="5.71"/>
  <g>
    <path class="st0" d="M617.74,491.57v-16.01h10.49v1.78h-8.5v5.16h8.33v1.78h-8.33v7.3h-1.99Z"/>
    <path class="st0" d="M635.91,479.69c3.5,0,5.57,2.74,5.57,6.22v.46h-9.38c.14,2.18,1.68,4.01,4.18,4.01,1.32,0,2.67-.53,3.58-1.46l.86,1.18c-1.15,1.15-2.71,1.78-4.61,1.78-3.43,0-5.9-2.47-5.9-6.1,0-3.36,2.4-6.07,5.71-6.07v-.02ZM632.09,485.04h7.61c-.02-1.73-1.18-3.86-3.82-3.86-2.47,0-3.7,2.09-3.79,3.86Z"/>
    <path class="st0" d="M652.78,491.57v-1.73c-.86,1.18-2.28,2.02-3.91,2.02-3.02,0-5.16-2.3-5.16-6.07s2.11-6.1,5.16-6.1c1.56,0,2.98.77,3.91,2.04v-6.17h1.8v16.01h-1.8ZM652.78,483.17c-.65-1.01-2.04-1.87-3.48-1.87-2.33,0-3.72,1.92-3.72,4.49s1.39,4.46,3.72,4.46c1.44,0,2.83-.82,3.48-1.82v-5.26h0Z"/>
    <path class="st0" d="M663.22,479.69c3.5,0,5.57,2.74,5.57,6.22v.46h-9.38c.14,2.18,1.68,4.01,4.18,4.01,1.32,0,2.67-.53,3.58-1.46l.86,1.18c-1.15,1.15-2.71,1.78-4.61,1.78-3.43,0-5.9-2.47-5.9-6.1,0-3.36,2.4-6.07,5.71-6.07v-.02ZM659.41,485.04h7.61c-.02-1.73-1.18-3.86-3.82-3.86-2.47,0-3.7,2.09-3.79,3.86Z"/>
    <path class="st0" d="M671.69,491.57v-11.59h1.8v1.87c.94-1.22,2.28-2.11,3.86-2.11v1.85c-.22-.05-.43-.07-.72-.07-1.1,0-2.62.91-3.14,1.85v8.21h-1.8Z"/>
    <path class="st0" d="M686.86,491.57v-1.32c-.96,1.06-2.28,1.61-3.84,1.61-1.97,0-4.06-1.32-4.06-3.84s2.09-3.82,4.06-3.82c1.58,0,2.9.5,3.84,1.58v-2.09c0-1.56-1.25-2.45-2.93-2.45-1.39,0-2.52.51-3.55,1.61l-.84-1.25c1.25-1.3,2.74-1.92,4.63-1.92,2.45,0,4.49,1.1,4.49,3.91v7.97h-1.8ZM686.86,486.94c-.7-.96-1.92-1.44-3.19-1.44-1.68,0-2.86,1.05-2.86,2.54s1.18,2.52,2.86,2.52c1.27,0,2.5-.48,3.19-1.44v-2.18Z"/>
    <path class="st0" d="M692.62,489.15v-7.59h-1.92v-1.58h1.92v-3.17h1.8v3.17h2.35v1.58h-2.35v7.2c0,.86.38,1.49,1.18,1.49.5,0,.98-.22,1.22-.48l.53,1.34c-.46.43-1.1.74-2.16.74-1.7,0-2.57-.98-2.57-2.71h0Z"/>
    <path class="st0" d="M704.36,479.69c3.5,0,5.57,2.74,5.57,6.22v.46h-9.38c.14,2.18,1.68,4.01,4.18,4.01,1.32,0,2.67-.53,3.58-1.46l.86,1.18c-1.15,1.15-2.71,1.78-4.61,1.78-3.43,0-5.9-2.47-5.9-6.1,0-3.36,2.4-6.07,5.71-6.07v-.02ZM700.54,485.04h7.61c-.02-1.73-1.18-3.86-3.82-3.86-2.47,0-3.7,2.09-3.79,3.86Z"/>
    <path class="st0" d="M721.23,491.57v-1.73c-.86,1.18-2.28,2.02-3.91,2.02-3.02,0-5.16-2.3-5.16-6.07s2.11-6.1,5.16-6.1c1.56,0,2.98.77,3.91,2.04v-6.17h1.8v16.01h-1.8ZM721.23,483.17c-.65-1.01-2.04-1.87-3.48-1.87-2.33,0-3.72,1.92-3.72,4.49s1.39,4.46,3.72,4.46c1.44,0,2.83-.82,3.48-1.82v-5.26h0Z"/>
    <path class="st0" d="M732.82,491.57v-11.59h1.8v1.87c.94-1.22,2.28-2.11,3.86-2.11v1.85c-.22-.05-.43-.07-.72-.07-1.1,0-2.62.91-3.14,1.85v8.21h-1.8Z"/>
    <path class="st0" d="M745.78,479.69c3.5,0,5.57,2.74,5.57,6.22v.46h-9.38c.14,2.18,1.68,4.01,4.18,4.01,1.32,0,2.67-.53,3.58-1.46l.86,1.18c-1.15,1.15-2.71,1.78-4.61,1.78-3.43,0-5.9-2.47-5.9-6.1,0-3.36,2.4-6.07,5.71-6.07v-.02ZM741.97,485.04h7.61c-.02-1.73-1.18-3.86-3.82-3.86-2.47,0-3.7,2.09-3.79,3.86Z"/>
    <path class="st0" d="M756.05,495.99h-1.8v-16.01h1.8v1.73c.84-1.18,2.28-2.02,3.91-2.02,3.05,0,5.16,2.3,5.16,6.07s-2.11,6.1-5.16,6.1c-1.58,0-2.98-.74-3.91-2.04v6.17h0ZM759.51,481.3c-1.42,0-2.83.84-3.46,1.85v5.23c.62,1.01,2.04,1.87,3.46,1.87,2.33,0,3.72-1.92,3.72-4.49s-1.39-4.46-3.72-4.46h0Z"/>
    <path class="st0" d="M767.36,485.76c0-3.36,2.21-6.07,5.74-6.07s5.74,2.71,5.74,6.07-2.21,6.1-5.74,6.1-5.74-2.74-5.74-6.1ZM776.94,485.76c0-2.35-1.37-4.46-3.84-4.46s-3.86,2.11-3.86,4.46,1.39,4.49,3.86,4.49,3.84-2.11,3.84-4.49Z"/>
    <path class="st0" d="M781.69,488.74c.77.89,2.23,1.66,3.82,1.66,1.78,0,2.74-.79,2.74-1.92,0-1.27-1.42-1.68-2.98-2.06-1.97-.46-4.2-.98-4.2-3.38,0-1.8,1.56-3.34,4.32-3.34,1.97,0,3.36.74,4.3,1.68l-.84,1.25c-.7-.84-1.97-1.46-3.46-1.46-1.58,0-2.57.72-2.57,1.75,0,1.13,1.32,1.49,2.83,1.85,2.02.46,4.34,1.03,4.34,3.6,0,1.94-1.56,3.5-4.56,3.5-1.9,0-3.5-.58-4.68-1.82l.94-1.29v-.02Z"/>
    <path class="st0" d="M792.61,476.81c0-.67.55-1.2,1.2-1.2s1.22.53,1.22,1.2-.55,1.22-1.22,1.22-1.2-.55-1.2-1.22ZM792.92,491.57v-11.59h1.8v11.59h-1.8Z"/>
    <path class="st0" d="M798.68,489.15v-7.59h-1.92v-1.58h1.92v-3.17h1.8v3.17h2.35v1.58h-2.35v7.2c0,.86.38,1.49,1.18,1.49.5,0,.98-.22,1.22-.48l.53,1.34c-.46.43-1.1.74-2.16.74-1.7,0-2.57-.98-2.57-2.71h0Z"/>
    <path class="st0" d="M804.7,485.76c0-3.36,2.21-6.07,5.74-6.07s5.74,2.71,5.74,6.07-2.21,6.1-5.74,6.1-5.74-2.74-5.74-6.1ZM814.28,485.76c0-2.35-1.37-4.46-3.84-4.46s-3.86,2.11-3.86,4.46,1.39,4.49,3.86,4.49,3.84-2.11,3.84-4.49Z"/>
    <path class="st0" d="M819.1,491.57v-11.59h1.8v1.87c.94-1.22,2.28-2.11,3.86-2.11v1.85c-.22-.05-.43-.07-.72-.07-1.1,0-2.62.91-3.14,1.85v8.21h-1.8Z"/>
    <path class="st0" d="M826.66,494.48c.26.12.7.19.98.19.79,0,1.32-.26,1.73-1.22l.77-1.75-4.85-11.71h1.94l3.86,9.51,3.84-9.51h1.97l-5.81,13.95c-.7,1.68-1.87,2.33-3.41,2.35-.38,0-.98-.07-1.32-.17l.29-1.63h.01Z"/>
    <path class="st0" d="M839.74,479.81c.72,0,1.32.6,1.32,1.32s-.6,1.32-1.32,1.32-1.32-.6-1.32-1.32.6-1.32,1.32-1.32ZM839.74,489.17c.72,0,1.32.6,1.32,1.32s-.6,1.32-1.32,1.32-1.32-.6-1.32-1.32.6-1.32,1.32-1.32Z"/>
    <path class="st0" d="M617.6,514.56c0-1.42,1.18-2.59,2.59-2.59s2.59,1.18,2.59,2.59-1.18,2.57-2.59,2.57-2.59-1.18-2.59-2.57Z"/>
    <path class="st0" d="M643.86,520.37l-9.34-12.91v12.91h-1.99v-16.01h2.04l9.22,12.65v-12.65h1.99v16.01h-1.92,0Z"/>
    <path class="st0" d="M656.7,520.37v-1.32c-.96,1.06-2.28,1.61-3.84,1.61-1.97,0-4.06-1.32-4.06-3.84s2.09-3.81,4.06-3.81c1.58,0,2.9.5,3.84,1.58v-2.09c0-1.56-1.25-2.45-2.93-2.45-1.39,0-2.52.5-3.55,1.61l-.84-1.25c1.25-1.29,2.74-1.92,4.63-1.92,2.45,0,4.49,1.1,4.49,3.91v7.97h-1.8ZM656.7,515.74c-.7-.96-1.92-1.44-3.19-1.44-1.68,0-2.86,1.06-2.86,2.54s1.18,2.52,2.86,2.52c1.27,0,2.5-.48,3.19-1.44v-2.19h0Z"/>
    <path class="st0" d="M662.45,517.95v-7.58h-1.92v-1.58h1.92v-3.17h1.8v3.17h2.35v1.58h-2.35v7.2c0,.87.38,1.49,1.18,1.49.5,0,.98-.21,1.22-.48l.53,1.34c-.46.43-1.1.74-2.16.74-1.7,0-2.57-.98-2.57-2.71Z"/>
    <path class="st0" d="M676.98,520.37v-1.63c-.89,1.01-2.4,1.92-4.13,1.92-2.42,0-3.7-1.18-3.7-3.7v-8.18h1.8v7.63c0,2.04,1.03,2.64,2.59,2.64,1.42,0,2.76-.81,3.43-1.75v-8.52h1.8v11.59h-1.8.01Z"/>
    <path class="st0" d="M682.37,520.37v-11.59h1.8v1.87c.94-1.22,2.28-2.11,3.86-2.11v1.85c-.22-.05-.43-.07-.72-.07-1.1,0-2.62.91-3.14,1.85v8.21h-1.8Z"/>
    <path class="st0" d="M697.54,520.37v-1.32c-.96,1.06-2.28,1.61-3.84,1.61-1.97,0-4.06-1.32-4.06-3.84s2.09-3.81,4.06-3.81c1.58,0,2.9.5,3.84,1.58v-2.09c0-1.56-1.25-2.45-2.93-2.45-1.39,0-2.52.5-3.55,1.61l-.84-1.25c1.25-1.29,2.74-1.92,4.63-1.92,2.45,0,4.49,1.1,4.49,3.91v7.97h-1.8ZM697.54,515.74c-.7-.96-1.92-1.44-3.19-1.44-1.68,0-2.86,1.06-2.86,2.54s1.18,2.52,2.86,2.52c1.27,0,2.5-.48,3.19-1.44v-2.19h0Z"/>
    <path class="st0" d="M702.94,520.37v-16.01h1.8v16.01h-1.8Z"/>
    <path class="st0" d="M707.26,515.36v-1.58h5.76v1.58h-5.76Z"/>
    <path class="st0" d="M715.54,520.37v-16.01h1.8v16.01h-1.8Z"/>
    <path class="st0" d="M728.19,520.37v-1.32c-.96,1.06-2.28,1.61-3.84,1.61-1.97,0-4.06-1.32-4.06-3.84s2.09-3.81,4.06-3.81c1.58,0,2.9.5,3.84,1.58v-2.09c0-1.56-1.25-2.45-2.93-2.45-1.39,0-2.52.5-3.55,1.61l-.84-1.25c1.25-1.29,2.74-1.92,4.63-1.92,2.45,0,4.49,1.1,4.49,3.91v7.97h-1.8ZM728.19,515.74c-.7-.96-1.92-1.44-3.19-1.44-1.68,0-2.86,1.06-2.86,2.54s1.18,2.52,2.86,2.52c1.27,0,2.5-.48,3.19-1.44v-2.19h0Z"/>
    <path class="st0" d="M741.42,520.37v-7.58c0-2.04-1.03-2.69-2.59-2.69-1.42,0-2.76.86-3.43,1.8v8.47h-1.8v-11.59h1.8v1.68c.82-.96,2.4-1.97,4.13-1.97,2.42,0,3.7,1.22,3.7,3.74v8.14h-1.81Z"/>
    <path class="st0" d="M747.7,522c.96,1.15,2.11,1.58,3.77,1.58,1.92,0,3.72-.94,3.72-3.48v-1.66c-.84,1.18-2.26,2.06-3.89,2.06-3.02,0-5.16-2.26-5.16-6s2.11-6.03,5.16-6.03c1.56,0,2.95.77,3.89,2.04v-1.75h1.8v11.26c0,3.84-2.69,5.04-5.52,5.04-1.97,0-3.31-.38-4.68-1.73l.91-1.34h0ZM755.19,511.97c-.62-1.01-2.02-1.87-3.46-1.87-2.33,0-3.72,1.85-3.72,4.42s1.39,4.42,3.72,4.42c1.44,0,2.83-.89,3.46-1.9v-5.06h0Z"/>
    <path class="st0" d="M768.42,520.37v-1.63c-.89,1.01-2.4,1.92-4.13,1.92-2.42,0-3.7-1.18-3.7-3.7v-8.18h1.8v7.63c0,2.04,1.03,2.64,2.59,2.64,1.42,0,2.76-.81,3.43-1.75v-8.52h1.8v11.59h-1.8.01Z"/>
    <path class="st0" d="M781.06,520.37v-1.32c-.96,1.06-2.28,1.61-3.84,1.61-1.97,0-4.06-1.32-4.06-3.84s2.09-3.81,4.06-3.81c1.58,0,2.9.5,3.84,1.58v-2.09c0-1.56-1.25-2.45-2.93-2.45-1.39,0-2.52.5-3.55,1.61l-.84-1.25c1.25-1.29,2.74-1.92,4.63-1.92,2.45,0,4.49,1.1,4.49,3.91v7.97h-1.8ZM781.06,515.74c-.7-.96-1.92-1.44-3.19-1.44-1.68,0-2.86,1.06-2.86,2.54s1.18,2.52,2.86,2.52c1.27,0,2.5-.48,3.19-1.44v-2.19h0Z"/>
    <path class="st0" d="M787.35,522c.96,1.15,2.11,1.58,3.77,1.58,1.92,0,3.72-.94,3.72-3.48v-1.66c-.84,1.18-2.26,2.06-3.89,2.06-3.02,0-5.16-2.26-5.16-6s2.11-6.03,5.16-6.03c1.56,0,2.95.77,3.89,2.04v-1.75h1.8v11.26c0,3.84-2.69,5.04-5.52,5.04-1.97,0-3.31-.38-4.68-1.73l.91-1.34h0ZM794.84,511.97c-.62-1.01-2.02-1.87-3.46-1.87-2.33,0-3.72,1.85-3.72,4.42s1.39,4.42,3.72,4.42c1.44,0,2.83-.89,3.46-1.9v-5.06h0Z"/>
    <path class="st0" d="M805.28,508.49c3.5,0,5.57,2.74,5.57,6.22v.46h-9.38c.14,2.18,1.68,4.01,4.18,4.01,1.32,0,2.67-.53,3.58-1.46l.86,1.18c-1.15,1.15-2.71,1.78-4.61,1.78-3.43,0-5.9-2.47-5.9-6.1,0-3.36,2.4-6.07,5.71-6.07v-.02ZM801.46,513.84h7.61c-.02-1.73-1.18-3.87-3.82-3.87-2.47,0-3.7,2.09-3.79,3.87Z"/>
    <path class="st0" d="M830.12,524.79h-1.8v-6.17c-.94,1.3-2.33,2.04-3.89,2.04-3.05,0-5.16-2.35-5.16-6.1s2.11-6.07,5.16-6.07c1.63,0,3.05.84,3.89,2.02v-1.73h1.8v16.01ZM828.32,511.95c-.62-1.01-2.02-1.85-3.46-1.85-2.33,0-3.72,1.89-3.72,4.46s1.39,4.49,3.72,4.49c1.44,0,2.83-.86,3.46-1.87v-5.23h0Z"/>
    <path class="st0" d="M841.54,520.37v-1.63c-.89,1.01-2.4,1.92-4.13,1.92-2.42,0-3.7-1.18-3.7-3.7v-8.18h1.8v7.63c0,2.04,1.03,2.64,2.59,2.64,1.42,0,2.76-.81,3.43-1.75v-8.52h1.8v11.59h-1.8.01Z"/>
    <path class="st0" d="M851.98,508.49c3.5,0,5.57,2.74,5.57,6.22v.46h-9.38c.14,2.18,1.68,4.01,4.18,4.01,1.32,0,2.67-.53,3.58-1.46l.86,1.18c-1.15,1.15-2.71,1.78-4.61,1.78-3.43,0-5.9-2.47-5.9-6.1,0-3.36,2.4-6.07,5.71-6.07v-.02ZM848.17,513.84h7.61c-.02-1.73-1.18-3.87-3.82-3.87-2.47,0-3.7,2.09-3.79,3.87Z"/>
    <path class="st0" d="M860.45,520.37v-11.59h1.8v1.87c.94-1.22,2.28-2.11,3.86-2.11v1.85c-.22-.05-.43-.07-.72-.07-1.1,0-2.62.91-3.14,1.85v8.21h-1.8Z"/>
    <path class="st0" d="M868.01,523.28c.26.12.7.19.98.19.79,0,1.32-.27,1.73-1.22l.77-1.75-4.85-11.71h1.94l3.86,9.5,3.84-9.5h1.97l-5.81,13.95c-.7,1.68-1.87,2.33-3.41,2.35-.38,0-.98-.07-1.32-.17l.29-1.63h.01Z"/>
    <path class="st0" d="M879.82,505.61c0-.67.55-1.2,1.2-1.2s1.22.53,1.22,1.2-.55,1.22-1.22,1.22-1.2-.55-1.2-1.22ZM880.13,520.37v-11.59h1.8v11.59h-1.8Z"/>
    <path class="st0" d="M893.36,520.37v-7.58c0-2.04-1.03-2.69-2.59-2.69-1.42,0-2.76.86-3.43,1.8v8.47h-1.8v-11.59h1.8v1.68c.82-.96,2.4-1.97,4.13-1.97,2.42,0,3.7,1.22,3.7,3.74v8.14h-1.81Z"/>
    <path class="st0" d="M899.65,522c.96,1.15,2.11,1.58,3.77,1.58,1.92,0,3.72-.94,3.72-3.48v-1.66c-.84,1.18-2.26,2.06-3.89,2.06-3.02,0-5.16-2.26-5.16-6s2.11-6.03,5.16-6.03c1.56,0,2.95.77,3.89,2.04v-1.75h1.8v11.26c0,3.84-2.69,5.04-5.52,5.04-1.97,0-3.31-.38-4.68-1.73l.91-1.34h0ZM907.13,511.97c-.62-1.01-2.02-1.87-3.46-1.87-2.33,0-3.72,1.85-3.72,4.42s1.39,4.42,3.72,4.42c1.44,0,2.83-.89,3.46-1.9v-5.06h0Z"/>
    <path class="st0" d="M617.6,543.36c0-1.42,1.18-2.59,2.59-2.59s2.59,1.18,2.59,2.59-1.18,2.57-2.59,2.57-2.59-1.18-2.59-2.57Z"/>
    <path class="st0" d="M632.53,549.17v-16.01h5.47c4.97,0,8.21,3.48,8.21,8.02s-3.24,7.99-8.21,7.99h-5.47ZM634.52,547.39h3.48c3.89,0,6.14-2.78,6.14-6.22s-2.18-6.24-6.14-6.24h-3.48v12.46h0Z"/>
    <path class="st0" d="M648.94,534.41c0-.67.55-1.2,1.2-1.2s1.22.53,1.22,1.2-.55,1.22-1.22,1.22-1.2-.55-1.2-1.22ZM649.25,549.17v-11.59h1.8v11.59h-1.8Z"/>
    <path class="st0" d="M655.16,549.17v-10.01h-1.92v-1.58h1.92v-.89c0-2.4,1.34-3.77,3.36-3.77.67,0,1.3.12,1.75.41l-.46,1.34c-.29-.17-.62-.26-1.03-.26-1.18,0-1.82.82-1.82,2.28v.89h2.35v1.58h-2.35v10.01h-1.8,0ZM661.95,549.17v-10.01h-1.92v-1.58h1.92v-.89c0-2.4,1.34-3.77,3.36-3.77.67,0,1.3.12,1.75.41l-.46,1.34c-.29-.17-.62-.26-1.03-.26-1.18,0-1.82.82-1.82,2.28v.89h2.35v1.58h-2.35v10.01h-1.8,0Z"/>
    <path class="st0" d="M673.28,537.29c3.5,0,5.57,2.74,5.57,6.22v.46h-9.38c.14,2.18,1.68,4.01,4.18,4.01,1.32,0,2.67-.53,3.58-1.46l.86,1.18c-1.15,1.15-2.71,1.78-4.61,1.78-3.43,0-5.9-2.47-5.9-6.1,0-3.36,2.4-6.07,5.71-6.07v-.02ZM669.46,542.64h7.61c-.02-1.73-1.18-3.86-3.82-3.86-2.47,0-3.7,2.09-3.79,3.86Z"/>
    <path class="st0" d="M681.75,549.17v-11.59h1.8v1.87c.94-1.22,2.28-2.11,3.86-2.11v1.85c-.22-.05-.43-.07-.72-.07-1.1,0-2.62.91-3.14,1.85v8.21h-1.8Z"/>
    <path class="st0" d="M694.71,537.29c3.5,0,5.57,2.74,5.57,6.22v.46h-9.38c.14,2.18,1.68,4.01,4.18,4.01,1.32,0,2.67-.53,3.58-1.46l.86,1.18c-1.15,1.15-2.71,1.78-4.61,1.78-3.43,0-5.9-2.47-5.9-6.1,0-3.36,2.4-6.07,5.71-6.07v-.02ZM690.89,542.64h7.61c-.02-1.73-1.18-3.86-3.82-3.86-2.47,0-3.7,2.09-3.79,3.86Z"/>
    <path class="st0" d="M711.01,549.17v-7.59c0-2.04-1.03-2.69-2.59-2.69-1.42,0-2.76.86-3.43,1.8v8.47h-1.8v-11.59h1.8v1.68c.82-.96,2.4-1.97,4.13-1.97,2.42,0,3.7,1.22,3.7,3.74v8.14h-1.81Z"/>
    <path class="st0" d="M716.77,546.75v-7.59h-1.92v-1.58h1.92v-3.17h1.8v3.17h2.35v1.58h-2.35v7.2c0,.86.38,1.49,1.18,1.49.5,0,.98-.22,1.22-.48l.53,1.34c-.46.43-1.1.74-2.16.74-1.7,0-2.57-.98-2.57-2.71h0Z"/>
    <path class="st0" d="M738.06,549.17v-1.73c-.86,1.18-2.28,2.02-3.91,2.02-3.02,0-5.16-2.3-5.16-6.07s2.11-6.1,5.16-6.1c1.56,0,2.98.77,3.91,2.04v-6.17h1.8v16.01h-1.8ZM738.06,540.77c-.65-1.01-2.04-1.87-3.48-1.87-2.33,0-3.72,1.92-3.72,4.49s1.39,4.46,3.72,4.46c1.44,0,2.83-.82,3.48-1.82v-5.26Z"/>
    <path class="st0" d="M750.7,549.17v-1.32c-.96,1.06-2.28,1.61-3.84,1.61-1.97,0-4.06-1.32-4.06-3.84s2.09-3.82,4.06-3.82c1.58,0,2.9.5,3.84,1.58v-2.09c0-1.56-1.25-2.45-2.93-2.45-1.39,0-2.52.51-3.55,1.61l-.84-1.25c1.25-1.3,2.74-1.92,4.63-1.92,2.45,0,4.49,1.1,4.49,3.91v7.97h-1.8ZM750.7,544.54c-.7-.96-1.92-1.44-3.19-1.44-1.68,0-2.86,1.05-2.86,2.54s1.18,2.52,2.86,2.52c1.27,0,2.5-.48,3.19-1.44v-2.18Z"/>
    <path class="st0" d="M756.46,546.75v-7.59h-1.92v-1.58h1.92v-3.17h1.8v3.17h2.35v1.58h-2.35v7.2c0,.86.38,1.49,1.18,1.49.5,0,.98-.22,1.22-.48l.53,1.34c-.46.43-1.1.74-2.16.74-1.7,0-2.57-.98-2.57-2.71h0Z"/>
    <path class="st0" d="M770.41,549.17v-1.32c-.96,1.06-2.28,1.61-3.84,1.61-1.97,0-4.06-1.32-4.06-3.84s2.09-3.82,4.06-3.82c1.58,0,2.9.5,3.84,1.58v-2.09c0-1.56-1.25-2.45-2.93-2.45-1.39,0-2.52.51-3.55,1.61l-.84-1.25c1.25-1.3,2.74-1.92,4.63-1.92,2.45,0,4.49,1.1,4.49,3.91v7.97h-1.8ZM770.41,544.54c-.7-.96-1.92-1.44-3.19-1.44-1.68,0-2.86,1.05-2.86,2.54s1.18,2.52,2.86,2.52c1.27,0,2.5-.48,3.19-1.44v-2.18Z"/>
    <path class="st0" d="M784.3,539.16v10.01h-1.8v-10.01h-1.92v-1.58h1.92v-.89c0-2.4,1.34-3.77,3.36-3.77.67,0,1.3.12,1.75.41l-.46,1.34c-.29-.17-.62-.26-1.03-.26-1.18,0-1.82.82-1.82,2.28v.89h2.35v1.58h-2.35,0Z"/>
    <path class="st0" d="M788.12,543.36c0-3.36,2.21-6.07,5.74-6.07s5.74,2.71,5.74,6.07-2.21,6.1-5.74,6.1-5.74-2.74-5.74-6.1ZM797.7,543.36c0-2.35-1.37-4.46-3.84-4.46s-3.86,2.11-3.86,4.46,1.39,4.49,3.86,4.49,3.84-2.11,3.84-4.49Z"/>
    <path class="st0" d="M802.52,549.17v-11.59h1.8v1.87c.94-1.22,2.28-2.11,3.86-2.11v1.85c-.22-.05-.43-.07-.72-.07-1.1,0-2.62.91-3.14,1.85v8.21h-1.8Z"/>
    <path class="st0" d="M824.43,549.17v-7.87c0-1.46-.65-2.4-2.14-2.4-1.2,0-2.47.86-3.07,1.78v8.5h-1.8v-7.87c0-1.46-.62-2.4-2.14-2.4-1.18,0-2.42.86-3.05,1.8v8.47h-1.8v-11.59h1.8v1.68c.48-.74,2.04-1.97,3.74-1.97s2.78.96,3.12,2.16c.65-1.06,2.21-2.16,3.89-2.16,2.11,0,3.24,1.18,3.24,3.5v8.38h-1.8.01Z"/>
    <path class="st0" d="M837.08,549.17v-1.32c-.96,1.06-2.28,1.61-3.84,1.61-1.97,0-4.06-1.32-4.06-3.84s2.09-3.82,4.06-3.82c1.58,0,2.9.5,3.84,1.58v-2.09c0-1.56-1.25-2.45-2.93-2.45-1.39,0-2.52.51-3.55,1.61l-.84-1.25c1.25-1.3,2.74-1.92,4.63-1.92,2.45,0,4.49,1.1,4.49,3.91v7.97h-1.8ZM837.08,544.54c-.7-.96-1.92-1.44-3.19-1.44-1.68,0-2.86,1.05-2.86,2.54s1.18,2.52,2.86,2.52c1.27,0,2.5-.48,3.19-1.44v-2.18Z"/>
    <path class="st0" d="M842.84,546.75v-7.59h-1.92v-1.58h1.92v-3.17h1.8v3.17h2.35v1.58h-2.35v7.2c0,.86.38,1.49,1.18,1.49.5,0,.98-.22,1.22-.48l.53,1.34c-.46.43-1.1.74-2.16.74-1.7,0-2.57-.98-2.57-2.71h0Z"/>
    <path class="st0" d="M849.46,546.34c.77.89,2.23,1.66,3.82,1.66,1.78,0,2.74-.79,2.74-1.92,0-1.27-1.42-1.68-2.98-2.06-1.97-.46-4.2-.98-4.2-3.38,0-1.8,1.56-3.34,4.32-3.34,1.97,0,3.36.74,4.3,1.68l-.84,1.25c-.7-.84-1.97-1.46-3.46-1.46-1.58,0-2.57.72-2.57,1.75,0,1.13,1.32,1.49,2.83,1.85,2.02.46,4.34,1.03,4.34,3.6,0,1.94-1.56,3.5-4.56,3.5-1.9,0-3.5-.58-4.68-1.82l.94-1.29v-.02Z"/>
    <path class="st0" d="M617.6,572.16c0-1.42,1.18-2.59,2.59-2.59s2.59,1.18,2.59,2.59-1.18,2.57-2.59,2.57-2.59-1.18-2.59-2.57Z"/>
    <path class="st0" d="M631.88,569.98c0-4.92,3.62-8.28,8.16-8.28,2.9,0,4.87,1.37,6.14,3.17l-1.68.94c-.91-1.34-2.57-2.33-4.46-2.33-3.43,0-6.1,2.69-6.1,6.5s2.66,6.51,6.1,6.51c1.9,0,3.55-.96,4.46-2.33l1.7.94c-1.34,1.82-3.26,3.17-6.17,3.17-4.54,0-8.16-3.36-8.16-8.28h0Z"/>
    <path class="st0" d="M648.01,572.16c0-3.36,2.21-6.07,5.74-6.07s5.74,2.71,5.74,6.07-2.21,6.1-5.74,6.1-5.74-2.74-5.74-6.1ZM657.58,572.16c0-2.35-1.37-4.46-3.84-4.46s-3.86,2.11-3.86,4.46,1.39,4.49,3.86,4.49,3.84-2.11,3.84-4.49Z"/>
    <path class="st0" d="M670.23,577.97v-7.59c0-2.04-1.03-2.69-2.59-2.69-1.42,0-2.76.86-3.43,1.8v8.47h-1.8v-11.59h1.8v1.68c.82-.96,2.4-1.97,4.13-1.97,2.42,0,3.7,1.22,3.7,3.74v8.14h-1.81Z"/>
    <path class="st0" d="M683.46,577.97v-7.59c0-2.04-1.03-2.69-2.59-2.69-1.42,0-2.76.86-3.43,1.8v8.47h-1.8v-11.59h1.8v1.68c.82-.96,2.4-1.97,4.13-1.97,2.42,0,3.7,1.22,3.7,3.74v8.14h-1.81Z"/>
    <path class="st0" d="M693.89,566.09c3.5,0,5.57,2.74,5.57,6.22v.46h-9.38c.14,2.18,1.68,4.01,4.18,4.01,1.32,0,2.67-.53,3.58-1.46l.86,1.18c-1.15,1.15-2.71,1.78-4.61,1.78-3.43,0-5.9-2.47-5.9-6.1,0-3.36,2.4-6.07,5.71-6.07v-.02ZM690.08,571.44h7.61c-.02-1.73-1.18-3.86-3.82-3.86-2.47,0-3.7,2.09-3.79,3.86Z"/>
    <path class="st0" d="M707.48,566.09c2.11,0,3.36.86,4.25,2.02l-1.2,1.1c-.77-1.05-1.75-1.51-2.95-1.51-2.47,0-4.01,1.9-4.01,4.46s1.54,4.49,4.01,4.49c1.2,0,2.18-.48,2.95-1.51l1.2,1.1c-.89,1.15-2.14,2.02-4.25,2.02-3.46,0-5.79-2.64-5.79-6.1s2.33-6.07,5.79-6.07Z"/>
    <path class="st0" d="M714.61,575.55v-7.59h-1.92v-1.58h1.92v-3.17h1.8v3.17h2.35v1.58h-2.35v7.2c0,.86.38,1.49,1.18,1.49.5,0,.98-.22,1.22-.48l.53,1.34c-.46.43-1.1.74-2.16.74-1.7,0-2.57-.98-2.57-2.71h0Z"/>
    <path class="st0" d="M727.85,575.55v-7.59h-1.92v-1.58h1.92v-3.17h1.8v3.17h2.35v1.58h-2.35v7.2c0,.86.38,1.49,1.18,1.49.5,0,.98-.22,1.22-.48l.53,1.34c-.46.43-1.1.74-2.16.74-1.7,0-2.57-.98-2.57-2.71h0Z"/>
    <path class="st0" d="M733.88,572.16c0-3.36,2.21-6.07,5.74-6.07s5.74,2.71,5.74,6.07-2.21,6.1-5.74,6.1-5.74-2.74-5.74-6.1ZM743.46,572.16c0-2.35-1.37-4.46-3.84-4.46s-3.86,2.11-3.86,4.46,1.39,4.49,3.86,4.49,3.84-2.11,3.84-4.49Z"/>
    <path class="st0" d="M754.47,577.97v-16.01h1.8v16.01h-1.8Z"/>
    <path class="st0" d="M767.12,577.97v-1.32c-.96,1.06-2.28,1.61-3.84,1.61-1.97,0-4.06-1.32-4.06-3.84s2.09-3.82,4.06-3.82c1.58,0,2.9.5,3.84,1.58v-2.09c0-1.56-1.25-2.45-2.93-2.45-1.39,0-2.52.51-3.55,1.61l-.84-1.25c1.25-1.3,2.74-1.92,4.63-1.92,2.45,0,4.49,1.1,4.49,3.91v7.97h-1.8ZM767.12,573.34c-.7-.96-1.92-1.44-3.19-1.44-1.68,0-2.86,1.05-2.86,2.54s1.18,2.52,2.86,2.52c1.27,0,2.5-.48,3.19-1.44v-2.18Z"/>
    <path class="st0" d="M772.52,577.97v-11.59h1.8v1.87c.94-1.22,2.28-2.11,3.86-2.11v1.85c-.22-.05-.43-.07-.72-.07-1.1,0-2.62.91-3.14,1.85v8.21h-1.8Z"/>
    <path class="st0" d="M781.33,579.6c.96,1.15,2.11,1.58,3.77,1.58,1.92,0,3.72-.94,3.72-3.48v-1.66c-.84,1.18-2.26,2.06-3.89,2.06-3.02,0-5.16-2.26-5.16-6s2.11-6.02,5.16-6.02c1.56,0,2.95.77,3.89,2.04v-1.75h1.8v11.26c0,3.84-2.69,5.04-5.52,5.04-1.97,0-3.31-.38-4.68-1.73l.91-1.35h0ZM788.81,569.57c-.62-1.01-2.02-1.87-3.46-1.87-2.33,0-3.72,1.85-3.72,4.42s1.39,4.42,3.72,4.42c1.44,0,2.83-.89,3.46-1.89v-5.08Z"/>
    <path class="st0" d="M799.25,566.09c3.5,0,5.57,2.74,5.57,6.22v.46h-9.38c.14,2.18,1.68,4.01,4.18,4.01,1.32,0,2.67-.53,3.58-1.46l.86,1.18c-1.15,1.15-2.71,1.78-4.61,1.78-3.43,0-5.9-2.47-5.9-6.1,0-3.36,2.4-6.07,5.71-6.07v-.02ZM795.44,571.44h7.61c-.02-1.73-1.18-3.86-3.82-3.86-2.47,0-3.7,2.09-3.79,3.86Z"/>
    <path class="st0" d="M807.73,577.97v-11.59h1.8v1.87c.94-1.22,2.28-2.11,3.86-2.11v1.85c-.22-.05-.43-.07-.72-.07-1.1,0-2.62.91-3.14,1.85v8.21h-1.8Z"/>
    <path class="st0" d="M830.24,577.97v-1.73c-.86,1.18-2.28,2.02-3.91,2.02-3.02,0-5.16-2.3-5.16-6.07s2.11-6.1,5.16-6.1c1.56,0,2.98.77,3.91,2.04v-6.17h1.8v16.01h-1.8ZM830.24,569.57c-.65-1.01-2.04-1.87-3.48-1.87-2.33,0-3.72,1.92-3.72,4.49s1.39,4.46,3.72,4.46c1.44,0,2.83-.82,3.48-1.82v-5.26Z"/>
    <path class="st0" d="M842.89,577.97v-1.32c-.96,1.06-2.28,1.61-3.84,1.61-1.97,0-4.06-1.32-4.06-3.84s2.09-3.82,4.06-3.82c1.58,0,2.9.5,3.84,1.58v-2.09c0-1.56-1.25-2.45-2.93-2.45-1.39,0-2.52.51-3.55,1.61l-.84-1.25c1.25-1.3,2.74-1.92,4.63-1.92,2.45,0,4.49,1.1,4.49,3.91v7.97h-1.8ZM842.89,573.34c-.7-.96-1.92-1.44-3.19-1.44-1.68,0-2.86,1.05-2.86,2.54s1.18,2.52,2.86,2.52c1.27,0,2.5-.48,3.19-1.44v-2.18Z"/>
    <path class="st0" d="M848.65,575.55v-7.59h-1.92v-1.58h1.92v-3.17h1.8v3.17h2.35v1.58h-2.35v7.2c0,.86.38,1.49,1.18,1.49.5,0,.98-.22,1.22-.48l.53,1.34c-.46.43-1.1.74-2.16.74-1.7,0-2.57-.98-2.57-2.71h0Z"/>
    <path class="st0" d="M862.59,577.97v-1.32c-.96,1.06-2.28,1.61-3.84,1.61-1.97,0-4.06-1.32-4.06-3.84s2.09-3.82,4.06-3.82c1.58,0,2.9.5,3.84,1.58v-2.09c0-1.56-1.25-2.45-2.93-2.45-1.39,0-2.52.51-3.55,1.61l-.84-1.25c1.25-1.3,2.74-1.92,4.63-1.92,2.45,0,4.49,1.1,4.49,3.91v7.97h-1.8ZM862.59,573.34c-.7-.96-1.92-1.44-3.19-1.44-1.68,0-2.86,1.05-2.86,2.54s1.18,2.52,2.86,2.52c1.27,0,2.5-.48,3.19-1.44v-2.18Z"/>
    <path class="st0" d="M867.99,577.97v-16.01h1.8v6.17c.94-1.27,2.33-2.04,3.91-2.04,3.02,0,5.16,2.4,5.16,6.1s-2.14,6.07-5.16,6.07c-1.63,0-3.05-.84-3.91-2.02v1.73h-1.8ZM869.79,574.83c.62,1.01,2.04,1.82,3.46,1.82,2.35,0,3.74-1.9,3.74-4.46s-1.39-4.49-3.74-4.49c-1.42,0-2.83.86-3.46,1.87v5.26Z"/>
    <path class="st0" d="M889.04,577.97v-1.32c-.96,1.06-2.28,1.61-3.84,1.61-1.97,0-4.06-1.32-4.06-3.84s2.09-3.82,4.06-3.82c1.58,0,2.9.5,3.84,1.58v-2.09c0-1.56-1.25-2.45-2.93-2.45-1.39,0-2.52.51-3.55,1.61l-.84-1.25c1.25-1.3,2.74-1.92,4.63-1.92,2.45,0,4.49,1.1,4.49,3.91v7.97h-1.8ZM889.04,573.34c-.7-.96-1.92-1.44-3.19-1.44-1.68,0-2.86,1.05-2.86,2.54s1.18,2.52,2.86,2.52c1.27,0,2.5-.48,3.19-1.44v-2.18Z"/>
    <path class="st0" d="M894.37,575.14c.77.89,2.23,1.66,3.82,1.66,1.78,0,2.74-.79,2.74-1.92,0-1.27-1.42-1.68-2.98-2.06-1.97-.46-4.2-.98-4.2-3.38,0-1.8,1.56-3.34,4.32-3.34,1.97,0,3.36.74,4.3,1.68l-.84,1.25c-.7-.84-1.97-1.46-3.46-1.46-1.58,0-2.57.72-2.57,1.75,0,1.13,1.32,1.49,2.83,1.85,2.02.46,4.34,1.03,4.34,3.6,0,1.94-1.56,3.5-4.56,3.5-1.9,0-3.5-.58-4.68-1.82l.94-1.29v-.02Z"/>
    <path class="st0" d="M910.64,566.09c3.5,0,5.57,2.74,5.57,6.22v.46h-9.38c.14,2.18,1.68,4.01,4.18,4.01,1.32,0,2.67-.53,3.58-1.46l.86,1.18c-1.15,1.15-2.71,1.78-4.61,1.78-3.43,0-5.9-2.47-5.9-6.1,0-3.36,2.4-6.07,5.71-6.07v-.02ZM906.82,571.44h7.61c-.02-1.73-1.18-3.86-3.82-3.86-2.47,0-3.7,2.09-3.79,3.86Z"/>
    <path class="st0" d="M919.04,575.14c.77.89,2.23,1.66,3.82,1.66,1.78,0,2.74-.79,2.74-1.92,0-1.27-1.42-1.68-2.98-2.06-1.97-.46-4.2-.98-4.2-3.38,0-1.8,1.56-3.34,4.32-3.34,1.97,0,3.36.74,4.3,1.68l-.84,1.25c-.7-.84-1.97-1.46-3.46-1.46-1.58,0-2.57.72-2.57,1.75,0,1.13,1.32,1.49,2.83,1.85,2.02.46,4.34,1.03,4.34,3.6,0,1.94-1.56,3.5-4.56,3.5-1.9,0-3.5-.58-4.68-1.82l.94-1.29v-.02Z"/>
  </g>
  <g>
    <path class="st0" d="M271.92,239.62l-16.66,2.96-1.56-8.77c-.56-3.17,1.17-5.16,3.39-5.55,2.1-.37,3.73.68,4.33,2.19-.04-1.82,1.43-3.55,3.53-3.93,2.5-.44,4.79.87,5.36,4.05l1.61,9.04ZM261.32,237.84l-.79-4.45c-.21-1.2-1.12-1.81-2.19-1.62-1.02.18-1.69,1.07-1.48,2.27l.79,4.45,3.67-.65ZM268.27,236.61l-.81-4.57c-.24-1.35-1.16-2.01-2.35-1.8-1.05.19-1.82,1.1-1.57,2.49l.81,4.57,3.92-.7Z"/>
    <path class="st0" d="M252.3,224.18l-.12-3.65,10.04-.34c2.36-.08,3.94-1.43,3.85-4.07-.09-2.59-1.76-3.82-4.11-3.74l-10.04.34-.12-3.65,10.14-.35c4.21-.14,7.16,2.17,7.33,7.29.18,5.17-2.63,7.68-6.79,7.82l-10.17.35Z"/>
    <path class="st0" d="M269.04,205.58l-16.88-1.13.24-3.59,16.88,1.13-.24,3.59Z"/>
    <path class="st0" d="M269.48,198.95l-16.73-2.5.53-3.56,13.6,2.04,1.06-7.07,3.14.47-1.59,10.64Z"/>
    <path class="st0" d="M271.38,186.36l-16.28-4.61,1.82-6.42c1.44-5.1,5.69-7.72,10.6-6.33s7.13,5.84,5.68,10.94l-1.82,6.42ZM269.31,182.03l.84-2.95c.91-3.22-.88-5.76-3.63-6.54-2.88-.82-5.6.31-6.55,3.66l-.84,2.95,10.18,2.88Z"/>
    <path class="st0" d="M276.65,169.38l-15.72-6.25,1.33-3.35,15.72,6.25-1.33,3.35Z"/>
    <path class="st0" d="M284.33,152.9l-13.81,1.89,10.08,5.26-1.67,3.19-15-7.84,1.72-3.28,13.35-1.88-9.72-5.08,1.67-3.19,15,7.84-1.61,3.08Z"/>
    <path class="st0" d="M278.35,130.73c2.06-2.83,4.74-3.61,7.12-3.47l-.45,3.38c-1.43-.07-3.04.55-4.08,1.98-1.81,2.48-1.22,5.67,1.36,7.56,2.58,1.88,5.8,1.47,7.61-1.01.91-1.25,1.21-2.73,1.11-3.71l-1.66-1.21-2.66,3.65-2.5-1.82,4.75-6.52,5.23,3.81c.54,2.53.14,5.22-1.67,7.7-2.92,4-8.09,5.24-12.4,2.1-4.32-3.15-4.68-8.44-1.76-12.43Z"/>
    <path class="st0" d="M306.7,124.29l-10.77-13.05,5.14-4.25c4.09-3.37,9.07-3.11,12.32.82,3.25,3.93,2.54,8.85-1.55,12.23l-5.14,4.25ZM307.46,119.56l2.37-1.95c2.58-2.13,2.55-5.23.73-7.44-1.91-2.31-4.78-2.93-7.46-.71l-2.37,1.95,6.73,8.16Z"/>
    <path class="st0" d="M329.85,107.49l-2.44-1.92-6.43,3.97.63,3.04-3.37,2.08-3.33-17.83,3.84-2.37,14.44,10.96-3.34,2.07ZM318.48,98.3l1.69,8.08,4.77-2.95-6.45-5.13Z"/>
    <path class="st0" d="M336.35,104.18l-5.81-12.46-4.48,2.09-1.34-2.87,12.23-5.71,1.34,2.87-4.46,2.08,5.81,12.46-3.29,1.53Z"/>
    <path class="st0" d="M355.54,96.75l-1.93-2.44-7.18,2.37-.1,3.1-3.76,1.24.9-18.13,4.29-1.42,11.5,14.02-3.73,1.23ZM346.6,85.16l-.24,8.26,5.33-1.76-5.09-6.5Z"/>
    <path class="st0" d="M366.6,94.23l-2.83-16.68,3.55-.6,2.83,16.68-3.55.6Z"/>
    <path class="st0" d="M384.69,92.23l-8.79-10.81.75,11.34-3.59.24-1.11-16.88,3.7-.24,8.54,10.42-.72-10.94,3.59-.24,1.11,16.88-3.47.23Z"/>
    <path class="st0" d="M390.96,92.13l1.11-16.88,11.95.78-.2,3.09-8.35-.55-.24,3.67,8.18.54-.2,3.09-8.18-.54-.46,7.04-3.59-.24Z"/>
    <path class="st0" d="M414.32,94.98l-2.12-6.58-2.59-.5-1.15,5.96-3.54-.68,3.2-16.62,7.77,1.5c3.46.67,5.15,3.34,4.55,6.43-.57,2.94-2.71,4.16-4.59,4.23l2.52,7.05-4.06-.78ZM414.79,80.99l-3.71-.71-.88,4.58,3.71.71c1.42.27,2.66-.42,2.93-1.81.27-1.4-.63-2.5-2.05-2.77Z"/>
    <path class="st0" d="M431.58,100.1l-.07-3.11-7.16-2.43-1.95,2.42-3.75-1.27,11.63-13.93,4.28,1.45.74,18.12-3.72-1.26ZM431.43,85.47l-5.16,6.45,5.31,1.8-.15-8.25Z"/>
    <path class="st0" d="M439.03,97.63c.52,1.64,1.72,3.4,3.82,4.43,1.78.88,3.06.46,3.48-.41.56-1.14-.57-2.18-2.12-3.45-2.2-1.79-5.05-4.04-3.38-7.44,1.24-2.53,4.44-3.5,8.01-1.74,2.41,1.19,4.06,2.9,4.88,5.03l-2.96,1.48c-.67-1.74-2.05-3.08-3.53-3.8-1.46-.72-2.54-.46-2.99.45-.5,1.02.61,1.97,2.17,3.24,2.22,1.8,5.04,4.12,3.38,7.49-1.37,2.78-4.38,3.9-8.48,1.88-2.91-1.44-4.53-3.45-5.25-5.59l2.99-1.58Z"/>
    <path class="st0" d="M452.29,110.59l7.51-11.52-4.14-2.7,1.73-2.66,11.31,7.37-1.73,2.66-4.12-2.69-7.51,11.52-3.04-1.98Z"/>
    <path class="st0" d="M468.19,122.54l1.38-6.78-2.01-1.71-3.92,4.63-2.75-2.33,10.94-12.92,6.04,5.12c2.69,2.28,2.84,5.44.81,7.84-1.94,2.29-4.4,2.29-6.08,1.44l-1.26,7.38-3.16-2.67ZM475.46,110.57l-2.88-2.44-3.02,3.56,2.88,2.44c1.1.93,2.53.94,3.45-.14.92-1.08.68-2.49-.43-3.42Z"/>
    <path class="st0" d="M485.43,115.33l2.43,2.72-7.49,6.69c-1.76,1.57-2.11,3.62-.35,5.58,1.72,1.93,3.8,1.81,5.55.24l7.49-6.69,2.43,2.72-7.57,6.76c-3.14,2.8-6.88,2.92-10.3-.91-3.45-3.86-2.89-7.58.21-10.35l7.59-6.77Z"/>
    <path class="st0" d="M491.14,134.76c4.34-2.87,9.47-1.55,12.2,2.58,2.13,3.22,1.62,6.13.52,8.29l-2.98-1.74c.75-1.35.82-3.22-.21-4.79-1.62-2.46-4.82-3.02-7.49-1.25-2.67,1.76-3.4,4.93-1.78,7.38,1.04,1.57,2.76,2.25,4.32,2.07l.46,3.41c-2.43.15-5.32-.5-7.44-3.72-2.73-4.13-1.93-9.37,2.4-12.23Z"/>
    <path class="st0" d="M495.35,157.85l12.36-6.03-2.17-4.45,2.85-1.39,5.92,12.13-2.85,1.39-2.16-4.42-12.36,6.03-1.59-3.26Z"/>
    <path class="st0" d="M515.89,161.83l1.15,3.47-9.54,3.15c-2.24.74-3.38,2.48-2.55,4.98.81,2.46,2.76,3.18,5,2.44l9.54-3.15,1.15,3.47-9.64,3.19c-4,1.32-7.48-.07-9.09-4.93-1.62-4.92.37-8.11,4.32-9.42l9.66-3.19Z"/>
    <path class="st0" d="M506.86,193.61l5.38-4.34-.47-2.6-5.97,1.07-.64-3.55,16.66-2.99,1.4,7.79c.62,3.47-1.27,6-4.37,6.56-2.95.53-4.85-1.04-5.6-2.76l-5.67,4.89-.73-4.07ZM520.09,189.02l-.67-3.72-4.6.83.67,3.72c.26,1.42,1.35,2.34,2.75,2.08,1.4-.25,2.11-1.49,1.85-2.91Z"/>
    <path class="st0" d="M507.74,199.79l16.89-.89.63,11.96-3.09.16-.44-8.36-3.67.19.43,8.18-3.09.16-.43-8.18-3.93.21.44,8.36-3.12.16-.63-11.96Z"/>
  </g>
</svg>